<?xml version="1.0" standalone="no"?>
 <!DOCTYPE svg PUBLIC "-//W3C//DTD SVG 1.1//EN" 
 "http://www.w3.org/Graphics/SVG/1.1/DTD/svg11.dtd"> 
<svg
  xmlns:svg="http://www.w3.org/2000/svg"
  xmlns="http://www.w3.org/2000/svg"
  xmlns:xlink="http://www.w3.org/1999/xlink"
  version="1.1"
  width="297.0022mm" height="210.0072mm" viewBox="0.0000 0.0000 297.0022 210.0072">
<title>SVG Image created as UWU_KATZE_KOPF_CFX_PiPicoRP2040-Edge_Cuts.svg date 2023/04/16 13:21:01 </title>
  <desc>Image generated by PCBNEW </desc>
<g style="fill:#000000; fill-opacity:1.0000;stroke:#000000; stroke-opacity:1.0000;
stroke-linecap:round; stroke-linejoin:round;"
 transform="translate(0 0) scale(1 1)">
</g>
<g style="fill:#000000; fill-opacity:0.0; 
stroke:#000000; stroke-width:0.0000; stroke-opacity:1; 
stroke-linecap:round; stroke-linejoin:round;">
</g>
<g style="fill:#000000; fill-opacity:0.0; 
stroke:#000000; stroke-width:0.1500; stroke-opacity:1; 
stroke-linecap:round; stroke-linejoin:round;">
<path d="M211.3111 53.6027 A5.0000 5.0000 0.0 0 0 214.6887 52.7306" />
<path d="M85.3113 52.7306 A5.0000 5.0000 0.0 0 0 88.6889 53.6027" />
<path d="M246.6016 143.2538 A120.0000 120.0000 0.0 0 0 225.3582 143.2248" />
<path d="M224.3957 143.3090 A119.9998 119.9998 0.0 0 0 214.0167 144.6755" />
<path d="M163.1577 151.7921 A119.9999 119.9999 0.0 0 0 183.9954 149.9690" />
<path d="M116.0046 149.9690 A119.9999 119.9999 0.0 0 0 136.8423 151.7921" />
<path d="M85.9833 144.6755 A119.9998 119.9998 0.0 0 0 75.6043 143.3090" />
<path d="M74.6418 143.2248 A120.0000 120.0000 0.0 0 0 53.3984 143.2538" />
<path d="M46.6861 65.0603 A120.0000 120.0000 0.0 0 0 45.3840 133.0815" />
<path d="M53.3295 47.0123 A120.0003 120.0003 0.0 0 0 48.0884 60.6302" />
<path d="M251.9116 60.6302 A120.0002 120.0002 0.0 0 0 246.6705 47.0123" />
<path d="M254.6160 133.0815 A120.0000 120.0000 0.0 0 0 253.3139 65.0603" />
<path d="M210.0115 53.4675 A580.0000 580.0000 0.0 0 0 89.9885 53.4675" />
<circle cx="49.9405" cy="141.3569" r="1.1000" /> 
<circle cx="59.9782" cy="37.7448" r="1.1000" /> 
<path d="M136.8423 151.7921
L150.0000 151.7921
" />
<path d="M85.9833 144.6755
L116.0046 149.9690
" />
<path d="M74.6418 143.2248
L75.6043 143.3090
" />
<path d="M53.3984 143.2538
L50.1382 143.5480
" />
<path d="M47.8192 141.9401 A2.2000 2.2000 0.0 0 0 50.1382 143.5480" />
<path d="M45.3840 133.0815
L47.8192 141.9401
" />
<path d="M48.0884 60.6302
L46.6861 65.0603
" />
<path d="M53.3295 47.0123
L57.9769 36.8313
" />
<path d="M61.2367 35.9404 A2.2000 2.2000 0.0 0 0 57.9769 36.8313" />
<path d="M85.3113 52.7306
L61.2367 35.9404
" />
<path d="M88.6889 53.6027
L89.9885 53.4675
" />
<path d="M249.8618 143.5480 A2.2000 2.2000 0.0 0 0 252.1808 141.9401" />
<path d="M242.0231 36.8313 A2.2000 2.2000 0.0 0 0 238.7633 35.9404" />
<circle cx="240.0218" cy="37.7448" r="1.1000" /> 
<circle cx="250.0595" cy="141.3569" r="1.1000" /> 
<path d="M214.0167 144.6755
L183.9954 149.9690
" />
<path d="M163.1577 151.7921
L150.0000 151.7921
" />
<path d="M225.3582 143.2248
L224.3957 143.3090
" />
<path d="M246.6016 143.2538
L249.8618 143.5480
" />
<path d="M251.9116 60.6302
L253.3139 65.0603
" />
<path d="M254.6160 133.0815
L252.1808 141.9401
" />
<path d="M246.6705 47.0123
L242.0231 36.8313
" />
<path d="M211.3111 53.6027
L210.0115 53.4675
" />
<path d="M214.6887 52.7306
L238.7633 35.9404
" />
</g>
<g style="fill:#000000; fill-opacity:0.0; 
stroke:#000000; stroke-width:0.1200; stroke-opacity:1; 
stroke-linecap:round; stroke-linejoin:round;">
<path d="M245.7114 127.4317
L245.6591 124.4322
" />
<path d="M245.6591 124.4322
L242.2596 124.4915
" />
<path d="M242.3119 127.4911
L245.7114 127.4317
" />
<path d="M242.2596 124.4915
L242.3119 127.4911
" />
<path d="M225.9420 82.9128
L225.6806 79.9242
" />
<path d="M225.6806 79.9242
L222.2935 80.2205
" />
<path d="M222.5550 83.2091
L225.9420 82.9128
" />
<path d="M222.2935 80.2205
L222.5550 83.2091
" />
<path d="M105.4615 133.1697
L105.9825 130.2152
" />
<path d="M105.9825 130.2152
L102.6341 129.6248
" />
<path d="M102.1132 132.5793
L105.4615 133.1697
" />
<path d="M102.6341 129.6248
L102.1132 132.5793
" />
<path d="M193.0692 105.2154
L192.5483 102.2609
" />
<path d="M192.5483 102.2609
L189.1999 102.8513
" />
<path d="M189.7209 105.8058
L193.0692 105.2154
" />
<path d="M189.1999 102.8513
L189.7209 105.8058
" />
<path d="M187.1624 71.7350
L186.6415 68.7806
" />
<path d="M186.6415 68.7806
L183.2931 69.3710
" />
<path d="M183.8141 72.3254
L187.1624 71.7350
" />
<path d="M183.2931 69.3710
L183.8141 72.3254
" />
<path d="M227.4263 99.8422
L227.1649 96.8536
" />
<path d="M227.1649 96.8536
L223.7778 97.1500
" />
<path d="M224.0393 100.1386
L227.4263 99.8422
" />
<path d="M223.7778 97.1500
L224.0393 100.1386
" />
<path d="M66.7611 49.6518
L68.2611 47.0537
" />
<path d="M68.2611 47.0537
L65.3166 45.3537
" />
<path d="M63.8166 47.9518
L66.7611 49.6518
" />
<path d="M65.3166 45.3537
L63.8166 47.9518
" />
<path d="M244.9804 85.4537
L244.9281 82.4542
" />
<path d="M244.9281 82.4542
L241.5286 82.5135
" />
<path d="M241.5809 85.5130
L244.9804 85.4537
" />
<path d="M241.5286 82.5135
L241.5809 85.5130
" />
<path d="M116.1951 72.3123
L116.7161 69.3579
" />
<path d="M116.7161 69.3579
L113.3677 68.7675
" />
<path d="M112.8468 71.7219
L116.1951 72.3123
" />
<path d="M113.3677 68.7675
L112.8468 71.7219
" />
<path d="M204.8330 63.8448
L204.4154 60.8740
" />
<path d="M204.4154 60.8740
L201.0485 61.3472
" />
<path d="M201.4660 64.3180
L204.8330 63.8448
" />
<path d="M201.0485 61.3472
L201.4660 64.3180
" />
<path d="M190.1114 88.4800
L189.5905 85.5256
" />
<path d="M189.5905 85.5256
L186.2421 86.1160
" />
<path d="M186.7631 89.0704
L190.1114 88.4800
" />
<path d="M186.2421 86.1160
L186.7631 89.0704
" />
<path d="M207.1859 80.6758
L206.7684 77.7050
" />
<path d="M206.7684 77.7050
L203.4015 78.1782
" />
<path d="M203.8190 81.1490
L207.1859 80.6758
" />
<path d="M203.4015 78.1782
L203.8190 81.1490
" />
<path d="M129.2926 95.9487
L129.8135 92.9942
" />
<path d="M129.8135 92.9942
L126.4651 92.4038
" />
<path d="M125.9442 95.3583
L129.2926 95.9487
" />
<path d="M126.4651 92.4038
L125.9442 95.3583
" />
<path d="M96.1807 81.1483
L96.5982 78.1775
" />
<path d="M96.5982 78.1775
L93.2313 77.7043
" />
<path d="M92.8137 80.6751
L96.1807 81.1483
" />
<path d="M93.2313 77.7043
L92.8137 80.6751
" />
<path d="M98.5475 64.3092
L98.9651 61.3384
" />
<path d="M98.9651 61.3384
L95.5982 60.8653
" />
<path d="M95.1806 63.8361
L98.5475 64.3092
" />
<path d="M95.5982 60.8653
L95.1806 63.8361
" />
<path d="M236.1893 47.9546
L234.6893 45.3565
" />
<path d="M234.6893 45.3565
L231.7448 47.0565
" />
<path d="M233.2448 49.6546
L236.1893 47.9546
" />
<path d="M231.7448 47.0565
L233.2448 49.6546
" />
<path d="M197.9004 132.6080
L197.3795 129.6536
" />
<path d="M197.3795 129.6536
L194.0311 130.2440
" />
<path d="M194.5521 133.1984
L197.9004 132.6080
" />
<path d="M194.0311 130.2440
L194.5521 133.1984
" />
<path d="M132.2441 79.2093
L132.7651 76.2549
" />
<path d="M132.7651 76.2549
L129.4167 75.6645
" />
<path d="M128.8958 78.6189
L132.2441 79.2093
" />
<path d="M129.4167 75.6645
L128.8958 78.6189
" />
<path d="M58.4227 85.5058
L58.4751 82.5063
" />
<path d="M58.4751 82.5063
L55.0756 82.4470
" />
<path d="M55.0232 85.4465
L58.4227 85.5058
" />
<path d="M55.0756 82.4470
L55.0232 85.4465
" />
<path d="M126.3321 112.6843
L126.8531 109.7299
" />
<path d="M126.8531 109.7299
L123.5047 109.1395
" />
<path d="M122.9838 112.0939
L126.3321 112.6843
" />
<path d="M123.5047 109.1395
L122.9838 112.0939
" />
<path d="M181.1427 135.5296
L180.6217 132.5751
" />
<path d="M180.6217 132.5751
L177.2734 133.1656
" />
<path d="M177.7943 136.1200
L181.1427 135.5296
" />
<path d="M177.2734 133.1656
L177.7943 136.1200
" />
<path d="M122.2001 136.1313
L122.7211 133.1769
" />
<path d="M122.7211 133.1769
L119.3727 132.5865
" />
<path d="M118.8518 135.5409
L122.2001 136.1313
" />
<path d="M119.3727 132.5865
L118.8518 135.5409
" />
<path d="M245.2842 102.4439
L245.2319 99.4444
" />
<path d="M245.2319 99.4444
L241.8324 99.5037
" />
<path d="M241.8847 102.5033
L245.2842 102.4439
" />
<path d="M241.8324 99.5037
L241.8847 102.5033
" />
<path d="M171.1142 78.6234
L170.5933 75.6689
" />
<path d="M170.5933 75.6689
L167.2449 76.2593
" />
<path d="M167.7659 79.2138
L171.1142 78.6234
" />
<path d="M167.2449 76.2593
L167.7659 79.2138
" />
<path d="M113.2425 89.0507
L113.7635 86.0962
" />
<path d="M113.7635 86.0962
L110.4151 85.5058
" />
<path d="M109.8942 88.4603
L113.2425 89.0507
" />
<path d="M110.4151 85.5058
L109.8942 88.4603
" />
<path d="M57.6894 127.4887
L57.7418 124.4891
" />
<path d="M57.7418 124.4891
L54.3423 124.4298
" />
<path d="M54.2899 127.4293
L57.6894 127.4887
" />
<path d="M54.3423 124.4298
L54.2899 127.4293
" />
<path d="M93.8115 97.9672
L94.2291 94.9964
" />
<path d="M94.2291 94.9964
L90.8622 94.5232
" />
<path d="M90.4446 97.4940
L93.8115 97.9672
" />
<path d="M90.8622 94.5232
L90.4446 97.4940
" />
<path d="M77.4436 83.2067
L77.7051 80.2181
" />
<path d="M77.7051 80.2181
L74.3181 79.9218
" />
<path d="M74.0566 82.9104
L77.4436 83.2067
" />
<path d="M74.3181 79.9218
L74.0566 82.9104
" />
<path d="M244.6844 68.4547
L244.6321 65.4552
" />
<path d="M244.6321 65.4552
L241.2326 65.5145
" />
<path d="M241.2849 68.5141
L244.6844 68.4547
" />
<path d="M241.2326 65.5145
L241.2849 68.5141
" />
<path d="M220.8163 63.2876
L221.0778 66.2762
" />
<path d="M221.0778 66.2762
L224.4648 65.9798
" />
<path d="M224.2033 62.9913
L220.8163 63.2876
" />
<path d="M224.4648 65.9798
L224.2033 62.9913
" />
<path d="M177.0197 112.1076
L176.4987 109.1531
" />
<path d="M176.4987 109.1531
L173.1504 109.7436
" />
<path d="M173.6713 112.6980
L177.0197 112.1076
" />
<path d="M173.1504 109.7436
L173.6713 112.6980
" />
<path d="M58.1267 102.5098
L58.1791 99.5103
" />
<path d="M58.1791 99.5103
L54.7796 99.4510
" />
<path d="M54.7272 102.4505
L58.1267 102.5098
" />
<path d="M54.7796 99.4510
L54.7272 102.4505
" />
<path d="M209.5430 97.5148
L209.1254 94.5440
" />
<path d="M209.1254 94.5440
L205.7585 95.0172
" />
<path d="M206.1760 97.9880
L209.5430 97.5148
" />
<path d="M205.7585 95.0172
L206.1760 97.9880
" />
<path d="M174.0602 95.3384
L173.5393 92.3839
" />
<path d="M173.5393 92.3839
L170.1909 92.9743
" />
<path d="M170.7119 95.9288
L174.0602 95.3384
" />
<path d="M170.1909 92.9743
L170.7119 95.9288
" />
<path d="M75.9582 100.1445
L76.2197 97.1559
" />
<path d="M76.2197 97.1559
L72.8327 96.8596
" />
<path d="M72.5712 99.8482
L75.9582 100.1445
" />
<path d="M72.8327 96.8596
L72.5712 99.8482
" />
<path d="M58.7177 68.5108
L58.7701 65.5113
" />
<path d="M58.7701 65.5113
L55.3706 65.4520
" />
<path d="M55.3182 68.4515
L58.7177 68.5108
" />
<path d="M55.3706 65.4520
L55.3182 68.4515
" />
<path d="M75.4612 128.5315
L75.7227 125.5429
" />
<path d="M75.7227 125.5429
L72.3357 125.2466
" />
<path d="M72.0742 128.2352
L75.4612 128.5315
" />
<path d="M72.3357 125.2466
L72.0742 128.2352
" />
<path d="M227.9300 128.2443
L227.6685 125.2557
" />
<path d="M227.6685 125.2557
L224.2814 125.5520
" />
<path d="M224.5429 128.5406
L227.9300 128.2443
" />
<path d="M224.2814 125.5520
L224.5429 128.5406
" />
<path d="M78.9222 66.2745
L79.1837 63.2859
" />
<path d="M79.1837 63.2859
L75.7967 62.9896
" />
<path d="M75.5352 65.9782
L78.9222 66.2745
" />
<path d="M75.7967 62.9896
L75.5352 65.9782
" />
<path d="M110.2955 105.7897
L110.8165 102.8352
" />
<path d="M110.8165 102.8352
L107.4681 102.2448
" />
<path d="M106.9472 105.1993
L110.2955 105.7897
" />
<path d="M107.4681 102.2448
L106.9472 105.1993
" />
<g >
</g>
<g >
</g>
<g >
</g>
<g >
</g>
<g >
</g>
<g >
</g>
<g >
</g>
<g >
</g>
<g >
</g>
<g >
</g>
<g >
</g>
<g >
</g>
<g >
</g>
<g >
</g>
<g >
</g>
<g >
</g>
<g >
</g>
<g >
</g>
<g >
</g>
<g >
</g>
<g >
</g>
<g >
</g>
<g >
</g>
<g >
</g>
<g >
</g>
<g >
</g>
<g >
</g>
<g >
</g>
<g >
</g>
<g >
</g>
<g >
</g>
<g >
</g>
<g >
</g>
<g >
</g>
<g >
</g>
<g >
</g>
<g >
</g>
<g >
</g>
<g >
</g>
<g >
</g>
<g >
</g>
<g >
</g>
<g >
</g>
<g >
</g>
<g >
</g>
<g >
</g>
<g >
</g>
<g >
</g>
<g >
</g>
<g >
</g>
<g >
</g>
<g >
</g>
<g >
</g>
<g >
</g>
<g >
</g>
<g >
</g>
<g >
</g>
<g >
</g>
<g >
</g>
<g >
</g>
<g >
</g>
<g >
</g>
<g >
</g>
<g >
</g>
<g >
</g>
<g >
</g>
<g >
</g>
<g >
</g>
<g >
</g>
<g >
</g>
<g >
</g>
<g >
</g>
<g >
</g>
<g >
</g>
<g >
</g>
<g >
</g>
<g >
</g>
<g >
</g>
<g >
</g>
<g >
</g>
<g >
</g>
<g >
</g>
<g >
</g>
<g >
</g>
<g >
</g>
<g >
</g>
<g >
</g>
<g >
</g>
<g >
</g>
<g >
</g>
<g >
</g>
<g >
</g>
<g >
</g>
<g >
</g>
<g >
</g>
<g >
</g>
<g >
</g>
<g >
</g>
<g >
</g>
<g >
</g>
<g >
</g>
<g >
</g>
<g >
</g>
<g >
</g>
<g >
</g>
<g >
</g>
<g >
</g>
<g >
</g>
<g >
</g>
<g >
</g>
<g >
</g>
<g >
</g>
<g >
</g>
<g >
</g>
<g >
</g>
<g >
</g>
<g >
</g>
<g >
</g>
<g >
</g>
<g >
</g>
<g >
</g>
<g >
</g>
<g >
</g>
<g >
</g>
<g >
</g>
<g >
</g>
<g >
</g>
<g >
</g>
<g >
</g>
<g >
</g>
<g >
</g>
</g> 
</svg>
