0
SECTION
2
HEADER
9
$INSUNITS
70
4
9
$ACADVER
1
AC1014
9
$HANDSEED
5
FFFF
0
ENDSEC
0
SECTION
2
TABLES
0
TABLE
2
VPORT
5
8
100
AcDbSymbolTable
0
ENDTAB
0
TABLE
2
LTYPE
5
5
100
AcDbSymbolTable
0
LTYPE
5
14
100
AcDbSymbolTableRecord
100
AcDbLinetypeTableRecord
2
BYBLOCK
70
0
0
LTYPE
5
15
100
AcDbSymbolTableRecord
100
AcDbLinetypeTableRecord
2
BYLAYER
70
0
0
ENDTAB
0
TABLE
2
LAYER
5
2
100
AcDbSymbolTable
70
2
0
LAYER
5
50
100
AcDbSymbolTableRecord
100
AcDbLayerTableRecord
2
0
70
0
6
CONTINUOUS
0
ENDTAB
0
TABLE
2
STYLE
5
3
100
AcDbSymbolTable
70
1
0
STYLE
5
11
100
AcDbSymbolTableRecord
100
AcDbTextStyleTableRecord
2
STANDARD
70
0
0
ENDTAB
0
TABLE
2
VIEW
5
6
100
AcDbSymbolTable
70
0
0
ENDTAB
0
TABLE
2
UCS
5
7
100
AcDbSymbolTable
70
0
0
ENDTAB
0
TABLE
2
APPID
5
9
100
AcDbSymbolTable
70
2
0
APPID
5
12
100
AcDbSymbolTableRecord
100
AcDbRegAppTableRecord
2
ACAD
70
0
0
ENDTAB
0
TABLE
2
DIMSTYLE
5
A
100
AcDbSymbolTable
70
1
0
ENDTAB
0
TABLE
2
BLOCK_RECORD
5
1
100
AcDbSymbolTable
70
1
0
BLOCK_RECORD
5
1F
100
AcDbSymbolTableRecord
100
AcDbBlockTableRecord
2
*MODEL_SPACE
0
BLOCK_RECORD
5
1B
100
AcDbSymbolTableRecord
100
AcDbBlockTableRecord
2
*PAPER_SPACE
0
ENDTAB
0
ENDSEC
0
SECTION
2
BLOCKS
0
BLOCK
5
20
100
AcDbEntity
100
AcDbBlockBegin
2
*MODEL_SPACE
0
ENDBLK
5
21
100
AcDbEntity
100
AcDbBlockEnd
0
BLOCK
5
1C
100
AcDbEntity
100
AcDbBlockBegin
2
*PAPER_SPACE
0
ENDBLK
5
1D
100
AcDbEntity
100
AcDbBlockEnd
0
ENDSEC
0
SECTION
2
ENTITIES
0
LWPOLYLINE
5
100
100
AcDbEntity
8
0
100
AcDbPolyline
90
12
70
1
43
0.0
10
-70.065911693757883
20
-13.150289861326225
42
0.025047091889733555
10
-69.997366376702132
20
-12.654376865776666
42
0.025047091140453059
10
-69.978755948219373
20
-12.154095148520588
10
-91.672293191461478
20
-10.256156567955159
42
-0.32821707721164017
10
-96.121423807363726
20
-6.3417949287252506
10
-97.639724617485442
20
0.61177659218144553
42
-0.025544501502581429
10
-99.722333047585636
20
13.204649472644778
42
0.025027057389516914
10
-100.22085636886715
20
13.163389584948781
42
0.02507700557779266
10
-100.71373350516511
20
13.072293250861062
42
0.025504984618662591
10
-98.616706497971904
20
0.39845421875711384
10
-97.098405687850189
20
-6.5551173021497426
42
0.32821707721163995
10
-91.759448935508061
20
-11.252351280891325
0
ARC
5
101
100
AcDbEntity
8
0
100
AcDbCircle
10
-91.236514477722253
20
-5.2751830774965258
30
0
40
9.9999999999999751
210
0
220
0
230
1
100
AcDbArc
50
192.31712304417064
51
264.99999999998875
0
LINE
5
102
100
AcDbEntity
8
0
100
AcDbLine
10
-102.52463394712694
20
-0.45483525904713495
30
0
11
-101.0063331370052
21
-7.4084067799539755
31
0
0
LWPOLYLINE
5
103
100
AcDbEntity
8
0
100
AcDbPolyline
90
18
70
1
43
0.0
10
55.589869938941739
20
-13.890439248019963
10
26.398689846420886
20
-19.03763189705068
42
-0.043014889732651322
10
5.0150882942514681
20
-20.936246949514437
10
-5.0150882942515063
20
-20.936246949514302
42
-0.043014889732650989
10
-26.398689846420702
20
-19.037631897049888
10
-55.589869938941369
20
-13.890439248018343
42
0.0088088919294697348
10
-59.939865283563314
20
-13.202199105299178
42
0.025077285039068056
10
-60.043980438318847
20
-13.692497015257629
42
0.025026937325025131
10
-60.098424529758951
20
-14.189750796774373
42
-0.0088490232838331212
10
-55.763518119195872
20
-14.875247015705336
10
-26.572338026675205
20
-20.022439664736851
42
0.042975325575183257
10
-5.0375711312794635
20
-21.936190727320234
10
5.0375711312795968
20
-21.936190727320373
42
0.042975325575183417
10
26.572338026675393
20
-20.022439664737625
10
55.763518119195894
20
-14.875247015706975
42
-0.0088490232838331212
10
60.098424529758994
20
-14.189750796776169
42
0.025026937325025131
10
60.043980438319224
20
-13.692497015259374
42
0.025077285039067782
10
59.939865283563705
20
-13.20219910530092
42
0.0088088919294697348
0
LINE
5
104
100
AcDbEntity
8
0
100
AcDbLine
10
4.6926676380570971
20
-25.936662770524226
30
0
11
8.8817841970012523e-15
21
-25.936662770524247
31
0
0
ARC
5
105
100
AcDbEntity
8
0
100
AcDbCircle
10
25.056969177064595
20
29.543091999730692
30
0
40
130.00000000000003
210
0
220
0
230
1
100
AcDbArc
50
149.99999999999679
51
165.78646611853182
0
LWPOLYLINE
5
106
100
AcDbEntity
8
0
100
AcDbPolyline
90
8
70
1
43
0.0
10
-97.659801094287417
20
58.214655809949903
42
0.070277202592646984
10
-101.4501484356515
20
23.173421223799814
42
0.025077005577798208
10
-100.94927051796319
20
23.154773834122594
42
0.025027057389514974
10
-100.45003427460968
20
23.186254836592294
42
-0.070316888900025368
10
-96.69041370124404
20
57.969119433803868
10
-96.43456325063589
20
58.979227203646261
42
0.025019950470906899
10
-96.916980405431019
20
59.110983238789188
42
0.025099423584448621
10
-97.411723747245063
20
59.194075057301951
0
ARC
5
107
100
AcDbEntity
8
0
100
AcDbCircle
10
24.483008623551701
20
27.2770728728999
30
0
40
130.00000000000003
210
0
220
0
230
1
100
AcDbArc
50
165.78646611853191
51
192.31712304417067
0
LINE
5
108
100
AcDbEntity
8
0
100
AcDbLine
10
-56.458110827276073
20
-18.814478013079381
30
0
11
-27.266930734755409
21
-23.961670662110901
31
0
0
LINE
5
109
100
AcDbEntity
8
0
100
AcDbLine
10
-100.96339004072298
20
61.462820423070909
30
0
11
-101.53735059423589
21
59.196801296240068
31
0
0
LWPOLYLINE
5
110
100
AcDbEntity
8
0
100
AcDbPolyline
90
12
70
1
43
0.0
10
-83.561085280142294
20
93.411103090367391
10
-84.06223171267591
20
92.543092007187454
42
0.051457888077353305
10
-94.627749437600983
20
68.93304165549209
42
0.025077005577793215
10
-94.16373159479005
20
68.743532143534068
42
0.025027057389518027
10
-93.684042058716727
20
68.601666611511632
42
-0.051497483881962153
10
-83.19620629598667
20
92.043091999736902
10
-82.695059863453082
20
92.911103082916753
42
-0.41421356237309576
10
-81.329034459668677
20
93.277128486701145
10
-56.830310359873586
20
79.132783532881234
42
0.025047091140452782
10
-56.55860532585492
20
79.553264827539977
42
0.025047091889735498
10
-56.33031035371998
20
79.998808950319244
10
-80.829034452218053
20
94.143153903390356
42
0.41421356237308926
0
LWPOLYLINE
5
111
100
AcDbEntity
8
0
100
AcDbPolyline
90
12
70
1
43
0.0
10
97.639724617486237
20
0.61177659217877434
42
0.025544501502581436
10
99.722333047586801
20
13.204649472641886
42
-0.025027057389517694
10
100.22085636886828
20
13.163389584945866
42
-0.025077005577793174
10
100.71373350516623
20
13.072293250857923
42
-0.025504984618661825
10
98.6167064979727
20
0.39845421875424808
10
97.098405687850757
20
-6.5551173021525599
42
-0.32821707721164012
10
91.759448935508502
20
-11.252351280893988
10
70.065911693758281
20
-13.150289861328259
42
-0.025047091889734134
10
69.997366376702544
20
-12.654376865778691
42
-0.025047091140453573
10
69.978755948219799
20
-12.154095148522618
10
91.672293191461961
20
-10.256156567957799
42
0.32821707721163984
10
96.121423807364295
20
-6.3417949287280395
0
LINE
5
112
100
AcDbEntity
8
0
100
AcDbLine
10
87.025186882378705
20
95.41110308291448
30
0
11
87.526333314912264
21
94.543091999734543
31
0
0
LWPOLYLINE
5
113
100
AcDbEntity
8
0
100
AcDbPolyline
90
12
70
1
43
0.0
10
94.163731594792793
20
68.743532143531326
42
0.025077005577794326
10
94.627749437603796
20
68.933041655489333
42
0.051457888077353305
10
84.062231712679377
20
92.543092007185038
10
83.561085280145761
20
93.411103090364961
42
0.41421356237309148
10
80.829034452221549
20
94.143153903388011
10
56.330310353723064
20
79.998808950317624
42
0.02504709188973522
10
56.558605325857989
20
79.553264827538342
42
0.025047091140453059
10
56.830310359876663
20
79.132783532879586
10
81.32903445967213
20
93.277128486698786
42
-0.41421356237309315
10
82.695059863456564
20
92.911103082914366
10
83.196206295990152
20
92.043091999734372
42
-0.051497483881961709
10
93.684042058719427
20
68.601666611509017
42
0.025027057389518305
0
ARC
5
114
100
AcDbEntity
8
0
100
AcDbCircle
10
-25.056969177062971
20
29.543091999731423
30
0
40
130.00000000000003
210
0
220
-0
230
1
100
AcDbArc
50
14.213533881466502
51
30.000000000001595
0
LWPOLYLINE
5
115
100
AcDbEntity
8
0
100
AcDbPolyline
90
14
70
1
43
0.0
10
45.740415570939355
20
77.115245543039421
42
0.014555670175011692
10
5.0199868181341767
20
78.593262037002077
10
-5.0199868181311267
20
78.593262037002418
42
0.014555670175010738
10
-45.740415570936356
20
77.1152455430407
10
-46.26056495390884
20
77.081184393051132
42
-0.025043622271799171
10
-46.316825438462303
20
77.578571137393865
42
-0.0250507646397654
10
-46.323066811932918
20
78.079233318117289
10
-45.80575902272556
20
78.113108390886538
42
-0.014554402592053416
10
-5.0307116863313546
20
79.593210844045231
10
5.0307116863317258
20
79.593210844044989
42
-0.014554402592054417
10
45.805759022728679
20
78.113108390884989
10
46.323066811935959
20
78.079233318115925
42
-0.025050764639764512
10
46.316825438465315
20
77.578571137392515
42
-0.025043622271799171
10
46.260564953911839
20
77.081184393049782
0
LINE
5
116
100
AcDbEntity
8
0
100
AcDbLine
10
-92.108071905200788
20
-15.237130058413779
30
0
11
-66.837203017566424
21
-17.448044603536804
31
0
0
ARC
5
117
100
AcDbEntity
8
0
100
AcDbCircle
10
-81.829034459668691
20
92.411103082916739
30
0
40
6
210
0
220
-0
230
1
100
AcDbArc
50
59.999999999997698
51
149.99999999999721
0
LINE
5
118
100
AcDbEntity
8
0
100
AcDbLine
10
-87.025186882375181
20
95.411103082916995
30
0
11
-87.526333314908769
21
94.543091999737086
31
0
0
LINE
5
119
100
AcDbEntity
8
0
100
AcDbLine
10
56.4581108272763
20
-18.814478013081018
30
0
11
27.26693073475548
21
-23.961670662111693
31
0
0
ARC
5
120
100
AcDbEntity
8
0
100
AcDbCircle
10
4.6926676380569363
20
104.06333722947558
30
0
40
129.9999999999998
210
0
220
0
230
1
100
AcDbArc
50
270.00000000000011
51
279.99999999999898
0
ARC
5
121
100
AcDbEntity
8
0
100
AcDbCircle
10
81.82903445967213
20
92.411103082914366
30
0
40
6.0000000000000018
210
0
220
-0
230
1
100
AcDbArc
50
30.000000000001201
51
120.0000000000005
0
LINE
5
122
100
AcDbEntity
8
0
100
AcDbLine
10
-51.375499662287737
20
81.756949800147737
30
0
11
-46.06713282501434
21
82.104559707922249
31
0
0
ARC
5
123
100
AcDbEntity
8
0
100
AcDbCircle
10
-77.295892147313779
20
-136.99140837458827
30
0
40
120.00000000004431
210
0
220
-0
230
1
100
AcDbArc
50
80.000000000000782
51
84.999999999988262
0
LINE
5
124
100
AcDbEntity
8
0
100
AcDbLine
10
-51.375499662287737
20
81.756949800147737
30
0
11
-78.829034459668478
21
97.607255505623257
31
0
0
ARC
5
125
100
AcDbEntity
8
0
100
AcDbCircle
10
-4.6926676380531447
20
104.06333722947572
30
0
40
129.9999999999998
210
0
220
0
230
1
100
AcDbArc
50
259.99999999999943
51
269.99999999999829
0
LINE
5
126
100
AcDbEntity
8
0
100
AcDbLine
10
51.375499662290878
20
81.756949800146245
30
0
11
46.067132825017502
21
82.104559707920913
31
0
0
ARC
5
127
100
AcDbEntity
8
0
100
AcDbCircle
10
3.5527136788005009e-14
20
-621.3887375403483
30
0
40
704.99999999997112
210
0
220
-0
230
1
100
AcDbArc
50
86.253426651303414
51
89.999999999999872
0
LINE
5
128
100
AcDbEntity
8
0
100
AcDbLine
10
-4.6926676380570793
20
-25.936662770524087
30
0
11
8.8817841970012523e-15
21
-25.936662770524247
31
0
0
ARC
5
129
100
AcDbEntity
8
0
100
AcDbCircle
10
-1.7301032971818883e-11
20
-621.3887375403483
30
0
40
704.99999999997112
210
0
220
-0
230
1
100
AcDbArc
50
89.999999999998465
51
93.746573348694909
0
ARC
5
130
100
AcDbEntity
8
0
100
AcDbCircle
10
77.295892147310582
20
-136.99140837459052
30
0
40
120.00000000004432
210
0
220
0
230
1
100
AcDbArc
50
95.000000000010104
51
99.999999999997542
0
ARC
5
131
100
AcDbEntity
8
0
100
AcDbCircle
10
91.236514477722878
20
-5.2751830774991753
30
0
40
9.9999999999999662
210
0
220
0
230
1
100
AcDbArc
50
275.00000000000955
51
347.68287695582768
0
LINE
5
132
100
AcDbEntity
8
0
100
AcDbLine
10
51.375499662290878
20
81.756949800146245
30
0
11
78.829034459672087
21
97.607255505620969
31
0
0
ARC
5
133
100
AcDbEntity
8
0
100
AcDbCircle
10
-24.483008623550138
20
27.277072872900611
30
0
40
130.00000000000003
210
0
220
0
230
1
100
AcDbArc
50
-12.317123044172353
51
14.213533881466477
0
LWPOLYLINE
5
134
100
AcDbEntity
8
0
100
AcDbPolyline
90
8
70
1
43
0.0
10
100.45003427461113
20
23.186254836589288
42
0.07031688890002559
10
96.690413701246513
20
57.969119433801062
10
96.434563250638362
20
58.979227203643461
42
-0.025019950470905831
10
96.916980405433463
20
59.110983238786368
42
-0.025099423584451115
10
97.411723747247564
20
59.194075057299131
10
97.659801094289875
20
58.214655809947054
42
-0.070277202592647012
10
101.45014843565298
20
23.173421223796176
42
-0.025077005577797948
10
100.94927051796459
20
23.154773834119212
42
-0.02502705738951503
0
LINE
5
135
100
AcDbEntity
8
0
100
AcDbLine
10
102.5246339471277
20
-0.45483525905010858
30
0
11
101.00633313700575
21
-7.4084067799569064
31
0
0
LINE
5
136
100
AcDbEntity
8
0
100
AcDbLine
10
92.108071905201115
20
-15.237130058416453
30
0
11
66.837203017566679
21
-17.448044603538744
31
0
0
LINE
5
137
100
AcDbEntity
8
0
100
AcDbLine
10
100.9633900407255
20
61.462820423067974
30
0
11
101.53735059423838
21
59.196801296237126
31
0
0
ENDSEC
0
SECTION
2
OBJECTS
0
DICTIONARY
5
C
100
AcDbDictionary
3
ACAD_GROUP
350
D
3
ACAD_MLINESTYLE
350
17
0
DICTIONARY
5
D
100
AcDbDictionary
0
DICTIONARY
5
1A
330
C
100
AcDbDictionary
0
DICTIONARY
5
17
100
AcDbDictionary
0
ENDSEC
0
EOF
