0
SECTION
2
HEADER
9
$INSUNITS
70
4
9
$ACADVER
1
AC1014
9
$HANDSEED
5
FFFF
0
ENDSEC
0
SECTION
2
TABLES
0
TABLE
2
VPORT
5
8
100
AcDbSymbolTable
0
ENDTAB
0
TABLE
2
LTYPE
5
5
100
AcDbSymbolTable
0
LTYPE
5
14
100
AcDbSymbolTableRecord
100
AcDbLinetypeTableRecord
2
BYBLOCK
70
0
0
LTYPE
5
15
100
AcDbSymbolTableRecord
100
AcDbLinetypeTableRecord
2
BYLAYER
70
0
0
ENDTAB
0
TABLE
2
LAYER
5
2
100
AcDbSymbolTable
70
2
0
LAYER
5
50
100
AcDbSymbolTableRecord
100
AcDbLayerTableRecord
2
0
70
0
6
CONTINUOUS
0
ENDTAB
0
TABLE
2
STYLE
5
3
100
AcDbSymbolTable
70
1
0
STYLE
5
11
100
AcDbSymbolTableRecord
100
AcDbTextStyleTableRecord
2
STANDARD
70
0
0
ENDTAB
0
TABLE
2
VIEW
5
6
100
AcDbSymbolTable
70
0
0
ENDTAB
0
TABLE
2
UCS
5
7
100
AcDbSymbolTable
70
0
0
ENDTAB
0
TABLE
2
APPID
5
9
100
AcDbSymbolTable
70
2
0
APPID
5
12
100
AcDbSymbolTableRecord
100
AcDbRegAppTableRecord
2
ACAD
70
0
0
ENDTAB
0
TABLE
2
DIMSTYLE
5
A
100
AcDbSymbolTable
70
1
0
ENDTAB
0
TABLE
2
BLOCK_RECORD
5
1
100
AcDbSymbolTable
70
1
0
BLOCK_RECORD
5
1F
100
AcDbSymbolTableRecord
100
AcDbBlockTableRecord
2
*MODEL_SPACE
0
BLOCK_RECORD
5
1B
100
AcDbSymbolTableRecord
100
AcDbBlockTableRecord
2
*PAPER_SPACE
0
ENDTAB
0
ENDSEC
0
SECTION
2
BLOCKS
0
BLOCK
5
20
100
AcDbEntity
100
AcDbBlockBegin
2
*MODEL_SPACE
0
ENDBLK
5
21
100
AcDbEntity
100
AcDbBlockEnd
0
BLOCK
5
1C
100
AcDbEntity
100
AcDbBlockBegin
2
*PAPER_SPACE
0
ENDBLK
5
1D
100
AcDbEntity
100
AcDbBlockEnd
0
ENDSEC
0
SECTION
2
ENTITIES
0
LINE
5
100
100
AcDbEntity
8
0
100
AcDbLine
10
64.688705411705271
20
77.269383372685468
30
0
11
88.763282634165961
21
94.059643436015179
31
0
0
LINE
5
101
100
AcDbEntity
8
0
100
AcDbLine
10
61.311139628060197
20
76.397330372311131
30
0
11
60.011479996928031
21
76.532529287538836
31
0
0
LINE
5
102
100
AcDbEntity
8
0
100
AcDbLine
10
96.670523223968203
20
82.987747959701451
30
0
11
92.023128318470128
21
93.168725786271438
31
0
0
LINE
5
103
100
AcDbEntity
8
0
100
AcDbLine
10
104.61601679685229
20
-3.0815371888757248
30
0
11
102.18080255429449
21
-11.940064329222228
31
0
0
LINE
5
104
100
AcDbEntity
8
0
100
AcDbLine
10
101.91161359993288
20
69.369773331771512
30
0
11
103.31387349203123
21
64.939724003159569
31
0
0
LINE
5
105
100
AcDbEntity
8
0
100
AcDbLine
10
96.601647755221691
20
-13.253824390193021
30
0
11
99.861775622391718
21
-13.548013206807623
31
0
0
LINE
5
106
100
AcDbEntity
8
0
100
AcDbLine
10
75.358168268642515
20
-13.224845933083976
30
0
11
74.395746086471277
21
-13.309046963550005
31
0
0
LINE
5
107
100
AcDbEntity
8
0
100
AcDbLine
10
13.157659110206284
20
-21.79209993928027
30
0
11
-3.4694469519536142e-16
21
-21.792099939280018
31
0
0
LINE
5
108
100
AcDbEntity
8
0
100
AcDbLine
10
64.016653896183072
20
-14.675480373092062
30
0
11
33.995440430236897
21
-19.969030300745803
31
0
0
CIRCLE
5
109
100
AcDbEntity
8
0
100
AcDbCircle
10
100.05949677893378
20
-11.356916142719475
30
0
40
1.1000000000000085
210
0
220
0
230
1
0
CIRCLE
5
110
100
AcDbEntity
8
0
100
AcDbCircle
10
90.0217818272572
20
92.255154649408141
30
0
40
1.0999999999999943
210
0
220
0
230
1
0
LINE
5
111
100
AcDbEntity
8
0
100
AcDbLine
10
-1.8566769380547615e-12
20
82.775307629224528
30
0
11
-3.4694469519536142e-16
21
-21.792099939280018
31
0
0
ARC
5
112
100
AcDbEntity
8
0
100
AcDbCircle
10
90.0217818272572
20
92.255154649408141
30
0
40
2.2000000000000099
210
0
220
-0
230
1
100
AcDbArc
50
24.535666276496102
51
124.89295941811848
0
ARC
5
113
100
AcDbEntity
8
0
100
AcDbCircle
10
100.05949677893378
20
-11.356916142719475
30
0
40
2.2000000000000068
210
0
220
0
230
1
100
AcDbArc
50
264.84368452819132
51
344.62904477137448
0
LINE
5
114
100
AcDbEntity
8
0
100
AcDbLine
10
-61.311139628063657
20
76.397330372309028
30
0
11
-60.011479996931314
21
76.532529287536732
31
0
0
LINE
5
115
100
AcDbEntity
8
0
100
AcDbLine
10
-64.688705411708838
20
77.269383372683208
30
0
11
-88.763282634170082
21
94.059643436012038
31
0
0
ARC
5
116
100
AcDbEntity
8
0
100
AcDbCircle
10
-90.02178182726125
20
92.255154649404943
30
0
40
2.2000000000004167
210
0
220
-0
230
1
100
AcDbArc
50
55.107040581883886
51
155.46433372350606
0
LINE
5
117
100
AcDbEntity
8
0
100
AcDbLine
10
-96.670523223971998
20
82.987747959697884
30
0
11
-92.023128318474221
21
93.168725786268169
31
0
0
LINE
5
118
100
AcDbEntity
8
0
100
AcDbLine
10
-101.91161359993629
20
69.369773331767547
30
0
11
-103.31387349203433
21
64.93972400315586
31
0
0
LINE
5
119
100
AcDbEntity
8
0
100
AcDbLine
10
-104.61601679685299
20
-3.081537188879393
30
0
11
-102.18080255429484
21
-11.940064329225848
31
0
0
ARC
5
120
100
AcDbEntity
8
0
100
AcDbCircle
10
-100.05949677893418
20
-11.356916142723037
30
0
40
2.2000000000000126
210
0
220
0
230
1
100
AcDbArc
50
195.37095522862731
51
275.15631547181061
0
LINE
5
121
100
AcDbEntity
8
0
100
AcDbLine
10
-96.601647755221563
20
-13.253824390196407
30
0
11
-99.861775622392045
21
-13.548013206811174
31
0
0
LINE
5
122
100
AcDbEntity
8
0
100
AcDbLine
10
-75.358168268642345
20
-13.224845933086689
30
0
11
-74.395746086471746
21
-13.309046963552637
31
0
0
LINE
5
123
100
AcDbEntity
8
0
100
AcDbLine
10
-64.016653896183456
20
-14.675480373094313
30
0
11
-33.995440430236592
21
-19.969030300747072
31
0
0
LINE
5
124
100
AcDbEntity
8
0
100
AcDbLine
10
-13.157659110205866
20
-21.792099939280739
30
0
11
-3.4694469519536142e-16
21
-21.792099939280014
31
0
0
CIRCLE
5
125
100
AcDbEntity
8
0
100
AcDbCircle
10
-90.02178182726125
20
92.255154649404943
30
0
40
1.0999999999999943
210
0
220
0
230
1
0
CIRCLE
5
126
100
AcDbEntity
8
0
100
AcDbCircle
10
-100.05949677893418
20
-11.356916142723037
30
0
40
1.1000000000000085
210
0
220
0
230
1
0
ARC
5
127
100
AcDbEntity
8
0
100
AcDbCircle
10
8.4598994476436928e-12
20
-500.35448067939103
30
0
40
580.00000000000466
210
0
220
-0
230
1
100
AcDbArc
50
84.061087368983081
51
95.938912631018908
0
ARC
5
128
100
AcDbEntity
8
0
100
AcDbCircle
10
-11.091570950093637
20
28.726545711274149
30
0
40
119.99999999999999
210
-0
220
0
230
1
100
AcDbArc
50
-15.370955228625697
51
17.564334263858449
0
ARC
5
129
100
AcDbEntity
8
0
100
AcDbCircle
10
-12.493830842191933
20
33.156595039885921
30
0
40
120.00000000000001
210
0
220
-0
230
1
100
AcDbArc
50
17.564334263858512
51
24.535666276495739
0
ARC
5
130
100
AcDbEntity
8
0
100
AcDbCircle
10
12.493830842189837
20
33.156595039886199
30
0
40
120
210
0
220
0
230
1
100
AcDbArc
50
155.46433372350626
51
162.43566573614362
0
ARC
5
131
100
AcDbEntity
8
0
100
AcDbCircle
10
11.091570950091878
20
28.726545711274586
30
0
40
120.00000000000006
210
0
220
0
230
1
100
AcDbArc
50
162.43566573614365
51
195.37095522862768
0
ARC
5
132
100
AcDbEntity
8
0
100
AcDbCircle
10
-85.816857398378218
20
-132.76820970409466
30
0
40
120
210
0
220
-0
230
1
100
AcDbArc
50
84.9999999999919
51
95.156315471810558
0
ARC
5
133
100
AcDbEntity
8
0
100
AcDbCircle
10
-84.854435216207605
20
-132.85241073456061
30
0
40
120.00000000000001
210
0
220
-0
230
1
100
AcDbArc
50
80.000000000003638
51
84.999999999991914
0
ARC
5
134
100
AcDbEntity
8
0
100
AcDbCircle
10
-13.157659110212446
20
98.207900060719282
30
0
40
120.00000000000006
210
0
220
0
230
1
100
AcDbArc
50
260.00000000000364
51
270.00000000000313
0
ARC
5
135
100
AcDbEntity
8
0
100
AcDbCircle
10
13.157659110208551
20
98.207900060719766
30
0
40
120.00000000000003
210
0
220
0
230
1
100
AcDbArc
50
269.99999999999892
51
279.99999999999841
0
ARC
5
136
100
AcDbEntity
8
0
100
AcDbCircle
10
84.854435216211414
20
-132.85241073455762
30
0
40
120
210
0
220
0
230
1
100
AcDbArc
50
95.000000000010132
51
99.999999999998394
0
ARC
5
137
100
AcDbEntity
8
0
100
AcDbCircle
10
85.816857398382197
20
-132.76820970409261
30
0
40
120.00000000000098
210
0
220
-0
230
1
100
AcDbArc
50
84.843684528191332
51
95.000000000009877
0
ARC
5
138
100
AcDbEntity
8
0
100
AcDbCircle
10
-61.828479972864841
20
81.370494251334236
30
0
40
5.0000000000000044
210
0
220
0
230
1
100
AcDbArc
50
235.10704058187019
51
275.9389126310187
0
ARC
5
139
100
AcDbEntity
8
0
100
AcDbCircle
10
61.828479972861096
20
81.370494251336467
30
0
40
5.0000000000000959
210
0
220
0
230
1
100
AcDbArc
50
264.06108736898466
51
304.89295941813162
0
ENDSEC
0
SECTION
2
OBJECTS
0
DICTIONARY
5
C
100
AcDbDictionary
3
ACAD_GROUP
350
D
3
ACAD_MLINESTYLE
350
17
0
DICTIONARY
5
D
100
AcDbDictionary
0
DICTIONARY
5
1A
330
C
100
AcDbDictionary
0
DICTIONARY
5
17
100
AcDbDictionary
0
ENDSEC
0
EOF
