0
SECTION
2
HEADER
9
$INSUNITS
70
4
9
$ACADVER
1
AC1014
9
$HANDSEED
5
FFFF
0
ENDSEC
0
SECTION
2
TABLES
0
TABLE
2
VPORT
5
8
100
AcDbSymbolTable
0
ENDTAB
0
TABLE
2
LTYPE
5
5
100
AcDbSymbolTable
0
LTYPE
5
14
100
AcDbSymbolTableRecord
100
AcDbLinetypeTableRecord
2
BYBLOCK
70
0
0
LTYPE
5
15
100
AcDbSymbolTableRecord
100
AcDbLinetypeTableRecord
2
BYLAYER
70
0
0
ENDTAB
0
TABLE
2
LAYER
5
2
100
AcDbSymbolTable
70
2
0
LAYER
5
50
100
AcDbSymbolTableRecord
100
AcDbLayerTableRecord
2
0
70
0
6
CONTINUOUS
0
ENDTAB
0
TABLE
2
STYLE
5
3
100
AcDbSymbolTable
70
1
0
STYLE
5
11
100
AcDbSymbolTableRecord
100
AcDbTextStyleTableRecord
2
STANDARD
70
0
0
ENDTAB
0
TABLE
2
VIEW
5
6
100
AcDbSymbolTable
70
0
0
ENDTAB
0
TABLE
2
UCS
5
7
100
AcDbSymbolTable
70
0
0
ENDTAB
0
TABLE
2
APPID
5
9
100
AcDbSymbolTable
70
2
0
APPID
5
12
100
AcDbSymbolTableRecord
100
AcDbRegAppTableRecord
2
ACAD
70
0
0
ENDTAB
0
TABLE
2
DIMSTYLE
5
A
100
AcDbSymbolTable
70
1
0
ENDTAB
0
TABLE
2
BLOCK_RECORD
5
1
100
AcDbSymbolTable
70
1
0
BLOCK_RECORD
5
1F
100
AcDbSymbolTableRecord
100
AcDbBlockTableRecord
2
*MODEL_SPACE
0
BLOCK_RECORD
5
1B
100
AcDbSymbolTableRecord
100
AcDbBlockTableRecord
2
*PAPER_SPACE
0
ENDTAB
0
ENDSEC
0
SECTION
2
BLOCKS
0
BLOCK
5
20
100
AcDbEntity
100
AcDbBlockBegin
2
*MODEL_SPACE
0
ENDBLK
5
21
100
AcDbEntity
100
AcDbBlockEnd
0
BLOCK
5
1C
100
AcDbEntity
100
AcDbBlockBegin
2
*PAPER_SPACE
0
ENDBLK
5
1D
100
AcDbEntity
100
AcDbBlockEnd
0
ENDSEC
0
SECTION
2
ENTITIES
0
LINE
5
100
100
AcDbEntity
8
0
100
AcDbLine
10
88.414471078051207
20
-12.84006106494563
30
0
11
92.189353335798046
21
-13.150966202992812
31
0
0
LINE
5
101
100
AcDbEntity
8
0
100
AcDbLine
10
67.259551687226903
20
-12.893904613943089
30
0
11
66.46674957510497
21
-12.963265811173301
31
0
0
LINE
5
102
100
AcDbEntity
8
0
100
AcDbLine
10
55.655195210220249
20
-14.386633946113157
30
0
11
26.279767490323358
21
-19.566314422981765
31
0
0
LINE
5
103
100
AcDbEntity
8
0
100
AcDbLine
10
4.5737452819594759
20
-21.465345296455347
30
0
11
-3.7247447865375971e-16
21
-21.465345296455347
31
0
0
LINE
5
104
100
AcDbEntity
8
0
100
AcDbLine
10
85.583755465405119
20
90.109902182896434
30
0
11
83.813670770149457
21
93.51411778988205
31
0
0
LINE
5
105
100
AcDbEntity
8
0
100
AcDbLine
10
95.909275109140424
20
62.915140111270453
30
0
11
96.82229706572727
21
59.28274548149696
31
0
0
LINE
5
106
100
AcDbEntity
8
0
100
AcDbLine
10
97.224964042969646
20
-0.011128257712947898
30
0
11
94.510655540698167
21
-11.465662673441326
31
0
0
LINE
5
107
100
AcDbEntity
8
0
100
AcDbLine
10
53.453005048159397
20
77.597654220652089
30
0
11
80.708633824147824
21
94.372764429030283
31
0
0
LINE
5
108
100
AcDbEntity
8
0
100
AcDbLine
10
50.512913428851
20
76.865984983294481
30
0
11
44.706308065346505
21
77.237589177763027
31
0
0
CIRCLE
5
109
100
AcDbEntity
8
0
100
AcDbCircle
10
81.861768597009558
20
92.499190252324951
30
0
40
1.0999999999999943
210
0
220
0
230
1
0
CIRCLE
5
110
100
AcDbEntity
8
0
100
AcDbCircle
10
92.369937283030794
20
-10.958390220728013
30
0
40
1.1000000000000085
210
0
220
0
230
1
0
LINE
5
111
100
AcDbEntity
8
0
100
AcDbLine
10
1.446408267264408e-15
20
80.098650082763058
30
0
11
-3.7247447865375971e-16
21
-21.465345296455347
31
0
0
ARC
5
112
100
AcDbEntity
8
0
100
AcDbCircle
10
81.861768597009558
20
92.499190252324951
30
0
40
2.1999999999999997
210
0
220
-0
230
1
100
AcDbArc
50
27.473008454346367
51
121.61118523944076
0
ARC
5
113
100
AcDbEntity
8
0
100
AcDbCircle
10
92.369937283030794
20
-10.958390220728013
30
0
40
2.2000000000005944
210
0
220
0
230
1
100
AcDbArc
50
265.29165806714036
51
346.66887377580434
0
LINE
5
114
100
AcDbEntity
8
0
100
AcDbLine
10
-50.512913428851007
20
76.865984983294467
30
0
11
-44.706308065347045
21
77.237589177762942
31
0
0
LINE
5
115
100
AcDbEntity
8
0
100
AcDbLine
10
-53.453005048159355
20
77.597654220652061
30
0
11
-80.708633824147824
21
94.372764429030283
31
0
0
ARC
5
116
100
AcDbEntity
8
0
100
AcDbCircle
10
-81.861768597009558
20
92.499190252324951
30
0
40
2.1999999999999895
210
0
220
-0
230
1
100
AcDbArc
50
58.388814760559264
51
152.52699154565363
0
LINE
5
117
100
AcDbEntity
8
0
100
AcDbLine
10
-85.583755465405005
20
90.109902182896704
30
0
11
-83.813670770149457
21
93.51411778988205
31
0
0
LINE
5
118
100
AcDbEntity
8
0
100
AcDbLine
10
-95.909275109140339
20
62.915140111270745
30
0
11
-96.822297065727255
21
59.282745481496882
31
0
0
LINE
5
119
100
AcDbEntity
8
0
100
AcDbLine
10
-97.224964042969646
20
-0.011128257713038936
30
0
11
-94.510655540698167
21
-11.465662673441326
31
0
0
ARC
5
120
100
AcDbEntity
8
0
100
AcDbCircle
10
-92.369937283030794
20
-10.95839022072802
30
0
40
2.1999999999982291
210
0
220
0
230
1
100
AcDbArc
50
193.33112622419546
51
274.7083419328597
0
LINE
5
121
100
AcDbEntity
8
0
100
AcDbLine
10
-88.414471078051179
20
-12.840061064945626
30
0
11
-92.189353335798046
21
-13.150966202992809
31
0
0
LINE
5
122
100
AcDbEntity
8
0
100
AcDbLine
10
-67.259551687226875
20
-12.893904613943093
30
0
11
-66.466749575104657
21
-12.963265811173335
31
0
0
LINE
5
123
100
AcDbEntity
8
0
100
AcDbLine
10
-55.655195210219972
20
-14.386633946113198
30
0
11
-26.279767490323511
21
-19.566314422981741
31
0
0
LINE
5
124
100
AcDbEntity
8
0
100
AcDbLine
10
-4.5737452819595061
20
-21.465345296455332
30
0
11
-3.7247447865375971e-16
21
-21.465345296455336
31
0
0
CIRCLE
5
125
100
AcDbEntity
8
0
100
AcDbCircle
10
-81.861768597009558
20
92.499190252324951
30
0
40
1.0999999999999943
210
0
220
0
230
1
0
CIRCLE
5
126
100
AcDbEntity
8
0
100
AcDbCircle
10
-92.369937283030794
20
-10.95839022072802
30
0
40
1.1000000000000085
210
0
220
0
230
1
0
ARC
5
127
100
AcDbEntity
8
0
100
AcDbCircle
10
0
20
-621.33334209487998
30
0
40
699.99999999997249
210
0
220
-0
230
1
100
AcDbArc
50
86.338246705265647
51
93.661753294734382
0
ARC
5
128
100
AcDbEntity
8
0
100
AcDbCircle
10
50.832244200746331
20
81.855777349527855
30
0
40
5.0000000000000009
210
0
220
0
230
1
100
AcDbArc
50
266.33824670526582
51
301.611185239441
0
ARC
5
129
100
AcDbEntity
8
0
100
AcDbCircle
10
-50.832244200746302
20
81.855777349527756
30
0
40
4.9999999999999325
210
0
220
0
230
1
100
AcDbArc
50
238.38881476055866
51
273.66175329473384
0
ARC
5
130
100
AcDbEntity
8
0
100
AcDbCircle
10
25.319777099362657
20
32.443564821698565
30
0
40
124.99999999999999
210
0
220
0
230
1
100
AcDbArc
50
152.52699154565408
51
165.89069005347542
0
ARC
5
131
100
AcDbEntity
8
0
100
AcDbCircle
10
-25.319777099362533
20
32.443564821698246
30
0
40
125.00000000000001
210
0
220
-0
230
1
100
AcDbArc
50
14.109309946524617
51
27.473008454345955
0
ARC
5
132
100
AcDbEntity
8
0
100
AcDbCircle
10
-24.406755142775669
20
28.81117019192477
30
0
40
124.99999999999999
210
-0
220
0
230
1
100
AcDbArc
50
-13.331126224193085
51
14.10930994652459
0
ARC
5
133
100
AcDbEntity
8
0
100
AcDbCircle
10
24.406755142775705
20
28.811170191924703
30
0
40
125
210
0
220
0
230
1
100
AcDbArc
50
165.89069005347542
51
193.33112622419307
0
ARC
5
134
100
AcDbEntity
8
0
100
AcDbCircle
10
-78.154019530706179
20
-137.41824187540936
30
0
40
125
210
0
220
-0
230
1
100
AcDbArc
50
84.999999999989868
51
94.708341932874617
0
ARC
5
135
100
AcDbEntity
8
0
100
AcDbCircle
10
78.154019530706208
20
-137.41824187540936
30
0
40
125.00000000000006
210
0
220
-0
230
1
100
AcDbArc
50
85.291658067125383
51
95.000000000010132
0
ARC
5
136
100
AcDbEntity
8
0
100
AcDbCircle
10
77.361217418584275
20
-137.48760307263956
30
0
40
125
210
0
220
0
230
1
100
AcDbArc
50
95.000000000010132
51
99.999999999998934
0
ARC
5
137
100
AcDbEntity
8
0
100
AcDbCircle
10
-77.361217418583962
20
-137.48760307263956
30
0
40
124.99999999999997
210
0
220
-0
230
1
100
AcDbArc
50
80.000000000001066
51
84.999999999989868
0
ARC
5
138
100
AcDbEntity
8
0
100
AcDbCircle
10
-4.5737452819595159
20
103.53465470354466
30
0
40
124.99999999999999
210
0
220
0
230
1
100
AcDbArc
50
260.00000000000108
51
270
0
ARC
5
139
100
AcDbEntity
8
0
100
AcDbCircle
10
4.5737452819592894
20
103.53465470354605
30
0
40
125.00000000000139
210
-0
220
0
230
1
100
AcDbArc
50
270.00000000000011
51
279.99999999999886
0
ENDSEC
0
SECTION
2
OBJECTS
0
DICTIONARY
5
C
100
AcDbDictionary
3
ACAD_GROUP
350
D
3
ACAD_MLINESTYLE
350
17
0
DICTIONARY
5
D
100
AcDbDictionary
0
DICTIONARY
5
1A
330
C
100
AcDbDictionary
0
DICTIONARY
5
17
100
AcDbDictionary
0
ENDSEC
0
EOF
