0
SECTION
2
HEADER
9
$INSUNITS
70
4
9
$ACADVER
1
AC1014
9
$HANDSEED
5
FFFF
0
ENDSEC
0
SECTION
2
TABLES
0
TABLE
2
VPORT
5
8
100
AcDbSymbolTable
0
ENDTAB
0
TABLE
2
LTYPE
5
5
100
AcDbSymbolTable
0
LTYPE
5
14
100
AcDbSymbolTableRecord
100
AcDbLinetypeTableRecord
2
BYBLOCK
70
0
0
LTYPE
5
15
100
AcDbSymbolTableRecord
100
AcDbLinetypeTableRecord
2
BYLAYER
70
0
0
ENDTAB
0
TABLE
2
LAYER
5
2
100
AcDbSymbolTable
70
2
0
LAYER
5
50
100
AcDbSymbolTableRecord
100
AcDbLayerTableRecord
2
0
70
0
6
CONTINUOUS
0
ENDTAB
0
TABLE
2
STYLE
5
3
100
AcDbSymbolTable
70
1
0
STYLE
5
11
100
AcDbSymbolTableRecord
100
AcDbTextStyleTableRecord
2
STANDARD
70
0
0
ENDTAB
0
TABLE
2
VIEW
5
6
100
AcDbSymbolTable
70
0
0
ENDTAB
0
TABLE
2
UCS
5
7
100
AcDbSymbolTable
70
0
0
ENDTAB
0
TABLE
2
APPID
5
9
100
AcDbSymbolTable
70
2
0
APPID
5
12
100
AcDbSymbolTableRecord
100
AcDbRegAppTableRecord
2
ACAD
70
0
0
ENDTAB
0
TABLE
2
DIMSTYLE
5
A
100
AcDbSymbolTable
70
1
0
ENDTAB
0
TABLE
2
BLOCK_RECORD
5
1
100
AcDbSymbolTable
70
1
0
BLOCK_RECORD
5
1F
100
AcDbSymbolTableRecord
100
AcDbBlockTableRecord
2
*MODEL_SPACE
0
BLOCK_RECORD
5
1B
100
AcDbSymbolTableRecord
100
AcDbBlockTableRecord
2
*PAPER_SPACE
0
ENDTAB
0
ENDSEC
0
SECTION
2
BLOCKS
0
BLOCK
5
20
100
AcDbEntity
100
AcDbBlockBegin
2
*MODEL_SPACE
0
ENDBLK
5
21
100
AcDbEntity
100
AcDbBlockEnd
0
BLOCK
5
1C
100
AcDbEntity
100
AcDbBlockBegin
2
*PAPER_SPACE
0
ENDBLK
5
1D
100
AcDbEntity
100
AcDbBlockEnd
0
ENDSEC
0
SECTION
2
ENTITIES
0
LINE
5
100
100
AcDbEntity
8
0
100
AcDbLine
10
12.657659110298024
20
-21.880263429615848
30
0
11
-3.7967428900847474e-16
21
-21.880263429615855
31
0
0
LINE
5
101
100
AcDbEntity
8
0
100
AcDbLine
10
63.516653896331476
20
-14.763643863417217
30
0
11
33.495440430326539
21
-20.057193791081378
31
0
0
LINE
5
102
100
AcDbEntity
8
0
100
AcDbLine
10
75.079354432291083
20
-13.293658141573985
30
0
11
73.895746086619937
21
-13.397210453875088
31
0
0
LINE
5
103
100
AcDbEntity
8
0
100
AcDbLine
10
95.883891071283756
20
-13.283839440029595
30
0
11
99.863937526875063
21
-13.628263175623086
31
0
0
LINE
5
104
100
AcDbEntity
8
0
100
AcDbLine
10
93.246392726112234
20
89.829611025412106
30
0
11
91.489496718362275
21
93.184309060109527
31
0
0
LINE
5
105
100
AcDbEntity
8
0
100
AcDbLine
10
103.56486399887571
20
62.426843206984024
30
0
11
103.82672372351439
21
61.346588624489286
31
0
0
LINE
5
106
100
AcDbEntity
8
0
100
AcDbLine
10
106.11997548629131
20
16.981883125200511
30
0
11
102.23373372159867
21
-11.731525421194496
31
0
0
CIRCLE
5
107
100
AcDbEntity
8
0
100
AcDbCircle
10
100.05361139787803
20
-11.436454830292961
30
0
40
1.1000000000000085
210
0
220
0
230
1
0
LINE
5
108
100
AcDbEntity
8
0
100
AcDbLine
10
62.616426102078478
20
76.64000267141823
30
0
11
53.83846138750868
21
77.317140026594657
31
0
0
LINE
5
109
100
AcDbEntity
8
0
100
AcDbLine
10
62.616426102078478
20
76.64000267141823
30
0
11
88.309548471814722
21
93.986974326299389
31
0
0
CIRCLE
5
110
100
AcDbEntity
8
0
100
AcDbCircle
10
89.540589316959711
20
92.163642640186112
30
0
40
1.0999999999999943
210
0
220
0
230
1
0
ARC
5
111
100
AcDbEntity
8
0
100
AcDbCircle
10
89.540589316959711
20
92.163642640186112
30
0
40
2.2000000000002129
210
0
220
-0
230
1
100
AcDbArc
50
27.641595766898011
51
124.02565221795135
0
ARC
5
112
100
AcDbEntity
8
0
100
AcDbCircle
10
100.05361139787803
20
-11.436454830292961
30
0
40
2.200000000000006
210
0
220
0
230
1
100
AcDbArc
50
265.05408148488709
51
352.29208994225394
0
LINE
5
113
100
AcDbEntity
8
0
100
AcDbLine
10
1.4712567893090079e-15
20
81.470270568370353
30
0
11
-3.7967428900847474e-16
21
-21.880263429615855
31
0
0
LINE
5
114
100
AcDbEntity
8
0
100
AcDbLine
10
-62.616426102078478
20
76.64000267141823
30
0
11
-53.838461387506314
21
77.317140026594956
31
0
0
LINE
5
115
100
AcDbEntity
8
0
100
AcDbLine
10
-62.616426102078478
20
76.64000267141823
30
0
11
-88.309548471814722
21
93.986974326299389
31
0
0
ARC
5
116
100
AcDbEntity
8
0
100
AcDbCircle
10
-89.540589316959711
20
92.163642640186112
30
0
40
2.199999999999998
210
0
220
-0
230
1
100
AcDbArc
50
55.974347782048646
51
152.35840423310202
0
LINE
5
117
100
AcDbEntity
8
0
100
AcDbLine
10
-93.24639272611229
20
89.829611025412035
30
0
11
-91.489496718362275
21
93.184309060109527
31
0
0
LINE
5
118
100
AcDbEntity
8
0
100
AcDbLine
10
-103.56486399887572
20
62.426843206983939
30
0
11
-103.82672372351442
21
61.3465886244892
31
0
0
LINE
5
119
100
AcDbEntity
8
0
100
AcDbLine
10
-106.11997548629128
20
16.98188312520044
30
0
11
-102.23373372159867
21
-11.731525421194497
31
0
0
ARC
5
120
100
AcDbEntity
8
0
100
AcDbCircle
10
-100.05361139787803
20
-11.436454830292959
30
0
40
2.2000000000000028
210
0
220
0
230
1
100
AcDbArc
50
187.7079100577462
51
274.94591851511291
0
LINE
5
121
100
AcDbEntity
8
0
100
AcDbLine
10
-95.883891071284268
20
-13.283839440029626
30
0
11
-99.863937526875063
21
-13.62826317562309
31
0
0
LINE
5
122
100
AcDbEntity
8
0
100
AcDbLine
10
-75.079354432291751
20
-13.293658141573923
30
0
11
-73.895746086620235
21
-13.397210453875065
31
0
0
LINE
5
123
100
AcDbEntity
8
0
100
AcDbLine
10
-63.516653896331619
20
-14.763643863417183
30
0
11
-33.495440430326695
21
-20.057193791081357
31
0
0
LINE
5
124
100
AcDbEntity
8
0
100
AcDbLine
10
-12.657659110298066
20
-21.880263429615852
30
0
11
-3.796742890084746e-16
21
-21.880263429615852
31
0
0
CIRCLE
5
125
100
AcDbEntity
8
0
100
AcDbCircle
10
-100.05361139787803
20
-11.436454830292959
30
0
40
1.1000000000000085
210
0
220
0
230
1
0
CIRCLE
5
126
100
AcDbEntity
8
0
100
AcDbCircle
10
-89.540589316959711
20
92.163642640186112
30
0
40
1.0999999999999943
210
0
220
0
230
1
0
ARC
5
127
100
AcDbEntity
8
0
100
AcDbCircle
10
-2.6645352591003757e-14
20
-620.60937478387734
30
0
40
700.00000000004729
210
0
220
-0
230
1
100
AcDbArc
50
85.588905721405254
51
94.411094278594533
0
ARC
5
128
100
AcDbEntity
8
0
100
AcDbCircle
10
-13.057647350381512
20
34.156897211415192
30
0
40
120.00000000000001
210
0
220
-0
230
1
100
AcDbArc
50
13.625984229987324
51
27.64159576689698
0
ARC
5
129
100
AcDbEntity
8
0
100
AcDbCircle
10
-12.795787625742818
20
33.076642628920425
30
0
40
119.99999999999999
210
-0
220
0
230
1
100
AcDbArc
50
-7.7079100577461093
51
13.625984229987324
0
ARC
5
130
100
AcDbEntity
8
0
100
AcDbCircle
10
13.057647350381476
20
34.156897211415114
30
0
40
119.99999999999999
210
0
220
0
230
1
100
AcDbArc
50
152.35840423310302
51
166.37401577001268
0
ARC
5
131
100
AcDbEntity
8
0
100
AcDbCircle
10
12.7957876257428
20
33.076642628920375
30
0
40
120.00000000000001
210
0
220
0
230
1
100
AcDbArc
50
166.37401577001268
51
187.70791005774609
0
ARC
5
132
100
AcDbEntity
8
0
100
AcDbCircle
10
-85.53804356203176
20
-132.83702191258155
30
0
40
120
210
0
220
-0
230
1
100
AcDbArc
50
84.999999999989925
51
94.945918515112822
0
ARC
5
133
100
AcDbEntity
8
0
100
AcDbCircle
10
-84.354435216360244
20
-132.94057422488268
30
0
40
120.00000000000001
210
0
220
-0
230
1
100
AcDbArc
50
80.000000000001464
51
84.999999999989925
0
ARC
5
134
100
AcDbEntity
8
0
100
AcDbCircle
10
-12.657659110298072
20
98.119736570384148
30
0
40
120.00000000000001
210
0
220
0
230
1
100
AcDbArc
50
260.00000000000142
51
270
0
ARC
5
135
100
AcDbEntity
8
0
100
AcDbCircle
10
12.657659110297947
20
98.119736570384148
30
0
40
120
210
0
220
0
230
1
100
AcDbArc
50
270.00000000000006
51
279.99999999999852
0
ARC
5
136
100
AcDbEntity
8
0
100
AcDbCircle
10
84.354435216360059
20
-132.94057422488271
30
0
40
120.00000000000001
210
0
220
0
230
1
100
AcDbArc
50
95.000000000010132
51
99.999999999998522
0
ARC
5
137
100
AcDbEntity
8
0
100
AcDbCircle
10
85.538043562031845
20
-132.83702191258652
30
0
40
120.00000000000492
210
0
220
-0
230
1
100
AcDbArc
50
85.054081484887647
51
95.000000000010246
0
ENDSEC
0
SECTION
2
OBJECTS
0
DICTIONARY
5
C
100
AcDbDictionary
3
ACAD_GROUP
350
D
3
ACAD_MLINESTYLE
350
17
0
DICTIONARY
5
D
100
AcDbDictionary
0
DICTIONARY
5
1A
330
C
100
AcDbDictionary
0
DICTIONARY
5
17
100
AcDbDictionary
0
ENDSEC
0
EOF
