0
SECTION
2
HEADER
9
$INSUNITS
70
4
9
$ACADVER
1
AC1014
9
$HANDSEED
5
FFFF
0
ENDSEC
0
SECTION
2
TABLES
0
TABLE
2
VPORT
5
8
100
AcDbSymbolTable
0
ENDTAB
0
TABLE
2
LTYPE
5
5
100
AcDbSymbolTable
0
LTYPE
5
14
100
AcDbSymbolTableRecord
100
AcDbLinetypeTableRecord
2
BYBLOCK
70
0
0
LTYPE
5
15
100
AcDbSymbolTableRecord
100
AcDbLinetypeTableRecord
2
BYLAYER
70
0
0
ENDTAB
0
TABLE
2
LAYER
5
2
100
AcDbSymbolTable
70
2
0
LAYER
5
50
100
AcDbSymbolTableRecord
100
AcDbLayerTableRecord
2
0
70
0
6
CONTINUOUS
0
ENDTAB
0
TABLE
2
STYLE
5
3
100
AcDbSymbolTable
70
1
0
STYLE
5
11
100
AcDbSymbolTableRecord
100
AcDbTextStyleTableRecord
2
STANDARD
70
0
0
ENDTAB
0
TABLE
2
VIEW
5
6
100
AcDbSymbolTable
70
0
0
ENDTAB
0
TABLE
2
UCS
5
7
100
AcDbSymbolTable
70
0
0
ENDTAB
0
TABLE
2
APPID
5
9
100
AcDbSymbolTable
70
2
0
APPID
5
12
100
AcDbSymbolTableRecord
100
AcDbRegAppTableRecord
2
ACAD
70
0
0
ENDTAB
0
TABLE
2
DIMSTYLE
5
A
100
AcDbSymbolTable
70
1
0
ENDTAB
0
TABLE
2
BLOCK_RECORD
5
1
100
AcDbSymbolTable
70
1
0
BLOCK_RECORD
5
1F
100
AcDbSymbolTableRecord
100
AcDbBlockTableRecord
2
*MODEL_SPACE
0
BLOCK_RECORD
5
1B
100
AcDbSymbolTableRecord
100
AcDbBlockTableRecord
2
*PAPER_SPACE
0
ENDTAB
0
ENDSEC
0
SECTION
2
BLOCKS
0
BLOCK
5
20
100
AcDbEntity
100
AcDbBlockBegin
2
*MODEL_SPACE
0
ENDBLK
5
21
100
AcDbEntity
100
AcDbBlockEnd
0
BLOCK
5
1C
100
AcDbEntity
100
AcDbBlockBegin
2
*PAPER_SPACE
0
ENDBLK
5
1D
100
AcDbEntity
100
AcDbBlockEnd
0
ENDSEC
0
SECTION
2
ENTITIES
0
LINE
5
100
100
AcDbEntity
8
0
100
AcDbLine
10
63.984358707779066
20
77.563576217497882
30
0
11
88.309548471814722
21
93.986974326299389
31
0
0
LINE
5
101
100
AcDbEntity
8
0
100
AcDbLine
10
60.96748735399693
20
76.712312517443436
30
0
11
30.667175165184091
21
78.041052539738274
31
0
0
LINE
5
102
100
AcDbEntity
8
0
100
AcDbLine
10
92.961249024313503
20
90.374077523036988
30
0
11
91.489496718362275
21
93.184309060109527
31
0
0
LINE
5
103
100
AcDbEntity
8
0
100
AcDbLine
10
105.98321066718339
20
16.036885263770792
30
0
11
102.22028893778335
21
-11.706084331193793
31
0
0
LINE
5
104
100
AcDbEntity
8
0
100
AcDbLine
10
103.70965660010873
20
61.829527712174375
30
0
11
103.59917384810073
21
62.285304175347243
31
0
0
LINE
5
105
100
AcDbEntity
8
0
100
AcDbLine
10
74.753863264967237
20
-13.322134928792689
30
0
11
74.113220085815115
21
-13.378183944333824
31
0
0
LINE
5
106
100
AcDbEntity
8
0
100
AcDbLine
10
12.220215792668403
20
-21.880263429615852
30
0
11
-3.7967428900847474e-16
21
-21.880263429615855
31
0
0
LINE
5
107
100
AcDbEntity
8
0
100
AcDbLine
10
63.301665720931275
20
-14.801552079273543
30
0
11
33.926238001031464
21
-19.981232556142455
31
0
0
CIRCLE
5
108
100
AcDbEntity
8
0
100
AcDbCircle
10
100.04025051503109
20
-11.41039450160214
30
0
40
1.1000000000000085
210
0
220
0
230
1
0
CIRCLE
5
109
100
AcDbEntity
8
0
100
AcDbCircle
10
89.540589316959711
20
92.163642640186112
30
0
40
1.0999999999999943
210
0
220
0
230
1
0
LINE
5
110
100
AcDbEntity
8
0
100
AcDbLine
10
1.4334955989631144e-15
20
79.385880367213673
30
0
11
-3.7967428900847474e-16
21
-21.880263429615855
31
0
0
ARC
5
111
100
AcDbEntity
8
0
100
AcDbCircle
10
89.540589316959711
20
92.163642640186112
30
0
40
2.2000000000002129
210
0
220
-0
230
1
100
AcDbArc
50
27.641595766898011
51
124.02565221795135
0
ARC
5
112
100
AcDbEntity
8
0
100
AcDbCircle
10
100.04025129285998
20
-11.410393495995317
30
0
40
2.1999993643868785
210
0
220
0
230
1
100
AcDbArc
50
265.15264202184517
51
352.27578674690545
0
LINE
5
113
100
AcDbEntity
8
0
100
AcDbLine
10
99.854348115949307
20
-13.602524243035099
30
0
11
96.210990305915971
21
-13.293550784624681
31
0
0
LINE
5
114
100
AcDbEntity
8
0
100
AcDbLine
10
-12.220215792668547
20
-21.880263429615852
30
0
11
-3.7967428900847509e-16
21
-21.880263429615852
31
0
0
LINE
5
115
100
AcDbEntity
8
0
100
AcDbLine
10
-63.301665720931801
20
-14.80155207927346
30
0
11
-33.926238001031692
21
-19.981232556142416
31
0
0
LINE
5
116
100
AcDbEntity
8
0
100
AcDbLine
10
-74.75386326496718
20
-13.322134928792702
30
0
11
-74.113220085815797
21
-13.378183944333774
31
0
0
LINE
5
117
100
AcDbEntity
8
0
100
AcDbLine
10
-99.854348115949307
20
-13.602524243035106
30
0
11
-96.210990305915786
21
-13.29355078462466
31
0
0
ARC
5
118
100
AcDbEntity
8
0
100
AcDbCircle
10
-100.04025129285998
20
-11.410393495995315
30
0
40
2.1999993643870508
210
0
220
0
230
1
100
AcDbArc
50
187.7242132530948
51
274.84735797815478
0
LINE
5
119
100
AcDbEntity
8
0
100
AcDbLine
10
-105.9832106671834
20
16.036885263770934
30
0
11
-102.22028893778335
21
-11.7060843311938
31
0
0
LINE
5
120
100
AcDbEntity
8
0
100
AcDbLine
10
-103.70965660010873
20
61.829527712174254
30
0
11
-103.59917384810069
21
62.285304175347406
31
0
0
LINE
5
121
100
AcDbEntity
8
0
100
AcDbLine
10
-92.961249024313574
20
90.374077523036817
30
0
11
-91.489496718362275
21
93.184309060109527
31
0
0
ARC
5
122
100
AcDbEntity
8
0
100
AcDbCircle
10
-89.540589316959711
20
92.163642640186112
30
0
40
2.199999999999998
210
0
220
-0
230
1
100
AcDbArc
50
55.974347782048646
51
152.35840423310202
0
LINE
5
123
100
AcDbEntity
8
0
100
AcDbLine
10
-63.984358707779037
20
77.563576217497868
30
0
11
-88.309548471814722
21
93.986974326299389
31
0
0
LINE
5
124
100
AcDbEntity
8
0
100
AcDbLine
10
-60.967487353996894
20
76.712312517443436
30
0
11
-30.667175165184403
21
78.041052539738232
31
0
0
CIRCLE
5
125
100
AcDbEntity
8
0
100
AcDbCircle
10
-89.540589316959711
20
92.163642640186112
30
0
40
1.0999999999999943
210
0
220
0
230
1
0
CIRCLE
5
126
100
AcDbEntity
8
0
100
AcDbCircle
10
-100.04025051503109
20
-11.410394501602141
30
0
40
1.1000000000000085
210
0
220
0
230
1
0
ARC
5
127
100
AcDbEntity
8
0
100
AcDbCircle
10
0
20
-621.28685650394038
30
0
40
700.00000000001125
210
0
220
-0
230
1
100
AcDbArc
50
87.489053899108939
51
92.510946100891104
0
ARC
5
128
100
AcDbEntity
8
0
100
AcDbCircle
10
-17.772126055367536
20
32.381667300123475
30
0
40
125.00000000000003
210
0
220
-0
230
1
100
AcDbArc
50
13.625984229987324
51
27.641595766896998
0
ARC
5
129
100
AcDbEntity
8
0
100
AcDbCircle
10
-17.882608807375533
20
32.837443763296363
30
0
40
124.99999999999999
210
-0
220
0
230
1
100
AcDbArc
50
-7.7241845784710748
51
13.625984229987324
0
ARC
5
130
100
AcDbEntity
8
0
100
AcDbCircle
10
85.64833110844657
20
-137.84647219025896
30
0
40
124.99999999999999
210
0
220
-0
230
1
100
AcDbArc
50
85.152653227973104
51
95.000000000010161
0
ARC
5
131
100
AcDbEntity
8
0
100
AcDbCircle
10
85.007687929294434
20
-137.9025212058001
30
0
40
125.00000000000001
210
0
220
0
230
1
100
AcDbArc
50
95.000000000010161
51
99.999999999998536
0
ARC
5
132
100
AcDbEntity
8
0
100
AcDbCircle
10
12.220215792668315
20
103.11973657038415
30
0
40
125
210
0
220
0
230
1
100
AcDbArc
50
270.00000000000006
51
279.99999999999858
0
ARC
5
133
100
AcDbEntity
8
0
100
AcDbCircle
10
-12.220215792668551
20
103.11973657038413
30
0
40
124.99999999999999
210
0
220
0
230
1
100
AcDbArc
50
260.00000000000142
51
270
0
ARC
5
134
100
AcDbEntity
8
0
100
AcDbCircle
10
-85.007687929294946
20
-137.90252120580004
30
0
40
125.00000000000001
210
0
220
-0
230
1
100
AcDbArc
50
80.000000000001464
51
84.999999999989925
0
ARC
5
135
100
AcDbEntity
8
0
100
AcDbCircle
10
-85.648331108446385
20
-137.84647219025899
30
0
40
125.00000000000003
210
0
220
-0
230
1
100
AcDbArc
50
84.99999999998991
51
94.847346772026896
0
ARC
5
136
100
AcDbEntity
8
0
100
AcDbCircle
10
17.882608807375515
20
32.837443763296513
30
0
40
124.99999999999999
210
0
220
0
230
1
100
AcDbArc
50
166.37401577001268
51
187.72418457847107
0
ARC
5
137
100
AcDbEntity
8
0
100
AcDbCircle
10
17.77212605536894
20
32.381667300122999
30
0
40
125.00000000000148
210
0
220
-0
230
1
100
AcDbArc
50
152.35840423310322
51
166.37401577001265
0
ARC
5
138
100
AcDbEntity
8
0
100
AcDbCircle
10
-61.186538605176793
20
81.707511867755329
30
0
40
5.0000000000000009
210
0
220
0
230
1
100
AcDbArc
50
235.97434778204877
51
272.51094610089126
0
ARC
5
139
100
AcDbEntity
8
0
100
AcDbCircle
10
61.186538605176793
20
81.707511867755386
30
0
40
5.0000000000000391
210
0
220
0
230
1
100
AcDbArc
50
267.48905389910919
51
304.02565221795123
0
ENDSEC
0
SECTION
2
OBJECTS
0
DICTIONARY
5
C
100
AcDbDictionary
3
ACAD_GROUP
350
D
3
ACAD_MLINESTYLE
350
17
0
DICTIONARY
5
D
100
AcDbDictionary
0
DICTIONARY
5
1A
330
C
100
AcDbDictionary
0
DICTIONARY
5
17
100
AcDbDictionary
0
ENDSEC
0
EOF
