0
SECTION
2
HEADER
9
$INSUNITS
70
4
9
$ACADVER
1
AC1014
9
$HANDSEED
5
FFFF
0
ENDSEC
0
SECTION
2
TABLES
0
TABLE
2
VPORT
5
8
100
AcDbSymbolTable
0
ENDTAB
0
TABLE
2
LTYPE
5
5
100
AcDbSymbolTable
0
LTYPE
5
14
100
AcDbSymbolTableRecord
100
AcDbLinetypeTableRecord
2
BYBLOCK
70
0
0
LTYPE
5
15
100
AcDbSymbolTableRecord
100
AcDbLinetypeTableRecord
2
BYLAYER
70
0
0
ENDTAB
0
TABLE
2
LAYER
5
2
100
AcDbSymbolTable
70
2
0
LAYER
5
50
100
AcDbSymbolTableRecord
100
AcDbLayerTableRecord
2
0
70
0
6
CONTINUOUS
0
ENDTAB
0
TABLE
2
STYLE
5
3
100
AcDbSymbolTable
70
1
0
STYLE
5
11
100
AcDbSymbolTableRecord
100
AcDbTextStyleTableRecord
2
STANDARD
70
0
0
ENDTAB
0
TABLE
2
VIEW
5
6
100
AcDbSymbolTable
70
0
0
ENDTAB
0
TABLE
2
UCS
5
7
100
AcDbSymbolTable
70
0
0
ENDTAB
0
TABLE
2
APPID
5
9
100
AcDbSymbolTable
70
2
0
APPID
5
12
100
AcDbSymbolTableRecord
100
AcDbRegAppTableRecord
2
ACAD
70
0
0
ENDTAB
0
TABLE
2
DIMSTYLE
5
A
100
AcDbSymbolTable
70
1
0
ENDTAB
0
TABLE
2
BLOCK_RECORD
5
1
100
AcDbSymbolTable
70
1
0
BLOCK_RECORD
5
1F
100
AcDbSymbolTableRecord
100
AcDbBlockTableRecord
2
*MODEL_SPACE
0
BLOCK_RECORD
5
1B
100
AcDbSymbolTableRecord
100
AcDbBlockTableRecord
2
*PAPER_SPACE
0
ENDTAB
0
ENDSEC
0
SECTION
2
BLOCKS
0
BLOCK
5
20
100
AcDbEntity
100
AcDbBlockBegin
2
*MODEL_SPACE
0
ENDBLK
5
21
100
AcDbEntity
100
AcDbBlockEnd
0
BLOCK
5
1C
100
AcDbEntity
100
AcDbBlockBegin
2
*PAPER_SPACE
0
ENDBLK
5
1D
100
AcDbEntity
100
AcDbBlockEnd
0
ENDSEC
0
SECTION
2
ENTITIES
0
LINE
5
100
100
AcDbEntity
8
0
100
AcDbLine
10
53.157578807521936
20
76.629544477597861
30
0
11
45.740415570939092
21
77.115245543039421
31
0
0
LINE
5
101
100
AcDbEntity
8
0
100
AcDbLine
10
53.722922258337562
20
76.761381906789723
30
0
11
81.146021757779863
21
92.594115784806576
31
0
0
LINE
5
102
100
AcDbEntity
8
0
100
AcDbLine
10
82.512047161564226
20
92.228090381022184
30
0
11
82.856752473771138
21
91.631043266641029
31
0
0
LINE
5
103
100
AcDbEntity
8
0
100
AcDbLine
10
95.77699932551468
20
59.823089827538418
30
0
11
96.302818407971799
21
57.74713514597002
31
0
0
LINE
5
104
100
AcDbEntity
8
0
100
AcDbLine
10
97.252129324211523
20
0.38979230434768752
30
0
11
95.259665349904367
21
-8.7353696239149858
31
0
0
LINE
5
105
100
AcDbEntity
8
0
100
AcDbLine
10
94.369839226723897
20
-9.5182419517609382
30
0
11
66.336099032532687
21
-11.970876414988487
31
0
0
LINE
5
106
100
AcDbEntity
8
0
100
AcDbLine
10
55.524544667646218
20
-13.394244549928587
30
0
11
26.080204056085769
21
-18.586076228916319
31
0
0
LINE
5
107
100
AcDbEntity
8
0
100
AcDbLine
10
4.3741818477210019
20
-20.485107102390046
30
0
11
-3.5546502899206413e-16
21
-20.485107102390057
31
0
0
LINE
5
108
100
AcDbEntity
8
0
100
AcDbLine
10
-4.3741818477211547
20
-20.485107102390057
30
0
11
-3.9610556230834935e-16
21
-20.485107102390067
31
0
0
LINE
5
109
100
AcDbEntity
8
0
100
AcDbLine
10
-55.524544667645884
20
-13.394244549928658
30
0
11
-26.080204056085854
21
-18.586076228916308
31
0
0
LINE
5
110
100
AcDbEntity
8
0
100
AcDbLine
10
-94.369839226723897
20
-9.5182419517609382
30
0
11
-66.33609903253253
21
-11.970876414988505
31
0
0
LINE
5
111
100
AcDbEntity
8
0
100
AcDbLine
10
-97.252129324211552
20
0.38979230434772028
30
0
11
-95.259665349904367
21
-8.7353696239149858
31
0
0
LINE
5
112
100
AcDbEntity
8
0
100
AcDbLine
10
-95.776999325514737
20
59.823089827538226
30
0
11
-96.302818407971827
21
57.747135145970034
31
0
0
LINE
5
113
100
AcDbEntity
8
0
100
AcDbLine
10
-82.51204716156424
20
92.228090381022142
30
0
11
-82.856752473771266
21
91.631043266640759
31
0
0
LINE
5
114
100
AcDbEntity
8
0
100
AcDbLine
10
-53.722922258337547
20
76.761381906789708
30
0
11
-81.14602175777982
21
92.594115784806547
31
0
0
LINE
5
115
100
AcDbEntity
8
0
100
AcDbLine
10
-53.157578807521915
20
76.629544477597847
30
0
11
-45.740415570938787
21
77.115245543039507
31
0
0
ARC
5
116
100
AcDbEntity
8
0
100
AcDbCircle
10
-24.870603916824798
20
27.055088585069527
30
0
40
124.99999999999999
210
-0
220
0
230
1
100
AcDbArc
50
-12.317123044172353
51
14.213533881466502
0
ARC
5
117
100
AcDbEntity
8
0
100
AcDbCircle
10
24.870603916824816
20
27.055088585069562
30
0
40
125.00000000000006
210
0
220
0
230
1
100
AcDbArc
50
165.78646611853353
51
192.31712304417238
0
ARC
5
118
100
AcDbEntity
8
0
100
AcDbCircle
10
-25.396422999281913
20
29.131043266637935
30
0
40
124.99999999999999
210
0
220
-0
230
1
100
AcDbArc
50
14.213533881466502
51
30.000000000001641
0
ARC
5
119
100
AcDbEntity
8
0
100
AcDbCircle
10
25.396422999284205
20
29.13104326663694
30
0
40
125.00000000000244
210
0
220
-0
230
1
100
AcDbArc
50
149.99999999999864
51
165.78646611853344
0
ARC
5
120
100
AcDbEntity
8
0
100
AcDbCircle
10
4.3741818477209184
20
104.51489289760997
30
0
40
125
210
-0
220
0
230
1
100
AcDbArc
50
270.00000000000006
51
279.99999999999932
0
ARC
5
121
100
AcDbEntity
8
0
100
AcDbCircle
10
77.230566876011039
20
-136.49521367645485
30
0
40
125.00000000000001
210
0
220
0
230
1
100
AcDbArc
50
95.000000000009706
51
99.999999999999318
0
ARC
5
122
100
AcDbEntity
8
0
100
AcDbCircle
10
-4.374181847721017
20
104.51489289760994
30
0
40
124.99999999999999
210
0
220
0
230
1
100
AcDbArc
50
260.00000000000068
51
269.99999999999994
0
ARC
5
123
100
AcDbEntity
8
0
100
AcDbCircle
10
-77.230566876012446
20
-136.49521367646383
30
0
40
125.00000000000908
210
0
220
-0
230
1
100
AcDbArc
50
80.000000000000611
51
84.999999999989939
0
ARC
5
124
100
AcDbEntity
8
0
100
AcDbCircle
10
0
20
-621.38873754035251
30
0
40
699.99999999997556
210
0
220
-0
230
1
100
AcDbArc
50
86.253426651303457
51
93.746573348696529
0
ARC
5
125
100
AcDbEntity
8
0
100
AcDbCircle
10
53.222922258337555
20
77.627407310574142
30
0
40
0.99999999999997857
210
0
220
0
230
1
100
AcDbArc
50
266.25342665130398
51
300.00000000000085
0
ARC
5
126
100
AcDbEntity
8
0
100
AcDbCircle
10
-53.222922258337597
20
77.627407310573943
30
0
40
0.99999999999979594
210
0
220
0
230
1
100
AcDbArc
50
239.99999999999662
51
273.74657334870034
0
ARC
5
127
100
AcDbEntity
8
0
100
AcDbCircle
10
-81.646021757779835
20
91.728090381022156
30
0
40
0.99999999999996869
210
0
220
-0
230
1
100
AcDbArc
50
59.999999999997932
51
149.99999999999977
0
ARC
5
128
100
AcDbEntity
8
0
100
AcDbCircle
10
81.646021757779849
20
91.728090381022184
30
0
40
0.99999999999994438
210
0
220
-0
230
1
100
AcDbArc
50
30.000000000001762
51
120.00000000000065
0
ARC
5
129
100
AcDbEntity
8
0
100
AcDbCircle
10
94.282683483976072
20
-8.5220472536692
30
0
40
1.0000000000000062
210
-0
220
0
230
1
100
AcDbArc
50
275.00000000000955
51
347.68287695582706
0
ARC
5
130
100
AcDbEntity
8
0
100
AcDbCircle
10
-94.282683483976072
20
-8.5220472536691982
30
0
40
1.0000000000000067
210
0
220
0
230
1
100
AcDbArc
50
192.31712304417303
51
264.99999999999045
0
CIRCLE
5
131
100
AcDbEntity
8
0
100
AcDbCircle
10
-4.3380909910819147e-16
20
-25.00000037252903
30
0
40
2.5
210
0
220
0
230
1
0
ENDSEC
0
SECTION
2
OBJECTS
0
DICTIONARY
5
C
100
AcDbDictionary
3
ACAD_GROUP
350
D
3
ACAD_MLINESTYLE
350
17
0
DICTIONARY
5
D
100
AcDbDictionary
0
DICTIONARY
5
1A
330
C
100
AcDbDictionary
0
DICTIONARY
5
17
100
AcDbDictionary
0
ENDSEC
0
EOF
