0
SECTION
2
HEADER
9
$INSUNITS
70
4
9
$ACADVER
1
AC1014
9
$HANDSEED
5
FFFF
0
ENDSEC
0
SECTION
2
TABLES
0
TABLE
2
VPORT
5
8
100
AcDbSymbolTable
0
ENDTAB
0
TABLE
2
LTYPE
5
5
100
AcDbSymbolTable
0
LTYPE
5
14
100
AcDbSymbolTableRecord
100
AcDbLinetypeTableRecord
2
BYBLOCK
70
0
0
LTYPE
5
15
100
AcDbSymbolTableRecord
100
AcDbLinetypeTableRecord
2
BYLAYER
70
0
0
ENDTAB
0
TABLE
2
LAYER
5
2
100
AcDbSymbolTable
70
2
0
LAYER
5
50
100
AcDbSymbolTableRecord
100
AcDbLayerTableRecord
2
0
70
0
6
CONTINUOUS
0
ENDTAB
0
TABLE
2
STYLE
5
3
100
AcDbSymbolTable
70
1
0
STYLE
5
11
100
AcDbSymbolTableRecord
100
AcDbTextStyleTableRecord
2
STANDARD
70
0
0
ENDTAB
0
TABLE
2
VIEW
5
6
100
AcDbSymbolTable
70
0
0
ENDTAB
0
TABLE
2
UCS
5
7
100
AcDbSymbolTable
70
0
0
ENDTAB
0
TABLE
2
APPID
5
9
100
AcDbSymbolTable
70
2
0
APPID
5
12
100
AcDbSymbolTableRecord
100
AcDbRegAppTableRecord
2
ACAD
70
0
0
ENDTAB
0
TABLE
2
DIMSTYLE
5
A
100
AcDbSymbolTable
70
1
0
ENDTAB
0
TABLE
2
BLOCK_RECORD
5
1
100
AcDbSymbolTable
70
1
0
BLOCK_RECORD
5
1F
100
AcDbSymbolTableRecord
100
AcDbBlockTableRecord
2
*MODEL_SPACE
0
BLOCK_RECORD
5
1B
100
AcDbSymbolTableRecord
100
AcDbBlockTableRecord
2
*PAPER_SPACE
0
ENDTAB
0
ENDSEC
0
SECTION
2
BLOCKS
0
BLOCK
5
20
100
AcDbEntity
100
AcDbBlockBegin
2
*MODEL_SPACE
0
ENDBLK
5
21
100
AcDbEntity
100
AcDbBlockEnd
0
BLOCK
5
1C
100
AcDbEntity
100
AcDbBlockBegin
2
*PAPER_SPACE
0
ENDBLK
5
1D
100
AcDbEntity
100
AcDbBlockEnd
0
ENDSEC
0
SECTION
2
ENTITIES
0
LINE
5
100
100
AcDbEntity
8
0
100
AcDbLine
10
139.45667467506942
20
78.090053958925637
30
0
11
139.45667467501374
21
-0.41145441382761128
31
0
0
LWPOLYLINE
5
101
100
AcDbEntity
8
0
100
AcDbPolyline
90
8
70
1
43
0.0
10
12.598489531254657
20
37.996047953514406
10
15.550508551595792
20
21.254316152313613
10
32.292240352790678
20
24.206335172658513
10
35.244259373137076
20
7.4646033714486535
10
18.502527571937822
20
4.5125843511077939
10
15.550508551595792
20
21.254316152313613
10
32.292240352814552
20
24.206335172667529
10
29.340221332461663
20
40.948066973851454
0
LWPOLYLINE
5
102
100
AcDbEntity
8
0
100
AcDbPolyline
90
8
70
1
43
0.0
10
83.242413976604979
20
35.937007646012702
10
81.760766349886524
20
52.872317513570181
10
64.825456482329287
20
51.390669886851903
10
81.760766349918214
20
52.872317513572888
10
80.279118723204903
20
69.807627381117385
10
63.34380885561206
20
68.325979754396158
10
64.825456482329287
20
51.390669886851903
10
66.307104109047529
20
34.455360019294375
0
LINE
5
103
100
AcDbEntity
8
0
100
AcDbLine
10
-7.4414819917583244e-18
20
-0.41145441397324956
30
0
11
1.402929396382209e-15
21
78.090053958929374
31
0
0
LWPOLYLINE
5
104
100
AcDbEntity
8
0
100
AcDbPolyline
90
3
70
1
43
0.0
10
61.324179960563271
20
53.621858142927579
10
49.579069405177265
20
38.035570001037961
10
63.244768753810007
20
39.956158794293501
0
LWPOLYLINE
5
105
100
AcDbEntity
8
0
100
AcDbPolyline
90
4
70
1
43
0.0
10
80.306304021337581
20
51.138956808227249
10
67.761566437596542
20
36.188720724637314
10
66.558817187672204
20
49.936207558302819
10
81.509053271262033
20
37.391469974561829
0
LINE
5
106
100
AcDbEntity
8
0
100
AcDbLine
10
69.357555105227334
20
-0.41145441390081761
30
0
11
62.489563052898816
21
78.090053958927427
31
0
0
LINE
5
107
100
AcDbEntity
8
0
100
AcDbLine
10
53.366722192284385
20
-0.41145441391751725
30
0
11
42.334054680026071
21
78.090053958927982
31
0
0
LWPOLYLINE
5
108
100
AcDbEntity
8
0
100
AcDbPolyline
90
4
70
1
43
0.0
10
46.485426022107347
20
32.397844764323501
10
44.089081170296815
20
45.988191755890675
10
30.498734178729514
20
43.591846904080299
10
32.895079030540074
20
30.001499912513054
0
LWPOLYLINE
5
109
100
AcDbEntity
8
0
100
AcDbPolyline
90
3
70
1
43
0.0
10
27.546715158384153
20
60.333578705284616
10
29.943060010196199
20
46.74323171371762
10
41.137062149953614
20
62.729923557095155
0
LWPOLYLINE
5
110
100
AcDbEntity
8
0
100
AcDbPolyline
90
12
70
1
43
0.0
10
101.48440084053072
20
32.880210435716471
10
101.18770993108812
20
49.877621253374606
10
84.190299113431706
20
49.580930343937737
10
83.893608203989061
20
66.578341161596526
10
100.89101902164428
20
66.87503207103849
10
101.18770993108699
20
49.877621253375949
10
84.190299113431706
20
49.580930343937737
10
84.486990022874011
20
32.583519526274273
10
101.48440084053397
20
32.880210435716293
10
101.78109174997518
20
15.882799618059401
10
84.783680932312478
20
15.586108708617566
10
84.486990022874011
20
32.583519526274273
0
LWPOLYLINE
5
111
100
AcDbEntity
8
0
100
AcDbPolyline
90
4
70
1
43
0.0
10
45.851374740397077
20
53.063021298119381
10
48.217317456722427
20
36.2284641295144
10
65.051874625332545
20
38.594406845837312
10
62.685931909004147
20
55.428964014448859
0
LINE
5
112
100
AcDbEntity
8
0
100
AcDbLine
10
36.633020862326518
20
-0.41145441393499271
30
0
11
22.791086909806072
21
78.090053958928507
31
0
0
LINE
5
113
100
AcDbEntity
8
0
100
AcDbLine
10
47.658480611921696
20
51.701269349670696
30
0
11
49.579069405177265
21
38.035570001037961
31
0
0
LWPOLYLINE
5
114
100
AcDbEntity
8
0
100
AcDbPolyline
90
3
70
1
43
0.0
10
14.452019020348247
20
36.698192632966816
10
16.848363872163088
20
23.107845641400306
10
30.438710863730737
20
25.504190493208601
0
LINE
5
115
100
AcDbEntity
8
0
100
AcDbLine
10
19.370768460273759
20
-0.41145441395302018
30
0
11
5.528834507802058
21
78.090053958928948
31
0
0
LWPOLYLINE
5
116
100
AcDbEntity
8
0
100
AcDbPolyline
90
8
70
1
43
0.0
10
48.338955511195948
20
31.09998944377276
10
45.386936490854019
20
47.841721244978089
10
28.645204689640998
20
44.889702224630526
10
25.693185669297989
20
61.631434025832839
10
42.434917470510158
20
64.583453046182044
10
45.386936490851923
20
47.841721244977691
10
28.645204689640998
20
44.889702224630526
10
31.59722370996926
20
28.147970423423171
0
LINE
5
117
100
AcDbEntity
8
0
100
AcDbLine
10
85.062919435325099
20
-0.41145441388441611
30
0
11
83.692670509635747
21
78.090053958926859
31
0
0
LWPOLYLINE
5
118
100
AcDbEntity
8
0
100
AcDbPolyline
90
3
70
1
43
0.0
10
99.615877469139605
20
48.24994109082369
10
86.058822484822869
20
34.211199688824124
10
99.856720677980945
20
34.452042897665422
0
LINE
5
119
100
AcDbEntity
8
0
100
AcDbLine
10
28.042366011917622
20
39.094537484766867
30
0
11
16.848363872163088
21
23.107845641400306
31
0
0
LWPOLYLINE
5
120
100
AcDbEntity
8
0
100
AcDbPolyline
90
3
70
1
43
0.0
10
54.265288313730089
20
-11.723946809347103
10
51.868943461919734
20
1.8664001822197109
10
38.278596470353321
20
-0.52994466959039754
0
LWPOLYLINE
5
121
100
AcDbEntity
8
0
100
AcDbPolyline
90
3
70
1
43
0.0
10
78.824656394647036
20
68.074266675775803
10
66.279918810902544
20
53.124030592188802
10
80.027405644567978
20
54.326779842114234
0
LINE
5
122
100
AcDbEntity
8
0
100
AcDbLine
10
85.817979275981628
20
48.009097881982221
30
0
11
99.856720677980945
21
34.452042897665422
31
0
0
LINE
5
123
100
AcDbEntity
8
0
100
AcDbLine
10
85.817979275981628
20
48.009097881982221
30
0
11
86.058822484822869
21
34.211199688824124
31
0
0
LWPOLYLINE
5
124
100
AcDbEntity
8
0
100
AcDbPolyline
90
4
70
1
43
0.0
10
74.20403500047459
20
81.447146844168628
10
82.704035000474349
20
66.72471497983355
10
97.4264668648091
20
75.224714979833195
10
88.926466864809427
20
89.94714684416823
0
LWPOLYLINE
5
125
100
AcDbEntity
8
0
100
AcDbPolyline
90
4
70
1
43
0.0
10
76.389675646529383
20
80.861506198114455
10
83.289675646529545
20
68.910355625888741
10
95.240826218753938
20
75.81035562588832
10
88.340826218754245
20
87.761506198113125
0
LINE
5
126
100
AcDbEntity
8
0
100
AcDbLine
10
1.402929396382209e-15
20
78.090053958929374
30
0
11
2.0703088686397787e-15
21
114.53750898701836
31
0
0
LINE
5
127
100
AcDbEntity
8
0
100
AcDbLine
10
47.658480611921696
20
51.701269349670696
30
0
11
63.244768753810007
21
39.956158794293501
31
0
0
LINE
5
128
100
AcDbEntity
8
0
100
AcDbLine
10
1.402929396382209e-15
20
78.090053958929374
30
0
11
139.45667467506942
21
78.090053958925637
31
0
0
LWPOLYLINE
5
129
100
AcDbEntity
8
0
100
AcDbPolyline
90
4
70
1
43
0.0
10
51.290974531527311
20
14.358257642553248
10
48.338955511183961
20
31.099989443766717
10
31.59722370996926
20
28.147970423423171
10
34.54924273031267
20
11.406238622209621
0
LWPOLYLINE
5
130
100
AcDbEntity
8
0
100
AcDbPolyline
90
4
70
1
43
0.0
10
56.118817802816572
20
-13.021802129898708
10
53.166798782470764
20
3.719929671306101
10
36.425066981267008
20
0.76791065096061861
10
39.377086001613286
20
-15.973821150244028
0
LINE
5
131
100
AcDbEntity
8
0
100
AcDbLine
10
51.868943461919734
20
1.8664001822197109
30
0
11
40.67494132216288
21
-14.120291661157827
31
0
0
LINE
5
132
100
AcDbEntity
8
0
100
AcDbLine
10
40.67494132216288
20
-14.120291661157827
30
0
11
54.265288313730089
21
-11.723946809347103
31
0
0
LINE
5
133
100
AcDbEntity
8
0
100
AcDbLine
10
50.024423328247337
20
34.866712181063598
30
0
11
51.945012121502785
21
21.201012832430845
31
0
0
LWPOLYLINE
5
134
100
AcDbEntity
8
0
100
AcDbPolyline
90
3
70
1
43
0.0
10
49.437445042437787
20
15.656112963109559
10
47.041100190627773
20
29.246459954676819
10
33.450753199058973
20
26.850115102866091
0
LINE
5
135
100
AcDbEntity
8
0
100
AcDbLine
10
38.278596470353321
20
-0.52994466959039754
30
0
11
40.67494132216288
21
-14.120291661157827
31
0
0
LINE
5
136
100
AcDbEntity
8
0
100
AcDbLine
10
-7.4414819917600778e-18
20
-0.41145441397324956
30
0
11
139.45667467501374
21
-0.41145441382761128
31
0
0
LWPOLYLINE
5
137
100
AcDbEntity
8
0
100
AcDbPolyline
90
4
70
1
43
0.0
10
48.217317456722427
20
36.2284641295144
10
50.583260173047975
20
19.393906960908961
10
67.417817341662271
20
21.759849677222427
10
65.051874625334762
20
38.594406845842798
0
LINE
5
138
100
AcDbEntity
8
0
100
AcDbLine
10
30.498734178729514
20
43.591846904080299
30
0
11
46.485426022107347
21
32.397844764323501
31
0
0
LINE
5
139
100
AcDbEntity
8
0
100
AcDbLine
10
44.089081170296815
20
45.988191755890675
30
0
11
32.895079030540074
21
30.001499912513054
31
0
0
LINE
5
140
100
AcDbEntity
8
0
100
AcDbLine
10
47.041100190627773
20
29.246459954676819
30
0
11
35.847098050870528
21
13.259768111299017
31
0
0
LWPOLYLINE
5
141
100
AcDbEntity
8
0
100
AcDbPolyline
90
3
70
1
43
0.0
10
86.355513394267263
20
17.213788871167115
10
100.15341158742538
20
17.454632080005432
10
99.912568378584808
20
31.252530273166418
0
LWPOLYLINE
5
142
100
AcDbEntity
8
0
100
AcDbPolyline
90
3
70
1
43
0.0
10
68.040464814380982
20
33.000897690756624
10
82.990700897983345
20
20.456160107018768
10
69.243214064318025
20
19.253410857092234
0
LINE
5
143
100
AcDbEntity
8
0
100
AcDbLine
10
29.943060010196199
20
46.74323171371762
30
0
11
43.533407001763464
21
49.139576565528138
31
0
0
LINE
5
144
100
AcDbEntity
8
0
100
AcDbLine
10
35.847098050870528
20
13.259768111299017
30
0
11
49.437445042437787
21
15.656112963109559
31
0
0
LINE
5
145
100
AcDbEntity
8
0
100
AcDbLine
10
67.761566437596542
20
36.188720724637314
30
0
11
81.509053271262033
21
37.391469974561829
31
0
0
LINE
5
146
100
AcDbEntity
8
0
100
AcDbLine
10
27.546715158384153
20
60.333578705284616
30
0
11
43.533407001763464
21
49.139576565528138
31
0
0
LWPOLYLINE
5
147
100
AcDbEntity
8
0
100
AcDbPolyline
90
4
70
1
43
0.0
10
84.724061603326689
20
19.001697778468976
10
83.242413976609498
20
35.937007646013065
10
66.307104109047529
20
34.455360019294375
10
67.788751735764805
20
17.520050151750194
0
LINE
5
148
100
AcDbEntity
8
0
100
AcDbLine
10
82.990700897983345
20
20.456160107018768
30
0
11
81.787951648056051
21
34.203646940678674
31
0
0
LINE
5
149
100
AcDbEntity
8
0
100
AcDbLine
10
86.114670185426135
20
31.011687064325205
30
0
11
86.355513394267263
21
17.213788871167115
31
0
0
LWPOLYLINE
5
150
100
AcDbEntity
8
0
100
AcDbPolyline
90
4
70
1
43
0.0
10
39.377086001613286
20
-15.973821150244028
10
36.42506698127135
20
0.76791065096291911
10
19.683335180065566
20
-2.1841083693830399
10
22.635354200407853
20
-18.925840170589805
0
LINE
5
151
100
AcDbEntity
8
0
100
AcDbLine
10
86.114670185426135
20
31.011687064325205
30
0
11
100.15341158742538
21
17.454632080005432
31
0
0
LINE
5
152
100
AcDbEntity
8
0
100
AcDbLine
10
99.912568378584808
20
31.252530273166418
30
0
11
86.114670185426135
21
31.011687064325205
31
0
0
LWPOLYLINE
5
153
100
AcDbEntity
8
0
100
AcDbPolyline
90
3
70
1
43
0.0
10
63.690122676879881
20
36.787300974319159
10
51.945012121502785
20
21.201012832430845
10
65.610711470135527
20
23.12160162568636
0
LINE
5
154
100
AcDbEntity
8
0
100
AcDbLine
10
81.787951648056051
20
34.203646940678674
30
0
11
69.243214064318025
21
19.253410857092234
31
0
0
LINE
5
155
100
AcDbEntity
8
0
100
AcDbLine
10
81.787951648056051
20
34.203646940678674
30
0
11
68.040464814380982
21
33.000897690756624
31
0
0
LWPOLYLINE
5
156
100
AcDbEntity
8
0
100
AcDbPolyline
90
4
70
1
43
0.0
10
85.21972834561295
20
-9.3950308676091243
10
83.738080718897152
20
7.5402789999486366
10
66.802770851337371
20
6.0586313732322949
10
68.284418478053453
20
-10.876678494325505
0
LWPOLYLINE
5
157
100
AcDbEntity
8
0
100
AcDbPolyline
90
3
70
1
43
0.0
10
21.536864669152244
20
-3.4819636899351414
10
23.933209520959437
20
-17.072310681502987
10
37.523556512526511
20
-14.675965829691442
0
LWPOLYLINE
5
158
100
AcDbEntity
8
0
100
AcDbPolyline
90
3
70
1
43
0.0
10
82.283618390347456
20
5.8069182946055875
10
68.536131556680431
20
4.6041690446829611
10
69.738880806604271
20
-9.1433177889825874
0
LWPOLYLINE
5
159
100
AcDbEntity
8
0
100
AcDbPolyline
90
3
70
1
43
0.0
10
33.390729884051616
20
8.7624586920046834
10
30.994385032244331
20
22.352805683573038
10
17.404038040683933
20
19.956460831765398
0
LINE
5
160
100
AcDbEntity
8
0
100
AcDbLine
10
30.994385032244331
20
22.352805683573038
30
0
11
19.800382892483977
21
6.3661138401962916
31
0
0
LINE
5
161
100
AcDbEntity
8
0
100
AcDbLine
10
83.486367640269989
20
-7.9405685390609335
30
0
11
82.283618390347456
21
5.8069182946055875
31
0
0
CIRCLE
5
162
100
AcDbEntity
8
0
100
AcDbCircle
10
-4.3380909910819147e-16
20
-25.00000037252903
30
0
40
2.5
210
0
220
0
230
1
0
LINE
5
163
100
AcDbEntity
8
0
100
AcDbLine
10
68.536131556680431
20
4.6041690446829611
30
0
11
83.486367640269989
21
-7.9405685390609335
31
0
0
LINE
5
164
100
AcDbEntity
8
0
100
AcDbLine
10
35.127211660719276
20
-1.085618838123791
30
0
11
23.933209520959437
21
-17.072310681502987
31
0
0
LINE
5
165
100
AcDbEntity
8
0
100
AcDbLine
10
33.450753199058973
20
26.850115102866091
30
0
11
35.847098050870528
21
13.259768111299017
31
0
0
LINE
5
166
100
AcDbEntity
8
0
100
AcDbLine
10
69.738880806604271
20
-9.1433177889825874
30
0
11
83.486367640269989
21
-7.9405685390609335
31
0
0
LINE
5
167
100
AcDbEntity
8
0
100
AcDbLine
10
0
20
0
30
0
11
-4.3380909910819147e-16
21
-25.00000037252903
31
0
0
LINE
5
168
100
AcDbEntity
8
0
100
AcDbLine
10
35.127211660719276
20
-1.085618838123791
30
0
11
21.536864669152244
21
-3.4819636899351414
31
0
0
LINE
5
169
100
AcDbEntity
8
0
100
AcDbLine
10
17.404038040683933
20
19.956460831765398
30
0
11
19.800382892483977
21
6.3661138401962916
31
0
0
LINE
5
170
100
AcDbEntity
8
0
100
AcDbLine
10
19.800382892483977
20
6.3661138401962916
30
0
11
33.390729884051616
21
8.7624586920046834
31
0
0
LINE
5
171
100
AcDbEntity
8
0
100
AcDbLine
10
56.118817802816572
20
-13.021802129898708
30
0
11
68.284418478053453
21
-10.876678494325505
31
0
0
LINE
5
172
100
AcDbEntity
8
0
100
AcDbLine
10
37.523556512526511
20
-14.675965829691442
30
0
11
35.127211660719276
21
-1.085618838123791
31
0
0
LINE
5
173
100
AcDbEntity
8
0
100
AcDbLine
10
50.024423328247337
20
34.866712181063598
30
0
11
65.610711470135527
21
23.12160162568636
31
0
0
LINE
5
174
100
AcDbEntity
8
0
100
AcDbLine
10
63.690122676879881
20
36.787300974319159
30
0
11
50.024423328247337
21
34.866712181063598
31
0
0
LWPOLYLINE
5
175
100
AcDbEntity
8
0
100
AcDbPolyline
90
3
70
1
43
0.0
10
58.95823724422344
20
70.456415311530193
10
47.213126688846373
20
54.87012716964184
10
60.878826037479101
20
56.790715962897494
0
LINE
5
176
100
AcDbEntity
8
0
100
AcDbLine
10
61.324179960563271
20
53.621858142927579
30
0
11
47.658480611921696
21
51.701269349670696
31
0
0
LWPOLYLINE
5
177
100
AcDbEntity
8
0
100
AcDbPolyline
90
4
70
1
43
0.0
10
45.851374740397077
20
53.063021298119381
10
62.685931909001418
20
55.428964014448624
10
60.319989192671201
20
72.263521183055005
10
43.485432024067379
20
69.897578466729854
0
LINE
5
178
100
AcDbEntity
8
0
100
AcDbLine
10
65.077169560952939
20
66.87151742585209
30
0
11
66.279918810902544
21
53.124030592188802
31
0
0
LINE
5
179
100
AcDbEntity
8
0
100
AcDbLine
10
45.292537895590719
20
68.535826518274561
30
0
11
60.878826037479101
21
56.790715962897494
31
0
0
LINE
5
180
100
AcDbEntity
8
0
100
AcDbLine
10
58.95823724422344
20
70.456415311530193
30
0
11
45.292537895590719
21
68.535826518274561
31
0
0
LINE
5
181
100
AcDbEntity
8
0
100
AcDbLine
10
43.533407001763464
20
49.139576565528138
30
0
11
41.137062149953614
21
62.729923557095155
31
0
0
LINE
5
182
100
AcDbEntity
8
0
100
AcDbLine
10
45.292537895590719
20
68.535826518274561
30
0
11
47.213126688846373
21
54.87012716964184
31
0
0
LWPOLYLINE
5
183
100
AcDbEntity
8
0
100
AcDbPolyline
90
4
70
1
43
0.0
10
85.521288366538798
20
65.006508699647569
10
99.560029768537689
20
51.449453715331011
10
85.762131575379613
20
51.208610506489471
10
99.319186559702047
20
65.247351908488753
0
LWPOLYLINE
5
184
100
AcDbEntity
8
0
100
AcDbPolyline
90
4
70
1
43
0.0
10
29.340221332463045
20
40.948066973857706
10
26.38820231211163
20
57.689798775065455
10
9.6464705109129874
20
54.737779754720044
10
12.598489531254657
20
37.996047953514406
0
LWPOLYLINE
5
185
100
AcDbEntity
8
0
100
AcDbPolyline
90
3
70
1
43
0.0
10
25.090346991566985
20
55.836269285980165
10
11.500000000000002
20
53.439924434169093
10
27.486691843376839
20
42.245922294411884
0
LINE
5
186
100
AcDbEntity
8
0
100
AcDbLine
10
28.042366011917622
20
39.094537484766867
30
0
11
14.452019020348247
21
36.698192632966816
31
0
0
LINE
5
187
100
AcDbEntity
8
0
100
AcDbLine
10
85.521288366538798
20
65.006508699647569
30
0
11
85.762131575379613
21
51.208610506489471
31
0
0
LINE
5
188
100
AcDbEntity
8
0
100
AcDbLine
10
88.340826218754245
20
87.761506198113125
30
0
11
83.289675646529545
21
68.910355625888741
31
0
0
LINE
5
189
100
AcDbEntity
8
0
100
AcDbLine
10
11.500000000000002
20
53.439924434169093
30
0
11
13.896344851809523
21
39.849577442601657
31
0
0
LINE
5
190
100
AcDbEntity
8
0
100
AcDbLine
10
99.560029768537689
20
51.449453715331011
30
0
11
99.319186559702047
21
65.247351908488753
31
0
0
LINE
5
191
100
AcDbEntity
8
0
100
AcDbLine
10
99.615877469139605
20
48.24994109082369
30
0
11
85.817979275981628
21
48.009097881982221
31
0
0
LINE
5
192
100
AcDbEntity
8
0
100
AcDbLine
10
13.896344851809523
20
39.849577442601657
30
0
11
27.486691843376839
21
42.245922294411884
31
0
0
LINE
5
193
100
AcDbEntity
8
0
100
AcDbLine
10
80.306304021337581
20
51.138956808227249
30
0
11
66.558817187672204
21
49.936207558302819
31
0
0
LINE
5
194
100
AcDbEntity
8
0
100
AcDbLine
10
78.824656394647036
20
68.074266675775803
30
0
11
65.077169560952939
21
66.87151742585209
31
0
0
LINE
5
195
100
AcDbEntity
8
0
100
AcDbLine
10
25.090346991566985
20
55.836269285980165
30
0
11
13.896344851809523
21
39.849577442601657
31
0
0
LINE
5
196
100
AcDbEntity
8
0
100
AcDbLine
10
65.077169560952939
20
66.87151742585209
30
0
11
80.027405644567978
21
54.326779842114234
31
0
0
LINE
5
197
100
AcDbEntity
8
0
100
AcDbLine
10
76.389675646529383
20
80.861506198114455
30
0
11
95.240826218753938
21
75.81035562588832
31
0
0
LINE
5
198
100
AcDbEntity
8
0
100
AcDbLine
10
30.438710863730737
20
25.504190493208601
30
0
11
28.042366011917622
21
39.094537484766867
31
0
0
LWPOLYLINE
5
199
100
AcDbEntity
8
0
100
AcDbPolyline
90
3
70
1
43
0.0
10
86.791560807562036
20
-7.7673507050598358
10
100.58945900072011
20
-7.5265074962186551
10
86.550717598721548
20
6.0305474881016448
0
LWPOLYLINE
5
200
100
AcDbEntity
8
0
100
AcDbPolyline
90
4
70
1
43
0.0
10
102.21713916327005
20
-9.0983399581684292
10
101.92044825382857
20
7.8990708594904513
10
84.923037436171626
20
7.6023799500515725
10
85.219728345613035
20
-9.395030867609707
0
LINE
5
201
100
AcDbEntity
8
0
100
AcDbLine
10
100.58945900072011
20
-7.5265074962186551
30
0
11
100.34861579187961
21
6.2713906969404665
31
0
0
LINE
5
202
100
AcDbEntity
8
0
100
AcDbLine
10
100.34861579187961
20
6.2713906969404665
30
0
11
86.791560807562036
21
-7.7673507050598358
31
0
0
LINE
5
203
100
AcDbEntity
8
0
100
AcDbLine
10
100.34861579187961
20
6.2713906969404665
30
0
11
86.550717598721548
21
6.0305474881016448
31
0
0
LWPOLYLINE
5
204
100
AcDbEntity
8
0
100
AcDbPolyline
90
4
70
1
43
0.0
10
-25.090346991566985
20
55.836269285980165
10
-13.896344851809523
20
39.849577442601657
10
-11.500000000000002
20
53.439924434169093
10
-27.486691843376839
20
42.245922294411884
0
LWPOLYLINE
5
205
100
AcDbEntity
8
0
100
AcDbPolyline
90
4
70
1
43
0.0
10
-18.502527571937822
20
4.5125843511077948
10
-35.244259373137076
20
7.4646033714486562
10
-32.292240352790678
20
24.206335172658513
10
-15.550508551595792
20
21.254316152313613
0
LWPOLYLINE
5
206
100
AcDbEntity
8
0
100
AcDbPolyline
90
3
70
1
43
0.0
10
-40.67494132216288
20
-14.120291661157827
10
-54.265288313730089
20
-11.723946809347103
10
-51.868943461919734
20
1.8664001822197127
0
LWPOLYLINE
5
207
100
AcDbEntity
8
0
100
AcDbPolyline
90
4
70
1
43
0.0
10
-28.645204689640998
20
44.889702224630526
10
-31.59722370996926
20
28.147970423423171
10
-48.338955511195948
20
31.09998944377276
10
-45.386936490854019
20
47.841721244978089
0
LINE
5
208
100
AcDbEntity
8
0
100
AcDbLine
10
-19.370768460273759
20
-0.41145441395301952
30
0
11
-5.5288345078017498
21
78.090053958929815
31
0
0
LWPOLYLINE
5
209
100
AcDbEntity
8
0
100
AcDbPolyline
90
3
70
1
43
0.0
10
-14.452019020348247
20
36.698192632966816
10
-16.848363872163088
20
23.107845641400306
10
-28.042366011917622
20
39.094537484766867
0
LWPOLYLINE
5
210
100
AcDbEntity
8
0
100
AcDbPolyline
90
3
70
1
43
0.0
10
-30.994385032244331
20
22.352805683573038
10
-17.404038040683933
20
19.956460831765398
10
-19.800382892483977
20
6.3661138401962925
0
LWPOLYLINE
5
211
100
AcDbEntity
8
0
100
AcDbPolyline
90
4
70
1
43
0.0
10
-31.59722370996926
20
28.147970423423171
10
-34.54924273031267
20
11.406238622209621
10
-51.290974531527311
20
14.358257642553248
10
-48.338955511183961
20
31.099989443766717
0
LWPOLYLINE
5
212
100
AcDbEntity
8
0
100
AcDbPolyline
90
3
70
1
43
0.0
10
-35.127211660719276
20
-1.0856188381237897
10
-21.536864669152244
20
-3.4819636899351405
10
-37.523556512526511
20
-14.675965829691442
0
LINE
5
213
100
AcDbEntity
8
0
100
AcDbLine
10
-33.390729884051616
20
8.7624586920046852
30
0
11
-30.994385032244331
21
22.352805683573038
31
0
0
LWPOLYLINE
5
214
100
AcDbEntity
8
0
100
AcDbPolyline
90
8
70
1
43
0.0
10
-15.550508551595792
20
21.254316152313613
10
-32.292240352814552
20
24.206335172667529
10
-29.340221332461663
20
40.948066973851454
10
-12.598489531254657
20
37.996047953514406
10
-9.6464705109129856
20
54.737779754720044
10
-26.38820231211163
20
57.689798775065455
10
-29.340221332463045
20
40.948066973857706
10
-12.598489531254657
20
37.996047953514406
0
LINE
5
215
100
AcDbEntity
8
0
100
AcDbLine
10
-21.536864669152244
20
-3.4819636899351405
30
0
11
-23.933209520959437
21
-17.072310681502987
31
0
0
LINE
5
216
100
AcDbEntity
8
0
100
AcDbLine
10
1.402929396382209e-15
20
78.090053958929687
30
0
11
-139.45667467506252
21
78.090053958926177
31
0
0
LWPOLYLINE
5
217
100
AcDbEntity
8
0
100
AcDbPolyline
90
4
70
1
43
0.0
10
-66.307104109047529
20
34.455360019294375
10
-67.788751735764805
20
17.520050151750198
10
-84.724061603326689
20
19.001697778468984
10
-83.242413976609498
20
35.937007646013065
0
LINE
5
218
100
AcDbEntity
8
0
100
AcDbLine
10
-6.9837500524075451e-17
20
-0.41145441397324956
30
0
11
-139.45667467502113
21
-0.41145441382760611
31
0
0
LWPOLYLINE
5
219
100
AcDbEntity
8
0
100
AcDbPolyline
90
4
70
1
43
0.0
10
-28.645204689640998
20
44.889702224630526
10
-45.386936490851923
20
47.841721244977691
10
-42.434917470510158
20
64.583453046182044
10
-25.693185669297989
20
61.631434025832839
0
LWPOLYLINE
5
220
100
AcDbEntity
8
0
100
AcDbPolyline
90
3
70
1
43
0.0
10
-82.990700897983345
20
20.456160107018768
10
-81.787951648056051
20
34.203646940678674
10
-69.243214064318025
20
19.253410857092238
0
LWPOLYLINE
5
221
100
AcDbEntity
8
0
100
AcDbPolyline
90
4
70
1
43
0.0
10
-84.486990022874011
20
32.583519526274273
10
-84.783680932312478
20
15.586108708617569
10
-101.78109174997518
20
15.882799618059407
10
-101.48440084053397
20
32.880210435716293
0
LWPOLYLINE
5
222
100
AcDbEntity
8
0
100
AcDbPolyline
90
4
70
1
43
0.0
10
-33.450753199058973
20
26.850115102866091
10
-49.437445042437787
20
15.656112963109559
10
-35.847098050870528
20
13.259768111299017
10
-47.041100190627773
20
29.246459954676819
0
LWPOLYLINE
5
223
100
AcDbEntity
8
0
100
AcDbPolyline
90
4
70
1
43
0.0
10
-66.307104109047529
20
34.455360019294375
10
-83.242413976604979
20
35.937007646012702
10
-81.760766349886524
20
52.872317513570181
10
-64.825456482329287
20
51.390669886851903
0
LWPOLYLINE
5
224
100
AcDbEntity
8
0
100
AcDbPolyline
90
4
70
1
43
0.0
10
-39.377086001613286
20
-15.973821150244028
10
-36.42506698127135
20
0.76791065096292055
10
-19.683335180065566
20
-2.1841083693830394
10
-22.635354200407853
20
-18.925840170589805
0
LWPOLYLINE
5
225
100
AcDbEntity
8
0
100
AcDbPolyline
90
3
70
1
43
0.0
10
-32.895079030540074
20
30.001499912513054
10
-46.485426022107347
20
32.397844764323501
10
-44.089081170296815
20
45.988191755890675
0
LWPOLYLINE
5
226
100
AcDbEntity
8
0
100
AcDbPolyline
90
8
70
1
43
0.0
10
-67.417817341662271
20
21.759849677222427
10
-65.051874625334762
20
38.594406845842798
10
-48.217317456722427
20
36.2284641295144
10
-45.851374740397077
20
53.063021298119381
10
-62.685931909004147
20
55.428964014448859
10
-65.051874625332545
20
38.594406845837312
10
-48.217317456722427
20
36.2284641295144
10
-50.583260173047975
20
19.393906960908961
0
LWPOLYLINE
5
227
100
AcDbEntity
8
0
100
AcDbPolyline
90
3
70
1
43
0.0
10
-27.546715158384153
20
60.333578705284616
10
-43.533407001763464
20
49.139576565528138
10
-41.137062149953614
20
62.729923557095155
0
LWPOLYLINE
5
228
100
AcDbEntity
8
0
100
AcDbPolyline
90
4
70
1
43
0.0
10
-99.912568378584808
20
31.252530273166418
10
-86.114670185426135
20
31.011687064325205
10
-86.355513394267263
20
17.213788871167118
10
-100.15341158742538
20
17.454632080005435
0
LWPOLYLINE
5
229
100
AcDbEntity
8
0
100
AcDbPolyline
90
4
70
1
43
0.0
10
-36.425066981267008
20
0.76791065096061994
10
-39.377086001613286
20
-15.973821150244028
10
-56.118817802816572
20
-13.021802129898708
10
-53.166798782470764
20
3.7199296713061032
0
LWPOLYLINE
5
230
100
AcDbEntity
8
0
100
AcDbPolyline
90
4
70
1
43
0.0
10
-86.058822484822869
20
34.211199688824124
10
-99.856720677980945
20
34.452042897665422
10
-99.615877469139605
20
48.24994109082369
10
-85.817979275981628
20
48.009097881982221
0
LINE
5
231
100
AcDbEntity
8
0
100
AcDbLine
10
-86.114670185426135
20
31.011687064325205
30
0
11
-100.15341158742538
21
17.454632080005435
31
0
0
LINE
5
232
100
AcDbEntity
8
0
100
AcDbLine
10
-99.912568378584808
20
31.252530273166418
30
0
11
-86.355513394267263
21
17.213788871167118
31
0
0
LWPOLYLINE
5
233
100
AcDbEntity
8
0
100
AcDbPolyline
90
8
70
1
43
0.0
10
-84.486990022874011
20
32.583519526274273
10
-101.48440084053072
20
32.880210435716471
10
-101.18770993108812
20
49.877621253374606
10
-84.190299113431706
20
49.580930343937737
10
-83.893608203989061
20
66.578341161596526
10
-100.89101902164428
20
66.87503207103849
10
-101.18770993108699
20
49.877621253375949
10
-84.190299113431706
20
49.580930343937737
0
LINE
5
234
100
AcDbEntity
8
0
100
AcDbLine
10
-30.498734178729514
20
43.591846904080299
30
0
11
-46.485426022107347
21
32.397844764323501
31
0
0
LINE
5
235
100
AcDbEntity
8
0
100
AcDbLine
10
-29.943060010196199
20
46.74323171371762
30
0
11
-43.533407001763464
21
49.139576565528138
31
0
0
LWPOLYLINE
5
236
100
AcDbEntity
8
0
100
AcDbPolyline
90
4
70
1
43
0.0
10
-100.34861579187961
20
6.2713906969406814
10
-86.791560807561979
20
-7.7673507050564563
10
-100.58945900072007
20
-7.5265074962152259
10
-86.550717598721548
20
6.0305474881017194
0
LINE
5
237
100
AcDbEntity
8
0
100
AcDbLine
10
-100.58945900072007
20
-7.5265074962152241
30
0
11
-100.34861579187961
21
6.2713906969406814
31
0
0
LWPOLYLINE
5
238
100
AcDbEntity
8
0
100
AcDbPolyline
90
4
70
1
43
0.0
10
-68.536131556680417
20
4.6041690446829824
10
-69.738880806604271
20
-9.1433177889825004
10
-83.486367640269975
20
-7.9405685390609424
10
-82.28361839034747
20
5.8069182946053877
0
LWPOLYLINE
5
239
100
AcDbEntity
8
0
100
AcDbPolyline
90
4
70
1
43
0.0
10
-66.802770851337357
20
6.0586313732325596
10
-68.284418478053382
20
-10.87667849432443
10
-85.219728345612992
20
-9.3950308676080105
10
-83.738080718897152
20
7.5402789999489359
0
LINE
5
240
100
AcDbEntity
8
0
100
AcDbLine
10
-19.800382892483977
20
6.3661138401962916
30
0
11
-33.390729884051616
21
8.7624586920046852
31
0
0
LINE
5
241
100
AcDbEntity
8
0
100
AcDbLine
10
-17.404038040683933
20
19.956460831765398
30
0
11
-33.390729884051616
21
8.7624586920046852
31
0
0
LINE
5
242
100
AcDbEntity
8
0
100
AcDbLine
10
-16.848363872163088
20
23.107845641400306
30
0
11
-30.438710863730737
21
25.504190493208601
31
0
0
LINE
5
243
100
AcDbEntity
8
0
100
AcDbLine
10
-33.450753199058973
20
26.850115102866091
30
0
11
-35.847098050870528
21
13.259768111299017
31
0
0
LINE
5
244
100
AcDbEntity
8
0
100
AcDbLine
10
-35.127211660719276
20
-1.0856188381237897
30
0
11
-23.933209520959437
21
-17.072310681502987
31
0
0
LINE
5
245
100
AcDbEntity
8
0
100
AcDbLine
10
-50.024423328247337
20
34.866712181063598
30
0
11
-51.945012121502785
21
21.201012832430845
31
0
0
LINE
5
246
100
AcDbEntity
8
0
100
AcDbLine
10
-25.090346991566985
20
55.836269285980165
30
0
11
-11.500000000000002
21
53.439924434169093
31
0
0
LINE
5
247
100
AcDbEntity
8
0
100
AcDbLine
10
-27.546715158384153
20
60.333578705284616
30
0
11
-29.943060010196199
21
46.74323171371762
31
0
0
LINE
5
248
100
AcDbEntity
8
0
100
AcDbLine
10
-14.452019020348247
20
36.698192632966816
30
0
11
-30.438710863730737
21
25.504190493208601
31
0
0
LINE
5
249
100
AcDbEntity
8
0
100
AcDbLine
10
-36.633020862326518
20
-0.41145441393357784
30
0
11
-22.791086909805649
21
78.090053958930014
31
0
0
LINE
5
250
100
AcDbEntity
8
0
100
AcDbLine
10
-30.438710863730737
20
25.504190493208601
30
0
11
-28.042366011917622
21
39.094537484766867
31
0
0
LINE
5
251
100
AcDbEntity
8
0
100
AcDbLine
10
-38.278596470353321
20
-0.52994466959039621
30
0
11
-40.67494132216288
21
-14.120291661157827
31
0
0
LINE
5
252
100
AcDbEntity
8
0
100
AcDbLine
10
-49.437445042437787
20
15.656112963109559
30
0
11
-47.041100190627773
21
29.246459954676819
31
0
0
LINE
5
253
100
AcDbEntity
8
0
100
AcDbLine
10
-51.868943461919734
20
1.8664001822197127
30
0
11
-38.278596470353321
21
-0.52994466959039621
31
0
0
LINE
5
254
100
AcDbEntity
8
0
100
AcDbLine
10
-38.278596470353321
20
-0.52994466959039621
30
0
11
-54.265288313730089
21
-11.723946809347103
31
0
0
LINE
5
255
100
AcDbEntity
8
0
100
AcDbLine
10
-81.787951648056051
20
34.203646940678674
30
0
11
-68.040464814380982
21
33.000897690756624
31
0
0
LINE
5
256
100
AcDbEntity
8
0
100
AcDbLine
10
-44.089081170296815
20
45.988191755890675
30
0
11
-30.498734178729514
21
43.591846904080299
31
0
0
LINE
5
257
100
AcDbEntity
8
0
100
AcDbLine
10
-13.896344851809523
20
39.849577442601657
30
0
11
-27.486691843376839
21
42.245922294411884
31
0
0
LINE
5
258
100
AcDbEntity
8
0
100
AcDbLine
10
-30.498734178729514
20
43.591846904080299
30
0
11
-32.895079030540074
21
30.001499912513054
31
0
0
LINE
5
259
100
AcDbEntity
8
0
100
AcDbLine
10
-68.040464814380982
20
33.000897690756624
30
0
11
-82.990700897983345
21
20.456160107018768
31
0
0
LWPOLYLINE
5
260
100
AcDbEntity
8
0
100
AcDbPolyline
90
3
70
1
43
0.0
10
-65.610711470135527
20
23.12160162568636
10
-63.690122676879881
20
36.787300974319159
10
-50.024423328247337
20
34.866712181063598
0
LINE
5
261
100
AcDbEntity
8
0
100
AcDbLine
10
-68.040464814380982
20
33.000897690756624
30
0
11
-69.243214064318025
21
19.253410857092238
31
0
0
LINE
5
262
100
AcDbEntity
8
0
100
AcDbLine
10
-41.137062149953614
20
62.729923557095155
30
0
11
-29.943060010196199
21
46.74323171371762
31
0
0
LINE
5
263
100
AcDbEntity
8
0
100
AcDbLine
10
-67.761566437596542
20
36.188720724637314
30
0
11
-81.509053271262033
21
37.391469974561829
31
0
0
LINE
5
264
100
AcDbEntity
8
0
100
AcDbLine
10
-23.933209520959437
20
-17.072310681502987
30
0
11
-37.523556512526511
21
-14.675965829691442
31
0
0
LINE
5
265
100
AcDbEntity
8
0
100
AcDbLine
10
-76.389675646529383
20
80.861506198113759
30
0
11
-83.289675646529332
21
68.910355625888613
31
0
0
LWPOLYLINE
5
266
100
AcDbEntity
8
0
100
AcDbPolyline
90
3
70
1
43
0.0
10
-66.558817187672204
20
49.936207558302819
10
-81.509053271262033
20
37.391469974561829
10
-80.306304021337581
20
51.138956808227249
0
LWPOLYLINE
5
267
100
AcDbEntity
8
0
100
AcDbPolyline
90
3
70
1
43
0.0
10
-47.658480611921696
20
51.701269349670696
10
-49.579069405177265
20
38.035570001037961
10
-63.244768753810007
20
39.956158794293501
0
LWPOLYLINE
5
268
100
AcDbEntity
8
0
100
AcDbPolyline
90
4
70
1
43
0.0
10
-81.760766349918214
20
52.872317513572888
10
-80.279118723204903
20
69.807627381117385
10
-63.34380885561206
20
68.325979754396158
10
-64.825456482329287
20
51.390669886851903
0
LINE
5
269
100
AcDbEntity
8
0
100
AcDbLine
10
-85.521288366538798
20
65.006508699647569
30
0
11
-99.560029768537689
21
51.449453715331011
31
0
0
LWPOLYLINE
5
270
100
AcDbEntity
8
0
100
AcDbPolyline
90
4
70
1
43
0.0
10
-99.560029768537689
20
51.449453715331011
10
-99.319186559702047
20
65.247351908488753
10
-85.521288366538798
20
65.006508699647569
10
-85.762131575379613
20
51.208610506489471
0
LWPOLYLINE
5
271
100
AcDbEntity
8
0
100
AcDbPolyline
90
4
70
1
43
0.0
10
-45.851374740397077
20
53.063021298119381
10
-62.685931909001418
20
55.428964014448624
10
-60.319989192671201
20
72.263521183055005
10
-43.485432024067379
20
69.897578466729854
0
LWPOLYLINE
5
272
100
AcDbEntity
8
0
100
AcDbPolyline
90
4
70
1
43
0.0
10
-97.426466864809072
20
75.224714979833109
10
-88.926466864809413
20
89.947146844168259
10
-74.204035000474391
20
81.447146844168458
10
-82.70403500047405
20
66.724714979833323
0
LWPOLYLINE
5
273
100
AcDbEntity
8
0
100
AcDbPolyline
90
3
70
1
43
0.0
10
-80.027405644567978
20
54.326779842114234
10
-78.824656394647036
20
68.074266675775803
10
-65.077169560952939
20
66.87151742585209
0
LINE
5
274
100
AcDbEntity
8
0
100
AcDbLine
10
-99.319186559702047
20
65.247351908488753
30
0
11
-85.762131575379613
21
51.208610506489471
31
0
0
LWPOLYLINE
5
275
100
AcDbEntity
8
0
100
AcDbPolyline
90
3
70
1
43
0.0
10
-95.240826218753938
20
75.810355625888747
10
-88.340826218754231
20
87.761506198113523
10
-76.389675646529383
20
80.861506198113759
0
LINE
5
276
100
AcDbEntity
8
0
100
AcDbLine
10
-88.340826218754231
20
87.761506198113523
30
0
11
-83.289675646529332
21
68.910355625888613
31
0
0
LINE
5
277
100
AcDbEntity
8
0
100
AcDbLine
10
-83.289675646529332
20
68.910355625888613
30
0
11
-95.240826218753938
21
75.810355625888747
31
0
0
LINE
5
278
100
AcDbEntity
8
0
100
AcDbLine
10
-85.062919435325099
20
-0.41145441388299941
30
0
11
-83.692670509635718
21
78.090053958928976
31
0
0
LINE
5
279
100
AcDbEntity
8
0
100
AcDbLine
10
-66.279918810902544
20
53.124030592188802
30
0
11
-80.027405644567978
21
54.326779842114234
31
0
0
LWPOLYLINE
5
280
100
AcDbEntity
8
0
100
AcDbPolyline
90
4
70
1
43
0.0
10
-84.923037436171626
20
7.6023799500515583
10
-85.219728345613021
20
-9.3950308676062981
10
-102.21713916326999
20
-9.0983399581650239
10
-101.92044825382857
20
7.89907085949043
0
LINE
5
281
100
AcDbEntity
8
0
100
AcDbLine
10
-78.824656394647036
20
68.074266675775803
30
0
11
-66.279918810902544
21
53.124030592188802
31
0
0
LINE
5
282
100
AcDbEntity
8
0
100
AcDbLine
10
-45.292537895590719
20
68.535826518274561
30
0
11
-60.878826037479101
21
56.790715962897494
31
0
0
LWPOLYLINE
5
283
100
AcDbEntity
8
0
100
AcDbPolyline
90
4
70
1
43
0.0
10
-60.878826037479101
20
56.790715962897494
10
-58.95823724422344
20
70.456415311530193
10
-45.292537895590719
20
68.535826518274561
10
-47.213126688846373
20
54.87012716964184
0
LINE
5
284
100
AcDbEntity
8
0
100
AcDbLine
10
-69.357555105227334
20
-0.41145441389940146
30
0
11
-62.489563052898596
21
78.090053958929587
31
0
0
LINE
5
285
100
AcDbEntity
8
0
100
AcDbLine
10
-61.324179960563271
20
53.621858142927579
30
0
11
-47.658480611921696
21
51.701269349670696
31
0
0
LINE
5
286
100
AcDbEntity
8
0
100
AcDbLine
10
-99.615877469139605
20
48.24994109082369
30
0
11
-86.058822484822869
21
34.211199688824124
31
0
0
LINE
5
287
100
AcDbEntity
8
0
100
AcDbLine
10
-58.95823724422344
20
70.456415311530193
30
0
11
-47.213126688846373
21
54.87012716964184
31
0
0
LINE
5
288
100
AcDbEntity
8
0
100
AcDbLine
10
-61.324179960563271
20
53.621858142927579
30
0
11
-49.579069405177265
21
38.035570001037961
31
0
0
LINE
5
289
100
AcDbEntity
8
0
100
AcDbLine
10
-66.558817187672204
20
49.936207558302819
30
0
11
-67.761566437596542
21
36.188720724637314
31
0
0
LINE
5
290
100
AcDbEntity
8
0
100
AcDbLine
10
-85.817979275981628
20
48.009097881982221
30
0
11
-99.856720677980945
21
34.452042897665422
31
0
0
LINE
5
291
100
AcDbEntity
8
0
100
AcDbLine
10
-56.118817802816572
20
-13.021802129898708
30
0
11
-68.284418478053382
21
-10.87667849432443
31
0
0
LINE
5
292
100
AcDbEntity
8
0
100
AcDbLine
10
-63.690122676879881
20
36.787300974319159
30
0
11
-51.945012121502785
21
21.201012832430845
31
0
0
LINE
5
293
100
AcDbEntity
8
0
100
AcDbLine
10
-65.077169560952939
20
66.87151742585209
30
0
11
-66.279918810902544
21
53.124030592188802
31
0
0
LINE
5
294
100
AcDbEntity
8
0
100
AcDbLine
10
-53.366722192284385
20
-0.41145441391610182
30
0
11
-42.334054680025744
21
78.090053958929346
31
0
0
LINE
5
295
100
AcDbEntity
8
0
100
AcDbLine
10
-51.945012121502785
20
21.201012832430845
30
0
11
-65.610711470135527
21
23.12160162568636
31
0
0
LINE
5
296
100
AcDbEntity
8
0
100
AcDbLine
10
-63.244768753810007
20
39.956158794293501
30
0
11
-61.324179960563271
21
53.621858142927579
31
0
0
LINE
5
297
100
AcDbEntity
8
0
100
AcDbLine
10
-68.536131556680417
20
4.6041690446829824
30
0
11
-83.486367640269975
21
-7.9405685390609424
31
0
0
LINE
5
298
100
AcDbEntity
8
0
100
AcDbLine
10
-86.550717598721548
20
6.0305474881017194
30
0
11
-86.791560807561979
21
-7.7673507050564563
31
0
0
LINE
5
299
100
AcDbEntity
8
0
100
AcDbLine
10
-139.45667467506252
20
78.090053958926177
30
0
11
-139.45667467502113
21
-0.41145441382760611
31
0
0
LINE
5
300
100
AcDbEntity
8
0
100
AcDbLine
10
-80.306304021337581
20
51.138956808227249
30
0
11
-67.761566437596542
21
36.188720724637314
31
0
0
LINE
5
301
100
AcDbEntity
8
0
100
AcDbLine
10
-82.28361839034747
20
5.8069182946053877
30
0
11
-69.738880806604271
21
-9.1433177889825004
31
0
0
LINE
5
302
100
AcDbEntity
8
0
100
AcDbLine
10
85.81525093264176
20
78.335930912001174
30
0
11
86.019832608592012
21
66.615454546631852
31
0
0
ENDSEC
0
SECTION
2
OBJECTS
0
DICTIONARY
5
C
100
AcDbDictionary
3
ACAD_GROUP
350
D
3
ACAD_MLINESTYLE
350
17
0
DICTIONARY
5
D
100
AcDbDictionary
0
DICTIONARY
5
1A
330
C
100
AcDbDictionary
0
DICTIONARY
5
17
100
AcDbDictionary
0
ENDSEC
0
EOF
