0
SECTION
2
HEADER
9
$INSUNITS
70
4
9
$ACADVER
1
AC1014
9
$HANDSEED
5
FFFF
0
ENDSEC
0
SECTION
2
TABLES
0
TABLE
2
VPORT
5
8
100
AcDbSymbolTable
0
ENDTAB
0
TABLE
2
LTYPE
5
5
100
AcDbSymbolTable
0
LTYPE
5
14
100
AcDbSymbolTableRecord
100
AcDbLinetypeTableRecord
2
BYBLOCK
70
0
0
LTYPE
5
15
100
AcDbSymbolTableRecord
100
AcDbLinetypeTableRecord
2
BYLAYER
70
0
0
ENDTAB
0
TABLE
2
LAYER
5
2
100
AcDbSymbolTable
70
2
0
LAYER
5
50
100
AcDbSymbolTableRecord
100
AcDbLayerTableRecord
2
0
70
0
6
CONTINUOUS
0
ENDTAB
0
TABLE
2
STYLE
5
3
100
AcDbSymbolTable
70
1
0
STYLE
5
11
100
AcDbSymbolTableRecord
100
AcDbTextStyleTableRecord
2
STANDARD
70
0
0
ENDTAB
0
TABLE
2
VIEW
5
6
100
AcDbSymbolTable
70
0
0
ENDTAB
0
TABLE
2
UCS
5
7
100
AcDbSymbolTable
70
0
0
ENDTAB
0
TABLE
2
APPID
5
9
100
AcDbSymbolTable
70
2
0
APPID
5
12
100
AcDbSymbolTableRecord
100
AcDbRegAppTableRecord
2
ACAD
70
0
0
ENDTAB
0
TABLE
2
DIMSTYLE
5
A
100
AcDbSymbolTable
70
1
0
ENDTAB
0
TABLE
2
BLOCK_RECORD
5
1
100
AcDbSymbolTable
70
1
0
BLOCK_RECORD
5
1F
100
AcDbSymbolTableRecord
100
AcDbBlockTableRecord
2
*MODEL_SPACE
0
BLOCK_RECORD
5
1B
100
AcDbSymbolTableRecord
100
AcDbBlockTableRecord
2
*PAPER_SPACE
0
ENDTAB
0
ENDSEC
0
SECTION
2
BLOCKS
0
BLOCK
5
20
100
AcDbEntity
100
AcDbBlockBegin
2
*MODEL_SPACE
0
ENDBLK
5
21
100
AcDbEntity
100
AcDbBlockEnd
0
BLOCK
5
1C
100
AcDbEntity
100
AcDbBlockBegin
2
*PAPER_SPACE
0
ENDBLK
5
1D
100
AcDbEntity
100
AcDbBlockEnd
0
ENDSEC
0
SECTION
2
ENTITIES
0
CIRCLE
5
100
100
AcDbEntity
8
0
100
AcDbCircle
10
-4.3380909910819147e-16
20
-25.00000037252903
30
0
40
2.5
210
0
220
0
230
1
0
LINE
5
101
100
AcDbEntity
8
0
100
AcDbLine
10
51.04878240821273
20
76.767635635264668
30
0
11
45.740415570939355
21
77.115245543039364
31
0
0
LINE
5
102
100
AcDbEntity
8
0
100
AcDbLine
10
53.875499662290878
20
77.426822781224047
30
0
11
81.329034459672144
21
93.277128486698771
31
0
0
LINE
5
103
100
AcDbEntity
8
0
100
AcDbLine
10
82.695059863456564
20
92.911103082914366
30
0
11
83.196206295990081
21
92.043091999734486
31
0
0
LINE
5
104
100
AcDbEntity
8
0
100
AcDbLine
10
96.116453147733665
20
60.235138560631896
30
0
11
96.690413701246513
21
57.969119433801062
31
0
0
LINE
5
105
100
AcDbEntity
8
0
100
AcDbLine
10
97.639724617486237
20
0.611776592178776
30
0
11
96.121423807364295
21
-6.3417949287280395
31
0
0
LINE
5
106
100
AcDbEntity
8
0
100
AcDbLine
10
91.672293191461961
20
-10.256156567957799
30
0
11
66.401424303827511
21
-12.467071113080106
31
0
0
LINE
5
107
100
AcDbEntity
8
0
100
AcDbLine
10
55.589869938941739
20
-13.890439248019963
30
0
11
26.398689846420922
21
-19.037631897050655
31
0
0
LINE
5
108
100
AcDbEntity
8
0
100
AcDbLine
10
4.6926676380570731
20
-20.936662770524226
30
0
11
-3.6330058717892483e-16
21
-20.936662770524247
31
0
0
LINE
5
109
100
AcDbEntity
8
0
100
AcDbLine
10
-51.04878240821273
20
76.767635635264668
30
0
11
-45.740415570937962
21
77.115245543039421
31
0
0
LINE
5
110
100
AcDbEntity
8
0
100
AcDbLine
10
-53.875499662290871
20
77.426822781224033
30
0
11
-81.32903445967213
21
93.277128486698771
31
0
0
LINE
5
111
100
AcDbEntity
8
0
100
AcDbLine
10
-82.695059863456507
20
92.911103082914337
30
0
11
-83.19620629599028
21
92.043091999734031
31
0
0
LINE
5
112
100
AcDbEntity
8
0
100
AcDbLine
10
-96.116453147733779
20
60.235138560631434
30
0
11
-96.69041370124647
21
57.969119433801112
31
0
0
LINE
5
113
100
AcDbEntity
8
0
100
AcDbLine
10
-97.639724617486223
20
0.61177659217880986
30
0
11
-96.121423807364309
21
-6.3417949287280102
31
0
0
LINE
5
114
100
AcDbEntity
8
0
100
AcDbLine
10
-91.672293191461961
20
-10.25615656795779
30
0
11
-66.401424303827497
21
-12.467071113080106
31
0
0
LINE
5
115
100
AcDbEntity
8
0
100
AcDbLine
10
-55.589869938942073
20
-13.89043924801992
30
0
11
-26.398689846420929
21
-19.037631897050673
31
0
0
LINE
5
116
100
AcDbEntity
8
0
100
AcDbLine
10
-4.6926676380570242
20
-20.936662770524258
30
0
11
-4.1315630295875636e-16
21
-20.936662770524247
31
0
0
ARC
5
117
100
AcDbEntity
8
0
100
AcDbCircle
10
24.483008623550138
20
27.277072872900654
30
0
40
125
210
0
220
0
230
1
100
AcDbArc
50
165.78646611853353
51
192.31712304417238
0
ARC
5
118
100
AcDbEntity
8
0
100
AcDbCircle
10
-24.483008623550138
20
27.277072872900611
30
0
40
125.00000000000003
210
-0
220
0
230
1
100
AcDbArc
50
-12.317123044172353
51
14.213533881466477
0
ARC
5
119
100
AcDbEntity
8
0
100
AcDbCircle
10
-25.056969177062971
20
29.543091999731423
30
0
40
125.00000000000001
210
0
220
-0
230
1
100
AcDbArc
50
14.213533881466502
51
30.00000000000162
0
ARC
5
120
100
AcDbEntity
8
0
100
AcDbCircle
10
25.056969177059845
20
29.543091999732315
30
0
40
124.99999999999679
210
0
220
0
230
1
100
AcDbArc
50
149.99999999999827
51
165.78646611853378
0
ARC
5
121
100
AcDbEntity
8
0
100
AcDbCircle
10
77.295892147310582
20
-136.99140837459052
30
0
40
125.00000000004431
210
0
220
0
230
1
100
AcDbArc
50
95.000000000010104
51
99.999999999997613
0
ARC
5
122
100
AcDbEntity
8
0
100
AcDbCircle
10
4.6926676380569363
20
104.06333722947558
30
0
40
124.9999999999998
210
-0
220
0
230
1
100
AcDbArc
50
270.00000000000006
51
279.99999999999898
0
ARC
5
123
100
AcDbEntity
8
0
100
AcDbCircle
10
-4.6926676380569425
20
104.06333722947544
30
0
40
124.9999999999997
210
0
220
0
230
1
100
AcDbArc
50
260.00000000000102
51
269.99999999999994
0
ARC
5
124
100
AcDbEntity
8
0
100
AcDbCircle
10
-77.295892147310582
20
-136.99140837459021
30
0
40
125.00000000004398
210
0
220
-0
230
1
100
AcDbArc
50
80.00000000000253
51
84.999999999989882
0
ARC
5
125
100
AcDbEntity
8
0
100
AcDbCircle
10
3.5527136788005009e-14
20
-621.3887375403483
30
0
40
699.99999999997135
210
0
220
-0
230
1
100
AcDbArc
50
86.253426651303414
51
93.746573348696487
0
ARC
5
126
100
AcDbEntity
8
0
100
AcDbCircle
10
81.82903445967213
20
92.411103082914366
30
0
40
0.99999999999999956
210
0
220
-0
230
1
100
AcDbArc
50
30.000000000000142
51
120.00000000000024
0
ARC
5
127
100
AcDbEntity
8
0
100
AcDbCircle
10
-81.829034459672101
20
92.411103082914366
30
0
40
0.99999999999996636
210
0
220
-0
230
1
100
AcDbArc
50
60.000000000000469
51
150.00000000000045
0
ARC
5
128
100
AcDbEntity
8
0
100
AcDbCircle
10
-51.375499662290885
20
81.756949800146245
30
0
40
5.0000000000000009
210
0
220
0
230
1
100
AcDbArc
50
240.00000000000023
51
273.74657334869659
0
ARC
5
129
100
AcDbEntity
8
0
100
AcDbCircle
10
51.375499662290878
20
81.756949800146245
30
0
40
5.0000000000000195
210
0
220
0
230
1
100
AcDbArc
50
266.25342665130347
51
299.99999999999994
0
ARC
5
130
100
AcDbEntity
8
0
100
AcDbCircle
10
-91.236514477722864
20
-5.2751830774991371
30
0
40
5.0000000000000018
210
0
220
0
230
1
100
AcDbArc
50
192.31712304417238
51
264.99999999999073
0
ARC
5
131
100
AcDbEntity
8
0
100
AcDbCircle
10
91.236514477722878
20
-5.2751830774991753
30
0
40
4.9999999999999662
210
-0
220
0
230
1
100
AcDbArc
50
275.00000000000915
51
347.68287695582762
0
ENDSEC
0
SECTION
2
OBJECTS
0
DICTIONARY
5
C
100
AcDbDictionary
3
ACAD_GROUP
350
D
3
ACAD_MLINESTYLE
350
17
0
DICTIONARY
5
D
100
AcDbDictionary
0
DICTIONARY
5
1A
330
C
100
AcDbDictionary
0
DICTIONARY
5
17
100
AcDbDictionary
0
ENDSEC
0
EOF
