0
SECTION
2
HEADER
9
$INSUNITS
70
4
9
$ACADVER
1
AC1014
9
$HANDSEED
5
FFFF
0
ENDSEC
0
SECTION
2
TABLES
0
TABLE
2
VPORT
5
8
100
AcDbSymbolTable
0
ENDTAB
0
TABLE
2
LTYPE
5
5
100
AcDbSymbolTable
0
LTYPE
5
14
100
AcDbSymbolTableRecord
100
AcDbLinetypeTableRecord
2
BYBLOCK
70
0
0
LTYPE
5
15
100
AcDbSymbolTableRecord
100
AcDbLinetypeTableRecord
2
BYLAYER
70
0
0
ENDTAB
0
TABLE
2
LAYER
5
2
100
AcDbSymbolTable
70
2
0
LAYER
5
50
100
AcDbSymbolTableRecord
100
AcDbLayerTableRecord
2
0
70
0
6
CONTINUOUS
0
ENDTAB
0
TABLE
2
STYLE
5
3
100
AcDbSymbolTable
70
1
0
STYLE
5
11
100
AcDbSymbolTableRecord
100
AcDbTextStyleTableRecord
2
STANDARD
70
0
0
ENDTAB
0
TABLE
2
VIEW
5
6
100
AcDbSymbolTable
70
0
0
ENDTAB
0
TABLE
2
UCS
5
7
100
AcDbSymbolTable
70
0
0
ENDTAB
0
TABLE
2
APPID
5
9
100
AcDbSymbolTable
70
2
0
APPID
5
12
100
AcDbSymbolTableRecord
100
AcDbRegAppTableRecord
2
ACAD
70
0
0
ENDTAB
0
TABLE
2
DIMSTYLE
5
A
100
AcDbSymbolTable
70
1
0
ENDTAB
0
TABLE
2
BLOCK_RECORD
5
1
100
AcDbSymbolTable
70
1
0
BLOCK_RECORD
5
1F
100
AcDbSymbolTableRecord
100
AcDbBlockTableRecord
2
*MODEL_SPACE
0
BLOCK_RECORD
5
1B
100
AcDbSymbolTableRecord
100
AcDbBlockTableRecord
2
*PAPER_SPACE
0
ENDTAB
0
ENDSEC
0
SECTION
2
BLOCKS
0
BLOCK
5
20
100
AcDbEntity
100
AcDbBlockBegin
2
*MODEL_SPACE
0
ENDBLK
5
21
100
AcDbEntity
100
AcDbBlockEnd
0
BLOCK
5
1C
100
AcDbEntity
100
AcDbBlockBegin
2
*PAPER_SPACE
0
ENDBLK
5
1D
100
AcDbEntity
100
AcDbBlockEnd
0
ENDSEC
0
SECTION
2
ENTITIES
0
LWPOLYLINE
5
100
100
AcDbEntity
8
0
100
AcDbPolyline
90
4
70
1
43
0.0
10
76.091610208083566
20
7.9551971330976112
10
59.15630034052262
20
6.4735495063845319
10
60.637947967235455
20
-10.461760361174433
10
77.573257834796095
20
-8.9801127344612581
0
LWPOLYLINE
5
101
100
AcDbEntity
8
0
100
AcDbPolyline
90
4
70
1
43
0.0
10
-60.115095926845868
20
36.603638857738162
10
-73.862582760511685
20
37.806388107659082
10
-72.659833510590801
20
51.553874941324821
10
-58.912346676925097
20
50.351125691403993
0
LWPOLYLINE
5
102
100
AcDbEntity
8
0
100
AcDbPolyline
90
4
70
1
43
0.0
10
74.637147879533146
20
6.2218364277543534
10
60.889661045865822
20
5.0190871778346953
10
62.092410295786991
20
-8.7283996558310921
10
75.839897129452979
20
-7.5256504059121365
0
LWPOLYLINE
5
103
100
AcDbEntity
8
0
100
AcDbPolyline
90
4
70
1
43
0.0
10
94.273977743017298
20
8.3139889926335186
10
77.276566925359063
20
8.0172980831979821
10
77.573257834796095
20
-8.9801127344612581
10
94.570668652454444
20
-8.6834218250241566
0
LWPOLYLINE
5
104
100
AcDbEntity
8
0
100
AcDbPolyline
90
4
70
1
43
0.0
10
-78.412351974021306
20
34.626117821892237
10
-92.210250167179439
20
34.866961030729925
10
-91.969406958341636
20
48.664859223888172
10
-78.171508765183674
20
48.424016015050398
0
LWPOLYLINE
5
105
100
AcDbEntity
8
0
100
AcDbPolyline
90
4
70
1
43
0.0
10
-78.709042883459006
20
17.628707004233881
10
-92.506941076617181
20
17.869550213068905
10
-92.26609786777999
20
31.667448406229653
10
-78.468199674621459
20
31.426605197392057
0
LWPOLYLINE
5
106
100
AcDbEntity
8
0
100
AcDbPolyline
90
12
70
1
43
0.0
10
-59.771346830887055
20
22.174767810314499
10
-57.40540411453739
20
39.009324978933947
10
-40.570846945953775
20
36.643382262613571
10
-57.405404114539124
20
39.009324978930287
10
-55.039461398214783
20
55.843882147541379
10
-38.204904229607699
20
53.477939431216306
10
-35.8389615132877
20
70.3124965997891
10
-52.673518681888325
20
72.678439316147092
10
-55.039461398213803
20
55.843882147541308
10
-38.204904229607699
20
53.477939431216306
10
-40.570846945953775
20
36.643382262613571
10
-42.936789662253368
20
19.808825094002771
0
LWPOLYLINE
5
107
100
AcDbEntity
8
0
100
AcDbPolyline
90
4
70
1
43
0.0
10
-61.596743553556614
20
19.668328990164767
10
-75.344230387222424
20
20.871078240085616
10
-74.141481137297887
20
34.618565073765126
10
-60.393994303640298
20
33.415815823830968
0
LWPOLYLINE
5
108
100
AcDbEntity
8
0
100
AcDbPolyline
90
4
70
1
43
0.0
10
92.942988489904252
20
-7.1115893630733549
10
92.702145281067203
20
6.6863088300833766
10
78.904247087909212
20
6.4454656212470374
10
79.14509029674619
20
-7.3524325719111081
0
LWPOLYLINE
5
109
100
AcDbEntity
8
0
100
AcDbPolyline
90
4
70
1
43
0.0
10
-77.137210421548758
20
16.001026841684556
10
-94.134621239167146
20
16.297717751121255
10
-93.837930329730142
20
33.295128568779731
10
-76.840519512071282
20
32.998437659342137
0
LWPOLYLINE
5
110
100
AcDbEntity
8
0
100
AcDbPolyline
90
8
70
1
43
0.0
10
94.134621239167146
20
16.297717751121258
10
93.837930329730142
20
33.295128568779731
10
76.840519512071282
20
32.998437659342137
10
76.543828602633482
20
49.995848477004394
10
93.541239420291419
20
50.292539386438158
10
93.837930329729474
20
33.295128568779909
10
76.840519512071282
20
32.998437659342137
10
77.137210421548758
20
16.001026841684553
0
LWPOLYLINE
5
111
100
AcDbEntity
8
0
100
AcDbPolyline
90
4
70
1
43
0.0
10
92.26609786777999
20
31.66744840622966
10
78.468199674621459
20
31.426605197392057
10
78.709042883459006
20
17.628707004233878
10
92.506941076617181
20
17.869550213068898
0
LWPOLYLINE
5
112
100
AcDbEntity
8
0
100
AcDbPolyline
90
4
70
1
43
0.0
10
-58.660633598295874
20
34.870278152394967
10
-60.14228122501126
20
17.934968284821949
10
-77.077591092565626
20
19.416615911535622
10
-75.595943465850326
20
36.351925779108541
0
CIRCLE
5
113
100
AcDbEntity
8
0
100
AcDbCircle
10
-4.3380909910819147e-16
20
-25.00000037252903
30
0
40
2.5
210
0
220
0
230
1
0
LWPOLYLINE
5
114
100
AcDbEntity
8
0
100
AcDbPolyline
90
4
70
1
43
0.0
10
23.347914521389047
20
22.767723816704709
10
9.7575675297802622
20
20.371378964890692
10
12.153912381651875
20
6.7810319733342004
10
25.74425937321989
20
9.1773768251404171
0
LWPOLYLINE
5
115
100
AcDbEntity
8
0
100
AcDbPolyline
90
4
70
1
43
0.0
10
-44.29854161072862
20
21.615930965529078
10
-57.964240959361852
20
23.536519758781019
10
-56.043652166109794
20
37.202219107414322
10
-42.377952817476668
20
35.281630314162328
0
LWPOLYLINE
5
116
100
AcDbEntity
8
0
100
AcDbPolyline
90
4
70
1
43
0.0
10
-58.660633598295874
20
34.870278152394967
10
-75.59594346585493
20
36.351925779108988
10
-74.11429583914078
20
53.287235646668023
10
-57.178985971581895
20
51.805588019954058
0
LWPOLYLINE
5
117
100
AcDbEntity
8
0
100
AcDbPolyline
90
4
70
1
43
0.0
10
-76.840519512071282
20
32.998437659342137
10
-93.837930329729474
20
33.295128568779909
10
-93.541239420291419
20
50.292539386438158
10
-76.543828602633482
20
49.995848477004401
0
LWPOLYLINE
5
118
100
AcDbEntity
8
0
100
AcDbPolyline
90
4
70
1
43
0.0
10
-45.520328271768982
20
4.1348478044651138
10
-28.778596470562938
20
1.1828287841237106
10
-31.730615490904896
20
-15.558903017082839
10
-48.472347292110605
20
-12.606883996741489
0
LWPOLYLINE
5
119
100
AcDbEntity
8
0
100
AcDbPolyline
90
12
70
1
43
0.0
10
-43.644504020691521
20
14.773175775911467
10
-40.692485000368293
20
31.514907576866243
10
-23.950753199192228
20
28.562888556494983
10
-40.692485000412042
20
31.514907576838862
10
-37.740465980091393
20
48.256639378049265
10
-20.998734178863714
20
45.304620357703705
10
-18.046715158524119
20
62.046352158908903
10
-34.788446959757842
20
64.998371179256864
10
-37.740465980072969
20
48.256639378046003
10
-20.998734178863714
20
45.304620357703705
10
-23.950753199192228
20
28.562888556494983
10
-26.902772219491172
20
11.821156755315885
0
LWPOLYLINE
5
120
100
AcDbEntity
8
0
100
AcDbPolyline
90
4
70
1
43
0.0
10
-53.677709449770262
20
54.036776276019509
10
-40.012010101130421
20
52.11618748276657
10
-41.932598894382423
20
38.450488134133337
10
-55.598298243015655
20
40.371076927385296
0
LWPOLYLINE
5
121
100
AcDbEntity
8
0
100
AcDbPolyline
90
4
70
1
43
0.0
10
39.566656178057819
20
55.285045302739121
10
53.232355526691045
20
57.205634095991194
10
51.311766733438958
20
70.871333444624398
10
37.646067384805733
20
68.950744651372347
0
LWPOLYLINE
5
122
100
AcDbEntity
8
0
100
AcDbPolyline
90
4
70
1
43
0.0
10
53.677709449770262
20
54.036776276019509
10
40.012010101130421
20
52.11618748276657
10
41.932598894382423
20
38.450488134133337
10
55.598298243015655
20
40.371076927385296
0
LWPOLYLINE
5
123
100
AcDbEntity
8
0
100
AcDbPolyline
90
4
70
1
43
0.0
10
55.697338344864455
20
68.740897887551625
10
57.178985971581895
20
51.805588019954058
10
74.11429583914564
20
53.287235646668435
10
72.632648212412633
20
70.222545514264539
0
LWPOLYLINE
5
124
100
AcDbEntity
8
0
100
AcDbPolyline
90
4
70
1
43
0.0
10
76.543828602633482
20
49.995848477004394
10
93.541239420291348
20
50.292539386423812
10
93.244548510852951
20
67.289950204100265
10
76.247137693195427
20
66.993259294662678
0
LWPOLYLINE
5
125
100
AcDbEntity
8
0
100
AcDbPolyline
90
4
70
1
43
0.0
10
91.913559257741014
20
51.864371848392317
10
91.67271604890756
20
65.662270041550201
10
77.874817855745505
20
65.421426832712584
10
78.115661064582838
20
51.623528639554443
0
LWPOLYLINE
5
126
100
AcDbEntity
8
0
100
AcDbPolyline
90
4
70
1
43
0.0
10
-94.273977743017298
20
8.3139889926335186
10
-77.276566925359063
20
8.0172980831979768
10
-77.573257834796095
20
-8.9801127344612564
10
-94.570668652454444
20
-8.6834218250241602
0
LWPOLYLINE
5
127
100
AcDbEntity
8
0
100
AcDbPolyline
90
4
70
1
43
0.0
10
87.594355707948907
20
76.225273758942208
10
80.694355707940119
20
88.176424331182488
10
68.743205135723699
20
81.27642433116732
10
75.643205135723733
20
69.325273758942089
0
LWPOLYLINE
5
128
100
AcDbEntity
8
0
100
AcDbPolyline
90
4
70
1
43
0.0
10
-77.573257834796095
20
-8.9801127344612564
10
-76.091610208083566
20
7.9551971330976112
10
-59.15630034052262
20
6.4735495063845327
10
-60.637947967235455
20
-10.461760361174433
0
LWPOLYLINE
5
129
100
AcDbEntity
8
0
100
AcDbPolyline
90
4
70
1
43
0.0
10
-74.637147879533146
20
6.2218364277543525
10
-60.889661045865822
20
5.0190871778346935
10
-62.092410295786991
20
-8.728399655831085
10
-75.839897129452979
20
-7.5256504059121365
0
LWPOLYLINE
5
130
100
AcDbEntity
8
0
100
AcDbPolyline
90
4
70
1
43
0.0
10
72.380935133801714
20
54.741697975226501
10
71.178185883853303
20
68.489184808920555
10
57.430699050210954
20
67.286435558963092
10
58.6334483001366
20
53.538948725297686
0
LWPOLYLINE
5
131
100
AcDbEntity
8
0
100
AcDbPolyline
90
4
70
1
43
0.0
10
58.912346676925097
20
50.351125691403993
10
60.115095926845868
20
36.603638857738169
10
73.862582760511685
20
37.806388107659082
10
72.659833510590801
20
51.553874941324821
0
LWPOLYLINE
5
132
100
AcDbEntity
8
0
100
AcDbPolyline
90
4
70
1
43
0.0
10
-89.779996354004069
20
75.63963311288704
10
-81.279996353995344
20
90.362064977237623
10
-66.55756448966001
20
81.862064977237608
10
-75.057564489668664
20
67.139633112886997
0
LWPOLYLINE
5
133
100
AcDbEntity
8
0
100
AcDbPolyline
90
4
70
1
43
0.0
10
-87.594355707948907
20
76.225273758942208
10
-80.694355707940119
20
88.176424331182488
10
-68.743205135723699
20
81.27642433116732
10
-75.643205135723733
20
69.325273758942089
0
LWPOLYLINE
5
134
100
AcDbEntity
8
0
100
AcDbPolyline
90
4
70
1
43
0.0
10
37.740465980072969
20
48.256639378046003
10
34.788446959757842
20
64.998371179256864
10
18.046715158524123
20
62.046352158908903
10
20.998734178863714
20
45.304620357703705
0
LWPOLYLINE
5
135
100
AcDbEntity
8
0
100
AcDbPolyline
90
4
70
1
43
0.0
10
55.039461398213803
20
55.843882147541308
10
52.673518681888325
20
72.678439316147092
10
35.8389615132877
20
70.3124965997891
10
38.204904229607699
20
53.477939431216306
0
LWPOLYLINE
5
136
100
AcDbEntity
8
0
100
AcDbPolyline
90
8
70
1
43
0.0
10
57.178985971581895
20
51.805588019954058
10
58.660633598295874
20
34.870278152394967
10
60.14228122501126
20
17.934968284821949
10
77.077591092565626
20
19.416615911535622
10
75.595943465850326
20
36.351925779108548
10
58.660633598295874
20
34.870278152394967
10
75.59594346585493
20
36.351925779108988
10
74.11429583914078
20
53.287235646668023
0
LWPOLYLINE
5
137
100
AcDbEntity
8
0
100
AcDbPolyline
90
4
70
1
43
0.0
10
91.969406958341636
20
48.664859223888158
10
78.171508765183674
20
48.424016015050391
10
78.412351974021306
20
34.626117821892237
10
92.210250167179439
20
34.866961030729925
0
LWPOLYLINE
5
138
100
AcDbEntity
8
0
100
AcDbPolyline
90
4
70
1
43
0.0
10
81.279996353995344
20
90.362064977237623
10
66.55756448966001
20
81.862064977237608
10
75.057564489668664
20
67.139633112886997
10
89.779996354004069
20
75.63963311288704
0
LWPOLYLINE
5
139
100
AcDbEntity
8
0
100
AcDbPolyline
90
4
70
1
43
0.0
10
-55.697338344864455
20
68.740897887551625
10
-57.178985971581895
20
51.805588019954058
10
-74.11429583914564
20
53.287235646668435
10
-72.632648212412633
20
70.222545514264539
0
LWPOLYLINE
5
140
100
AcDbEntity
8
0
100
AcDbPolyline
90
4
70
1
43
0.0
10
-53.232355526691045
20
57.205634095991194
10
-51.311766733438958
20
70.871333444624398
10
-37.646067384805733
20
68.950744651372347
10
-39.566656178057819
20
55.285045302739121
0
LWPOLYLINE
5
141
100
AcDbEntity
8
0
100
AcDbPolyline
90
4
70
1
43
0.0
10
-57.430699050210954
20
67.286435558963092
10
-58.6334483001366
20
53.538948725297686
10
-72.380935133801714
20
54.741697975226501
10
-71.178185883853303
20
68.489184808920555
0
LWPOLYLINE
5
142
100
AcDbEntity
8
0
100
AcDbPolyline
90
4
70
1
43
0.0
10
-76.247137693195427
20
66.993259294662678
10
-76.543828602633482
20
49.995848477004401
10
-93.541239420291348
20
50.292539386423826
10
-93.244548510852951
20
67.289950204100265
0
LWPOLYLINE
5
143
100
AcDbEntity
8
0
100
AcDbPolyline
90
8
70
1
43
0.0
10
40.692485000412042
20
31.514907576838862
10
37.740465980091393
20
48.256639378049265
10
20.998734178863714
20
45.304620357703705
10
23.950753199192228
20
28.562888556494975
10
40.692485000368293
20
31.514907576866239
10
43.644504020691521
20
14.773175775911467
10
26.902772219491172
20
11.821156755315883
10
23.950753199192228
20
28.562888556494975
0
LWPOLYLINE
5
144
100
AcDbEntity
8
0
100
AcDbPolyline
90
4
70
1
43
0.0
10
-33.028470811455939
20
-13.705373527996256
10
-46.618817803023802
20
-11.309028676189117
10
-44.222472951216965
20
2.2813183153783356
10
-30.632125959649667
20
-0.11502653642823546
0
LWPOLYLINE
5
145
100
AcDbEntity
8
0
100
AcDbPolyline
90
4
70
1
43
0.0
10
57.405404114539124
20
39.009324978930287
10
55.039461398214783
20
55.843882147541379
10
38.204904229607699
20
53.477939431216306
10
40.570846945953775
20
36.643382262613571
0
LWPOLYLINE
5
146
100
AcDbEntity
8
0
100
AcDbPolyline
90
4
70
1
43
0.0
10
38.838955511325295
20
32.812762897390897
10
36.442610659518323
20
46.403109888958774
10
22.852263667950439
20
44.006765037151958
10
25.248608519757379
20
30.416418045584045
0
LWPOLYLINE
5
147
100
AcDbEntity
8
0
100
AcDbPolyline
90
4
70
1
43
0.0
10
-79.14509029674619
20
-7.3524325719111072
10
-92.942988489904252
20
-7.1115893630733584
10
-92.702145281067203
20
6.6863088300833784
10
-78.904247087909212
20
6.4454656212470329
0
LWPOLYLINE
5
148
100
AcDbEntity
8
0
100
AcDbPolyline
90
4
70
1
43
0.0
10
42.936789662253368
20
19.808825094002763
10
59.771346830887055
20
22.174767810314492
10
57.40540411453739
20
39.009324978933947
10
40.570846945953775
20
36.643382262613571
0
LWPOLYLINE
5
149
100
AcDbEntity
8
0
100
AcDbPolyline
90
4
70
1
43
0.0
10
35.886936490986216
20
49.554494698597821
10
33.490591639179826
20
63.144841690165492
10
19.900244647610577
20
60.748496838358641
10
22.296589499418321
20
47.158149846790906
0
LWPOLYLINE
5
150
100
AcDbEntity
8
0
100
AcDbPolyline
90
4
70
1
43
0.0
10
56.043652166109794
20
37.202219107414322
10
42.377952817476668
20
35.281630314162328
10
44.29854161072862
20
21.615930965529078
10
57.964240959361852
20
23.536519758781026
0
LWPOLYLINE
5
151
100
AcDbEntity
8
0
100
AcDbPolyline
90
4
70
1
43
0.0
10
-31.730615490904896
20
-15.558903017082839
10
-28.778596470483336
20
1.1828287841116847
10
-12.036864669276346
20
-1.7691902362299761
10
-14.988883689698289
20
-18.510922037424329
0
LWPOLYLINE
5
152
100
AcDbEntity
8
0
100
AcDbPolyline
90
4
70
1
43
0.0
10
-25.74425937321989
20
9.1773768251404153
10
-23.347914521389047
20
22.767723816704716
10
-9.7575675297802622
20
20.371378964890692
10
-12.153912381651875
20
6.7810319733341995
0
LWPOLYLINE
5
153
100
AcDbEntity
8
0
100
AcDbPolyline
90
4
70
1
43
0.0
10
-27.597788862300071
20
7.8795215046257638
10
-24.645769841965159
20
24.621253305795719
10
-7.9040380406935631
20
21.669234285442585
10
-10.85605706099685
20
4.9275024842292847
0
LWPOLYLINE
5
154
100
AcDbEntity
8
0
100
AcDbPolyline
90
8
70
1
43
0.0
10
-7.9040380406935631
20
21.669234285442585
10
-24.645769841885006
20
24.621253305785757
10
-21.693750821538138
20
41.362985106976417
10
-4.9520190203385166
20
38.410966086643597
10
-21.693750821548313
20
41.362985106983402
10
-18.741731801202459
20
58.10471690819228
10
-1.9999999999999991
20
55.152697887850863
10
-4.9520190203385166
20
38.410966086643597
0
LWPOLYLINE
5
155
100
AcDbEntity
8
0
100
AcDbPolyline
90
4
70
1
43
0.0
10
-9.2018933612311038
20
23.52276377452678
10
-22.792240352793858
20
25.919108626362881
10
-20.395895500990896
20
39.509455617890488
10
-6.8055485094247103
20
37.113110766094771
0
LWPOLYLINE
5
156
100
AcDbEntity
8
0
100
AcDbPolyline
90
4
70
1
43
0.0
10
9.2018933612311038
20
23.522763774526783
10
22.792240352793858
20
25.919108626362881
10
20.395895500990896
20
39.509455617890488
10
6.8055485094247103
20
37.113110766094771
0
LWPOLYLINE
5
157
100
AcDbEntity
8
0
100
AcDbPolyline
90
8
70
1
43
0.0
10
7.9040380406935631
20
21.669234285442585
10
24.645769841885006
20
24.621253305785761
10
21.693750821538138
20
41.362985106976417
10
4.9520190203385193
20
38.410966086643597
10
2.0000000000000018
20
55.152697887850863
10
18.741731801202462
20
58.10471690819228
10
21.693750821548313
20
41.362985106983402
10
4.9520190203385193
20
38.410966086643597
0
LWPOLYLINE
5
158
100
AcDbEntity
8
0
100
AcDbPolyline
90
4
70
1
43
0.0
10
28.778596470483336
20
1.1828287841116871
10
12.036864669276346
20
-1.7691902362299787
10
14.988883689698289
20
-18.510922037424329
10
31.730615490904896
20
-15.558903017082846
0
LINE
5
159
100
AcDbEntity
8
0
100
AcDbLine
10
0
20
0
30
0
11
-4.3380909910819147e-16
21
-25.00000037252903
31
0
0
LWPOLYLINE
5
160
100
AcDbEntity
8
0
100
AcDbPolyline
90
4
70
1
43
0.0
10
25.804282688272981
20
27.265033235976972
10
28.200627540080493
20
13.674686244409202
10
41.790974531648416
20
16.071031096215997
10
39.39462967984187
20
29.661378087784019
0
LWPOLYLINE
5
161
100
AcDbEntity
8
0
100
AcDbPolyline
90
4
70
1
43
0.0
10
27.597788862300071
20
7.8795215046257621
10
24.645769841965159
20
24.621253305795719
10
7.9040380406935631
20
21.669234285442585
10
10.85605706099685
20
4.9275024842292829
0
LWPOLYLINE
5
162
100
AcDbEntity
8
0
100
AcDbPolyline
90
4
70
1
43
0.0
10
13.890394158371013
20
-3.0670455567824417
10
16.286739010242627
20
-16.657392548338926
10
29.877086001810188
20
-14.26104769653011
10
27.480741149938517
20
-0.67070070497380474
0
LWPOLYLINE
5
163
100
AcDbEntity
8
0
100
AcDbPolyline
90
4
70
1
43
0.0
10
-25.804282688272981
20
27.265033235976972
10
-28.200627540080493
20
13.6746862444092
10
-41.790974531648416
20
16.071031096215993
10
-39.39462967984187
20
29.661378087784016
0
LWPOLYLINE
5
164
100
AcDbEntity
8
0
100
AcDbPolyline
90
4
70
1
43
0.0
10
-25.248608519757379
20
30.416418045584052
10
-38.838955511325295
20
32.812762897390897
10
-36.442610659518323
20
46.403109888958774
10
-22.852263667950439
20
44.006765037151958
0
LWPOLYLINE
5
165
100
AcDbEntity
8
0
100
AcDbPolyline
90
4
70
1
43
0.0
10
-27.480741149938517
20
-0.67070070497380563
10
-13.890394158371013
20
-3.0670455567824373
10
-16.286739010242627
20
-16.657392548338919
10
-29.877086001810188
20
-14.261047696530111
0
LWPOLYLINE
5
166
100
AcDbEntity
8
0
100
AcDbPolyline
90
4
70
1
43
0.0
10
19.840221332461162
20
42.660840427537664
10
17.443876480654762
20
56.251187419106294
10
3.8535294890867662
20
53.854842567298846
10
6.2498743408932134
20
40.264495575730869
0
LWPOLYLINE
5
167
100
AcDbEntity
8
0
100
AcDbPolyline
90
4
70
1
43
0.0
10
-3.853529489086764
20
53.854842567298846
10
-6.2498743408932134
20
40.264495575730869
10
-19.840221332461155
20
42.660840427537664
10
-17.443876480654758
20
56.251187419106294
0
LWPOLYLINE
5
168
100
AcDbEntity
8
0
100
AcDbPolyline
90
4
70
1
43
0.0
10
28.778596470562938
20
1.1828287841237104
10
31.730615490904896
20
-15.558903017082846
10
48.472347292110605
20
-12.606883996741496
10
45.520328271768982
20
4.1348478044651173
0
LWPOLYLINE
5
169
100
AcDbEntity
8
0
100
AcDbPolyline
90
4
70
1
43
0.0
10
-22.296589499418321
20
47.158149846790906
10
-35.886936490986216
20
49.554494698597821
10
-33.490591639179826
20
63.144841690165492
10
-19.90024464761057
20
60.748496838358641
0
LWPOLYLINE
5
170
100
AcDbEntity
8
0
100
AcDbPolyline
90
4
70
1
43
0.0
10
30.632125959649667
20
-0.11502653642823704
10
33.028470811455939
20
-13.705373527996249
10
46.618817803023802
20
-11.309028676189111
10
44.222472951216965
20
2.281318315378337
0
LWPOLYLINE
5
171
100
AcDbEntity
8
0
100
AcDbPolyline
90
4
70
1
43
0.0
10
61.596743553556614
20
19.668328990164767
10
75.344230387222424
20
20.871078240085609
10
74.141481137297887
20
34.618565073765126
10
60.393994303640298
20
33.415815823830968
0
LWPOLYLINE
5
172
100
AcDbEntity
8
0
100
AcDbPolyline
90
4
70
1
43
0.0
10
-91.67271604890756
20
65.662270041550201
10
-77.874817855745505
20
65.421426832712584
10
-78.115661064582838
20
51.623528639554443
10
-91.913559257741014
20
51.864371848392317
0
ENDSEC
0
SECTION
2
OBJECTS
0
DICTIONARY
5
C
100
AcDbDictionary
3
ACAD_GROUP
350
D
3
ACAD_MLINESTYLE
350
17
0
DICTIONARY
5
D
100
AcDbDictionary
0
DICTIONARY
5
1A
330
C
100
AcDbDictionary
0
DICTIONARY
5
17
100
AcDbDictionary
0
ENDSEC
0
EOF
