0
SECTION
2
HEADER
9
$INSUNITS
70
4
9
$ACADVER
1
AC1014
9
$HANDSEED
5
FFFF
0
ENDSEC
0
SECTION
2
TABLES
0
TABLE
2
VPORT
5
8
100
AcDbSymbolTable
0
ENDTAB
0
TABLE
2
LTYPE
5
5
100
AcDbSymbolTable
0
LTYPE
5
14
100
AcDbSymbolTableRecord
100
AcDbLinetypeTableRecord
2
BYBLOCK
70
0
0
LTYPE
5
15
100
AcDbSymbolTableRecord
100
AcDbLinetypeTableRecord
2
BYLAYER
70
0
0
ENDTAB
0
TABLE
2
LAYER
5
2
100
AcDbSymbolTable
70
2
0
LAYER
5
50
100
AcDbSymbolTableRecord
100
AcDbLayerTableRecord
2
0
70
0
6
CONTINUOUS
0
ENDTAB
0
TABLE
2
STYLE
5
3
100
AcDbSymbolTable
70
1
0
STYLE
5
11
100
AcDbSymbolTableRecord
100
AcDbTextStyleTableRecord
2
STANDARD
70
0
0
ENDTAB
0
TABLE
2
VIEW
5
6
100
AcDbSymbolTable
70
0
0
ENDTAB
0
TABLE
2
UCS
5
7
100
AcDbSymbolTable
70
0
0
ENDTAB
0
TABLE
2
APPID
5
9
100
AcDbSymbolTable
70
2
0
APPID
5
12
100
AcDbSymbolTableRecord
100
AcDbRegAppTableRecord
2
ACAD
70
0
0
ENDTAB
0
TABLE
2
DIMSTYLE
5
A
100
AcDbSymbolTable
70
1
0
ENDTAB
0
TABLE
2
BLOCK_RECORD
5
1
100
AcDbSymbolTable
70
1
0
BLOCK_RECORD
5
1F
100
AcDbSymbolTableRecord
100
AcDbBlockTableRecord
2
*MODEL_SPACE
0
BLOCK_RECORD
5
1B
100
AcDbSymbolTableRecord
100
AcDbBlockTableRecord
2
*PAPER_SPACE
0
ENDTAB
0
ENDSEC
0
SECTION
2
BLOCKS
0
BLOCK
5
20
100
AcDbEntity
100
AcDbBlockBegin
2
*MODEL_SPACE
0
ENDBLK
5
21
100
AcDbEntity
100
AcDbBlockEnd
0
BLOCK
5
1C
100
AcDbEntity
100
AcDbBlockBegin
2
*PAPER_SPACE
0
ENDBLK
5
1D
100
AcDbEntity
100
AcDbBlockEnd
0
ENDSEC
0
SECTION
2
ENTITIES
0
LINE
5
100
100
AcDbEntity
8
0
100
AcDbLine
10
208.77584776107528
20
85.467863716349143
30
0
11
208.77584776096913
21
-0.32329092422807693
31
0
0
LWPOLYLINE
5
101
100
AcDbEntity
8
0
100
AcDbPolyline
90
8
70
1
43
0.0
10
13.098489531252026
20
38.084211443871212
10
16.050508551575867
20
21.342479642664355
10
32.7922403527527
20
24.29449866300558
10
35.744259373098842
20
7.5527668617962718
10
19.002527571909134
20
4.6007478414570979
10
16.050508551575867
20
21.342479642664355
10
32.792240352812442
20
24.294498663024221
10
29.840221332479082
20
41.036230464206113
0
LWPOLYLINE
5
102
100
AcDbEntity
8
0
100
AcDbPolyline
90
8
70
1
43
0.0
10
83.742413976556378
20
36.025171136120761
10
82.260766349837965
20
52.96048100367819
10
65.325456482280714
20
51.478833376959983
10
82.260766349664436
20
52.960481003668029
10
80.779118723046835
20
69.895790871209471
10
63.843808855479494
20
68.414143244525036
10
65.325456482280714
20
51.478833376959983
10
66.807104108998814
20
34.543523509402398
0
LWPOLYLINE
5
103
100
AcDbEntity
8
0
100
AcDbPolyline
90
3
70
1
43
0.0
10
61.824179960935467
20
53.710021633242455
10
50.079069405587418
20
38.123733491305373
10
63.744768754216906
20
40.044322284583629
0
LWPOLYLINE
5
104
100
AcDbEntity
8
0
100
AcDbPolyline
90
4
70
1
43
0.0
10
80.806304021288952
20
51.227120298335237
10
68.261566437547955
20
36.276884214745301
10
67.058817187623632
20
50.024371048410828
10
82.009053271213503
20
37.479633464669234
0
LINE
5
105
100
AcDbEntity
8
0
100
AcDbLine
10
69.857555105208377
20
-0.32329092376995328
30
0
11
62.351801643522123
21
85.467863716344596
31
0
0
LINE
5
106
100
AcDbEntity
8
0
100
AcDbLine
10
53.866722192135946
20
-0.32329092371625956
30
0
11
41.809561709574083
21
85.467863716343601
31
0
0
LWPOLYLINE
5
107
100
AcDbEntity
8
0
100
AcDbPolyline
90
4
70
1
43
0.0
10
46.985426022086429
20
32.486008254636872
10
44.589081170275691
20
46.076355246204571
10
30.998734178708332
20
43.680010394394088
10
33.395079030519071
20
30.089663402826886
0
LWPOLYLINE
5
108
100
AcDbEntity
8
0
100
AcDbPolyline
90
3
70
1
43
0.0
10
28.046715158392558
20
60.4217421956034
10
30.443060010205873
20
46.831395204036724
10
41.637062150004837
20
62.818087047412874
0
LWPOLYLINE
5
109
100
AcDbEntity
8
0
100
AcDbPolyline
90
12
70
1
43
0.0
10
101.98440084046455
20
32.968373925783304
10
101.6877099310216
20
49.965784743440622
10
84.690299113365654
20
49.669093833996094
10
84.393608203922867
20
66.666504651652858
10
101.39101902157972
20
66.963195561094736
10
101.68770993102081
20
49.965784743425417
10
84.690299113365654
20
49.669093833996094
10
84.986990022807618
20
32.671683016341106
10
101.98440084046317
20
32.968373925782963
10
102.28109174990622
20
15.970963108124369
10
85.283680932237104
20
15.674272198682718
10
84.986990022807618
20
32.671683016341106
0
LWPOLYLINE
5
110
100
AcDbEntity
8
0
100
AcDbPolyline
90
4
70
1
43
0.0
10
46.351374740799372
20
53.151184788458593
10
48.717317456734477
20
36.316627619726148
10
65.551874625742514
20
38.682570336111752
10
63.18593190942326
20
55.517127504772134
0
LINE
5
111
100
AcDbEntity
8
0
100
AcDbLine
10
37.133020862307198
20
-0.32329092366103784
30
0
11
22.005725592997685
21
85.46786371634289
31
0
0
LINE
5
112
100
AcDbEntity
8
0
100
AcDbLine
10
48.158480612331836
20
51.789432839938115
30
0
11
50.079069405587418
21
38.123733491305373
31
0
0
LWPOLYLINE
5
113
100
AcDbEntity
8
0
100
AcDbPolyline
90
3
70
1
43
0.0
10
14.952019020338088
20
36.786356123321809
10
17.34836387216022
20
23.196009131756597
10
30.938710863729135
20
25.592353983557818
0
LINE
5
114
100
AcDbEntity
8
0
100
AcDbLine
10
19.870768460234917
20
-0.32329092360552436
30
0
11
4.743473191142237
21
85.467863716341427
31
0
0
LWPOLYLINE
5
115
100
AcDbEntity
8
0
100
AcDbPolyline
90
8
70
1
43
0.0
10
48.838955511172742
20
31.188152934086048
10
45.886936490839538
20
47.9298847352932
10
29.145204689621998
20
44.977865714944507
10
26.193185669300206
20
61.719597516188543
10
42.93491747059803
20
64.671616536510896
10
45.886936490859426
20
47.929884735296582
10
29.145204689621998
20
44.977865714944507
10
32.097223709942902
20
28.236133913736033
0
LINE
5
116
100
AcDbEntity
8
0
100
AcDbLine
10
85.562919435169476
20
-0.32329092382066277
30
0
11
84.065429261002862
21
85.467863716345136
31
0
0
LWPOLYLINE
5
117
100
AcDbEntity
8
0
100
AcDbPolyline
90
3
70
1
43
0.0
10
100.11587746907337
20
48.338104580890871
10
86.558822484756718
20
34.299363178891078
10
100.35672067791475
20
34.540206387731757
0
LINE
5
118
100
AcDbEntity
8
0
100
AcDbLine
10
28.542366011913522
20
39.182700975117179
30
0
11
17.34836387216022
21
23.196009131756597
31
0
0
LWPOLYLINE
5
119
100
AcDbEntity
8
0
100
AcDbPolyline
90
3
70
1
43
0.0
10
54.765288313648675
20
-11.635783319006549
10
52.368943461838356
20
1.9545636725596665
10
38.778596470272333
20
-0.44178117924956217
0
LWPOLYLINE
5
120
100
AcDbEntity
8
0
100
AcDbPolyline
90
3
70
1
43
0.0
10
79.324656394480002
20
68.16243016586499
10
66.779918810658941
20
53.212194082287567
10
80.527405644328326
20
54.414943332167752
0
LINE
5
121
100
AcDbEntity
8
0
100
AcDbLine
10
86.31797927591542
20
48.097261372049182
30
0
11
100.35672067791475
21
34.540206387731757
31
0
0
LINE
5
122
100
AcDbEntity
8
0
100
AcDbLine
10
86.31797927591542
20
48.097261372049182
30
0
11
86.558822484756718
21
34.299363178891078
31
0
0
LWPOLYLINE
5
123
100
AcDbEntity
8
0
100
AcDbPolyline
90
4
70
1
43
0.0
10
74.704066159186908
20
81.533525248942652
10
83.204066159190845
20
66.811093384610032
10
97.926498023521845
20
75.311093384609123
10
89.426498023521091
20
90.033525248943377
0
LWPOLYLINE
5
124
100
AcDbEntity
8
0
100
AcDbPolyline
90
4
70
1
43
0.0
10
76.889706805241403
20
80.947884602887626
10
83.789706805242261
20
68.996734030662878
10
95.740857377466966
20
75.896734030663836
10
88.840857377466236
20
87.847884602888158
0
LINE
5
125
100
AcDbEntity
8
0
100
AcDbLine
10
48.158480612331836
20
51.789432839938115
30
0
11
63.744768754216906
21
40.044322284583629
31
0
0
LINE
5
126
100
AcDbEntity
8
0
100
AcDbLine
10
-1.9170701657566478e-12
20
85.467863716341583
30
0
11
208.77584776107528
21
85.467863716349143
31
0
0
LWPOLYLINE
5
127
100
AcDbEntity
8
0
100
AcDbPolyline
90
4
70
1
43
0.0
10
51.790974531505789
20
14.446421132818264
10
48.838955511286237
20
31.188152934067613
10
32.097223709942902
20
28.236133913736033
10
35.049242730284703
20
11.494402112482053
0
LWPOLYLINE
5
128
100
AcDbEntity
8
0
100
AcDbPolyline
90
4
70
1
43
0.0
10
56.618817802735002
20
-12.933638639557046
10
53.666798782389236
20
3.8080931616460094
10
36.925066981186127
20
0.8560741413004902
10
39.877086001522258
20
-15.885657659908233
0
LINE
5
129
100
AcDbEntity
8
0
100
AcDbLine
10
52.368943461838356
20
1.9545636725596665
30
0
11
41.174941322081445
21
-14.032128170817064
31
0
0
LINE
5
130
100
AcDbEntity
8
0
100
AcDbLine
10
41.174941322081445
20
-14.032128170817064
30
0
11
54.765288313648675
21
-11.635783319006549
31
0
0
LINE
5
131
100
AcDbEntity
8
0
100
AcDbLine
10
50.524423328255345
20
34.954875671288256
30
0
11
52.445012121510679
21
21.289176322655496
31
0
0
LWPOLYLINE
5
132
100
AcDbEntity
8
0
100
AcDbPolyline
90
3
70
1
43
0.0
10
49.937445042419306
20
15.744276453369761
10
47.541100190545265
20
29.334623444947795
10
33.950753199037585
20
26.938278593137849
0
LINE
5
133
100
AcDbEntity
8
0
100
AcDbLine
10
38.778596470272333
20
-0.44178117924956217
30
0
11
41.174941322081445
21
-14.032128170817064
31
0
0
LINE
5
134
100
AcDbEntity
8
0
100
AcDbLine
10
7.1997730952655567e-15
20
-0.32329092354131617
30
0
11
208.77584776096913
21
-0.32329092422807693
31
0
0
LWPOLYLINE
5
135
100
AcDbEntity
8
0
100
AcDbPolyline
90
4
70
1
43
0.0
10
48.717317456734477
20
36.316627619726148
10
51.083260173078216
20
19.482070451135325
10
67.917817341668226
20
21.848013167445227
10
65.551874625350038
20
38.682570336063876
0
LINE
5
136
100
AcDbEntity
8
0
100
AcDbLine
10
30.998734178708332
20
43.680010394394088
30
0
11
46.985426022086429
21
32.486008254636872
31
0
0
LINE
5
137
100
AcDbEntity
8
0
100
AcDbLine
10
44.589081170275691
20
46.076355246204571
30
0
11
33.395079030519071
21
30.089663402826886
31
0
0
LINE
5
138
100
AcDbEntity
8
0
100
AcDbLine
10
47.541100190545265
20
29.334623444947795
30
0
11
36.347098050849972
21
13.347931601570927
31
0
0
LWPOLYLINE
5
139
100
AcDbEntity
8
0
100
AcDbPolyline
90
3
70
1
43
0.0
10
86.855513394198297
20
17.301952361232765
10
100.65341158735654
20
17.542795570068982
10
100.41256837851613
20
31.340693763233112
0
LWPOLYLINE
5
140
100
AcDbEntity
8
0
100
AcDbPolyline
90
3
70
1
43
0.0
10
68.540464814338918
20
33.089061180887185
10
83.490700897924398
20
20.544323597146285
10
69.743214064258922
20
19.341574347221311
0
LINE
5
141
100
AcDbEntity
8
0
100
AcDbLine
10
30.443060010205873
20
46.831395204036724
30
0
11
44.033407001773227
21
49.227740055846738
31
0
0
LINE
5
142
100
AcDbEntity
8
0
100
AcDbLine
10
36.347098050849972
20
13.347931601570927
30
0
11
49.937445042419306
21
15.744276453369761
31
0
0
LINE
5
143
100
AcDbEntity
8
0
100
AcDbLine
10
68.261566437547955
20
36.276884214745301
30
0
11
82.009053271213503
21
37.479633464669234
31
0
0
LINE
5
144
100
AcDbEntity
8
0
100
AcDbLine
10
28.046715158392558
20
60.4217421956034
30
0
11
44.033407001773227
21
49.227740055846738
31
0
0
LWPOLYLINE
5
145
100
AcDbEntity
8
0
100
AcDbPolyline
90
4
70
1
43
0.0
10
85.224061603267359
20
19.089861268596721
10
83.742413976551816
20
36.025171136119937
10
66.807104108998814
20
34.543523509402398
10
68.288751735776088
20
17.608213641883705
0
LINE
5
146
100
AcDbEntity
8
0
100
AcDbLine
10
83.490700897924398
20
20.544323597146285
30
0
11
82.287951647997474
21
34.291810430776508
31
0
0
LINE
5
147
100
AcDbEntity
8
0
100
AcDbLine
10
86.614670185357369
20
31.099850554390866
30
0
11
86.855513394198297
21
17.301952361232765
31
0
0
LWPOLYLINE
5
148
100
AcDbEntity
8
0
100
AcDbPolyline
90
4
70
1
43
0.0
10
39.877086001522258
20
-15.885657659908233
10
36.925066981221349
20
0.85607414130878401
10
20.183335180015561
20
-2.0959448790371704
10
23.135354200315497
20
-18.837676680250905
0
LINE
5
149
100
AcDbEntity
8
0
100
AcDbLine
10
86.614670185357369
20
31.099850554390866
30
0
11
100.65341158735654
21
17.542795570068982
31
0
0
LINE
5
150
100
AcDbEntity
8
0
100
AcDbLine
10
100.41256837851613
20
31.340693763233112
30
0
11
86.614670185357369
21
31.099850554390866
31
0
0
LWPOLYLINE
5
151
100
AcDbEntity
8
0
100
AcDbPolyline
90
3
70
1
43
0.0
10
64.190122676911173
20
36.875464464542887
10
52.445012121510679
20
21.289176322655496
10
66.11071147014178
20
23.209765115922451
0
LINE
5
152
100
AcDbEntity
8
0
100
AcDbLine
10
82.287951647997474
20
34.291810430776508
30
0
11
69.743214064258922
21
19.341574347221311
31
0
0
LINE
5
153
100
AcDbEntity
8
0
100
AcDbLine
10
82.287951647997474
20
34.291810430776508
30
0
11
68.540464814338918
21
33.089061180887185
31
0
0
LWPOLYLINE
5
154
100
AcDbEntity
8
0
100
AcDbPolyline
90
4
70
1
43
0.0
10
85.719728345538471
20
-9.306867377277408
10
84.238080718824918
20
7.6284424902795278
10
67.302770851264782
20
6.1467948635653578
10
68.784418477978548
20
-10.788515003990916
0
LWPOLYLINE
5
155
100
AcDbEntity
8
0
100
AcDbPolyline
90
3
70
1
43
0.0
10
22.036864669099341
20
-3.393800199589621
10
24.433209520870783
20
-16.984147191163771
10
38.023556512437835
20
-14.587802339352066
0
LWPOLYLINE
5
156
100
AcDbEntity
8
0
100
AcDbPolyline
90
3
70
1
43
0.0
10
82.783618390274981
20
5.895081784936532
10
69.036131556607586
20
4.6923325350178917
10
70.238880806529636
20
-9.0551542986478193
0
LWPOLYLINE
5
157
100
AcDbEntity
8
0
100
AcDbPolyline
90
3
70
1
43
0.0
10
33.89072988401179
20
8.8506221823511808
10
31.494385032211625
20
22.440969173920951
10
17.904038040661924
20
20.044624322115144
0
LINE
5
158
100
AcDbEntity
8
0
100
AcDbLine
10
31.494385032211625
20
22.440969173920951
30
0
11
20.300382892444166
21
6.4542773305428991
31
0
0
LINE
5
159
100
AcDbEntity
8
0
100
AcDbLine
10
83.98636764019551
20
-7.8524050487279649
30
0
11
82.783618390274981
21
5.895081784936532
31
0
0
CIRCLE
5
160
100
AcDbEntity
8
0
100
AcDbCircle
10
-4.3380909910819147e-16
20
-25.00000037252903
30
0
40
2.5
210
0
220
0
230
1
0
LINE
5
161
100
AcDbEntity
8
0
100
AcDbLine
10
69.036131556607586
20
4.6923325350178917
30
0
11
83.98636764019551
21
-7.8524050487279649
31
0
0
LINE
5
162
100
AcDbEntity
8
0
100
AcDbLine
10
35.627211660666354
20
-0.99745534777828337
30
0
11
24.433209520870783
21
-16.984147191163771
31
0
0
LINE
5
163
100
AcDbEntity
8
0
100
AcDbLine
10
33.950753199037585
20
26.938278593137849
30
0
11
36.347098050849972
21
13.347931601570927
31
0
0
LINE
5
164
100
AcDbEntity
8
0
100
AcDbLine
10
70.238880806529636
20
-9.0551542986478193
30
0
11
83.98636764019551
21
-7.8524050487279649
31
0
0
LINE
5
165
100
AcDbEntity
8
0
100
AcDbLine
10
0
20
0
30
0
11
-4.3380909910819147e-16
21
-25.00000037252903
31
0
0
LINE
5
166
100
AcDbEntity
8
0
100
AcDbLine
10
35.627211660666354
20
-0.99745534777828337
30
0
11
22.036864669099341
21
-3.393800199589621
31
0
0
LINE
5
167
100
AcDbEntity
8
0
100
AcDbLine
10
17.904038040661924
20
20.044624322115144
30
0
11
20.300382892444166
21
6.4542773305428991
31
0
0
LINE
5
168
100
AcDbEntity
8
0
100
AcDbLine
10
20.300382892444166
20
6.4542773305428991
30
0
11
33.89072988401179
21
8.8506221823511808
31
0
0
LINE
5
169
100
AcDbEntity
8
0
100
AcDbLine
10
56.618817802735002
20
-12.933638639557046
30
0
11
68.784418477978548
21
-10.788515003990916
31
0
0
LINE
5
170
100
AcDbEntity
8
0
100
AcDbLine
10
38.023556512437835
20
-14.587802339352066
30
0
11
35.627211660666354
21
-0.99745534777828337
31
0
0
LINE
5
171
100
AcDbEntity
8
0
100
AcDbLine
10
50.524423328255345
20
34.954875671288256
30
0
11
66.11071147014178
21
23.209765115922451
31
0
0
LINE
5
172
100
AcDbEntity
8
0
100
AcDbLine
10
64.190122676911173
20
36.875464464542887
30
0
11
50.524423328255345
21
34.954875671288256
31
0
0
LWPOLYLINE
5
173
100
AcDbEntity
8
0
100
AcDbPolyline
90
3
70
1
43
0.0
10
59.458237244696555
20
70.544578801881727
10
47.713126689319765
20
54.958290659991093
10
61.378826037952578
20
56.878879453246228
0
LINE
5
174
100
AcDbEntity
8
0
100
AcDbLine
10
61.824179960935467
20
53.710021633242455
30
0
11
48.158480612331836
21
51.789432839938115
31
0
0
LWPOLYLINE
5
175
100
AcDbEntity
8
0
100
AcDbPolyline
90
4
70
1
43
0.0
10
46.351374740799372
20
53.151184788458593
10
63.185931909476636
20
55.517127504785549
10
60.819989193144352
20
72.351684673403994
10
43.985432024543499
20
69.985741957060014
0
LINE
5
176
100
AcDbEntity
8
0
100
AcDbLine
10
65.577169560823819
20
66.959680915961243
30
0
11
66.779918810658941
21
53.212194082287567
31
0
0
LINE
5
177
100
AcDbEntity
8
0
100
AcDbLine
10
45.792537896064125
20
68.623990008623835
30
0
11
61.378826037952578
21
56.878879453246228
31
0
0
LINE
5
178
100
AcDbEntity
8
0
100
AcDbLine
10
59.458237244696555
20
70.544578801881727
30
0
11
45.792537896064125
21
68.623990008623835
31
0
0
LINE
5
179
100
AcDbEntity
8
0
100
AcDbLine
10
44.033407001773227
20
49.227740055846738
30
0
11
41.637062150004837
21
62.818087047412874
31
0
0
LINE
5
180
100
AcDbEntity
8
0
100
AcDbLine
10
45.792537896064125
20
68.623990008623835
30
0
11
47.713126689319765
21
54.958290659991093
31
0
0
LWPOLYLINE
5
181
100
AcDbEntity
8
0
100
AcDbPolyline
90
4
70
1
43
0.0
10
86.021288366472589
20
65.094672189703957
10
100.06002976847128
20
51.537617205387392
10
86.262131575313191
20
51.296773996545895
10
99.819186559638155
20
65.335515398545084
0
LWPOLYLINE
5
182
100
AcDbEntity
8
0
100
AcDbPolyline
90
4
70
1
43
0.0
10
29.840221332461503
20
41.036230464220012
10
26.888202312109133
20
57.777962265425622
10
10.146470510912415
20
54.825943245077163
10
13.098489531252026
20
38.084211443871212
0
LWPOLYLINE
5
183
100
AcDbEntity
8
0
100
AcDbPolyline
90
3
70
1
43
0.0
10
25.590346991565163
20
55.924432776340126
10
11.999999999998799
20
53.528087924528897
10
27.986691843374921
20
42.334085784771631
0
LINE
5
184
100
AcDbEntity
8
0
100
AcDbLine
10
28.542366011913522
20
39.182700975117179
30
0
11
14.952019020338088
21
36.786356123321809
31
0
0
LINE
5
185
100
AcDbEntity
8
0
100
AcDbLine
10
86.021288366472589
20
65.094672189703957
30
0
11
86.262131575313191
21
51.296773996545895
31
0
0
LINE
5
186
100
AcDbEntity
8
0
100
AcDbLine
10
88.840857377466236
20
87.847884602888158
30
0
11
83.789706805242261
21
68.996734030662878
31
0
0
LINE
5
187
100
AcDbEntity
8
0
100
AcDbLine
10
11.999999999998799
20
53.528087924528897
30
0
11
14.396344851807633
21
39.937740932961347
31
0
0
LINE
5
188
100
AcDbEntity
8
0
100
AcDbLine
10
100.06002976847128
20
51.537617205387392
30
0
11
99.819186559638155
21
65.335515398545084
31
0
0
LINE
5
189
100
AcDbEntity
8
0
100
AcDbLine
10
100.11587746907337
20
48.338104580890871
30
0
11
86.31797927591542
21
48.097261372049182
31
0
0
LINE
5
190
100
AcDbEntity
8
0
100
AcDbLine
10
14.396344851807633
20
39.937740932961347
30
0
11
27.986691843374921
21
42.334085784771631
31
0
0
LINE
5
191
100
AcDbEntity
8
0
100
AcDbLine
10
80.806304021288952
20
51.227120298335237
30
0
11
67.058817187623632
21
50.024371048410828
31
0
0
LINE
5
192
100
AcDbEntity
8
0
100
AcDbLine
10
79.324656394480002
20
68.16243016586499
30
0
11
65.577169560823819
21
66.959680915961243
31
0
0
LINE
5
193
100
AcDbEntity
8
0
100
AcDbLine
10
25.590346991565163
20
55.924432776340126
30
0
11
14.396344851807633
21
39.937740932961347
31
0
0
LINE
5
194
100
AcDbEntity
8
0
100
AcDbLine
10
65.577169560823819
20
66.959680915961243
30
0
11
80.527405644328326
21
54.414943332167752
31
0
0
LINE
5
195
100
AcDbEntity
8
0
100
AcDbLine
10
76.889706805241403
20
80.947884602887626
30
0
11
95.740857377466966
21
75.896734030663836
31
0
0
LINE
5
196
100
AcDbEntity
8
0
100
AcDbLine
10
30.938710863729135
20
25.592353983557818
30
0
11
28.542366011913522
21
39.182700975117179
31
0
0
LWPOLYLINE
5
197
100
AcDbEntity
8
0
100
AcDbPolyline
90
3
70
1
43
0.0
10
87.291560807487784
20
-7.6791872147274676
10
101.08945900064589
20
-7.4383440058866492
10
87.050717598647807
20
6.1187109784306379
0
LWPOLYLINE
5
198
100
AcDbEntity
8
0
100
AcDbPolyline
90
4
70
1
43
0.0
10
102.71713916319581
20
-9.0101764678383418
10
102.42044825375464
20
7.9872343498176654
10
85.4230374360978
20
7.6905434403808837
10
85.719728345538471
20
-9.306867377277408
0
LINE
5
199
100
AcDbEntity
8
0
100
AcDbLine
10
101.08945900064589
20
-7.4383440058866483
30
0
11
100.84861579180574
21
6.3595541872677419
31
0
0
LINE
5
200
100
AcDbEntity
8
0
100
AcDbLine
10
100.84861579180574
20
6.3595541872677419
30
0
11
87.291560807487784
21
-7.6791872147274676
31
0
0
LINE
5
201
100
AcDbEntity
8
0
100
AcDbLine
10
100.84861579180574
20
6.3595541872677419
30
0
11
87.050717598647807
21
6.1187109784306379
31
0
0
LINE
5
202
100
AcDbEntity
8
0
100
AcDbLine
10
86.315282091354035
20
78.422309316775639
30
0
11
86.519832608502568
21
66.703618036688312
31
0
0
LINE
5
203
100
AcDbEntity
8
0
100
AcDbLine
10
7.1997730440412525e-15
20
-0.32329092354131617
30
0
11
-1.9170701657566478e-12
21
85.467863716341583
31
0
0
LWPOLYLINE
5
204
100
AcDbEntity
8
0
100
AcDbPolyline
90
3
70
1
43
0.0
10
-87.291560807487429
20
-7.6791872147313214
10
-101.08945900064548
20
-7.4383440058910857
10
-100.84861579180603
20
6.3595541872632158
0
LWPOLYLINE
5
205
100
AcDbEntity
8
0
100
AcDbPolyline
90
4
70
1
43
0.0
10
-67.302770851265066
20
6.146794863562338
10
-68.784418477978065
20
-10.788515003994018
10
-85.719728345538073
20
-9.3068673772812804
10
-84.238080718825273
20
7.6284424902757433
0
LWPOLYLINE
5
206
100
AcDbEntity
8
0
100
AcDbPolyline
90
4
70
1
43
0.0
10
-102.71713916319541
20
-9.0101764678430207
10
-102.420448253755
20
7.9872343498130718
10
-85.423037436098156
20
7.6905434403771018
10
-85.719728345538044
20
-9.3068673772812929
0
LWPOLYLINE
5
207
100
AcDbEntity
8
0
100
AcDbPolyline
90
3
70
1
43
0.0
10
-86.262131575315507
20
51.296773996542022
10
-100.06002976847358
20
51.537617205382872
10
-99.819186559641068
20
65.335515398540664
0
LINE
5
208
100
AcDbEntity
8
0
100
AcDbLine
10
7.1997729928169482e-15
20
-0.32329092354131617
30
0
11
-208.77584776096913
21
-0.32329092423744549
31
0
0
LINE
5
209
100
AcDbEntity
8
0
100
AcDbLine
10
-86.021288366475517
20
65.094672189700105
30
0
11
-100.06002976847358
21
51.537617205382872
31
0
0
LWPOLYLINE
5
210
100
AcDbEntity
8
0
100
AcDbPolyline
90
12
70
1
43
0.0
10
-51.083260173079061
20
19.482070451133058
10
-67.917817341669206
20
21.848013167442204
10
-65.551874625351786
20
38.68257033606092
10
-48.717317456736126
20
36.316627619723981
10
-46.351374740801752
20
53.15118478845654
10
-63.185931909479123
20
55.517127504782728
10
-60.819989193147599
20
72.351684673401294
10
-43.985432024546647
20
69.985741957058025
10
-46.351374740801752
20
53.15118478845654
10
-63.185931909425733
20
55.517127504769334
10
-65.551874625744261
20
38.682570336108832
10
-48.717317456736126
20
36.316627619723981
0
LWPOLYLINE
5
211
100
AcDbEntity
8
0
100
AcDbPolyline
90
4
70
1
43
0.0
10
-50.524423328256908
20
34.95487567128599
10
-66.110711470142846
20
23.209765115919524
10
-64.190122676912821
20
36.875464464540009
10
-52.445012121511638
20
21.28917632265313
0
LINE
5
212
100
AcDbEntity
8
0
100
AcDbLine
10
-64.190122676912821
20
36.875464464540009
30
0
11
-50.524423328256908
21
34.95487567128599
31
0
0
LINE
5
213
100
AcDbEntity
8
0
100
AcDbLine
10
-50.079069405589067
20
38.123733491303128
30
0
11
-63.744768754218683
21
40.044322284580794
31
0
0
LWPOLYLINE
5
214
100
AcDbEntity
8
0
100
AcDbPolyline
90
12
70
1
43
0.0
10
-26.888202312111716
20
57.777962265424414
10
-10.146470510914867
20
54.825943245076687
10
-13.09848953125373
20
38.084211443870643
10
-16.050508551576826
20
21.342479642663616
10
-32.79224035275378
20
24.294498663004084
10
-35.744259373099169
20
7.5527668617946633
10
-19.002527571909344
20
4.6007478414562453
10
-16.050508551576826
20
21.342479642663616
10
-32.792240352813522
20
24.294498663022747
10
-29.840221332480926
20
41.036230464204777
10
-13.09848953125373
20
38.084211443870643
10
-29.840221332463344
20
41.036230464218669
0
LWPOLYLINE
5
215
100
AcDbEntity
8
0
100
AcDbPolyline
90
3
70
1
43
0.0
10
-65.577169560826832
20
66.959680915958259
10
-66.77991881065887
20
53.212194082284647
10
-79.324656394483057
20
68.162430165861394
0
LWPOLYLINE
5
216
100
AcDbEntity
8
0
100
AcDbPolyline
90
3
70
1
43
0.0
10
-47.713126689322237
20
54.958290659988968
10
-61.378826037955122
20
56.878879453243478
10
-45.79253789606723
20
68.623990008621789
0
LWPOLYLINE
5
217
100
AcDbEntity
8
0
100
AcDbPolyline
90
4
70
1
43
0.0
10
-65.325456482283016
20
51.478833376957027
10
-82.26076634966681
20
52.960481003664306
10
-80.779118723049962
20
69.895790871205861
10
-63.843808855482564
20
68.41414324452218
0
LWPOLYLINE
5
218
100
AcDbEntity
8
0
100
AcDbPolyline
90
12
70
1
43
0.0
10
-42.934917470600922
20
64.671616536508949
10
-26.19318566930297
20
61.719597516187349
10
-29.145204689624013
20
44.977865714943178
10
-45.886936490841698
20
47.929884735291132
10
-48.838955511174149
20
31.188152934083856
10
-32.097223709944174
20
28.236133913734612
10
-48.838955511287637
20
31.188152934065446
10
-51.790974531506428
20
14.446421132815949
10
-35.049242730285222
20
11.494402112480461
10
-32.097223709944174
20
28.236133913734612
10
-29.145204689624013
20
44.977865714943178
10
-45.886936490861572
20
47.929884735294515
0
LINE
5
219
100
AcDbEntity
8
0
100
AcDbLine
10
-25.590346991567667
20
55.924432776338982
30
0
11
-12.000000000001201
21
53.52808792452835
31
0
0
LWPOLYLINE
5
220
100
AcDbEntity
8
0
100
AcDbPolyline
90
3
70
1
43
0.0
10
-44.03340700177543
20
49.227740055844748
10
-41.637062150007651
20
62.818087047410984
10
-28.046715158395266
20
60.421742195602135
0
LWPOLYLINE
5
221
100
AcDbEntity
8
0
100
AcDbPolyline
90
3
70
1
43
0.0
10
-47.541100190546587
20
29.334623444945663
10
-33.950753199038793
20
26.938278593136332
10
-49.937445042420016
20
15.744276453367503
0
LWPOLYLINE
5
222
100
AcDbEntity
8
0
100
AcDbPolyline
90
8
70
1
43
0.0
10
-101.98440084046604
20
32.968373925778728
10
-101.68770993102386
20
49.965784743436068
10
-84.6902991133679
20
49.669093833992278
10
-101.68770993102305
20
49.965784743420869
10
-101.39101902158274
20
66.963195561090188
10
-84.393608203925851
20
66.666504651649078
10
-84.6902991133679
20
49.669093833992278
10
-84.986990022809081
20
32.671683016337326
0
LINE
5
223
100
AcDbEntity
8
0
100
AcDbLine
10
-44.589081170277751
20
46.076355246202553
30
0
11
-33.395079030520421
21
30.089663402825391
31
0
0
LWPOLYLINE
5
224
100
AcDbEntity
8
0
100
AcDbPolyline
90
3
70
1
43
0.0
10
-67.058817187625863
20
50.024371048407801
10
-68.26156643754959
20
36.276884214742246
10
-82.009053271215166
20
37.479633464665582
0
LWPOLYLINE
5
225
100
AcDbEntity
8
0
100
AcDbPolyline
90
8
70
1
43
0.0
10
-65.325456482283016
20
51.478833376957027
10
-66.807104109000363
20
34.543523509399336
10
-83.742413976553408
20
36.025171136116128
10
-85.224061603268211
20
19.089861268592895
10
-68.288751735774312
20
17.608213641880859
10
-66.807104109000363
20
34.543523509399336
10
-83.74241397655797
20
36.025171136117009
10
-82.260766349840338
20
52.960481003674502
0
LINE
5
226
100
AcDbEntity
8
0
100
AcDbLine
10
-37.133020862307177
20
-0.32329092366270767
30
0
11
-22.005725593001522
21
85.467863716341895
31
0
0
LINE
5
227
100
AcDbEntity
8
0
100
AcDbLine
10
-87.050717598648092
20
6.1187109784267291
30
0
11
-87.291560807487429
21
-7.6791872147313214
31
0
0
LINE
5
228
100
AcDbEntity
8
0
100
AcDbLine
10
-69.036131556607799
20
4.6923325350147769
30
0
11
-70.238880806529224
21
-9.0551542986510132
31
0
0
LWPOLYLINE
5
229
100
AcDbEntity
8
0
100
AcDbPolyline
90
4
70
1
43
0.0
10
-70.238880806529224
20
-9.0551542986510132
10
-83.986367640195169
20
-7.8524050487317512
10
-69.036131556607799
20
4.6923325350147769
10
-82.783618390275237
20
5.8950817849328088
0
LINE
5
230
100
AcDbEntity
8
0
100
AcDbLine
10
-83.986367640195169
20
-7.8524050487317512
30
0
11
-82.783618390275237
21
5.8950817849328088
31
0
0
LINE
5
231
100
AcDbEntity
8
0
100
AcDbLine
10
-87.050717598648092
20
6.1187109784267291
30
0
11
-101.08945900064548
21
-7.4383440058910857
31
0
0
LINE
5
232
100
AcDbEntity
8
0
100
AcDbLine
10
-56.618817802734412
20
-12.933638639559643
30
0
11
-68.784418477978065
21
-10.788515003994018
31
0
0
LINE
5
233
100
AcDbEntity
8
0
100
AcDbLine
10
-99.819186559641068
20
65.335515398540664
30
0
11
-86.021288366475517
21
65.094672189700105
31
0
0
LINE
5
234
100
AcDbEntity
8
0
100
AcDbLine
10
-66.77991881065887
20
53.212194082284647
30
0
11
-80.52740564433077
21
54.414943332164128
31
0
0
LWPOLYLINE
5
235
100
AcDbEntity
8
0
100
AcDbPolyline
90
3
70
1
43
0.0
10
-30.998734178710286
20
43.680010394392703
10
-46.985426022087857
20
32.486008254634761
10
-44.589081170277751
20
46.076355246202553
0
LINE
5
236
100
AcDbEntity
8
0
100
AcDbLine
10
-33.395079030520421
20
30.089663402825391
30
0
11
-46.985426022087857
21
32.486008254634761
31
0
0
LWPOLYLINE
5
237
100
AcDbEntity
8
0
100
AcDbPolyline
90
3
70
1
43
0.0
10
-48.158480612334174
20
51.789432839935969
10
-63.744768754218683
20
40.044322284580794
10
-61.824179960937883
20
53.710021633239677
0
LWPOLYLINE
5
238
100
AcDbEntity
8
0
100
AcDbPolyline
90
4
70
1
43
0.0
10
-12.000000000001201
20
53.52808792452835
10
-14.396344851809427
20
39.9377409329607
10
-25.590346991567667
20
55.924432776338982
10
-27.986691843376814
20
42.33408578477038
0
LINE
5
239
100
AcDbEntity
8
0
100
AcDbLine
10
-61.378826037955122
20
56.878879453243478
30
0
11
-59.458237244699717
21
70.544578801879013
31
0
0
LINE
5
240
100
AcDbEntity
8
0
100
AcDbLine
10
-80.806304021291254
20
51.227120298331613
30
0
11
-67.058817187625863
21
50.024371048407801
31
0
0
LINE
5
241
100
AcDbEntity
8
0
100
AcDbLine
10
-59.458237244699717
20
70.544578801879013
30
0
11
-47.713126689322237
21
54.958290659988968
31
0
0
LINE
5
242
100
AcDbEntity
8
0
100
AcDbLine
10
-48.158480612334174
20
51.789432839935969
30
0
11
-50.079069405589067
21
38.123733491303128
31
0
0
LWPOLYLINE
5
243
100
AcDbEntity
8
0
100
AcDbPolyline
90
3
70
1
43
0.0
10
-38.023556512437182
20
-14.5878023393538
10
-35.627211660666312
20
-0.99745534777986
10
-24.433209520870015
20
-16.984147191164872
0
LINE
5
244
100
AcDbEntity
8
0
100
AcDbLine
10
-52.445012121511638
20
21.28917632265313
30
0
11
-66.110711470142846
21
23.209765115919524
31
0
0
LINE
5
245
100
AcDbEntity
8
0
100
AcDbLine
10
-65.577169560826832
20
66.959680915958259
30
0
11
-80.52740564433077
21
54.414943332164128
31
0
0
LINE
5
246
100
AcDbEntity
8
0
100
AcDbLine
10
-59.458237244699717
20
70.544578801879013
30
0
11
-45.79253789606723
21
68.623990008621789
31
0
0
LINE
5
247
100
AcDbEntity
8
0
100
AcDbLine
10
-30.998734178710286
20
43.680010394392703
30
0
11
-33.395079030520421
21
30.089663402825391
31
0
0
LWPOLYLINE
5
248
100
AcDbEntity
8
0
100
AcDbPolyline
90
4
70
1
43
0.0
10
-28.542366011915277
20
39.182700975115864
10
-14.952019020339741
20
36.786356123321127
10
-17.348363872161258
20
23.196009131755801
10
-30.938710863730282
20
25.592353983556425
0
LINE
5
249
100
AcDbEntity
8
0
100
AcDbLine
10
-53.866722192135946
20
-0.32329092371864443
30
0
11
-41.80956170957792
21
85.467863716341711
31
0
0
LINE
5
250
100
AcDbEntity
8
0
100
AcDbLine
10
-85.562919435169462
20
-0.32329092382455354
30
0
11
-84.065429261006699
21
85.467863716341341
31
0
0
LINE
5
251
100
AcDbEntity
8
0
100
AcDbLine
10
-14.396344851809427
20
39.9377409329607
30
0
11
-27.986691843376814
21
42.33408578477038
31
0
0
LINE
5
252
100
AcDbEntity
8
0
100
AcDbLine
10
-30.443060010208001
20
46.831395204035282
30
0
11
-44.03340700177543
21
49.227740055844748
31
0
0
LINE
5
253
100
AcDbEntity
8
0
100
AcDbLine
10
-80.806304021291254
20
51.227120298331613
30
0
11
-68.26156643754959
21
36.276884214742246
31
0
0
LINE
5
254
100
AcDbEntity
8
0
100
AcDbLine
10
-28.542366011915277
20
39.182700975115864
30
0
11
-17.348363872161258
21
23.196009131755801
31
0
0
LINE
5
255
100
AcDbEntity
8
0
100
AcDbLine
10
-14.952019020339741
20
36.786356123321127
30
0
11
-30.938710863730282
21
25.592353983556425
31
0
0
LINE
5
256
100
AcDbEntity
8
0
100
AcDbLine
10
-69.857555105215155
20
-0.32329092377205737
30
0
11
-62.351801643525974
21
85.467863716341668
31
0
0
LWPOLYLINE
5
257
100
AcDbEntity
8
0
100
AcDbPolyline
90
3
70
1
43
0.0
10
-31.494385032212627
20
22.440969173919537
10
-17.904038040662819
20
20.044624322114309
10
-33.890729884012231
20
8.8506221823496283
0
LINE
5
258
100
AcDbEntity
8
0
100
AcDbLine
10
-1.9170701657566478e-12
20
85.467863716341583
30
0
11
-208.77584776107912
21
85.467863716339735
31
0
0
LINE
5
259
100
AcDbEntity
8
0
100
AcDbLine
10
-208.77584776107912
20
85.467863716339735
30
0
11
-208.77584776096913
21
-0.32329092423744549
31
0
0
LWPOLYLINE
5
260
100
AcDbEntity
8
0
100
AcDbPolyline
90
4
70
1
43
0.0
10
-89.426498023525141
20
90.033525248939441
10
-74.704066159190575
20
81.533525248939199
10
-83.204066159193829
20
66.811093384606266
10
-97.926498023525227
20
75.311093384604689
0
LWPOLYLINE
5
261
100
AcDbEntity
8
0
100
AcDbPolyline
90
3
70
1
43
0.0
10
-88.840857377470172
20
87.847884602884278
10
-83.789706805245331
20
68.996734030659368
10
-95.740857377470377
20
75.896734030659545
0
LINE
5
262
100
AcDbEntity
8
0
100
AcDbLine
10
-17.904038040662819
20
20.044624322114309
30
0
11
-20.300382892444468
21
6.4542773305419896
31
0
0
LINE
5
263
100
AcDbEntity
8
0
100
AcDbLine
10
-86.021288366475517
20
65.094672189700105
30
0
11
-86.262131575315507
21
51.296773996542022
31
0
0
LINE
5
264
100
AcDbEntity
8
0
100
AcDbLine
10
-80.52740564433077
20
54.414943332164128
30
0
11
-79.324656394483057
21
68.162430165861394
31
0
0
LINE
5
265
100
AcDbEntity
8
0
100
AcDbLine
10
-33.950753199038793
20
26.938278593136332
30
0
11
-36.347098050850576
21
13.347931601569243
31
0
0
LINE
5
266
100
AcDbEntity
8
0
100
AcDbLine
10
-35.627211660666312
20
-0.99745534777986
30
0
11
-22.036864669099167
21
-3.393800199590606
31
0
0
LINE
5
267
100
AcDbEntity
8
0
100
AcDbLine
10
-36.347098050850576
20
13.347931601569243
30
0
11
-49.937445042420016
21
15.744276453367503
31
0
0
LWPOLYLINE
5
268
100
AcDbEntity
8
0
100
AcDbPolyline
90
4
70
1
43
0.0
10
-38.778596470272319
20
-0.44178117925130994
10
-41.174941322080812
20
-14.032128170818947
10
-52.368943461838448
20
1.9545636725573101
10
-54.765288313648163
20
-11.63578331900904
0
LWPOLYLINE
5
269
100
AcDbEntity
8
0
100
AcDbPolyline
90
4
70
1
43
0.0
10
-39.877086001521548
20
-15.88565765991007
10
-56.618817802734412
20
-12.933638639559643
10
-53.666798782389414
20
3.8080931616436025
10
-36.925066981186163
20
0.85607414129883286
0
LINE
5
270
100
AcDbEntity
8
0
100
AcDbLine
10
-61.824179960937883
20
53.710021633239677
30
0
11
-50.079069405589067
21
38.123733491303128
31
0
0
LINE
5
271
100
AcDbEntity
8
0
100
AcDbLine
10
-28.046715158395266
20
60.421742195602135
30
0
11
-30.443060010208001
21
46.831395204035282
31
0
0
LINE
5
272
100
AcDbEntity
8
0
100
AcDbLine
10
-19.870768460242491
20
-0.32329092360506267
30
0
11
-4.7434731911460695
21
85.467863716341242
31
0
0
LINE
5
273
100
AcDbEntity
8
0
100
AcDbLine
10
-22.036864669099167
20
-3.393800199590606
30
0
11
-38.023556512437182
21
-14.5878023393538
31
0
0
LINE
5
274
100
AcDbEntity
8
0
100
AcDbLine
10
-82.009053271215166
20
37.479633464665582
30
0
11
-80.806304021291254
21
51.227120298331613
31
0
0
LWPOLYLINE
5
275
100
AcDbEntity
8
0
100
AcDbPolyline
90
4
70
1
43
0.0
10
-36.925066981221384
20
0.85607414130712656
10
-20.183335180015458
20
-2.0959448790380968
10
-23.135354200314644
20
-18.837676680251938
10
-39.877086001521555
20
-15.885657659910063
0
LINE
5
276
100
AcDbEntity
8
0
100
AcDbLine
10
-41.637062150007651
20
62.818087047410984
30
0
11
-30.443060010208001
21
46.831395204035282
31
0
0
LINE
5
277
100
AcDbEntity
8
0
100
AcDbLine
10
-41.174941322080812
20
-14.032128170818947
30
0
11
-54.765288313648163
21
-11.63578331900904
31
0
0
LINE
5
278
100
AcDbEntity
8
0
100
AcDbLine
10
-20.300382892444468
20
6.4542773305419896
30
0
11
-33.890729884012231
21
8.8506221823496283
31
0
0
LINE
5
279
100
AcDbEntity
8
0
100
AcDbLine
10
-22.036864669099167
20
-3.393800199590606
30
0
11
-24.433209520870015
21
-16.984147191164872
31
0
0
LINE
5
280
100
AcDbEntity
8
0
100
AcDbLine
10
-52.368943461838448
20
1.9545636725573103
30
0
11
-38.778596470272319
21
-0.44178117925130994
31
0
0
LINE
5
281
100
AcDbEntity
8
0
100
AcDbLine
10
-47.541100190546587
20
29.334623444945663
30
0
11
-36.347098050850576
21
13.347931601569243
31
0
0
LINE
5
282
100
AcDbEntity
8
0
100
AcDbLine
10
-76.889706805244998
20
80.947884602884216
30
0
11
-95.740857377470377
21
75.896734030659545
31
0
0
LINE
5
283
100
AcDbEntity
8
0
100
AcDbLine
10
-76.889706805244998
20
80.947884602884216
30
0
11
-83.789706805245331
21
68.996734030659368
31
0
0
LINE
5
284
100
AcDbEntity
8
0
100
AcDbLine
10
-86.315282091357716
20
78.422309316771901
30
0
11
-86.519832608505567
21
66.703618036684347
31
0
0
LINE
5
285
100
AcDbEntity
8
0
100
AcDbLine
10
-31.494385032212627
20
22.440969173919537
30
0
11
-20.300382892444468
21
6.4542773305419896
31
0
0
LINE
5
286
100
AcDbEntity
8
0
100
AcDbLine
10
-88.840857377470172
20
87.847884602884278
30
0
11
-76.889706805244998
21
80.947884602884216
31
0
0
LWPOLYLINE
5
287
100
AcDbEntity
8
0
100
AcDbPolyline
90
4
70
1
43
0.0
10
-85.283680932237829
20
15.674272198678851
10
-102.28109174990693
20
15.970963108119774
10
-101.98440084046466
20
32.968373925778394
10
-84.986990022809081
20
32.671683016337326
0
LWPOLYLINE
5
288
100
AcDbEntity
8
0
100
AcDbPolyline
90
4
70
1
43
0.0
10
-86.614670185358747
20
31.099850554386947
10
-100.65341158735733
20
17.542795570064452
10
-100.41256837851755
20
31.340693763228611
10
-86.85551339419915
20
17.301952361228842
0
LWPOLYLINE
5
289
100
AcDbEntity
8
0
100
AcDbPolyline
90
3
70
1
43
0.0
10
-68.54046481434041
20
33.089061180884073
10
-83.490700897925322
20
20.544323597142522
10
-82.287951647999023
20
34.291810430772912
0
LINE
5
290
100
AcDbEntity
8
0
100
AcDbLine
10
-86.85551339419915
20
17.301952361228842
30
0
11
-100.65341158735733
21
17.542795570064452
31
0
0
LINE
5
291
100
AcDbEntity
8
0
100
AcDbLine
10
-100.11587746907553
20
48.33810458088638
30
0
11
-86.317979275917594
21
48.097261372045253
31
0
0
LWPOLYLINE
5
292
100
AcDbEntity
8
0
100
AcDbPolyline
90
3
70
1
43
0.0
10
-86.558822484758181
20
34.299363178887177
10
-100.35672067791629
20
34.540206387727345
10
-100.11587746907553
20
48.33810458088638
0
LINE
5
293
100
AcDbEntity
8
0
100
AcDbLine
10
-86.317979275917594
20
48.097261372045253
30
0
11
-86.558822484758181
21
34.299363178887177
31
0
0
LINE
5
294
100
AcDbEntity
8
0
100
AcDbLine
10
-86.317979275917594
20
48.097261372045253
30
0
11
-100.35672067791629
21
34.540206387727345
31
0
0
LINE
5
295
100
AcDbEntity
8
0
100
AcDbLine
10
-82.287951647999023
20
34.291810430772912
30
0
11
-69.743214064259803
21
19.341574347218145
31
0
0
LINE
5
296
100
AcDbEntity
8
0
100
AcDbLine
10
-68.54046481434041
20
33.089061180884073
30
0
11
-69.743214064259803
21
19.341574347218145
31
0
0
LINE
5
297
100
AcDbEntity
8
0
100
AcDbLine
10
-100.41256837851755
20
31.340693763228611
30
0
11
-86.614670185358747
21
31.099850554386947
31
0
0
LINE
5
298
100
AcDbEntity
8
0
100
AcDbLine
10
-100.84861579180603
20
6.3595541872632158
30
0
11
-87.050717598648092
21
6.1187109784267291
31
0
0
LINE
5
299
100
AcDbEntity
8
0
100
AcDbLine
10
-69.743214064259803
20
19.341574347218145
30
0
11
-83.490700897925322
21
20.544323597142522
31
0
0
LINE
5
300
100
AcDbEntity
8
0
100
AcDbLine
10
-1.9170701657566478e-12
20
85.467863716341583
30
0
11
-3.1001168560383681e-12
21
138.21251222205902
31
0
0
ENDSEC
0
SECTION
2
OBJECTS
0
DICTIONARY
5
C
100
AcDbDictionary
3
ACAD_GROUP
350
D
3
ACAD_MLINESTYLE
350
17
0
DICTIONARY
5
D
100
AcDbDictionary
0
DICTIONARY
5
1A
330
C
100
AcDbDictionary
0
DICTIONARY
5
17
100
AcDbDictionary
0
ENDSEC
0
EOF
