0
SECTION
2
HEADER
9
$INSUNITS
70
4
9
$ACADVER
1
AC1014
9
$HANDSEED
5
FFFF
0
ENDSEC
0
SECTION
2
TABLES
0
TABLE
2
VPORT
5
8
100
AcDbSymbolTable
0
ENDTAB
0
TABLE
2
LTYPE
5
5
100
AcDbSymbolTable
0
LTYPE
5
14
100
AcDbSymbolTableRecord
100
AcDbLinetypeTableRecord
2
BYBLOCK
70
0
0
LTYPE
5
15
100
AcDbSymbolTableRecord
100
AcDbLinetypeTableRecord
2
BYLAYER
70
0
0
ENDTAB
0
TABLE
2
LAYER
5
2
100
AcDbSymbolTable
70
2
0
LAYER
5
50
100
AcDbSymbolTableRecord
100
AcDbLayerTableRecord
2
0
70
0
6
CONTINUOUS
0
ENDTAB
0
TABLE
2
STYLE
5
3
100
AcDbSymbolTable
70
1
0
STYLE
5
11
100
AcDbSymbolTableRecord
100
AcDbTextStyleTableRecord
2
STANDARD
70
0
0
ENDTAB
0
TABLE
2
VIEW
5
6
100
AcDbSymbolTable
70
0
0
ENDTAB
0
TABLE
2
UCS
5
7
100
AcDbSymbolTable
70
0
0
ENDTAB
0
TABLE
2
APPID
5
9
100
AcDbSymbolTable
70
2
0
APPID
5
12
100
AcDbSymbolTableRecord
100
AcDbRegAppTableRecord
2
ACAD
70
0
0
ENDTAB
0
TABLE
2
DIMSTYLE
5
A
100
AcDbSymbolTable
70
1
0
ENDTAB
0
TABLE
2
BLOCK_RECORD
5
1
100
AcDbSymbolTable
70
1
0
BLOCK_RECORD
5
1F
100
AcDbSymbolTableRecord
100
AcDbBlockTableRecord
2
*MODEL_SPACE
0
BLOCK_RECORD
5
1B
100
AcDbSymbolTableRecord
100
AcDbBlockTableRecord
2
*PAPER_SPACE
0
ENDTAB
0
ENDSEC
0
SECTION
2
BLOCKS
0
BLOCK
5
20
100
AcDbEntity
100
AcDbBlockBegin
2
*MODEL_SPACE
0
ENDBLK
5
21
100
AcDbEntity
100
AcDbBlockEnd
0
BLOCK
5
1C
100
AcDbEntity
100
AcDbBlockBegin
2
*PAPER_SPACE
0
ENDBLK
5
1D
100
AcDbEntity
100
AcDbBlockEnd
0
ENDSEC
0
SECTION
2
ENTITIES
0
LWPOLYLINE
5
100
100
AcDbEntity
8
0
100
AcDbPolyline
90
44
70
1
43
0.0
10
-52.558611259087932
20
-20.707357644746409
10
-13.070733309111963
20
-24.740030330998636
42
0.025448365056397533
10
-11.546794759986001
20
-24.817644084205263
10
11.546794759986041
20
-24.817644084205256
42
0.025448365056397533
10
13.070733309111997
20
-24.740030330998618
10
52.55861125908811
20
-20.707357644746391
42
0.016942489944006479
10
53.56553278599867
20
-20.569921424095291
10
80.083936568994446
20
-16.030550692646713
42
0.15114466484784178
10
87.990494203405262
20
-12.018729809777513
10
91.679371348387249
20
-8.4448051744508419
42
0.11711453441491024
10
95.40864779684884
20
-2.6016635167536872
10
99.864954001412571
20
10.20387143910791
42
0.076930129337686684
10
100.6924743459445
20
14.717287892561473
10
101.77941735498294
20
53.841123622335999
42
0.051770143609052979
10
101.54521332468187
20
56.930163706253495
10
98.970143649962722
20
71.152238735481163
42
0.086333006894357592
10
97.200514233609226
20
75.979769683651782
10
85.509347720201632
20
96.229464084744905
42
0.41421356237323315
10
84.143322316417709
20
96.595489488532706
10
65.066446195117777
20
85.581449924658472
10
57.629580042048332
20
81.194932307267322
42
-0.098639239163168205
10
52.096533175720168
20
79.260887842061464
10
34.844740055965502
20
76.836306436909723
42
-0.022728022596518394
10
33.487802773462541
20
76.708133466925986
10
0.73065923188822768
20
75.11061648528964
42
-0.024369772000717764
10
-0.73065923188838866
20
75.11061648528964
10
-33.487802773462512
20
76.708133466926
42
-0.022728022596518394
10
-34.844740055965481
20
76.836306436909737
10
-52.096533175720161
20
79.260887842061464
42
-0.098639239163174033
10
-57.629580042048325
20
81.194932307267322
10
-65.066446195117777
20
85.581449924658472
10
-84.143322316417724
20
96.595489488532721
42
0.41421356237322088
10
-85.509347720201589
20
96.229464084744905
10
-97.200514233609255
20
75.979769683651767
42
0.086333006894358078
10
-98.970143649962779
20
71.152238735481163
10
-101.54521332468191
20
56.930163706253552
42
0.051770143609052841
10
-101.77941735498293
20
53.841123622336049
10
-100.69247434594453
20
14.717287892561494
42
0.076930129337686406
10
-99.864954001412599
20
10.203871439107941
10
-95.408647796848811
20
-2.6016635167537094
42
0.11711453441491006
10
-91.679371348387235
20
-8.4448051744508685
10
-87.990494203405262
20
-12.018729809777513
42
0.151144664847842
10
-80.083936568994432
20
-16.03055069264671
10
-53.565532785998506
20
-20.569921424095309
42
0.016942489944007297
0
LINE
5
101
100
AcDbEntity
8
0
100
AcDbLine
10
0
20
48.823077242901157
30
0
11
0
21
39.251994007127792
31
0
0
LINE
5
102
100
AcDbEntity
8
0
100
AcDbLine
10
6.4088892787188829
20
44.037535625014485
30
0
11
-6.4088892787188829
21
44.037535625014485
31
0
0
LINE
5
103
100
AcDbEntity
8
0
100
AcDbLine
10
0
20
31.749851760543855
30
0
11
0
21
17.649233244265112
31
0
0
ENDSEC
0
SECTION
2
OBJECTS
0
DICTIONARY
5
C
100
AcDbDictionary
3
ACAD_GROUP
350
D
3
ACAD_MLINESTYLE
350
17
0
DICTIONARY
5
D
100
AcDbDictionary
0
DICTIONARY
5
1A
330
C
100
AcDbDictionary
0
DICTIONARY
5
17
100
AcDbDictionary
0
ENDSEC
0
EOF
