0
SECTION
2
HEADER
9
$INSUNITS
70
4
9
$ACADVER
1
AC1014
9
$HANDSEED
5
FFFF
0
ENDSEC
0
SECTION
2
TABLES
0
TABLE
2
VPORT
5
8
100
AcDbSymbolTable
0
ENDTAB
0
TABLE
2
LTYPE
5
5
100
AcDbSymbolTable
0
LTYPE
5
14
100
AcDbSymbolTableRecord
100
AcDbLinetypeTableRecord
2
BYBLOCK
70
0
0
LTYPE
5
15
100
AcDbSymbolTableRecord
100
AcDbLinetypeTableRecord
2
BYLAYER
70
0
0
ENDTAB
0
TABLE
2
LAYER
5
2
100
AcDbSymbolTable
70
2
0
LAYER
5
50
100
AcDbSymbolTableRecord
100
AcDbLayerTableRecord
2
0
70
0
6
CONTINUOUS
0
ENDTAB
0
TABLE
2
STYLE
5
3
100
AcDbSymbolTable
70
1
0
STYLE
5
11
100
AcDbSymbolTableRecord
100
AcDbTextStyleTableRecord
2
STANDARD
70
0
0
ENDTAB
0
TABLE
2
VIEW
5
6
100
AcDbSymbolTable
70
0
0
ENDTAB
0
TABLE
2
UCS
5
7
100
AcDbSymbolTable
70
0
0
ENDTAB
0
TABLE
2
APPID
5
9
100
AcDbSymbolTable
70
2
0
APPID
5
12
100
AcDbSymbolTableRecord
100
AcDbRegAppTableRecord
2
ACAD
70
0
0
ENDTAB
0
TABLE
2
DIMSTYLE
5
A
100
AcDbSymbolTable
70
1
0
ENDTAB
0
TABLE
2
BLOCK_RECORD
5
1
100
AcDbSymbolTable
70
1
0
BLOCK_RECORD
5
1F
100
AcDbSymbolTableRecord
100
AcDbBlockTableRecord
2
*MODEL_SPACE
0
BLOCK_RECORD
5
1B
100
AcDbSymbolTableRecord
100
AcDbBlockTableRecord
2
*PAPER_SPACE
0
ENDTAB
0
ENDSEC
0
SECTION
2
BLOCKS
0
BLOCK
5
20
100
AcDbEntity
100
AcDbBlockBegin
2
*MODEL_SPACE
0
ENDBLK
5
21
100
AcDbEntity
100
AcDbBlockEnd
0
BLOCK
5
1C
100
AcDbEntity
100
AcDbBlockBegin
2
*PAPER_SPACE
0
ENDBLK
5
1D
100
AcDbEntity
100
AcDbBlockEnd
0
ENDSEC
0
SECTION
2
ENTITIES
0
LINE
5
100
100
AcDbEntity
8
0
100
AcDbLine
10
0
20
0
30
0
11
1.4032584476033224e-15
21
77.633694898420643
31
0
0
LINE
5
101
100
AcDbEntity
8
0
100
AcDbLine
10
0
20
0
30
0
11
139.45667311780181
21
9.9548189214679862e-15
31
0
0
LINE
5
102
100
AcDbEntity
8
0
100
AcDbLine
10
14.688915022740645
20
1.4013733931018487e-15
30
0
11
1.0000000000000007
21
77.633694898420643
31
0
0
LINE
5
103
100
AcDbEntity
8
0
100
AcDbLine
10
1.4032584476033224e-15
20
77.633694898420643
30
0
11
139.45667311779494
21
77.633694898421183
31
0
0
LINE
5
104
100
AcDbEntity
8
0
100
AcDbLine
10
139.45667311779494
20
77.633694898421183
30
0
11
139.45667311780181
21
9.9548189214679862e-15
31
0
0
LWPOLYLINE
5
105
100
AcDbEntity
8
0
100
AcDbPolyline
90
4
70
1
43
0.0
10
83.691656266568813
20
92.177798034904129
10
71.740505694260136
20
85.277798034932999
10
78.640505694262359
20
73.326647462708962
10
90.591656266466117
20
80.2266474627462
0
LINE
5
106
100
AcDbEntity
8
0
100
AcDbLine
10
83.691656266568813
20
92.177798034904129
30
0
11
78.640505694262359
21
73.326647462708962
31
0
0
LINE
5
107
100
AcDbEntity
8
0
100
AcDbLine
10
71.740505694260136
20
85.277798034932999
30
0
11
90.591656266466117
21
80.2266474627462
31
0
0
LWPOLYLINE
5
108
100
AcDbEntity
8
0
100
AcDbPolyline
90
4
70
1
43
0.0
10
78.054865048182435
20
71.141006816639646
10
92.777296912540606
20
79.641006816655988
10
84.277296912696599
20
94.36343868100289
10
69.5548650482189
20
85.863438680963526
0
LWPOLYLINE
5
109
100
AcDbEntity
8
0
100
AcDbPolyline
90
12
70
1
43
0.0
10
30.041461402596212
20
10.830481044419951
10
27.089442382256202
20
27.572212845639655
10
10.347710581048695
20
24.620193825301861
10
27.089442382259811
20
27.572212845638404
10
24.13742336192394
20
44.313944646850899
10
7.3956915607140328
20
41.361925626510072
10
4.4436725403279764
20
58.103657427991223
10
21.185404341583794
20
61.055676448055365
10
24.137423361969876
20
44.313944646574122
10
7.3956915607140328
20
41.361925626510072
10
10.347710581048695
20
24.620193825301861
10
13.299729601399308
20
7.878462024096617
0
LWPOLYLINE
5
110
100
AcDbEntity
8
0
100
AcDbPolyline
90
4
70
1
43
0.0
10
14.59758492193898
20
9.7319915131809633
10
28.18793191350742
20
12.128336364984584
10
12.201240070135356
20
23.322338504749446
10
25.791587061711809
20
25.718683356554465
0
LINE
5
111
100
AcDbEntity
8
0
100
AcDbLine
10
12.201240070135356
20
23.322338504749446
30
0
11
14.59758492193898
21
9.7319915131809633
31
0
0
LINE
5
112
100
AcDbEntity
8
0
100
AcDbLine
10
28.18793191350742
20
12.128336364984584
30
0
11
25.791587061711809
21
25.718683356554465
31
0
0
LINE
5
113
100
AcDbEntity
8
0
100
AcDbLine
10
22.839568041368619
20
42.460415157763727
30
0
11
11.645565901604417
21
26.473723314389019
31
0
0
LWPOLYLINE
5
114
100
AcDbEntity
8
0
100
AcDbPolyline
90
3
70
1
43
0.0
10
9.2492210498006511
20
40.064070305957465
10
25.235912893171108
20
28.870068166202785
10
22.839568041368619
20
42.460415157763727
0
LWPOLYLINE
5
115
100
AcDbEntity
8
0
100
AcDbPolyline
90
3
70
1
43
0.0
10
8.6935468812665988
20
43.215455115596058
10
22.283893872835097
20
45.611799967399655
10
19.88754902103145
20
59.202146958968108
0
LINE
5
116
100
AcDbEntity
8
0
100
AcDbLine
10
6.297202029462948
20
56.805802107164524
30
0
11
22.283893872835097
21
45.611799967399655
31
0
0
LINE
5
117
100
AcDbEntity
8
0
100
AcDbLine
10
6.297202029462948
20
56.805802107164524
30
0
11
8.6935468812665988
21
43.215455115596058
31
0
0
LINE
5
118
100
AcDbEntity
8
0
100
AcDbLine
10
9.2492210498006511
20
40.064070305957465
30
0
11
11.645565901604417
21
26.473723314389019
31
0
0
LINE
5
119
100
AcDbEntity
8
0
100
AcDbLine
10
11.645565901604417
20
26.473723314389019
30
0
11
25.235912893171108
21
28.870068166202785
31
0
0
LINE
5
120
100
AcDbEntity
8
0
100
AcDbLine
10
19.88754902103145
20
59.202146958968108
30
0
11
6.297202029462948
21
56.805802107164524
31
0
0
LWPOLYLINE
5
121
100
AcDbEntity
8
0
100
AcDbPolyline
90
8
70
1
43
0.0
10
23.442406719077454
20
48.255579897609422
10
26.394425739419837
20
31.513848096402626
10
43.136157540635629
20
34.465867116726898
10
46.088176560965017
20
17.724135315517845
10
29.346444759775029
20
14.772116295183086
10
26.394425739419837
20
31.513848096402626
10
43.136157540623003
20
34.465867116739666
10
40.184138520278474
20
51.207598917946001
0
LWPOLYLINE
5
122
100
AcDbEntity
8
0
100
AcDbPolyline
90
3
70
1
43
0.0
10
22.343917187826264
20
63.699456378264514
10
24.74026203962989
20
50.109109386696041
10
35.934264179394667
20
66.095801230068133
0
LWPOLYLINE
5
123
100
AcDbEntity
8
0
100
AcDbPolyline
90
4
70
1
43
0.0
10
40.18413852028602
20
51.207598917947344
10
37.23211949993938
20
67.949330719153394
10
20.490387698739546
20
64.997311698817427
10
23.442406719077454
20
48.255579897609422
0
LWPOLYLINE
5
124
100
AcDbEntity
8
0
100
AcDbPolyline
90
3
70
1
43
0.0
10
41.282628051535546
20
35.763722437291946
10
38.886283199731956
20
49.354069428860413
10
25.295936208163525
20
46.957724577056794
0
LINE
5
125
100
AcDbEntity
8
0
100
AcDbLine
10
27.692281059967083
20
33.36737758548832
30
0
11
41.282628051535546
21
35.763722437291946
31
0
0
LINE
5
126
100
AcDbEntity
8
0
100
AcDbLine
10
38.33060903119835
20
52.505454238499645
30
0
11
35.934264179394667
21
66.095801230068133
31
0
0
LINE
5
127
100
AcDbEntity
8
0
100
AcDbLine
10
22.343917187826264
20
63.699456378264514
30
0
11
38.33060903119835
21
52.505454238499645
31
0
0
LINE
5
128
100
AcDbEntity
8
0
100
AcDbLine
10
25.295936208163525
20
46.957724577056794
30
0
11
27.692281059967083
21
33.36737758548832
31
0
0
LINE
5
129
100
AcDbEntity
8
0
100
AcDbLine
10
38.886283199731956
20
49.354069428860413
30
0
11
27.692281059967083
21
33.36737758548832
31
0
0
LWPOLYLINE
5
130
100
AcDbEntity
8
0
100
AcDbPolyline
90
3
70
1
43
0.0
10
41.838302220075711
20
32.612337627638908
10
30.644300080310959
20
16.625645784266794
10
44.234647071879408
20
19.021990636070441
0
LINE
5
131
100
AcDbEntity
8
0
100
AcDbLine
10
41.838302220075711
20
32.612337627638908
30
0
11
28.24795522850733
21
30.215992775835264
31
0
0
LINE
5
132
100
AcDbEntity
8
0
100
AcDbLine
10
31.951167424779193
20
2.281122831613952e-15
30
0
11
18.262252402097445
21
77.633694898420714
31
0
0
LINE
5
133
100
AcDbEntity
8
0
100
AcDbLine
10
24.74026203962989
20
50.109109386696041
30
0
11
38.33060903119835
21
52.505454238499645
31
0
0
LINE
5
134
100
AcDbEntity
8
0
100
AcDbLine
10
28.24795522850733
20
30.215992775835264
30
0
11
30.644300080310959
21
16.625645784266794
31
0
0
LINE
5
135
100
AcDbEntity
8
0
100
AcDbLine
10
28.24795522850733
20
30.215992775835264
30
0
11
44.234647071879408
21
19.021990636070441
31
0
0
LWPOLYLINE
5
136
100
AcDbEntity
8
0
100
AcDbPolyline
90
8
70
1
43
0.0
10
43.012217294179123
20
39.610722749662116
10
59.846774462790535
20
41.976665465985661
10
57.480831746469569
20
58.811222634588773
10
40.646274577867644
20
56.445279918268476
10
57.48083174647428
20
58.811222634589569
10
55.11488903015335
20
75.645779803196248
10
38.280331861544965
20
73.279837086886161
10
40.646274577867644
20
56.445279918268476
0
LWPOLYLINE
5
137
100
AcDbEntity
8
0
100
AcDbPolyline
90
3
70
1
43
0.0
10
58.039668591268239
20
43.338417414433302
10
56.119079798017218
20
57.00411676306588
10
44.373969242634416
20
41.417828621185429
0
LWPOLYLINE
5
138
100
AcDbEntity
8
0
100
AcDbPolyline
90
3
70
1
43
0.0
10
44.819323165701803
20
38.24897080121184
10
46.739911958950707
20
24.583271452578174
10
58.485022514335405
20
40.169559594460736
0
LINE
5
139
100
AcDbEntity
8
0
100
AcDbLine
10
46.739911958950707
20
24.583271452578174
30
0
11
60.40561130758438
21
26.503860245827067
31
0
0
LINE
5
140
100
AcDbEntity
8
0
100
AcDbLine
10
44.819323165701803
20
38.24897080121184
30
0
11
60.40561130758438
21
26.503860245827067
31
0
0
LWPOLYLINE
5
141
100
AcDbEntity
8
0
100
AcDbPolyline
90
4
70
1
43
0.0
10
62.212717179106932
20
25.142108297376705
10
59.846774462793313
20
41.976665465984425
10
43.012217294179123
20
39.610722749662116
10
45.378160010504516
20
22.776165581056137
0
LWPOLYLINE
5
142
100
AcDbEntity
8
0
100
AcDbPolyline
90
4
70
1
43
0.0
10
42.008026526317963
20
58.252385789791113
10
55.673725874951643
20
60.172974583040038
10
53.753137081705525
20
73.838673931673995
10
40.087437733069116
20
71.918085138424715
0
LINE
5
143
100
AcDbEntity
8
0
100
AcDbLine
10
60.40561130758438
20
26.503860245827067
30
0
11
58.485022514335405
21
40.169559594460736
31
0
0
LINE
5
144
100
AcDbEntity
8
0
100
AcDbLine
10
48.579141332586019
20
2.941156671221208e-15
30
0
11
37.668437050531189
21
77.633694898420814
31
0
0
LINE
5
145
100
AcDbEntity
8
0
100
AcDbLine
10
42.453380449389932
20
55.083527969819713
30
0
11
44.373969242634416
21
41.417828621185429
31
0
0
LINE
5
146
100
AcDbEntity
8
0
100
AcDbLine
10
42.453380449389932
20
55.083527969819713
30
0
11
58.039668591268239
21
43.338417414433302
31
0
0
LINE
5
147
100
AcDbEntity
8
0
100
AcDbLine
10
40.087437733069116
20
71.918085138424715
30
0
11
55.673725874951643
21
60.172974583040038
31
0
0
LINE
5
148
100
AcDbEntity
8
0
100
AcDbLine
10
56.119079798017218
20
57.00411676306588
30
0
11
42.453380449389932
21
55.083527969819713
31
0
0
LINE
5
149
100
AcDbEntity
8
0
100
AcDbLine
10
53.753137081705525
20
73.838673931673995
30
0
11
42.008026526317963
21
58.252385789791113
31
0
0
LWPOLYLINE
5
150
100
AcDbEntity
8
0
100
AcDbPolyline
90
3
70
1
43
0.0
10
77.784045196780866
20
23.856198615187072
10
76.581295946864628
20
37.60368544884863
10
64.036558363114764
20
22.65344936526942
0
LWPOLYLINE
5
151
100
AcDbEntity
8
0
100
AcDbPolyline
90
4
70
1
43
0.0
10
62.582096034567641
20
20.920088659926694
10
79.517405902123912
20
22.401736286636577
10
78.035758275414111
20
39.337046154191654
10
61.100448407854444
20
37.855398527481306
0
LWPOLYLINE
5
152
100
AcDbEntity
8
0
100
AcDbPolyline
90
4
70
1
43
0.0
10
62.554910736404956
20
39.588759232824358
10
76.302397570071037
20
40.791508482742017
10
75.099648320154529
20
54.538995316394399
10
61.352161486487297
20
53.336246066490418
0
LWPOLYLINE
5
153
100
AcDbEntity
8
0
100
AcDbPolyline
90
8
70
1
43
0.0
10
61.100448407854444
20
37.855398527481306
10
78.035758275414054
20
39.337046154191491
10
76.554110648705191
20
56.272356021737487
10
59.618800781145509
20
54.790708395026414
10
58.137153154437144
20
71.726018262573305
10
75.072463022009103
20
73.207665889284584
10
76.554110648701396
20
56.272356021736258
10
59.618800781145509
20
54.790708395026414
0
LINE
5
154
100
AcDbEntity
8
0
100
AcDbLine
10
76.581295946864628
20
37.60368544884863
30
0
11
62.833809113197077
21
36.400936198935504
31
0
0
LINE
5
155
100
AcDbEntity
8
0
100
AcDbLine
10
62.833809113197077
20
36.400936198935504
30
0
11
77.784045196780866
21
23.856198615187072
31
0
0
LINE
5
156
100
AcDbEntity
8
0
100
AcDbLine
10
62.833809113197077
20
36.400936198935504
30
0
11
64.036558363114764
21
22.65344936526942
31
0
0
LWPOLYLINE
5
157
100
AcDbEntity
8
0
100
AcDbPolyline
90
4
70
1
43
0.0
10
59.870513859779166
20
70.271555934035604
10
61.073263109692263
20
56.524069100369147
10
73.618000693454761
20
71.474305183941212
10
74.820749943358578
20
57.726818350284134
0
LINE
5
158
100
AcDbEntity
8
0
100
AcDbLine
10
73.618000693454761
20
71.474305183941212
30
0
11
59.870513859779166
21
70.271555934035604
31
0
0
LINE
5
159
100
AcDbEntity
8
0
100
AcDbLine
10
61.073263109692263
20
56.524069100369147
30
0
11
74.820749943358578
21
57.726818350284134
31
0
0
LINE
5
160
100
AcDbEntity
8
0
100
AcDbLine
10
75.099648320154529
20
54.538995316394399
30
0
11
62.554910736404956
21
39.588759232824358
31
0
0
LINE
5
161
100
AcDbEntity
8
0
100
AcDbLine
10
61.352161486487297
20
53.336246066490418
30
0
11
76.302397570071037
21
40.791508482742017
31
0
0
LINE
5
162
100
AcDbEntity
8
0
100
AcDbLine
10
64.412366632268487
20
4.4653123900764772e-15
30
0
11
57.620298421026305
21
77.633694898420885
31
0
0
LWPOLYLINE
5
163
100
AcDbEntity
8
0
100
AcDbPolyline
90
3
70
1
43
0.0
10
94.946564596313308
20
20.865629579356757
10
94.705721387478889
20
34.663527772514072
10
81.148666403155104
20
20.62478637052137
0
LWPOLYLINE
5
164
100
AcDbEntity
8
0
100
AcDbPolyline
90
4
70
1
43
0.0
10
79.576833941203574
20
18.997106207971438
10
96.574244758863216
20
19.293797117405308
10
96.277553849429296
20
36.291207935063895
10
79.280143031770749
20
35.99451702563001
0
LWPOLYLINE
5
165
100
AcDbEntity
8
0
100
AcDbPolyline
90
4
70
1
43
0.0
10
80.851975493721255
20
37.622197188179996
10
94.649873686879445
20
37.86304039701448
10
94.409030478044969
20
51.660938590172677
10
80.611132284886764
20
51.420095381338172
0
LWPOLYLINE
5
166
100
AcDbEntity
8
0
100
AcDbPolyline
90
8
70
1
43
0.0
10
79.280143031770749
20
35.99451702563001
10
96.277553849429239
20
36.291207935063866
10
95.980862939995419
20
53.288618752722563
10
78.983452122336885
20
52.99192784328875
10
78.686761212903107
20
69.989338660947382
10
95.684172030561967
20
70.28602957038116
10
95.980862939995646
20
53.288618752728709
10
78.983452122336885
20
52.99192784328875
0
LINE
5
167
100
AcDbEntity
8
0
100
AcDbLine
10
94.705721387478889
20
34.663527772514072
30
0
11
80.907823194320642
21
34.422684563679574
31
0
0
LINE
5
168
100
AcDbEntity
8
0
100
AcDbLine
10
80.907823194320642
20
34.422684563679574
30
0
11
94.946564596313308
21
20.865629579356757
31
0
0
LINE
5
169
100
AcDbEntity
8
0
100
AcDbLine
10
80.907823194320642
20
34.422684563679574
30
0
11
81.148666403155104
21
20.62478637052137
31
0
0
LWPOLYLINE
5
170
100
AcDbEntity
8
0
100
AcDbPolyline
90
4
70
1
43
0.0
10
80.314441375453143
20
68.417506198996747
10
80.555284584287676
20
54.619608005838558
10
94.112339568611361
20
68.658349407831281
10
94.353182777446435
20
54.860451214641436
0
LINE
5
171
100
AcDbEntity
8
0
100
AcDbLine
10
94.112339568611361
20
68.658349407831281
30
0
11
80.314441375453143
21
68.417506198996747
31
0
0
LINE
5
172
100
AcDbEntity
8
0
100
AcDbLine
10
80.555284584287676
20
54.619608005838558
30
0
11
94.353182777446435
21
54.860451214641436
31
0
0
LINE
5
173
100
AcDbEntity
8
0
100
AcDbLine
10
94.409030478044969
20
51.660938590172677
30
0
11
80.851975493721255
21
37.622197188179996
31
0
0
LINE
5
174
100
AcDbEntity
8
0
100
AcDbLine
10
80.611132284886764
20
51.420095381338172
30
0
11
94.649873686879445
21
37.86304039701448
31
0
0
LINE
5
175
100
AcDbEntity
8
0
100
AcDbLine
10
79.908429663511953
20
3.9992104393452388e-15
30
0
11
78.553328478442609
21
77.63369489842097
31
0
0
LWPOLYLINE
5
176
100
AcDbEntity
8
0
100
AcDbPolyline
90
4
70
1
43
0.0
10
16.525025105409725
20
-17.113142649755211
10
30.11537209699199
20
-14.71679779802982
10
27.71902724526656
20
-1.1264508064474903
10
14.128680253684196
20
-3.5227956581729627
0
LWPOLYLINE
5
177
100
AcDbEntity
8
0
100
AcDbPolyline
90
4
70
1
43
0.0
10
29.016882565829629
20
0.72707868263165831
10
12.275150764605044
20
-2.2249403376098553
10
15.227169784846557
20
-18.966672138834372
10
31.968901586071119
20
-16.014653118592857
0
LINE
5
178
100
AcDbEntity
8
0
100
AcDbLine
10
14.128680253684196
20
-3.5227956581729627
30
0
11
30.11537209699199
21
-14.71679779802982
31
0
0
LINE
5
179
100
AcDbEntity
8
0
100
AcDbLine
10
27.71902724526656
20
-1.1264508064474903
30
0
11
16.525025105409725
21
-17.113142649755211
31
0
0
LWPOLYLINE
5
180
100
AcDbEntity
8
0
100
AcDbPolyline
90
4
70
1
43
0.0
10
49.991554140542249
20
-12.652217940421313
10
47.039535120204434
20
4.0895138607861501
10
30.297803318996817
20
1.1374948404483081
10
33.249822339334621
20
-15.604236960759133
0
LWPOLYLINE
5
181
100
AcDbEntity
8
0
100
AcDbPolyline
90
3
70
1
43
0.0
10
32.151332808083438
20
-0.16036048010410919
10
48.138024651455645
20
-11.354362619868972
10
45.74167979965199
20
2.2359843716995291
0
LINE
5
182
100
AcDbEntity
8
0
100
AcDbLine
10
34.54767765988715
20
-13.7507074716725
30
0
11
48.138024651455645
21
-11.354362619868972
31
0
0
LINE
5
183
100
AcDbEntity
8
0
100
AcDbLine
10
32.151332808083438
20
-0.16036048010410919
30
0
11
34.54767765988715
21
-13.7507074716725
31
0
0
LINE
5
184
100
AcDbEntity
8
0
100
AcDbLine
10
45.74167979965199
20
2.2359843716995291
30
0
11
34.54767765988715
21
-13.7507074716725
31
0
0
LWPOLYLINE
5
185
100
AcDbEntity
8
0
100
AcDbPolyline
90
3
70
1
43
0.0
10
82.081792731336293
20
6.1823283320663371
10
68.334305897670191
20
4.9795790821486676
10
69.537055147587864
20
-8.7679077515172708
0
LWPOLYLINE
5
186
100
AcDbEntity
8
0
100
AcDbPolyline
90
4
70
1
43
0.0
10
85.017902686596912
20
-9.0196208301501422
10
83.536255059880077
20
7.9156890374087849
10
66.60094519232716
20
6.4340414106991961
10
68.082592819037373
20
-10.501268456860316
0
LINE
5
187
100
AcDbEntity
8
0
100
AcDbLine
10
83.28454198125398
20
-7.5651585015995773
30
0
11
82.081792731336293
21
6.1823283320663371
31
0
0
LINE
5
188
100
AcDbEntity
8
0
100
AcDbLine
10
69.537055147587864
20
-8.7679077515172725
30
0
11
83.28454198125398
21
-7.5651585015995773
31
0
0
LINE
5
189
100
AcDbEntity
8
0
100
AcDbLine
10
68.334305897670191
20
4.9795790821486676
30
0
11
83.28454198125398
21
-7.5651585015995773
31
0
0
LWPOLYLINE
5
190
100
AcDbEntity
8
0
100
AcDbPolyline
90
3
70
1
43
0.0
10
229.3839351454892
20
-54.286486462262488
10
215.58393514548919
20
-68.086486462262513
10
215.58393514548914
20
-54.286486462262488
0
LINE
5
191
100
AcDbEntity
8
0
100
AcDbLine
10
215.58393514548914
20
-54.286486462262488
30
0
11
229.38393514548918
21
-68.086486462262485
31
0
0
LINE
5
192
100
AcDbEntity
8
0
100
AcDbLine
10
229.38393514548918
20
-68.086486462262485
30
0
11
229.3839351454892
21
-54.286486462262488
31
0
0
LWPOLYLINE
5
193
100
AcDbEntity
8
0
100
AcDbPolyline
90
4
70
1
43
0.0
10
213.98393514548917
20
-69.686486462262508
10
230.98393514548914
20
-69.686486462262508
10
230.98393514548928
20
-52.686486462262522
10
213.98393514548923
20
-52.686486462262522
0
LINE
5
194
100
AcDbEntity
8
0
100
AcDbLine
10
215.58393514548919
20
-68.086486462262513
30
0
11
229.38393514548918
21
-68.086486462262485
31
0
0
LINE
5
195
100
AcDbEntity
8
0
100
AcDbLine
10
1.3435685075758401e-31
20
97.168591108350753
30
0
11
1.9304731096416935e-31
21
139.61428180159376
31
0
0
LWPOLYLINE
5
196
100
AcDbEntity
8
0
100
AcDbPolyline
90
4
70
1
43
0.0
10
-8.4999999999948823
20
-19.030678219972849
10
8.5000000000072991
20
-19.0306782199699
10
8.5000000000061746
20
-2.0306782199648317
10
-8.500000000003574
20
-2.0306782199656221
0
LWPOLYLINE
5
197
100
AcDbEntity
8
0
100
AcDbPolyline
90
3
70
1
43
0.0
10
6.9000000000067825
20
-17.430678219973746
10
6.9000000000099417
20
-3.6306782199648477
10
-6.8999999999942938
20
-17.43067821997283
0
LINE
5
198
100
AcDbEntity
8
0
100
AcDbLine
10
6.9000000000099417
20
-3.6306782199648477
30
0
11
-6.9000000000043329
21
-3.6306782199728267
31
0
0
LINE
5
199
100
AcDbEntity
8
0
100
AcDbLine
10
-6.9000000000043329
20
-3.6306782199728267
30
0
11
6.9000000000067825
21
-17.430678219973746
31
0
0
LINE
5
200
100
AcDbEntity
8
0
100
AcDbLine
10
-6.9000000000043329
20
-3.6306782199728267
30
0
11
-6.8999999999942938
21
-17.43067821997283
31
0
0
LINE
5
201
100
AcDbEntity
8
0
100
AcDbLine
10
1.5261507896931199e-25
20
0
30
0
11
2.3003821070231717e-12
21
-10.530678219974359
31
0
0
LINE
5
202
100
AcDbEntity
8
0
100
AcDbLine
10
2.3003821070231717e-12
20
-10.530678219974359
30
0
11
1.0230478219821649e-11
21
-39.241501451712594
31
0
0
LWPOLYLINE
5
203
100
AcDbEntity
8
0
100
AcDbPolyline
90
12
70
1
43
0.0
10
187.1301121227508
20
4.1232538112882411
10
170.13011212275069
20
4.1232538112882411
10
187.13011212275069
20
4.1232538112918071
10
187.13011212275086
20
21.123253811284705
10
170.13011212275072
20
21.123253811284705
10
170.13011212275069
20
4.1232538112882411
10
170.13011212275063
20
-12.876746188712973
10
187.13011212275052
20
-12.876746188712973
10
187.13011212275038
20
-29.876746188712524
10
170.1301121227506
20
-29.876746188712524
10
170.13011212275063
20
-12.876746188712973
10
187.13011212275066
20
-12.876746188713097
0
LWPOLYLINE
5
204
100
AcDbEntity
8
0
100
AcDbPolyline
90
3
70
1
43
0.0
10
171.73011212275054
20
2.5232538112869962
10
185.5301121227505
20
-11.276746188712767
10
185.53011212275052
20
2.5232538112878355
0
LINE
5
205
100
AcDbEntity
8
0
100
AcDbLine
10
171.73011212275048
20
-11.276746188713043
30
0
11
185.5301121227505
21
-11.276746188712767
31
0
0
LINE
5
206
100
AcDbEntity
8
0
100
AcDbLine
10
171.73011212275054
20
2.5232538112869962
30
0
11
171.73011212275048
21
-11.276746188713043
31
0
0
LINE
5
207
100
AcDbEntity
8
0
100
AcDbLine
10
185.53011212275052
20
2.5232538112878355
30
0
11
171.73011212275048
21
-11.276746188713043
31
0
0
LWPOLYLINE
5
208
100
AcDbEntity
8
0
100
AcDbPolyline
90
4
70
1
43
0.0
10
185.53011212275021
20
-28.276746188712014
10
185.53011212275024
20
-14.476746188712717
10
171.73011212274969
20
-14.4767461887125
10
171.7301121227502
20
-28.276746188712526
0
LINE
5
209
100
AcDbEntity
8
0
100
AcDbLine
10
185.53011212275024
20
-14.476746188712717
30
0
11
171.7301121227502
21
-28.276746188712526
31
0
0
LINE
5
210
100
AcDbEntity
8
0
100
AcDbLine
10
171.73011212274969
20
-14.4767461887125
30
0
11
185.53011212275021
21
-28.276746188712014
31
0
0
LINE
5
211
100
AcDbEntity
8
0
100
AcDbLine
10
171.7301121227498
20
19.523253811289724
30
0
11
185.53011212275052
21
5.7232538112868481
31
0
0
LWPOLYLINE
5
212
100
AcDbEntity
8
0
100
AcDbPolyline
90
3
70
1
43
0.0
10
171.73011212275054
20
5.7232538112896902
10
185.53011212275052
20
5.7232538112868481
10
185.53011212275055
20
19.523253811286448
0
LINE
5
213
100
AcDbEntity
8
0
100
AcDbLine
10
185.53011212275055
20
19.523253811286448
30
0
11
171.7301121227498
21
19.523253811289724
31
0
0
LINE
5
214
100
AcDbEntity
8
0
100
AcDbLine
10
171.7301121227498
20
19.523253811289724
30
0
11
171.73011212275054
21
5.7232538112896902
31
0
0
LWPOLYLINE
5
215
100
AcDbEntity
8
0
100
AcDbPolyline
90
12
70
1
43
0.0
10
-27.089442382259811
20
27.572212845638404
10
-24.13742336192394
20
44.313944646850899
10
-7.395691560714023
20
41.361925626510072
10
-4.4436725403279702
20
58.103657427991223
10
-21.185404341583784
20
61.055676448055365
10
-24.137423361969873
20
44.313944646574122
10
-7.395691560714023
20
41.361925626510072
10
-10.347710581048696
20
24.620193825301861
10
-13.299729601399303
20
7.8784620240966232
10
-30.041461402596212
20
10.830481044419953
10
-27.089442382256202
20
27.572212845639655
10
-10.347710581048696
20
24.620193825301861
0
LWPOLYLINE
5
216
100
AcDbEntity
8
0
100
AcDbPolyline
90
3
70
1
43
0.0
10
-6.2972020294629418
20
56.805802107164524
10
-8.6935468812666059
20
43.215455115596058
10
-22.283893872835101
20
45.611799967399655
0
LINE
5
217
100
AcDbEntity
8
0
100
AcDbLine
10
-31.951167424779186
20
2.2836249711576507e-15
30
0
11
-18.262252402097445
21
77.633694898420714
31
0
0
LWPOLYLINE
5
218
100
AcDbEntity
8
0
100
AcDbPolyline
90
3
70
1
43
0.0
10
-25.295936208163518
20
46.957724577056794
10
-27.692281059967083
20
33.36737758548832
10
-38.886283199731956
20
49.354069428860413
0
LINE
5
219
100
AcDbEntity
8
0
100
AcDbLine
10
-19.887549021031447
20
59.202146958968115
30
0
11
-8.6935468812666059
21
43.215455115596058
31
0
0
LWPOLYLINE
5
220
100
AcDbEntity
8
0
100
AcDbPolyline
90
3
70
1
43
0.0
10
-45.74167979965199
20
2.2359843716995265
10
-34.54767765988715
20
-13.750707471672499
10
-32.151332808083438
20
-0.16036048010411363
0
LWPOLYLINE
5
221
100
AcDbEntity
8
0
100
AcDbPolyline
90
4
70
1
43
0.0
10
-33.249822339334621
20
-15.604236960759135
10
-49.991554140542249
20
-12.65221794042132
10
-47.039535120204434
20
4.0895138607861448
10
-30.297803318996817
20
1.1374948404483121
0
LWPOLYLINE
5
222
100
AcDbEntity
8
0
100
AcDbPolyline
90
4
70
1
43
0.0
10
-24.740262039629883
20
50.109109386696041
10
-38.33060903119835
20
52.505454238499645
10
-35.934264179394674
20
66.095801230068133
10
-22.343917187826264
20
63.699456378264529
0
LWPOLYLINE
5
223
100
AcDbEntity
8
0
100
AcDbPolyline
90
4
70
1
43
0.0
10
-41.838302220075711
20
32.612337627638908
10
-30.644300080310959
20
16.625645784266794
10
-44.234647071879408
20
19.021990636070441
10
-28.24795522850733
20
30.215992775835264
0
LWPOLYLINE
5
224
100
AcDbEntity
8
0
100
AcDbPolyline
90
12
70
1
43
0.0
10
-43.136157540635622
20
34.465867116726898
10
-26.394425739419841
20
31.513848096402622
10
-23.442406719077461
20
48.255579897609415
10
-40.184138520286027
20
51.207598917947351
10
-37.23211949993938
20
67.949330719153394
10
-20.490387698739546
20
64.997311698817427
10
-23.442406719077461
20
48.255579897609415
10
-40.184138520278474
20
51.207598917945994
10
-43.136157540623003
20
34.465867116739666
10
-26.394425739419841
20
31.513848096402622
10
-29.346444759775032
20
14.772116295183089
10
-46.088176560965017
20
17.724135315517845
0
LINE
5
225
100
AcDbEntity
8
0
100
AcDbLine
10
-27.692281059967083
20
33.36737758548832
30
0
11
-41.282628051535546
21
35.763722437291953
31
0
0
LWPOLYLINE
5
226
100
AcDbEntity
8
0
100
AcDbPolyline
90
3
70
1
43
0.0
10
-27.71902724526656
20
-1.1264508064474832
10
-16.525025105409725
20
-17.113142649755204
10
-14.128680253684196
20
-3.5227956581729636
0
LWPOLYLINE
5
227
100
AcDbEntity
8
0
100
AcDbPolyline
90
4
70
1
43
0.0
10
-12.275150764605044
20
-2.224940337609862
10
-15.227169784846557
20
-18.96667213883438
10
-31.968901586071119
20
-16.014653118592861
10
-29.016882565829629
20
0.72707868263165665
0
LINE
5
228
100
AcDbEntity
8
0
100
AcDbLine
10
-14.128680253684196
20
-3.5227956581729636
30
0
11
-30.11537209699199
21
-14.716797798029813
31
0
0
LINE
5
229
100
AcDbEntity
8
0
100
AcDbLine
10
-22.283893872835101
20
45.611799967399655
30
0
11
-19.887549021031447
21
59.202146958968115
31
0
0
LINE
5
230
100
AcDbEntity
8
0
100
AcDbLine
10
-19.887549021031447
20
59.202146958968115
30
0
11
-6.2972020294629418
21
56.805802107164524
31
0
0
LINE
5
231
100
AcDbEntity
8
0
100
AcDbLine
10
-14.688915022740643
20
1.0513956844758481e-15
30
0
11
-1
21
77.633694898420643
31
0
0
LINE
5
232
100
AcDbEntity
8
0
100
AcDbLine
10
-32.151332808083438
20
-0.16036048010411363
30
0
11
-48.138024651455645
21
-11.354362619868965
31
0
0
LINE
5
233
100
AcDbEntity
8
0
100
AcDbLine
10
-25.295936208163518
20
46.957724577056794
30
0
11
-41.282628051535546
21
35.763722437291953
31
0
0
LWPOLYLINE
5
234
100
AcDbEntity
8
0
100
AcDbPolyline
90
8
70
1
43
0.0
10
-45.378160010504523
20
22.776165581056134
10
-62.212717179106946
20
25.142108297376705
10
-59.84677446279332
20
41.976665465984418
10
-43.012217294179123
20
39.610722749662123
10
-40.646274577867644
20
56.445279918268483
10
-57.480831746469562
20
58.811222634588773
10
-59.84677446279052
20
41.976665465985647
10
-43.012217294179123
20
39.610722749662123
0
LINE
5
235
100
AcDbEntity
8
0
100
AcDbLine
10
-44.234647071879408
20
19.021990636070441
30
0
11
-41.838302220075711
21
32.612337627638908
31
0
0
LWPOLYLINE
5
236
100
AcDbEntity
8
0
100
AcDbPolyline
90
4
70
1
43
0.0
10
-61.100448407854429
20
37.85539852748132
10
-62.582096034567641
20
20.920088659926698
10
-79.517405902123926
20
22.401736286636577
10
-78.035758275414111
20
39.337046154191654
0
LWPOLYLINE
5
237
100
AcDbEntity
8
0
100
AcDbPolyline
90
4
70
1
43
0.0
10
-60.40561130758438
20
26.50386024582707
10
-58.485022514335398
20
40.169559594460729
10
-44.819323165701803
20
38.24897080121184
10
-46.739911958950707
20
24.583271452578174
0
LWPOLYLINE
5
238
100
AcDbEntity
8
0
100
AcDbPolyline
90
4
70
1
43
0.0
10
-81.148666403155119
20
20.624786370521377
10
-94.946564596313308
20
20.86562957935676
10
-80.907823194320642
20
34.422684563679574
10
-94.705721387478903
20
34.66352777251408
0
LINE
5
239
100
AcDbEntity
8
0
100
AcDbLine
10
-5.937818701326101e-17
20
77.633694898420643
30
0
11
-139.45667311779491
21
77.633694898421197
31
0
0
LWPOLYLINE
5
240
100
AcDbEntity
8
0
100
AcDbPolyline
90
4
70
1
43
0.0
10
-79.280143031770734
20
35.99451702563001
10
-96.277553849429225
20
36.291207935063866
10
-95.980862939995433
20
53.288618752722563
10
-78.983452122336899
20
52.991927843288742
0
LWPOLYLINE
5
241
100
AcDbEntity
8
0
100
AcDbPolyline
90
4
70
1
43
0.0
10
-76.581295946864628
20
37.60368544884863
10
-64.036558363114764
20
22.653449365269424
10
-77.784045196780866
20
23.856198615187076
10
-62.83380911319707
20
36.400936198935511
0
LWPOLYLINE
5
242
100
AcDbEntity
8
0
100
AcDbPolyline
90
4
70
1
43
0.0
10
-96.277553849429296
20
36.291207935063895
10
-79.280143031770734
20
35.99451702563001
10
-79.576833941203574
20
18.997106207971441
10
-96.574244758863216
20
19.293797117405301
0
LWPOLYLINE
5
243
100
AcDbEntity
8
0
100
AcDbPolyline
90
4
70
1
43
0.0
10
-80.85197549372127
20
37.622197188179996
10
-94.649873686879431
20
37.863040397014487
10
-94.409030478044969
20
51.660938590172691
10
-80.611132284886764
20
51.420095381338172
0
LWPOLYLINE
5
244
100
AcDbEntity
8
0
100
AcDbPolyline
90
4
70
1
43
0.0
10
-82.081792731336293
20
6.1823283320663371
10
-68.334305897670177
20
4.9795790821486667
10
-83.284541981253966
20
-7.5651585015995764
10
-69.537055147587864
20
-8.7679077515172708
0
LWPOLYLINE
5
245
100
AcDbEntity
8
0
100
AcDbPolyline
90
4
70
1
43
0.0
10
-83.536255059880077
20
7.9156890374087849
10
-66.60094519232716
20
6.4340414106991961
10
-68.082592819037373
20
-10.501268456860316
10
-85.017902686596912
20
-9.0196208301501422
0
LINE
5
246
100
AcDbEntity
8
0
100
AcDbLine
10
-16.525025105409725
20
-17.113142649755204
30
0
11
-30.11537209699199
21
-14.716797798029813
31
0
0
LINE
5
247
100
AcDbEntity
8
0
100
AcDbLine
10
-30.11537209699199
20
-14.716797798029813
30
0
11
-27.71902724526656
21
-1.1264508064474832
31
0
0
LINE
5
248
100
AcDbEntity
8
0
100
AcDbLine
10
-58.485022514335398
20
40.169559594460729
30
0
11
-46.739911958950707
21
24.583271452578174
31
0
0
LWPOLYLINE
5
249
100
AcDbEntity
8
0
100
AcDbPolyline
90
3
70
1
43
0.0
10
-53.753137081705525
20
73.838673931674009
10
-42.008026526317963
20
58.252385789791113
10
-40.087437733069109
20
71.918085138424715
0
LINE
5
250
100
AcDbEntity
8
0
100
AcDbLine
10
-55.673725874951643
20
60.17297458304003
30
0
11
-53.753137081705525
21
73.838673931674009
31
0
0
LWPOLYLINE
5
251
100
AcDbEntity
8
0
100
AcDbPolyline
90
4
70
1
43
0.0
10
-55.11488903015335
20
75.645779803196248
10
-38.280331861544965
20
73.279837086886161
10
-40.646274577867644
20
56.445279918268483
10
-57.48083174647428
20
58.811222634589583
0
LINE
5
252
100
AcDbEntity
8
0
100
AcDbLine
10
-42.008026526317963
20
58.252385789791113
30
0
11
-55.673725874951643
21
60.17297458304003
31
0
0
LWPOLYLINE
5
253
100
AcDbEntity
8
0
100
AcDbPolyline
90
3
70
1
43
0.0
10
-56.119079798017218
20
57.00411676306588
10
-42.453380449389925
20
55.083527969819713
10
-44.373969242634416
20
41.417828621185421
0
LWPOLYLINE
5
254
100
AcDbEntity
8
0
100
AcDbPolyline
90
4
70
1
43
0.0
10
-95.98086293999566
20
53.288618752728702
10
-95.684172030561982
20
70.28602957038116
10
-78.686761212903107
20
69.989338660947382
10
-78.983452122336899
20
52.991927843288742
0
LWPOLYLINE
5
255
100
AcDbEntity
8
0
100
AcDbPolyline
90
3
70
1
43
0.0
10
-80.314441375453143
20
68.417506198996762
10
-80.555284584287676
20
54.619608005838565
10
-94.112339568611361
20
68.658349407831281
0
LWPOLYLINE
5
256
100
AcDbEntity
8
0
100
AcDbPolyline
90
3
70
1
43
0.0
10
-74.820749943358578
20
57.726818350284141
10
-73.618000693454761
20
71.474305183941198
10
-59.870513859779166
20
70.271555934035618
0
LINE
5
257
100
AcDbEntity
8
0
100
AcDbLine
10
-80.555284584287676
20
54.619608005838565
30
0
11
-94.353182777446435
21
54.860451214641436
31
0
0
LINE
5
258
100
AcDbEntity
8
0
100
AcDbLine
10
-94.353182777446435
20
54.860451214641436
30
0
11
-94.112339568611361
21
68.658349407831281
31
0
0
LINE
5
259
100
AcDbEntity
8
0
100
AcDbLine
10
-80.314441375453143
20
68.417506198996762
30
0
11
-94.353182777446435
21
54.860451214641436
31
0
0
LWPOLYLINE
5
260
100
AcDbEntity
8
0
100
AcDbPolyline
90
4
70
1
43
0.0
10
-76.554110648701396
20
56.272356021736258
10
-75.072463022009103
20
73.20766588928457
10
-58.137153154437144
20
71.726018262573305
10
-59.618800781145524
20
54.790708395026414
0
LWPOLYLINE
5
261
100
AcDbEntity
8
0
100
AcDbPolyline
90
3
70
1
43
0.0
10
-90.591656266466117
20
80.2266474627462
10
-83.691656266568813
20
92.177798034904129
10
-71.740505694260136
20
85.277798034932999
0
LWPOLYLINE
5
262
100
AcDbEntity
8
0
100
AcDbPolyline
90
4
70
1
43
0.0
10
-92.777296912540606
20
79.641006816655988
10
-84.277296912696599
20
94.36343868100289
10
-69.5548650482189
20
85.863438680963526
10
-78.054865048182435
20
71.141006816639646
0
LINE
5
263
100
AcDbEntity
8
0
100
AcDbLine
10
-83.691656266568813
20
92.177798034904129
30
0
11
-78.640505694262359
21
73.326647462708962
31
0
0
LINE
5
264
100
AcDbEntity
8
0
100
AcDbLine
10
-78.640505694262359
20
73.326647462708962
30
0
11
-90.591656266466117
21
80.2266474627462
31
0
0
LWPOLYLINE
5
265
100
AcDbEntity
8
0
100
AcDbPolyline
90
3
70
1
43
0.0
10
-75.099648320154515
20
54.538995316394391
10
-61.352161486487297
20
53.336246066490425
10
-76.302397570071051
20
40.791508482742017
0
LINE
5
266
100
AcDbEntity
8
0
100
AcDbLine
10
-73.618000693454761
20
71.474305183941198
30
0
11
-61.073263109692263
21
56.524069100369147
31
0
0
LINE
5
267
100
AcDbEntity
8
0
100
AcDbLine
10
-61.073263109692263
20
56.524069100369147
30
0
11
-74.820749943358578
21
57.726818350284141
31
0
0
LWPOLYLINE
5
268
100
AcDbEntity
8
0
100
AcDbPolyline
90
4
70
1
43
0.0
10
-76.554110648705191
20
56.272356021737487
10
-59.618800781145524
20
54.790708395026414
10
-61.100448407854429
20
37.85539852748132
10
-78.035758275414054
20
39.337046154191498
0
LINE
5
269
100
AcDbEntity
8
0
100
AcDbLine
10
-71.740505694260136
20
85.277798034932999
30
0
11
-78.640505694262359
21
73.326647462708962
31
0
0
LINE
5
270
100
AcDbEntity
8
0
100
AcDbLine
10
-61.352161486487297
20
53.336246066490425
30
0
11
-62.554910736404963
21
39.588759232824366
31
0
0
LINE
5
271
100
AcDbEntity
8
0
100
AcDbLine
10
-48.579141332586019
20
3.4655462138158405e-15
30
0
11
-37.668437050531189
21
77.633694898420814
31
0
0
LINE
5
272
100
AcDbEntity
8
0
100
AcDbLine
10
-79.908429663511939
20
5.7019210340395926e-15
30
0
11
-78.553328478442609
21
77.633694898420956
31
0
0
LINE
5
273
100
AcDbEntity
8
0
100
AcDbLine
10
-80.611132284886764
20
51.420095381338172
30
0
11
-94.649873686879431
21
37.863040397014487
31
0
0
LINE
5
274
100
AcDbEntity
8
0
100
AcDbLine
10
-94.409030478044969
20
51.660938590172691
30
0
11
-80.85197549372127
21
37.622197188179996
31
0
0
LINE
5
275
100
AcDbEntity
8
0
100
AcDbLine
10
-64.412366632268501
20
4.5957674307525376e-15
30
0
11
-57.620298421026291
21
77.633694898420885
31
0
0
LINE
5
276
100
AcDbEntity
8
0
100
AcDbLine
10
-41.282628051535546
20
35.763722437291953
30
0
11
-38.886283199731956
21
49.354069428860413
31
0
0
LINE
5
277
100
AcDbEntity
8
0
100
AcDbLine
10
-75.099648320154515
20
54.538995316394391
30
0
11
-62.554910736404963
21
39.588759232824366
31
0
0
LINE
5
278
100
AcDbEntity
8
0
100
AcDbLine
10
-42.453380449389925
20
55.083527969819713
30
0
11
-58.039668591268246
21
43.338417414433302
31
0
0
LINE
5
279
100
AcDbEntity
8
0
100
AcDbLine
10
-58.039668591268246
20
43.338417414433302
30
0
11
-56.119079798017218
21
57.00411676306588
31
0
0
LINE
5
280
100
AcDbEntity
8
0
100
AcDbLine
10
-139.45667311779491
20
77.633694898421197
30
0
11
-139.45667311780181
21
1.7763568394002505e-14
31
0
0
LWPOLYLINE
5
281
100
AcDbEntity
8
0
100
AcDbPolyline
90
4
70
1
43
0.0
10
-11.645565901604417
20
26.473723314389019
10
-25.235912893171108
20
28.870068166202781
10
-9.24922104980066
20
40.064070305957472
10
-22.839568041368629
20
42.460415157763748
0
LINE
5
282
100
AcDbEntity
8
0
100
AcDbLine
10
-25.791587061711816
20
25.718683356554465
30
0
11
-14.59758492193898
21
9.7319915131809633
31
0
0
LWPOLYLINE
5
283
100
AcDbEntity
8
0
100
AcDbPolyline
90
3
70
1
43
0.0
10
-12.201240070135356
20
23.322338504749439
10
-28.18793191350742
20
12.128336364984591
10
-25.791587061711816
20
25.718683356554465
0
LINE
5
284
100
AcDbEntity
8
0
100
AcDbLine
10
-14.59758492193898
20
9.7319915131809633
30
0
11
-28.18793191350742
21
12.128336364984591
31
0
0
LINE
5
285
100
AcDbEntity
8
0
100
AcDbLine
10
-28.24795522850733
20
30.215992775835264
30
0
11
-30.644300080310959
21
16.625645784266794
31
0
0
LINE
5
286
100
AcDbEntity
8
0
100
AcDbLine
10
-62.554910736404963
20
39.588759232824366
30
0
11
-76.302397570071051
21
40.791508482742017
31
0
0
LINE
5
287
100
AcDbEntity
8
0
100
AcDbLine
10
-59.870513859779166
20
70.271555934035618
30
0
11
-61.073263109692263
21
56.524069100369147
31
0
0
LINE
5
288
100
AcDbEntity
8
0
100
AcDbLine
10
-40.087437733069109
20
71.918085138424715
30
0
11
-55.673725874951643
21
60.17297458304003
31
0
0
LINE
5
289
100
AcDbEntity
8
0
100
AcDbLine
10
-34.54767765988715
20
-13.750707471672499
30
0
11
-48.138024651455645
21
-11.354362619868965
31
0
0
LINE
5
290
100
AcDbEntity
8
0
100
AcDbLine
10
5.4738221262688167e-47
20
0
30
0
11
-139.45667311780181
21
1.7763568394002505e-14
31
0
0
LINE
5
291
100
AcDbEntity
8
0
100
AcDbLine
10
-62.83380911319707
20
36.400936198935511
30
0
11
-64.036558363114764
21
22.653449365269424
31
0
0
LINE
5
292
100
AcDbEntity
8
0
100
AcDbLine
10
-9.24922104980066
20
40.064070305957472
30
0
11
-11.645565901604417
21
26.473723314389019
31
0
0
LINE
5
293
100
AcDbEntity
8
0
100
AcDbLine
10
-25.235912893171108
20
28.870068166202781
30
0
11
-22.839568041368629
21
42.460415157763748
31
0
0
LINE
5
294
100
AcDbEntity
8
0
100
AcDbLine
10
-12.201240070135356
20
23.322338504749439
30
0
11
-14.59758492193898
21
9.7319915131809633
31
0
0
LINE
5
295
100
AcDbEntity
8
0
100
AcDbLine
10
-44.819323165701803
20
38.24897080121184
30
0
11
-60.40561130758438
21
26.50386024582707
31
0
0
LINE
5
296
100
AcDbEntity
8
0
100
AcDbLine
10
-44.373969242634416
20
41.417828621185421
30
0
11
-58.039668591268246
21
43.338417414433302
31
0
0
LINE
5
297
100
AcDbEntity
8
0
100
AcDbLine
10
-48.138024651455645
20
-11.354362619868965
30
0
11
-45.74167979965199
21
2.2359843716995265
31
0
0
LINE
5
298
100
AcDbEntity
8
0
100
AcDbLine
10
-77.784045196780866
20
23.856198615187076
30
0
11
-76.581295946864628
21
37.60368544884863
31
0
0
LINE
5
299
100
AcDbEntity
8
0
100
AcDbLine
10
-35.934264179394674
20
66.095801230068133
30
0
11
-24.740262039629883
21
50.109109386696041
31
0
0
LINE
5
300
100
AcDbEntity
8
0
100
AcDbLine
10
-22.343917187826264
20
63.699456378264529
30
0
11
-38.33060903119835
21
52.505454238499645
31
0
0
LINE
5
301
100
AcDbEntity
8
0
100
AcDbLine
10
-94.946564596313308
20
20.86562957935676
30
0
11
-94.705721387478903
21
34.66352777251408
31
0
0
LINE
5
302
100
AcDbEntity
8
0
100
AcDbLine
10
-80.907823194320642
20
34.422684563679574
30
0
11
-81.148666403155119
21
20.624786370521377
31
0
0
LINE
5
303
100
AcDbEntity
8
0
100
AcDbLine
10
-83.284541981253966
20
-7.5651585015995764
30
0
11
-82.081792731336293
21
6.1823283320663371
31
0
0
LINE
5
304
100
AcDbEntity
8
0
100
AcDbLine
10
-68.334305897670177
20
4.9795790821486667
30
0
11
-69.537055147587864
21
-8.7679077515172708
31
0
0
LINE
5
305
100
AcDbEntity
8
0
100
AcDbLine
10
0
20
48.823077242901157
30
0
11
0
21
39.251994007127792
31
0
0
LINE
5
306
100
AcDbEntity
8
0
100
AcDbLine
10
6.4088892787188829
20
44.037535625014485
30
0
11
-6.4088892787188829
21
44.037535625014485
31
0
0
ENDSEC
0
SECTION
2
OBJECTS
0
DICTIONARY
5
C
100
AcDbDictionary
3
ACAD_GROUP
350
D
3
ACAD_MLINESTYLE
350
17
0
DICTIONARY
5
D
100
AcDbDictionary
0
DICTIONARY
5
1A
330
C
100
AcDbDictionary
0
DICTIONARY
5
17
100
AcDbDictionary
0
ENDSEC
0
EOF
