0
SECTION
2
HEADER
9
$INSUNITS
70
4
9
$ACADVER
1
AC1014
9
$HANDSEED
5
FFFF
0
ENDSEC
0
SECTION
2
TABLES
0
TABLE
2
VPORT
5
8
100
AcDbSymbolTable
0
ENDTAB
0
TABLE
2
LTYPE
5
5
100
AcDbSymbolTable
0
LTYPE
5
14
100
AcDbSymbolTableRecord
100
AcDbLinetypeTableRecord
2
BYBLOCK
70
0
0
LTYPE
5
15
100
AcDbSymbolTableRecord
100
AcDbLinetypeTableRecord
2
BYLAYER
70
0
0
ENDTAB
0
TABLE
2
LAYER
5
2
100
AcDbSymbolTable
70
2
0
LAYER
5
50
100
AcDbSymbolTableRecord
100
AcDbLayerTableRecord
2
0
70
0
6
CONTINUOUS
0
ENDTAB
0
TABLE
2
STYLE
5
3
100
AcDbSymbolTable
70
1
0
STYLE
5
11
100
AcDbSymbolTableRecord
100
AcDbTextStyleTableRecord
2
STANDARD
70
0
0
ENDTAB
0
TABLE
2
VIEW
5
6
100
AcDbSymbolTable
70
0
0
ENDTAB
0
TABLE
2
UCS
5
7
100
AcDbSymbolTable
70
0
0
ENDTAB
0
TABLE
2
APPID
5
9
100
AcDbSymbolTable
70
2
0
APPID
5
12
100
AcDbSymbolTableRecord
100
AcDbRegAppTableRecord
2
ACAD
70
0
0
ENDTAB
0
TABLE
2
DIMSTYLE
5
A
100
AcDbSymbolTable
70
1
0
ENDTAB
0
TABLE
2
BLOCK_RECORD
5
1
100
AcDbSymbolTable
70
1
0
BLOCK_RECORD
5
1F
100
AcDbSymbolTableRecord
100
AcDbBlockTableRecord
2
*MODEL_SPACE
0
BLOCK_RECORD
5
1B
100
AcDbSymbolTableRecord
100
AcDbBlockTableRecord
2
*PAPER_SPACE
0
ENDTAB
0
ENDSEC
0
SECTION
2
BLOCKS
0
BLOCK
5
20
100
AcDbEntity
100
AcDbBlockBegin
2
*MODEL_SPACE
0
ENDBLK
5
21
100
AcDbEntity
100
AcDbBlockEnd
0
BLOCK
5
1C
100
AcDbEntity
100
AcDbBlockBegin
2
*PAPER_SPACE
0
ENDBLK
5
1D
100
AcDbEntity
100
AcDbBlockEnd
0
ENDSEC
0
SECTION
2
ENTITIES
0
LINE
5
100
100
AcDbEntity
8
0
100
AcDbLine
10
15.000000223517418
20
79.000001177191734
30
0
11
1.6117151143372064e-05
21
78.861732307972062
31
0
0
LINE
5
101
100
AcDbEntity
8
0
100
AcDbLine
10
35.000000521540642
20
75.00000111758709
30
0
11
15.000000223517418
21
79.000001177191734
31
0
0
LINE
5
102
100
AcDbEntity
8
0
100
AcDbLine
10
54.381600276841311
20
77.723907325053091
30
0
11
35.000000521540642
21
75.00000111758709
31
0
0
LINE
5
103
100
AcDbEntity
8
0
100
AcDbLine
10
54.381600276841311
20
77.723907325053091
30
0
11
66.002834941858751
21
83.514972532752196
31
0
0
LINE
5
104
100
AcDbEntity
8
0
100
AcDbLine
10
66.002834941858751
20
83.514972532752196
30
0
11
78.223287715879252
21
93.769149948252277
31
0
0
LINE
5
105
100
AcDbEntity
8
0
100
AcDbLine
10
78.223287715879252
20
93.769149948252277
30
0
11
95.134383476215817
21
73.615290821475696
31
0
0
LINE
5
106
100
AcDbEntity
8
0
100
AcDbLine
10
95.134383476215817
20
73.615290821475696
30
0
11
96.334974052600003
21
4.8335027661458767
31
0
0
LINE
5
107
100
AcDbEntity
8
0
100
AcDbLine
10
81.886926764097495
20
-10.937833156638266
30
0
11
64.123603135184311
21
-11.247893123921855
31
0
0
LINE
5
108
100
AcDbEntity
8
0
100
AcDbLine
10
64.123603135184311
20
-11.247893123921855
30
0
11
14.984559457239111
21
-19.912432330555117
31
0
0
LINE
5
109
100
AcDbEntity
8
0
100
AcDbLine
10
14.984559457239111
20
-19.912432330555117
30
0
11
-3.5992475840215619e-16
21
-19.912432330554957
31
0
0
LINE
5
110
100
AcDbEntity
8
0
100
AcDbLine
10
77.976774049110247
20
90.951485842721638
30
0
11
64.954018516085767
21
80.024096478048946
31
0
0
LINE
5
111
100
AcDbEntity
8
0
100
AcDbLine
10
88.904163413779656
20
77.928730309701052
30
0
11
77.976774049110247
21
90.951485842721638
31
0
0
LINE
5
112
100
AcDbEntity
8
0
100
AcDbLine
10
52.673518681779676
20
72.674975596945757
30
0
11
35.838961513171164
21
70.309032880635655
31
0
0
LINE
5
113
100
AcDbEntity
8
0
100
AcDbLine
10
72.63264821228924
20
70.219081794969256
30
0
11
55.697338344714964
21
68.737434168257764
31
0
0
LINE
5
114
100
AcDbEntity
8
0
100
AcDbLine
10
93.244548510740657
20
67.28648648491199
30
0
11
76.247137693081214
21
66.989795575478112
31
0
0
LINE
5
115
100
AcDbEntity
8
0
100
AcDbLine
10
34.788446959562485
20
64.994907460116337
30
0
11
18.046715158365664
21
62.042888439780917
31
0
0
LINE
5
116
100
AcDbEntity
8
0
100
AcDbLine
10
18.741731801209202
20
58.101253189019403
30
0
11
1.9999999999999996
21
55.149234168681467
31
0
0
LINE
5
117
100
AcDbEntity
8
0
100
AcDbLine
10
1.4032584476033224e-15
20
77.633694898420643
30
0
11
2.0703088686397787e-15
21
114.53750898701836
31
0
0
LINE
5
118
100
AcDbEntity
8
0
100
AcDbLine
10
0
20
0
30
0
11
1.4032584476033224e-15
21
77.633694898420643
31
0
0
LINE
5
119
100
AcDbEntity
8
0
100
AcDbLine
10
0
20
0
30
0
11
-4.3380909910819147e-16
21
-25.00000037252903
31
0
0
LINE
5
120
100
AcDbEntity
8
0
100
AcDbLine
10
14.880536987388449
20
-17.89992107481854
30
0
11
31.622268788596031
21
-14.947902054480682
31
0
0
LINE
5
121
100
AcDbEntity
8
0
100
AcDbLine
10
11.928517967050619
20
-1.1581892736109687
30
0
11
14.880536987388449
21
-17.89992107481854
31
0
0
LINE
5
122
100
AcDbEntity
8
0
100
AcDbLine
10
31.622268788596031
20
-14.947902054480682
30
0
11
48.364000589803766
21
-11.995883034142786
31
0
0
LINE
5
123
100
AcDbEntity
8
0
100
AcDbLine
10
48.364000589803766
20
-11.995883034142786
30
0
11
63.931318882002451
21
-9.2509448019579903
31
0
0
LINE
5
124
100
AcDbEntity
8
0
100
AcDbLine
10
63.931318882002451
20
-9.2509448019579903
30
0
11
80.928729699660963
21
-8.9542538925242141
31
0
0
LINE
5
125
100
AcDbEntity
8
0
100
AcDbLine
10
80.928729699660963
20
-8.9542538925242141
30
0
11
80.632038790226787
21
8.0431569251349
31
0
0
LINE
5
126
100
AcDbEntity
8
0
100
AcDbLine
10
94.134621239035567
20
16.294254031936315
30
0
11
93.837930329601548
21
33.291664849594504
31
0
0
LINE
5
127
100
AcDbEntity
8
0
100
AcDbLine
10
93.837930329607275
20
33.29166484959454
30
0
11
93.541239420173596
21
50.289075667252703
31
0
0
LINE
5
128
100
AcDbEntity
8
0
100
AcDbLine
10
93.541239420174293
20
50.289075667257492
30
0
11
93.244548510740657
21
67.28648648491199
31
0
0
LINE
5
129
100
AcDbEntity
8
0
100
AcDbLine
10
77.137210421369275
20
15.997563122502264
30
0
11
94.134621239035567
21
16.294254031936315
31
0
0
LINE
5
130
100
AcDbEntity
8
0
100
AcDbLine
10
75.881407880756996
20
67.001340945026229
30
0
11
88.904163413779656
21
77.928730309701052
31
0
0
LINE
5
131
100
AcDbEntity
8
0
100
AcDbLine
10
96.334974052600003
20
4.8335027661458767
30
0
11
81.886926764097495
21
-10.937833156638266
31
0
0
LINE
5
132
100
AcDbEntity
8
0
100
AcDbLine
10
-15.000000223517414
20
79.000001177191734
30
0
11
-1.6117151140521155e-05
21
78.861732307972062
31
0
0
LINE
5
133
100
AcDbEntity
8
0
100
AcDbLine
10
-35.000000521540642
20
75.00000111758709
30
0
11
-15.000000223517414
21
79.000001177191734
31
0
0
LINE
5
134
100
AcDbEntity
8
0
100
AcDbLine
10
-54.381600276841311
20
77.723907325053091
30
0
11
-35.000000521540642
21
75.00000111758709
31
0
0
LINE
5
135
100
AcDbEntity
8
0
100
AcDbLine
10
-54.381600276841311
20
77.723907325053091
30
0
11
-66.002834941858751
21
83.514972532752196
31
0
0
LINE
5
136
100
AcDbEntity
8
0
100
AcDbLine
10
-66.002834941858751
20
83.514972532752196
30
0
11
-78.223287715879252
21
93.769149948252277
31
0
0
LINE
5
137
100
AcDbEntity
8
0
100
AcDbLine
10
-78.223287715879252
20
93.769149948252277
30
0
11
-95.134383476215817
21
73.615290821475696
31
0
0
LINE
5
138
100
AcDbEntity
8
0
100
AcDbLine
10
-95.134383476215817
20
73.615290821475696
30
0
11
-96.334974052600003
21
4.8335027661458785
31
0
0
LINE
5
139
100
AcDbEntity
8
0
100
AcDbLine
10
-96.334974052600003
20
4.8335027661458785
30
0
11
-81.886926764097495
21
-10.937833156638268
31
0
0
LINE
5
140
100
AcDbEntity
8
0
100
AcDbLine
10
-81.886926764097495
20
-10.937833156638268
30
0
11
-64.123603135184311
21
-11.247893123921857
31
0
0
LINE
5
141
100
AcDbEntity
8
0
100
AcDbLine
10
-64.123603135184311
20
-11.247893123921857
30
0
11
-14.984559457239111
21
-19.912432330555127
31
0
0
LINE
5
142
100
AcDbEntity
8
0
100
AcDbLine
10
-14.984559457239111
20
-19.912432330555127
30
0
11
-3.5992475840215668e-16
21
-19.91243233055495
31
0
0
CIRCLE
5
143
100
AcDbEntity
8
0
100
AcDbCircle
10
-4.3380909910819147e-16
20
-25.00000037252903
30
0
40
2.5
210
0
220
0
230
1
0
ENDSEC
0
SECTION
2
OBJECTS
0
DICTIONARY
5
C
100
AcDbDictionary
3
ACAD_GROUP
350
D
3
ACAD_MLINESTYLE
350
17
0
DICTIONARY
5
D
100
AcDbDictionary
0
DICTIONARY
5
1A
330
C
100
AcDbDictionary
0
DICTIONARY
5
17
100
AcDbDictionary
0
ENDSEC
0
EOF
