0
SECTION
2
HEADER
9
$INSUNITS
70
4
9
$ACADVER
1
AC1014
9
$HANDSEED
5
FFFF
0
ENDSEC
0
SECTION
2
TABLES
0
TABLE
2
VPORT
5
8
100
AcDbSymbolTable
0
ENDTAB
0
TABLE
2
LTYPE
5
5
100
AcDbSymbolTable
0
LTYPE
5
14
100
AcDbSymbolTableRecord
100
AcDbLinetypeTableRecord
2
BYBLOCK
70
0
0
LTYPE
5
15
100
AcDbSymbolTableRecord
100
AcDbLinetypeTableRecord
2
BYLAYER
70
0
0
ENDTAB
0
TABLE
2
LAYER
5
2
100
AcDbSymbolTable
70
2
0
LAYER
5
50
100
AcDbSymbolTableRecord
100
AcDbLayerTableRecord
2
0
70
0
6
CONTINUOUS
0
ENDTAB
0
TABLE
2
STYLE
5
3
100
AcDbSymbolTable
70
1
0
STYLE
5
11
100
AcDbSymbolTableRecord
100
AcDbTextStyleTableRecord
2
STANDARD
70
0
0
ENDTAB
0
TABLE
2
VIEW
5
6
100
AcDbSymbolTable
70
0
0
ENDTAB
0
TABLE
2
UCS
5
7
100
AcDbSymbolTable
70
0
0
ENDTAB
0
TABLE
2
APPID
5
9
100
AcDbSymbolTable
70
2
0
APPID
5
12
100
AcDbSymbolTableRecord
100
AcDbRegAppTableRecord
2
ACAD
70
0
0
ENDTAB
0
TABLE
2
DIMSTYLE
5
A
100
AcDbSymbolTable
70
1
0
ENDTAB
0
TABLE
2
BLOCK_RECORD
5
1
100
AcDbSymbolTable
70
1
0
BLOCK_RECORD
5
1F
100
AcDbSymbolTableRecord
100
AcDbBlockTableRecord
2
*MODEL_SPACE
0
BLOCK_RECORD
5
1B
100
AcDbSymbolTableRecord
100
AcDbBlockTableRecord
2
*PAPER_SPACE
0
ENDTAB
0
ENDSEC
0
SECTION
2
BLOCKS
0
BLOCK
5
20
100
AcDbEntity
100
AcDbBlockBegin
2
*MODEL_SPACE
0
ENDBLK
5
21
100
AcDbEntity
100
AcDbBlockEnd
0
BLOCK
5
1C
100
AcDbEntity
100
AcDbBlockBegin
2
*PAPER_SPACE
0
ENDBLK
5
1D
100
AcDbEntity
100
AcDbBlockEnd
0
ENDSEC
0
SECTION
2
ENTITIES
0
LINE
5
100
100
AcDbEntity
8
0
100
AcDbLine
10
0
20
0
30
0
11
1.4032584476033224e-15
21
77.633694898420643
31
0
0
LINE
5
101
100
AcDbEntity
8
0
100
AcDbLine
10
0
20
0
30
0
11
139.45667311780181
21
9.9548189214679862e-15
31
0
0
LINE
5
102
100
AcDbEntity
8
0
100
AcDbLine
10
11.724297949360935
20
1.1773796901063578e-15
30
0
11
-1.9646170733797175
21
77.633694898420615
31
0
0
LINE
5
103
100
AcDbEntity
8
0
100
AcDbLine
10
1.4032584476033224e-15
20
77.633694898420643
30
0
11
139.45667311779494
21
77.633694898421183
31
0
0
LINE
5
104
100
AcDbEntity
8
0
100
AcDbLine
10
139.45667311779494
20
77.633694898421183
30
0
11
139.45667311780181
21
9.9548189214679862e-15
31
0
0
LWPOLYLINE
5
105
100
AcDbEntity
8
0
100
AcDbPolyline
90
4
70
1
43
0.0
10
77.779563115618316
20
88.697354558232774
10
67.208149800574631
20
79.826885544557001
10
76.078618814250859
20
69.255472229516784
10
86.650032129293564
20
78.125941243189715
0
LINE
5
106
100
AcDbEntity
8
0
100
AcDbLine
10
77.779563115618316
20
88.697354558232774
30
0
11
76.078618814250859
21
69.255472229516784
31
0
0
LINE
5
107
100
AcDbEntity
8
0
100
AcDbLine
10
67.208149800574631
20
79.826885544557001
30
0
11
86.650032129293564
21
78.125941243189715
31
0
0
LWPOLYLINE
5
108
100
AcDbEntity
8
0
100
AcDbPolyline
90
4
70
1
43
0.0
10
75.881407880756996
20
67.001340945026229
10
88.904163413779656
20
77.928730309701052
10
77.976774049110247
20
90.951485842721638
10
64.954018516085767
20
80.024096478048946
0
LWPOLYLINE
5
109
100
AcDbEntity
8
0
100
AcDbPolyline
90
12
70
1
43
0.0
10
27.597788862219979
20
7.8760577853837956
10
24.645769841880494
20
24.617789586600356
10
7.9040380406725665
20
21.665770566262502
10
24.645769841884686
20
24.617789586599702
10
21.693750821548253
20
41.359521387814702
10
4.9520190203388532
20
38.407502367474045
10
1.9999999999999996
20
55.149234168681467
10
18.741731801209202
20
58.101253189019403
10
21.69375082154561
20
41.359521387812485
10
4.9520190203388532
20
38.407502367474045
10
7.9040380406725665
20
21.665770566262502
10
10.856057061022595
20
4.9240387650603878
0
LWPOLYLINE
5
110
100
AcDbEntity
8
0
100
AcDbPolyline
90
4
70
1
43
0.0
10
12.153912381564588
20
6.7775682541419169
10
25.744259373133055
20
9.173913105945557
10
9.757567529760852
20
20.367915245710371
10
23.347914521337415
20
22.764260097515418
0
LINE
5
111
100
AcDbEntity
8
0
100
AcDbLine
10
9.7575675297608502
20
20.367915245710371
30
0
11
12.153912381564588
21
6.7775682541419169
31
0
0
LINE
5
112
100
AcDbEntity
8
0
100
AcDbLine
10
25.744259373133055
20
9.1739131059455588
30
0
11
23.347914521337415
21
22.764260097515418
31
0
0
LINE
5
113
100
AcDbEntity
8
0
100
AcDbLine
10
20.395895500994111
20
39.505991898727572
30
0
11
9.2018933612286737
21
23.519300055352623
31
0
0
LWPOLYLINE
5
114
100
AcDbEntity
8
0
100
AcDbPolyline
90
3
70
1
43
0.0
10
6.8055485094249102
20
37.10964704692109
10
22.792240352798871
20
25.915644907146472
10
20.395895500994111
20
39.505991898727572
0
LWPOLYLINE
5
115
100
AcDbEntity
8
0
100
AcDbPolyline
90
3
70
1
43
0.0
10
6.2498743408903836
20
40.261031856560649
10
19.840221332458867
20
42.657376708364268
10
17.443876480655128
20
56.247723699932486
0
LINE
5
116
100
AcDbEntity
8
0
100
AcDbLine
10
3.8535294890867489
20
53.851378848129116
30
0
11
19.840221332458867
21
42.657376708364268
31
0
0
LINE
5
117
100
AcDbEntity
8
0
100
AcDbLine
10
3.8535294890867489
20
53.851378848129116
30
0
11
6.2498743408903836
21
40.261031856560649
31
0
0
LINE
5
118
100
AcDbEntity
8
0
100
AcDbLine
10
6.8055485094249102
20
37.10964704692109
30
0
11
9.2018933612286737
21
23.519300055352623
31
0
0
LINE
5
119
100
AcDbEntity
8
0
100
AcDbLine
10
9.2018933612286737
20
23.519300055352623
30
0
11
22.792240352798871
21
25.915644907146472
31
0
0
LINE
5
120
100
AcDbEntity
8
0
100
AcDbLine
10
17.443876480655128
20
56.247723699932486
30
0
11
3.8535294890867489
21
53.851378848129116
31
0
0
LWPOLYLINE
5
121
100
AcDbEntity
8
0
100
AcDbPolyline
90
8
70
1
43
0.0
10
20.998734178704154
20
45.301156638572955
10
23.950753199046339
20
28.559424837366102
10
40.692485000268803
20
31.511443857694857
10
43.644504020598688
20
14.769712056483035
10
26.902772219398884
20
11.817693036146469
10
23.950753199046339
20
28.559424837366102
10
40.692485000248944
20
31.511443857703068
10
37.740465979904137
20
48.253175658909335
0
LWPOLYLINE
5
122
100
AcDbEntity
8
0
100
AcDbPolyline
90
3
70
1
43
0.0
10
19.900244647452613
20
60.745033119227955
10
22.296589499256008
20
47.154686127659453
10
33.4905916390207
20
63.141377971031545
0
LWPOLYLINE
5
123
100
AcDbEntity
8
0
100
AcDbPolyline
90
4
70
1
43
0.0
10
37.740465979909132
20
48.25317565891023
10
34.788446959562485
20
64.994907460116337
10
18.046715158365664
20
62.042888439780917
10
20.998734178704154
20
45.301156638572955
0
LWPOLYLINE
5
124
100
AcDbEntity
8
0
100
AcDbPolyline
90
3
70
1
43
0.0
10
38.838955511163789
20
32.809299178255692
10
36.442610659360199
20
46.399646169824194
10
22.852263667791792
20
44.003301318020618
0
LINE
5
125
100
AcDbEntity
8
0
100
AcDbLine
10
25.248608519595361
20
30.412954326452123
30
0
11
38.838955511163789
21
32.809299178255692
31
0
0
LINE
5
126
100
AcDbEntity
8
0
100
AcDbLine
10
35.886936490824489
20
49.551030979463036
30
0
11
33.4905916390207
21
63.141377971031545
31
0
0
LINE
5
127
100
AcDbEntity
8
0
100
AcDbLine
10
19.900244647452613
20
60.745033119227955
30
0
11
35.886936490824489
21
49.551030979463036
31
0
0
LINE
5
128
100
AcDbEntity
8
0
100
AcDbLine
10
22.852263667791792
20
44.003301318020618
30
0
11
25.248608519595361
21
30.412954326452123
31
0
0
LINE
5
129
100
AcDbEntity
8
0
100
AcDbLine
10
36.442610659360199
20
46.399646169824194
30
0
11
25.248608519595361
21
30.412954326452123
31
0
0
LWPOLYLINE
5
130
100
AcDbEntity
8
0
100
AcDbPolyline
90
3
70
1
43
0.0
10
39.394629679706476
20
29.657914368603493
10
28.200627539941713
20
13.671222525231432
10
41.790974531510173
20
16.06756737703504
0
LINE
5
131
100
AcDbEntity
8
0
100
AcDbLine
10
39.394629679706476
20
29.657914368603493
30
0
11
25.804282688138265
21
27.261569516799948
31
0
0
LINE
5
132
100
AcDbEntity
8
0
100
AcDbLine
10
28.986550351402215
20
-7.9324394655120536e-16
30
0
11
15.297635328720464
21
77.633694898420686
31
0
0
LINE
5
133
100
AcDbEntity
8
0
100
AcDbLine
10
22.296589499256008
20
47.154686127659453
30
0
11
35.886936490824489
21
49.551030979463036
31
0
0
LINE
5
134
100
AcDbEntity
8
0
100
AcDbLine
10
25.804282688138265
20
27.261569516799948
30
0
11
28.200627539941713
21
13.671222525231432
31
0
0
LINE
5
135
100
AcDbEntity
8
0
100
AcDbLine
10
25.804282688138265
20
27.261569516799948
30
0
11
41.790974531510173
21
16.06756737703504
31
0
0
LWPOLYLINE
5
136
100
AcDbEntity
8
0
100
AcDbPolyline
90
8
70
1
43
0.0
10
40.570846945808412
20
36.639918543406857
10
57.405404114420584
20
39.005861259730509
10
55.039461398099249
20
55.840418428335823
10
38.204904229494339
20
53.474475712014957
10
55.039461398101039
20
55.840418428336058
10
52.673518681779676
20
72.674975596945757
10
35.838961513171164
20
70.309032880635655
10
38.204904229494339
20
53.474475712014957
0
LWPOLYLINE
5
137
100
AcDbEntity
8
0
100
AcDbPolyline
90
3
70
1
43
0.0
10
55.598298242897428
20
40.367613208179534
10
53.677709449646301
20
54.033312556812866
10
41.932598894263784
20
38.447024414930631
0
LWPOLYLINE
5
138
100
AcDbEntity
8
0
100
AcDbPolyline
90
3
70
1
43
0.0
10
42.377952817332307
20
35.278166594957241
10
44.298541610581232
20
21.612467246323575
10
56.043652165966016
20
37.198755388206152
0
LINE
5
139
100
AcDbEntity
8
0
100
AcDbLine
10
44.298541610581232
20
21.612467246323575
30
0
11
57.964240959202009
21
23.533056039664338
31
0
0
LINE
5
140
100
AcDbEntity
8
0
100
AcDbLine
10
42.377952817332307
20
35.278166594957241
30
0
11
57.964240959202009
21
23.533056039664338
31
0
0
LWPOLYLINE
5
141
100
AcDbEntity
8
0
100
AcDbPolyline
90
4
70
1
43
0.0
10
59.771346830735567
20
22.171304091152461
10
57.405404114426155
20
39.005861259730004
10
40.570846945808412
20
36.639918543406857
10
42.936789662129499
20
19.805361374831406
0
LWPOLYLINE
5
142
100
AcDbEntity
8
0
100
AcDbPolyline
90
4
70
1
43
0.0
10
39.566656177944679
20
55.281581583537573
10
53.232355526578345
20
57.202170376786455
10
51.311766733329442
20
70.867869725420164
10
37.646067384695776
20
68.947280932171267
0
LINE
5
143
100
AcDbEntity
8
0
100
AcDbLine
10
57.964240959202009
20
23.533056039664338
30
0
11
56.043652165966016
21
37.198755388206152
31
0
0
LINE
5
144
100
AcDbEntity
8
0
100
AcDbLine
10
45.720251681330765
20
-1.49333075054109e-15
30
0
11
34.809547399275985
21
77.633694898420771
31
0
0
LINE
5
145
100
AcDbEntity
8
0
100
AcDbLine
10
40.01201010101488
20
52.112723763564276
30
0
11
41.932598894263784
21
38.447024414930631
31
0
0
LINE
5
146
100
AcDbEntity
8
0
100
AcDbLine
10
40.01201010101488
20
52.112723763564276
30
0
11
55.598298242897428
21
40.367613208179534
31
0
0
LINE
5
147
100
AcDbEntity
8
0
100
AcDbLine
10
37.646067384695776
20
68.947280932171267
30
0
11
53.232355526578345
21
57.202170376786455
31
0
0
LINE
5
148
100
AcDbEntity
8
0
100
AcDbLine
10
53.677709449646301
20
54.033312556812866
30
0
11
40.01201010101488
21
52.112723763564276
31
0
0
LINE
5
149
100
AcDbEntity
8
0
100
AcDbLine
10
51.311766733329442
20
70.867869725420164
30
0
11
39.566656177944679
21
55.281581583537573
31
0
0
LWPOLYLINE
5
150
100
AcDbEntity
8
0
100
AcDbPolyline
90
3
70
1
43
0.0
10
75.344230387051709
20
20.867614520958725
10
74.141481137135258
20
34.615101354620236
10
61.596743553385608
20
19.664865271041073
0
LWPOLYLINE
5
151
100
AcDbEntity
8
0
100
AcDbPolyline
90
4
70
1
43
0.0
10
60.142281224839181
20
17.93150456565154
10
77.077591092383898
20
19.41315219252705
10
75.595943465687014
20
36.348462059934413
10
58.660633598136293
20
34.866814433127658
0
LWPOLYLINE
5
152
100
AcDbEntity
8
0
100
AcDbPolyline
90
4
70
1
43
0.0
10
60.115095926684404
20
36.600175138497846
10
73.862582760350662
20
37.802924388415505
10
72.659833510433003
20
51.550411222081621
10
58.912346676766731
20
50.347661972163934
0
LWPOLYLINE
5
153
100
AcDbEntity
8
0
100
AcDbPolyline
90
8
70
1
43
0.0
10
58.660633598136293
20
34.866814433127658
10
75.595943465687611
20
36.348462059934313
10
74.11429583898348
20
53.283771927424652
10
57.178985971423721
20
51.802124300714432
10
55.697338344714964
20
68.737434168257764
10
72.63264821228924
20
70.219081794969256
10
74.114295838981278
20
53.283771927424468
10
57.178985971423721
20
51.802124300714432
0
LINE
5
154
100
AcDbEntity
8
0
100
AcDbLine
10
74.141481137135258
20
34.615101354620236
30
0
11
60.39399430346797
21
33.412352104707168
31
0
0
LINE
5
155
100
AcDbEntity
8
0
100
AcDbLine
10
60.39399430346797
20
33.412352104707168
30
0
11
75.344230387051709
21
20.867614520958725
31
0
0
LINE
5
156
100
AcDbEntity
8
0
100
AcDbLine
10
60.39399430346797
20
33.412352104707168
30
0
11
61.596743553385608
21
19.664865271041073
31
0
0
LWPOLYLINE
5
157
100
AcDbEntity
8
0
100
AcDbPolyline
90
4
70
1
43
0.0
10
57.430699050058521
20
67.282971839724681
10
58.633448299971811
20
53.535485006058195
10
71.178185883734187
20
68.485721089630317
10
72.38093513363809
20
54.738234255973204
0
LINE
5
158
100
AcDbEntity
8
0
100
AcDbLine
10
71.178185883734187
20
68.485721089630317
30
0
11
57.430699050058521
21
67.282971839724681
31
0
0
LINE
5
159
100
AcDbEntity
8
0
100
AcDbLine
10
58.633448299971811
20
53.535485006058195
30
0
11
72.38093513363809
21
54.738234255973204
31
0
0
LINE
5
160
100
AcDbEntity
8
0
100
AcDbLine
10
72.659833510433003
20
51.550411222081621
30
0
11
60.115095926684404
21
36.600175138497846
31
0
0
LINE
5
161
100
AcDbEntity
8
0
100
AcDbLine
10
58.912346676766731
20
50.347661972163934
30
0
11
73.862582760350662
21
37.802924388415505
31
0
0
LINE
5
162
100
AcDbEntity
8
0
100
AcDbLine
10
61.711084594295698
20
4.4377572316045717e-15
30
0
11
54.919016383059251
21
77.633694898420842
31
0
0
LWPOLYLINE
5
163
100
AcDbEntity
8
0
100
AcDbPolyline
90
3
70
1
43
0.0
10
92.506941076485575
20
17.866086493887344
10
92.266097867650899
20
31.66398468704466
10
78.709042883327314
20
17.625243285051958
0
LWPOLYLINE
5
164
100
AcDbEntity
8
0
100
AcDbPolyline
90
4
70
1
43
0.0
10
77.137210421369275
20
15.997563122502264
10
94.134621239035567
20
16.294254031936315
10
93.837930329601548
20
33.291664849594504
10
76.840519511948656
20
32.994973940160747
0
LWPOLYLINE
5
165
100
AcDbEntity
8
0
100
AcDbPolyline
90
4
70
1
43
0.0
10
78.412351973899234
20
34.622654102710662
10
92.210250167057453
20
34.863497311545146
10
91.969406958222976
20
48.661395504703322
10
78.171508765064729
20
48.420552295868845
0
LWPOLYLINE
5
166
100
AcDbEntity
8
0
100
AcDbPolyline
90
8
70
1
43
0.0
10
76.840519511948656
20
32.994973940160747
10
93.837930329607275
20
33.29166484959454
10
93.541239420173596
20
50.289075667252703
10
76.543828602514921
20
49.992384757817597
10
76.247137693081214
20
66.989795575478112
10
93.244548510740657
20
67.28648648491199
10
93.541239420174293
20
50.289075667257492
10
76.543828602514921
20
49.992384757817597
0
LINE
5
167
100
AcDbEntity
8
0
100
AcDbLine
10
92.266097867650899
20
31.66398468704466
30
0
11
78.46819967449278
21
31.423141478210148
31
0
0
LINE
5
168
100
AcDbEntity
8
0
100
AcDbLine
10
78.46819967449278
20
31.423141478210148
30
0
11
92.506941076485575
21
17.866086493887344
31
0
0
LINE
5
169
100
AcDbEntity
8
0
100
AcDbLine
10
78.46819967449278
20
31.423141478210148
30
0
11
78.709042883327314
21
17.625243285051958
31
0
0
LWPOLYLINE
5
170
100
AcDbEntity
8
0
100
AcDbPolyline
90
4
70
1
43
0.0
10
77.874817855630994
20
65.417963113527549
10
78.115661064465598
20
51.62006492036933
10
91.67271604878789
20
65.658806322362082
10
91.913559257623788
20
51.860908129203779
0
LINE
5
171
100
AcDbEntity
8
0
100
AcDbLine
10
91.67271604878789
20
65.658806322362082
30
0
11
77.874817855630994
21
65.417963113527549
31
0
0
LINE
5
172
100
AcDbEntity
8
0
100
AcDbLine
10
78.115661064465598
20
51.62006492036933
30
0
11
91.913559257623788
21
51.860908129203779
31
0
0
LINE
5
173
100
AcDbEntity
8
0
100
AcDbLine
10
91.969406958222976
20
48.661395504703322
30
0
11
78.412351973899234
21
34.622654102710662
31
0
0
LINE
5
174
100
AcDbEntity
8
0
100
AcDbLine
10
78.171508765064729
20
48.420552295868845
30
0
11
92.210250167057453
21
34.863497311545146
31
0
0
LINE
5
175
100
AcDbEntity
8
0
100
AcDbLine
10
77.416448924365824
20
5.5262090608874832e-15
30
0
11
76.061347739296423
21
77.633694898420927
31
0
0
LWPOLYLINE
5
176
100
AcDbEntity
8
0
100
AcDbPolyline
90
4
70
1
43
0.0
10
16.178392307940971
20
-16.046391585731882
10
29.768739299509448
20
-13.650046733928287
10
27.372394447705798
20
-0.059699742359759916
10
13.78204745613723
20
-2.456044594163425
0
LWPOLYLINE
5
177
100
AcDbEntity
8
0
100
AcDbPolyline
90
4
70
1
43
0.0
10
28.670249768257801
20
1.7938297467267845
10
11.928517967050619
20
-1.1581892736109687
10
14.880536987388449
20
-17.89992107481854
10
31.622268788596031
20
-14.947902054480682
0
LINE
5
178
100
AcDbEntity
8
0
100
AcDbLine
10
13.78204745613723
20
-2.456044594163425
30
0
11
29.768739299509448
21
-13.650046733928287
31
0
0
LINE
5
179
100
AcDbEntity
8
0
100
AcDbLine
10
27.372394447705798
20
-0.059699742359759916
30
0
11
16.178392307940971
21
-16.046391585731882
31
0
0
LWPOLYLINE
5
180
100
AcDbEntity
8
0
100
AcDbPolyline
90
4
70
1
43
0.0
10
48.364000589803766
20
-11.995883034142786
10
45.411981569465937
20
4.7458487670647607
10
28.670249768258323
20
1.793829746726906
10
31.622268788596031
20
-14.947902054480682
0
LWPOLYLINE
5
181
100
AcDbEntity
8
0
100
AcDbPolyline
90
3
70
1
43
0.0
10
30.523779257344913
20
0.4959744261744764
10
46.510471100717147
20
-10.698027713590424
10
44.114126248913522
20
2.892319277978141
0
LINE
5
182
100
AcDbEntity
8
0
100
AcDbLine
10
32.920124109148645
20
-13.094372565393982
30
0
11
46.510471100717147
21
-10.698027713590424
31
0
0
LINE
5
183
100
AcDbEntity
8
0
100
AcDbLine
10
30.523779257344913
20
0.4959744261744764
30
0
11
32.920124109148645
21
-13.094372565393982
31
0
0
LINE
5
184
100
AcDbEntity
8
0
100
AcDbLine
10
44.114126248913522
20
2.892319277978141
30
0
11
32.920124109148645
21
-13.094372565393982
31
0
0
LWPOLYLINE
5
185
100
AcDbEntity
8
0
100
AcDbPolyline
90
3
70
1
43
0.0
10
229.3839351454892
20
-54.286486462262488
10
215.58393514548919
20
-68.086486462262513
10
215.58393514548914
20
-54.286486462262488
0
LINE
5
186
100
AcDbEntity
8
0
100
AcDbLine
10
215.58393514548914
20
-54.286486462262488
30
0
11
229.38393514548918
21
-68.086486462262485
31
0
0
LINE
5
187
100
AcDbEntity
8
0
100
AcDbLine
10
229.38393514548918
20
-68.086486462262485
30
0
11
229.3839351454892
21
-54.286486462262488
31
0
0
LWPOLYLINE
5
188
100
AcDbEntity
8
0
100
AcDbPolyline
90
4
70
1
43
0.0
10
213.98393514548917
20
-69.686486462262508
10
230.98393514548914
20
-69.686486462262508
10
230.98393514548928
20
-52.686486462262522
10
213.98393514548923
20
-52.686486462262522
0
LINE
5
189
100
AcDbEntity
8
0
100
AcDbLine
10
215.58393514548919
20
-68.086486462262513
30
0
11
229.38393514548918
21
-68.086486462262485
31
0
0
LWPOLYLINE
5
190
100
AcDbEntity
8
0
100
AcDbPolyline
90
12
70
1
43
0.0
10
187.1301121227508
20
4.1232538112882411
10
170.13011212275069
20
4.1232538112882411
10
187.13011212275069
20
4.1232538112918071
10
187.13011212275086
20
21.123253811284705
10
170.13011212275072
20
21.123253811284705
10
170.13011212275069
20
4.1232538112882411
10
170.13011212275063
20
-12.876746188712973
10
187.13011212275052
20
-12.876746188712973
10
187.13011212275038
20
-29.876746188712524
10
170.1301121227506
20
-29.876746188712524
10
170.13011212275063
20
-12.876746188712973
10
187.13011212275066
20
-12.876746188713097
0
LWPOLYLINE
5
191
100
AcDbEntity
8
0
100
AcDbPolyline
90
3
70
1
43
0.0
10
171.73011212275054
20
2.5232538112869962
10
185.5301121227505
20
-11.276746188712767
10
185.53011212275052
20
2.5232538112878355
0
LINE
5
192
100
AcDbEntity
8
0
100
AcDbLine
10
171.73011212275048
20
-11.276746188713043
30
0
11
185.5301121227505
21
-11.276746188712767
31
0
0
LINE
5
193
100
AcDbEntity
8
0
100
AcDbLine
10
171.73011212275054
20
2.5232538112869962
30
0
11
171.73011212275048
21
-11.276746188713043
31
0
0
LINE
5
194
100
AcDbEntity
8
0
100
AcDbLine
10
185.53011212275052
20
2.5232538112878355
30
0
11
171.73011212275048
21
-11.276746188713043
31
0
0
LWPOLYLINE
5
195
100
AcDbEntity
8
0
100
AcDbPolyline
90
4
70
1
43
0.0
10
185.53011212275021
20
-28.276746188712014
10
185.53011212275024
20
-14.476746188712717
10
171.73011212274969
20
-14.4767461887125
10
171.7301121227502
20
-28.276746188712526
0
LINE
5
196
100
AcDbEntity
8
0
100
AcDbLine
10
185.53011212275024
20
-14.476746188712717
30
0
11
171.7301121227502
21
-28.276746188712526
31
0
0
LINE
5
197
100
AcDbEntity
8
0
100
AcDbLine
10
171.73011212274969
20
-14.4767461887125
30
0
11
185.53011212275021
21
-28.276746188712014
31
0
0
LINE
5
198
100
AcDbEntity
8
0
100
AcDbLine
10
171.7301121227498
20
19.523253811289724
30
0
11
185.53011212275052
21
5.7232538112868481
31
0
0
LWPOLYLINE
5
199
100
AcDbEntity
8
0
100
AcDbPolyline
90
3
70
1
43
0.0
10
171.73011212275054
20
5.7232538112896902
10
185.53011212275052
20
5.7232538112868481
10
185.53011212275055
20
19.523253811286448
0
LINE
5
200
100
AcDbEntity
8
0
100
AcDbLine
10
185.53011212275055
20
19.523253811286448
30
0
11
171.7301121227498
21
19.523253811289724
31
0
0
LINE
5
201
100
AcDbEntity
8
0
100
AcDbLine
10
171.7301121227498
20
19.523253811289724
30
0
11
171.73011212275054
21
5.7232538112896902
31
0
0
LINE
5
202
100
AcDbEntity
8
0
100
AcDbLine
10
0
20
0
30
0
11
-4.3380909910819147e-16
21
-25.00000037252903
31
0
0
LWPOLYLINE
5
203
100
AcDbEntity
8
0
100
AcDbPolyline
90
4
70
1
43
0.0
10
63.634627972568587
20
7.7464660157010998
10
63.931318882002451
20
-9.2509448019579903
10
80.928729699660963
20
-8.9542538925242141
10
80.632038790226787
20
8.0431569251349
0
LINE
5
204
100
AcDbEntity
8
0
100
AcDbLine
10
65.262308135118531
20
6.1746335537501507
30
0
11
65.503151343952908
21
-7.6232646394080454
31
0
0
LWPOLYLINE
5
205
100
AcDbEntity
8
0
100
AcDbPolyline
90
3
70
1
43
0.0
10
79.301049537111098
20
-7.3824214305729727
10
79.060206328276507
20
6.4154767625850369
10
65.262308135118531
20
6.1746335537501507
0
LINE
5
206
100
AcDbEntity
8
0
100
AcDbLine
10
65.503151343952908
20
-7.6232646394080454
30
0
11
79.301049537111098
21
-7.3824214305729727
31
0
0
LINE
5
207
100
AcDbEntity
8
0
100
AcDbLine
10
79.060206328276507
20
6.4154767625850369
30
0
11
65.503151343952908
21
-7.6232646394080454
31
0
0
LINE
5
208
100
AcDbEntity
8
0
100
AcDbLine
10
48.364000589803766
20
-11.995883034142786
30
0
11
63.931318882002451
21
-9.2509448019579903
31
0
0
LINE
5
209
100
AcDbEntity
8
0
100
AcDbLine
10
1.4032584476033224e-15
20
77.633694898420643
30
0
11
2.0703088686397787e-15
21
114.53750898701836
31
0
0
LWPOLYLINE
5
210
100
AcDbEntity
8
0
100
AcDbPolyline
90
4
70
1
43
0.0
10
-75.344230387051709
20
20.867614520958718
10
-74.141481137135258
20
34.615101354620236
10
-60.39399430346797
20
33.412352104707168
10
-61.596743553385608
20
19.664865271041066
0
LWPOLYLINE
5
211
100
AcDbEntity
8
0
100
AcDbPolyline
90
12
70
1
43
0.0
10
-75.595943465687014
20
36.348462059934413
10
-58.660633598136293
20
34.866814433127658
10
-75.595943465687611
20
36.348462059934306
10
-74.11429583898348
20
53.283771927424652
10
-57.178985971423721
20
51.802124300714432
10
-74.114295838981278
20
53.283771927424475
10
-72.63264821228924
20
70.219081794969256
10
-55.697338344714964
20
68.737434168257764
10
-57.178985971423721
20
51.802124300714432
10
-58.660633598136293
20
34.866814433127658
10
-60.142281224839181
20
17.931504565651537
10
-77.077591092383898
20
19.41315219252705
0
LWPOLYLINE
5
212
100
AcDbEntity
8
0
100
AcDbPolyline
90
4
70
1
43
0.0
10
-91.67271604878789
20
65.658806322362082
10
-77.874817855630994
20
65.417963113527549
10
-91.913559257623788
20
51.860908129203779
10
-78.115661064465598
20
51.620064920369337
0
LWPOLYLINE
5
213
100
AcDbEntity
8
0
100
AcDbPolyline
90
4
70
1
43
0.0
10
-64.954018516085767
20
80.024096478048946
10
-75.881407880756996
20
67.001340945026229
10
-88.904163413779656
20
77.928730309701052
10
-77.976774049110247
20
90.951485842721638
0
LWPOLYLINE
5
214
100
AcDbEntity
8
0
100
AcDbPolyline
90
8
70
1
43
0.0
10
-76.840519511948656
20
32.994973940160747
10
-93.837930329607275
20
33.29166484959454
10
-93.541239420173596
20
50.289075667252717
10
-76.543828602514921
20
49.992384757817604
10
-76.247137693081214
20
66.989795575478112
10
-93.244548510740657
20
67.286486484912004
10
-93.541239420174293
20
50.289075667257492
10
-76.543828602514921
20
49.992384757817604
0
LWPOLYLINE
5
215
100
AcDbEntity
8
0
100
AcDbPolyline
90
4
70
1
43
0.0
10
-77.137210421369275
20
15.997563122502259
10
-94.134621239035567
20
16.294254031936319
10
-93.837930329601548
20
33.291664849594504
10
-76.840519511948656
20
32.994973940160747
0
LWPOLYLINE
5
216
100
AcDbEntity
8
0
100
AcDbPolyline
90
4
70
1
43
0.0
10
-78.709042883327314
20
17.625243285051955
10
-92.506941076485575
20
17.866086493887341
10
-92.266097867650899
20
31.663984687044653
10
-78.46819967449278
20
31.423141478210148
0
LWPOLYLINE
5
217
100
AcDbEntity
8
0
100
AcDbPolyline
90
3
70
1
43
0.0
10
-65.262308135118531
20
6.1746335537501462
10
-79.301049537111098
20
-7.3824214305729807
10
-65.503151343952908
20
-7.6232646394080472
0
LWPOLYLINE
5
218
100
AcDbEntity
8
0
100
AcDbPolyline
90
4
70
1
43
0.0
10
-80.632038790226787
20
8.0431569251349
10
-63.634627972568587
20
7.7464660157010989
10
-63.931318882002451
20
-9.2509448019579832
10
-80.928729699660963
20
-8.9542538925242088
0
LINE
5
219
100
AcDbEntity
8
0
100
AcDbLine
10
-78.46819967449278
20
31.423141478210148
30
0
11
-92.506941076485575
21
17.866086493887341
31
0
0
LINE
5
220
100
AcDbEntity
8
0
100
AcDbLine
10
-92.266097867650899
20
31.663984687044653
30
0
11
-78.709042883327314
21
17.625243285051955
31
0
0
LWPOLYLINE
5
221
100
AcDbEntity
8
0
100
AcDbPolyline
90
4
70
1
43
0.0
10
-78.412351973899234
20
34.622654102710662
10
-92.210250167057453
20
34.863497311545146
10
-78.171508765064729
20
48.420552295868845
10
-91.969406958222976
20
48.661395504703329
0
LWPOLYLINE
5
222
100
AcDbEntity
8
0
100
AcDbPolyline
90
3
70
1
43
0.0
10
-58.912346676766731
20
50.347661972163934
10
-73.862582760350662
20
37.802924388415505
10
-72.659833510433003
20
51.550411222081621
0
LWPOLYLINE
5
223
100
AcDbEntity
8
0
100
AcDbPolyline
90
8
70
1
43
0.0
10
-57.405404114420584
20
39.005861259730509
10
-55.039461398099249
20
55.840418428335823
10
-38.204904229494339
20
53.474475712014957
10
-35.838961513171164
20
70.309032880635655
10
-52.673518681779676
20
72.674975596945757
10
-55.039461398101039
20
55.840418428336058
10
-38.204904229494339
20
53.474475712014957
10
-40.570846945808412
20
36.639918543406857
0
LWPOLYLINE
5
224
100
AcDbEntity
8
0
100
AcDbPolyline
90
4
70
1
43
0.0
10
-38.838955511163789
20
32.809299178255699
10
-36.442610659360199
20
46.399646169824194
10
-25.248608519595361
20
30.41295432645213
10
-22.852263667791792
20
44.003301318020618
0
LINE
5
225
100
AcDbEntity
8
0
100
AcDbLine
10
-77.416448924365824
20
8.8817841970012523e-15
30
0
11
-76.061347739296423
21
77.633694898420927
31
0
0
LWPOLYLINE
5
226
100
AcDbEntity
8
0
100
AcDbPolyline
90
3
70
1
43
0.0
10
-44.114126248913522
20
2.892319277978137
10
-32.920124109148645
20
-13.094372565393977
10
-46.510471100717147
20
-10.698027713590426
0
LWPOLYLINE
5
227
100
AcDbEntity
8
0
100
AcDbPolyline
90
4
70
1
43
0.0
10
-48.364000589803766
20
-11.99588303414278
10
-45.411981569465937
20
4.7458487670647642
10
-28.670249768258323
20
1.7938297467269049
10
-31.622268788596031
20
-14.947902054480684
0
LWPOLYLINE
5
228
100
AcDbEntity
8
0
100
AcDbPolyline
90
3
70
1
43
0.0
10
-53.677709449646301
20
54.033312556812866
10
-40.01201010101488
20
52.112723763564276
10
-55.598298242897428
20
40.367613208179534
0
LWPOLYLINE
5
229
100
AcDbEntity
8
0
100
AcDbPolyline
90
3
70
1
43
0.0
10
-37.646067384695776
20
68.947280932171267
10
-53.232355526578345
20
57.202170376786455
10
-51.311766733329442
20
70.867869725420164
0
LINE
5
230
100
AcDbEntity
8
0
100
AcDbLine
10
-39.566656177944679
20
55.281581583537573
30
0
11
-53.232355526578345
21
57.202170376786455
31
0
0
LWPOLYLINE
5
231
100
AcDbEntity
8
0
100
AcDbPolyline
90
3
70
1
43
0.0
10
-35.886936490824489
20
49.551030979463036
10
-33.4905916390207
20
63.141377971031545
10
-19.900244647452606
20
60.745033119227955
0
LWPOLYLINE
5
232
100
AcDbEntity
8
0
100
AcDbPolyline
90
3
70
1
43
0.0
10
-86.650032129293564
20
78.125941243189715
10
-77.779563115618316
20
88.697354558232774
10
-76.078618814250859
20
69.255472229516784
0
LWPOLYLINE
5
233
100
AcDbEntity
8
0
100
AcDbPolyline
90
3
70
1
43
0.0
10
-56.043652165966016
20
37.198755388206159
10
-44.298541610581232
20
21.612467246323568
10
-57.964240959202009
20
23.533056039664338
0
LWPOLYLINE
5
234
100
AcDbEntity
8
0
100
AcDbPolyline
90
4
70
1
43
0.0
10
-40.570846945808412
20
36.639918543406857
10
-42.936789662129499
20
19.805361374831403
10
-59.771346830735567
20
22.171304091152464
10
-57.405404114426155
20
39.005861259730004
0
LINE
5
235
100
AcDbEntity
8
0
100
AcDbLine
10
-40.01201010101488
20
52.112723763564276
30
0
11
-41.932598894263784
21
38.447024414930631
31
0
0
LINE
5
236
100
AcDbEntity
8
0
100
AcDbLine
10
-58.912346676766731
20
50.347661972163934
30
0
11
-60.115095926684404
21
36.600175138497846
31
0
0
LINE
5
237
100
AcDbEntity
8
0
100
AcDbLine
10
-45.720251681330765
20
0
30
0
11
-34.809547399275985
21
77.633694898420771
31
0
0
LWPOLYLINE
5
238
100
AcDbEntity
8
0
100
AcDbPolyline
90
3
70
1
43
0.0
10
-72.38093513363809
20
54.738234255973204
10
-71.178185883734187
20
68.485721089630317
10
-57.430699050058521
20
67.282971839724681
0
LINE
5
239
100
AcDbEntity
8
0
100
AcDbLine
10
-58.633448299971811
20
53.535485006058195
30
0
11
-72.38093513363809
21
54.738234255973204
31
0
0
LINE
5
240
100
AcDbEntity
8
0
100
AcDbLine
10
-71.178185883734187
20
68.485721089630317
30
0
11
-58.633448299971811
21
53.535485006058195
31
0
0
LINE
5
241
100
AcDbEntity
8
0
100
AcDbLine
10
-67.208149800574631
20
79.826885544557001
30
0
11
-76.078618814250859
21
69.255472229516784
31
0
0
LINE
5
242
100
AcDbEntity
8
0
100
AcDbLine
10
-77.779563115618316
20
88.697354558232774
30
0
11
-67.208149800574631
21
79.826885544557001
31
0
0
LINE
5
243
100
AcDbEntity
8
0
100
AcDbLine
10
-91.913559257623788
20
51.860908129203779
30
0
11
-91.67271604878789
21
65.658806322362082
31
0
0
LINE
5
244
100
AcDbEntity
8
0
100
AcDbLine
10
-51.311766733329442
20
70.867869725420164
30
0
11
-39.566656177944679
21
55.281581583537573
31
0
0
LINE
5
245
100
AcDbEntity
8
0
100
AcDbLine
10
-67.208149800574631
20
79.826885544557001
30
0
11
-86.650032129293564
21
78.125941243189715
31
0
0
LINE
5
246
100
AcDbEntity
8
0
100
AcDbLine
10
-79.060206328276507
20
6.4154767625850351
30
0
11
-65.503151343952908
21
-7.6232646394080472
31
0
0
LINE
5
247
100
AcDbEntity
8
0
100
AcDbLine
10
-79.301049537111098
20
-7.3824214305729807
30
0
11
-79.060206328276507
21
6.4154767625850351
31
0
0
LINE
5
248
100
AcDbEntity
8
0
100
AcDbLine
10
-79.060206328276507
20
6.4154767625850351
30
0
11
-65.262308135118531
21
6.1746335537501462
31
0
0
LINE
5
249
100
AcDbEntity
8
0
100
AcDbLine
10
-74.141481137135258
20
34.615101354620236
30
0
11
-61.596743553385608
21
19.664865271041066
31
0
0
LINE
5
250
100
AcDbEntity
8
0
100
AcDbLine
10
-60.39399430346797
20
33.412352104707168
30
0
11
-75.344230387051709
21
20.867614520958718
31
0
0
LINE
5
251
100
AcDbEntity
8
0
100
AcDbLine
10
-60.115095926684404
20
36.600175138497846
30
0
11
-73.862582760350662
21
37.802924388415505
31
0
0
LINE
5
252
100
AcDbEntity
8
0
100
AcDbLine
10
-56.043652165966016
20
37.198755388206159
30
0
11
-42.377952817332307
21
35.278166594957241
31
0
0
LINE
5
253
100
AcDbEntity
8
0
100
AcDbLine
10
-44.114126248913522
20
2.892319277978137
30
0
11
-30.523779257344913
21
0.49597442617447918
31
0
0
LINE
5
254
100
AcDbEntity
8
0
100
AcDbLine
10
-30.523779257344913
20
0.49597442617447918
30
0
11
-46.510471100717147
21
-10.698027713590426
31
0
0
LINE
5
255
100
AcDbEntity
8
0
100
AcDbLine
10
-42.377952817332307
20
35.278166594957241
30
0
11
-44.298541610581232
21
21.612467246323568
31
0
0
LINE
5
256
100
AcDbEntity
8
0
100
AcDbLine
10
-41.790974531510173
20
16.067567377035044
30
0
11
-39.394629679706476
21
29.657914368603493
31
0
0
LINE
5
257
100
AcDbEntity
8
0
100
AcDbLine
10
-41.932598894263784
20
38.447024414930631
30
0
11
-55.598298242897428
21
40.367613208179534
31
0
0
LINE
5
258
100
AcDbEntity
8
0
100
AcDbLine
10
-30.523779257344913
20
0.49597442617447918
30
0
11
-32.920124109148645
21
-13.094372565393977
31
0
0
LWPOLYLINE
5
259
100
AcDbEntity
8
0
100
AcDbPolyline
90
12
70
1
43
0.0
10
-43.644504020598688
20
14.769712056483035
10
-40.692485000268803
20
31.51144385769485
10
-23.950753199046339
20
28.559424837366095
10
-20.998734178704154
20
45.301156638572955
10
-18.046715158365661
20
62.042888439780917
10
-34.788446959562485
20
64.994907460116337
10
-37.740465979909132
20
48.25317565891023
10
-20.998734178704154
20
45.301156638572955
10
-37.740465979904137
20
48.253175658909335
10
-40.692485000248944
20
31.511443857703068
10
-23.950753199046339
20
28.559424837366095
10
-26.902772219398884
20
11.817693036146464
0
LINE
5
260
100
AcDbEntity
8
0
100
AcDbLine
10
-48.364000589803766
20
-11.99588303414278
30
0
11
-63.931318882002451
21
-9.2509448019579832
31
0
0
LINE
5
261
100
AcDbEntity
8
0
100
AcDbLine
10
-92.210250167057453
20
34.863497311545146
30
0
11
-91.969406958222976
21
48.661395504703329
31
0
0
LINE
5
262
100
AcDbEntity
8
0
100
AcDbLine
10
-78.171508765064729
20
48.420552295868845
30
0
11
-78.412351973899234
21
34.622654102710662
31
0
0
LINE
5
263
100
AcDbEntity
8
0
100
AcDbLine
10
-37.646067384695776
20
68.947280932171267
30
0
11
-39.566656177944679
21
55.281581583537573
31
0
0
LINE
5
264
100
AcDbEntity
8
0
100
AcDbLine
10
-77.874817855630994
20
65.417963113527549
30
0
11
-78.115661064465598
21
51.620064920369337
31
0
0
LINE
5
265
100
AcDbEntity
8
0
100
AcDbLine
10
-42.377952817332307
20
35.278166594957241
30
0
11
-57.964240959202009
21
23.533056039664338
31
0
0
LINE
5
266
100
AcDbEntity
8
0
100
AcDbLine
10
-57.430699050058521
20
67.282971839724681
30
0
11
-58.633448299971811
21
53.535485006058195
31
0
0
LINE
5
267
100
AcDbEntity
8
0
100
AcDbLine
10
-27.372394447705798
20
-0.059699742359757835
30
0
11
-13.78204745613723
21
-2.4560445941634246
31
0
0
LWPOLYLINE
5
268
100
AcDbEntity
8
0
100
AcDbPolyline
90
4
70
1
43
0.0
10
-13.78204745613723
20
-2.4560445941634246
10
-29.768739299509448
20
-13.650046733928294
10
-27.372394447705798
20
-0.059699742359757835
10
-16.178392307940971
20
-16.046391585731882
0
LINE
5
269
100
AcDbEntity
8
0
100
AcDbLine
10
-6.8055485094249102
20
37.10964704692109
30
0
11
-9.2018933612286737
21
23.519300055352623
31
0
0
LINE
5
270
100
AcDbEntity
8
0
100
AcDbLine
10
-25.744259373133055
20
9.173913105945557
30
0
11
-23.347914521337415
21
22.764260097515418
31
0
0
LWPOLYLINE
5
271
100
AcDbEntity
8
0
100
AcDbPolyline
90
4
70
1
43
0.0
10
-17.443876480655124
20
56.247723699932486
10
-6.2498743408903836
20
40.261031856560649
10
-19.840221332458864
20
42.657376708364268
10
-3.8535294890867466
20
53.851378848129116
0
LWPOLYLINE
5
272
100
AcDbEntity
8
0
100
AcDbPolyline
90
12
70
1
43
0.0
10
-1.9999999999999978
20
55.149234168681467
10
-4.9520190203388514
20
38.407502367474045
10
-21.693750821548253
20
41.359521387814702
10
-24.645769841884686
20
24.617789586599706
10
-7.9040380406725674
20
21.665770566262495
10
-24.645769841880494
20
24.617789586600356
10
-27.597788862219979
20
7.8760577853837965
10
-10.856057061022595
20
4.9240387650603878
10
-7.9040380406725665
20
21.665770566262495
10
-4.9520190203388506
20
38.407502367474045
10
-21.69375082154561
20
41.359521387812485
10
-18.741731801209195
20
58.101253189019403
0
LWPOLYLINE
5
273
100
AcDbEntity
8
0
100
AcDbPolyline
90
3
70
1
43
0.0
10
-25.804282688138265
20
27.261569516799948
10
-28.200627539941713
20
13.67122252523143
10
-41.790974531510173
20
16.067567377035044
0
LWPOLYLINE
5
274
100
AcDbEntity
8
0
100
AcDbPolyline
90
4
70
1
43
0.0
10
-23.347914521337415
20
22.764260097515418
10
-9.7575675297608502
20
20.367915245710371
10
-25.744259373133055
20
9.173913105945557
10
-12.153912381564588
20
6.7775682541419169
0
LINE
5
275
100
AcDbEntity
8
0
100
AcDbLine
10
-53.677709449646301
20
54.033312556812866
30
0
11
-41.932598894263784
21
38.447024414930631
31
0
0
LINE
5
276
100
AcDbEntity
8
0
100
AcDbLine
10
-33.4905916390207
20
63.141377971031545
30
0
11
-22.296589499256008
21
47.154686127659453
31
0
0
LINE
5
277
100
AcDbEntity
8
0
100
AcDbLine
10
-39.394629679706476
20
29.657914368603493
30
0
11
-25.804282688138265
21
27.261569516799948
31
0
0
LWPOLYLINE
5
278
100
AcDbEntity
8
0
100
AcDbPolyline
90
3
70
1
43
0.0
10
-20.395895500994111
20
39.505991898727572
10
-9.2018933612286737
20
23.519300055352623
10
-22.792240352798871
20
25.915644907146465
0
LINE
5
279
100
AcDbEntity
8
0
100
AcDbLine
10
-28.986550351402215
20
0
30
0
11
-15.29763532872046
21
77.633694898420686
31
0
0
LINE
5
280
100
AcDbEntity
8
0
100
AcDbLine
10
-11.724297949360935
20
0
30
0
11
1.9646170733797201
21
77.633694898420615
31
0
0
LINE
5
281
100
AcDbEntity
8
0
100
AcDbLine
10
-20.395895500994111
20
39.505991898727572
30
0
11
-6.8055485094249102
21
37.10964704692109
31
0
0
LINE
5
282
100
AcDbEntity
8
0
100
AcDbLine
10
-39.394629679706476
20
29.657914368603493
30
0
11
-28.200627539941713
21
13.67122252523143
31
0
0
LINE
5
283
100
AcDbEntity
8
0
100
AcDbLine
10
-22.296589499256008
20
47.154686127659453
30
0
11
-35.886936490824489
21
49.551030979463036
31
0
0
LWPOLYLINE
5
284
100
AcDbEntity
8
0
100
AcDbPolyline
90
4
70
1
43
0.0
10
-31.622268788596031
20
-14.947902054480684
10
-28.670249768257801
20
1.7938297467267805
10
-11.928517967050619
20
-1.1581892736109722
10
-14.880536987388449
20
-17.899921074818536
0
LINE
5
285
100
AcDbEntity
8
0
100
AcDbLine
10
-6.8055485094249102
20
37.10964704692109
30
0
11
-22.792240352798871
21
25.915644907146465
31
0
0
LINE
5
286
100
AcDbEntity
8
0
100
AcDbLine
10
-9.7575675297608502
20
20.367915245710371
30
0
11
-12.153912381564588
21
6.7775682541419169
31
0
0
LINE
5
287
100
AcDbEntity
8
0
100
AcDbLine
10
-16.178392307940971
20
-16.046391585731882
30
0
11
-29.768739299509448
21
-13.650046733928294
31
0
0
LINE
5
288
100
AcDbEntity
8
0
100
AcDbLine
10
1.4032584476033224e-15
20
77.633694898420643
30
0
11
-139.45667311779494
21
77.633694898421183
31
0
0
LINE
5
289
100
AcDbEntity
8
0
100
AcDbLine
10
-61.711084594295698
20
0
30
0
11
-54.919016383059251
21
77.633694898420842
31
0
0
LINE
5
290
100
AcDbEntity
8
0
100
AcDbLine
10
-4.9303806576313238e-31
20
0
30
0
11
-139.45667311780181
21
1.7763568394002505e-14
31
0
0
LINE
5
291
100
AcDbEntity
8
0
100
AcDbLine
10
-72.659833510433003
20
51.550411222081621
30
0
11
-60.115095926684404
21
36.600175138497846
31
0
0
LINE
5
292
100
AcDbEntity
8
0
100
AcDbLine
10
-3.8535294890867466
20
53.851378848129116
30
0
11
-6.2498743408903836
21
40.261031856560649
31
0
0
LINE
5
293
100
AcDbEntity
8
0
100
AcDbLine
10
-25.248608519595361
20
30.41295432645213
30
0
11
-38.838955511163789
21
32.809299178255699
31
0
0
LINE
5
294
100
AcDbEntity
8
0
100
AcDbLine
10
-19.840221332458864
20
42.657376708364268
30
0
11
-17.443876480655124
21
56.247723699932486
31
0
0
LINE
5
295
100
AcDbEntity
8
0
100
AcDbLine
10
-19.900244647452606
20
60.745033119227955
30
0
11
-22.296589499256008
21
47.154686127659453
31
0
0
LINE
5
296
100
AcDbEntity
8
0
100
AcDbLine
10
-36.442610659360199
20
46.399646169824194
30
0
11
-22.852263667791792
21
44.003301318020618
31
0
0
CIRCLE
5
297
100
AcDbEntity
8
0
100
AcDbCircle
10
-4.3380909910819147e-16
20
-25.00000037252903
30
0
40
2.5
210
0
220
0
230
1
0
ENDSEC
0
SECTION
2
OBJECTS
0
DICTIONARY
5
C
100
AcDbDictionary
3
ACAD_GROUP
350
D
3
ACAD_MLINESTYLE
350
17
0
DICTIONARY
5
D
100
AcDbDictionary
0
DICTIONARY
5
1A
330
C
100
AcDbDictionary
0
DICTIONARY
5
17
100
AcDbDictionary
0
ENDSEC
0
EOF
