0
SECTION
2
HEADER
9
$INSUNITS
70
4
9
$ACADVER
1
AC1014
9
$HANDSEED
5
FFFF
0
ENDSEC
0
SECTION
2
TABLES
0
TABLE
2
VPORT
5
8
100
AcDbSymbolTable
0
ENDTAB
0
TABLE
2
LTYPE
5
5
100
AcDbSymbolTable
0
LTYPE
5
14
100
AcDbSymbolTableRecord
100
AcDbLinetypeTableRecord
2
BYBLOCK
70
0
0
LTYPE
5
15
100
AcDbSymbolTableRecord
100
AcDbLinetypeTableRecord
2
BYLAYER
70
0
0
ENDTAB
0
TABLE
2
LAYER
5
2
100
AcDbSymbolTable
70
2
0
LAYER
5
50
100
AcDbSymbolTableRecord
100
AcDbLayerTableRecord
2
0
70
0
6
CONTINUOUS
0
ENDTAB
0
TABLE
2
STYLE
5
3
100
AcDbSymbolTable
70
1
0
STYLE
5
11
100
AcDbSymbolTableRecord
100
AcDbTextStyleTableRecord
2
STANDARD
70
0
0
ENDTAB
0
TABLE
2
VIEW
5
6
100
AcDbSymbolTable
70
0
0
ENDTAB
0
TABLE
2
UCS
5
7
100
AcDbSymbolTable
70
0
0
ENDTAB
0
TABLE
2
APPID
5
9
100
AcDbSymbolTable
70
2
0
APPID
5
12
100
AcDbSymbolTableRecord
100
AcDbRegAppTableRecord
2
ACAD
70
0
0
ENDTAB
0
TABLE
2
DIMSTYLE
5
A
100
AcDbSymbolTable
70
1
0
ENDTAB
0
TABLE
2
BLOCK_RECORD
5
1
100
AcDbSymbolTable
70
1
0
BLOCK_RECORD
5
1F
100
AcDbSymbolTableRecord
100
AcDbBlockTableRecord
2
*MODEL_SPACE
0
BLOCK_RECORD
5
1B
100
AcDbSymbolTableRecord
100
AcDbBlockTableRecord
2
*PAPER_SPACE
0
ENDTAB
0
ENDSEC
0
SECTION
2
BLOCKS
0
BLOCK
5
20
100
AcDbEntity
100
AcDbBlockBegin
2
*MODEL_SPACE
0
ENDBLK
5
21
100
AcDbEntity
100
AcDbBlockEnd
0
BLOCK
5
1C
100
AcDbEntity
100
AcDbBlockBegin
2
*PAPER_SPACE
0
ENDBLK
5
1D
100
AcDbEntity
100
AcDbBlockEnd
0
ENDSEC
0
SECTION
2
ENTITIES
0
LINE
5
100
100
AcDbEntity
8
0
100
AcDbLine
10
51.814768500040088
20
79.869038419604138
30
0
11
29.045222869731482
21
81.193968852448222
31
0
0
LINE
5
101
100
AcDbEntity
8
0
100
AcDbLine
10
57.395672957432083
20
81.191897624199797
30
0
11
82.798670741734682
21
95.858325233190286
31
0
0
LINE
5
102
100
AcDbEntity
8
0
100
AcDbLine
10
84.164696145519116
20
95.492299829405823
30
0
11
92.11040401977516
21
81.729930089094083
31
0
0
LINE
5
103
100
AcDbEntity
8
0
100
AcDbLine
10
96.917291285332126
20
68.352838514265073
30
0
11
97.016225547193571
21
67.763558253088135
31
0
0
LINE
5
104
100
AcDbEntity
8
0
100
AcDbLine
10
96.830136615264237
20
0.44453610996869841
30
0
11
95.40605003303466
21
-7.7596857601785798
31
0
0
LINE
5
105
100
AcDbEntity
8
0
100
AcDbLine
10
90.93041112356471
20
-11.884219570400955
30
0
11
68.132881869303674
21
-13.947573821818118
31
0
0
LINE
5
106
100
AcDbEntity
8
0
100
AcDbLine
10
59.781999989583731
20
-15.059714733677197
30
0
11
23.504137062567338
21
-21.456480770153405
31
0
0
LINE
5
107
100
AcDbEntity
8
0
100
AcDbLine
10
6.5230498893808626
20
-22.974969220380224
30
0
11
0
21
-23.000000342726715
31
0
0
LINE
5
108
100
AcDbEntity
8
0
100
AcDbLine
10
-6.5230498893810136
20
-22.974969220380213
30
0
11
-8.3146743995736803e-16
21
-23.000000342726715
31
0
0
LINE
5
109
100
AcDbEntity
8
0
100
AcDbLine
10
-59.78199998958501
20
-15.059714733676968
30
0
11
-23.504137062567445
21
-21.456480770153373
31
0
0
LINE
5
110
100
AcDbEntity
8
0
100
AcDbLine
10
-90.930411123564681
20
-11.88421957040096
30
0
11
-68.132881869305038
21
-13.947573821817993
31
0
0
LINE
5
111
100
AcDbEntity
8
0
100
AcDbLine
10
-96.830136615264166
20
0.4445361099684586
30
0
11
-95.40605003303466
21
-7.7596857601785851
31
0
0
LINE
5
112
100
AcDbEntity
8
0
100
AcDbLine
10
-96.917291285332169
20
68.352838514265045
30
0
11
-97.016225547193628
21
67.763558253087993
31
0
0
LINE
5
113
100
AcDbEntity
8
0
100
AcDbLine
10
-84.16469614551913
20
95.492299829405866
30
0
11
-92.110404019775217
21
81.729930089094069
31
0
0
LINE
5
114
100
AcDbEntity
8
0
100
AcDbLine
10
-57.395672957432083
20
81.191897624199797
30
0
11
-82.798670741734739
21
95.858325233190328
31
0
0
LINE
5
115
100
AcDbEntity
8
0
100
AcDbLine
10
-51.814768500040088
20
79.869038419604138
30
0
11
-29.045222869470777
21
81.193968852463385
31
0
0
ARC
5
116
100
AcDbEntity
8
0
100
AcDbCircle
10
3.5527136788005009e-14
20
-417.96169327403226
30
0
40
500.0000000044775
210
0
220
-0
230
1
100
AcDbArc
50
86.669787868509985
51
93.330212131460115
0
ARC
5
117
100
AcDbEntity
8
0
100
AcDbCircle
10
-6.1393192958748326
20
77.024294531067511
30
0
40
100
210
0
220
0
230
1
100
AcDbArc
50
260.00000000000023
51
269.78013802564334
0
ARC
5
118
100
AcDbEntity
8
0
100
AcDbCircle
10
6.1393192958753664
20
77.024294531061926
30
0
40
99.999999999994429
210
-0
220
0
230
1
100
AcDbArc
50
270.21986197435632
51
279.99999999999994
0
ARC
5
119
100
AcDbEntity
8
0
100
AcDbCircle
10
100.22329153747944
20
34.649016127233757
30
0
40
200
210
0
220
0
230
1
100
AcDbArc
50
170.46949399971496
51
189.84726886810444
0
ARC
5
120
100
AcDbEntity
8
0
100
AcDbCircle
10
-100.22329153747975
20
34.649016127233772
30
0
40
200.00000000000031
210
-0
220
0
230
1
100
AcDbArc
50
-9.8472688681043454
51
9.5305060002850528
0
ARC
5
121
100
AcDbEntity
8
0
100
AcDbCircle
10
-57.469387868397554
20
61.729930089094218
30
0
40
40.000000000000028
210
0
220
0
230
1
100
AcDbArc
50
150.00000000000028
51
170.46949399971496
0
ARC
5
122
100
AcDbEntity
8
0
100
AcDbCircle
10
57.469387868398556
20
61.729930089094637
30
0
40
39.999999999998913
210
0
220
-0
230
1
100
AcDbArc
50
9.5305060002847455
51
29.999999999999979
0
ARC
5
123
100
AcDbEntity
8
0
100
AcDbCircle
10
-77.146817756277613
20
-113.54049003489784
30
0
40
99.999999999999986
210
0
220
-0
230
1
100
AcDbArc
50
80.000000000000256
51
84.828375647643597
0
ARC
5
124
100
AcDbEntity
8
0
100
AcDbCircle
10
77.146817756269115
20
-113.54049003483496
30
0
40
99.999999999936591
210
0
220
0
230
1
100
AcDbArc
50
95.171624352355579
51
100.00000000000196
0
ARC
5
125
100
AcDbEntity
8
0
100
AcDbCircle
10
-83.298670741734711
20
94.99229982940588
30
0
40
0.99999999999999711
210
0
220
-0
230
1
100
AcDbArc
50
60.000000000001684
51
150.00000000000017
0
ARC
5
126
100
AcDbEntity
8
0
100
AcDbCircle
10
83.298670741734654
20
94.992299829405837
30
0
40
1.000000000000006
210
0
220
-0
230
1
100
AcDbArc
50
29.999999999998604
51
119.99999999999831
0
ARC
5
127
100
AcDbEntity
8
0
100
AcDbCircle
10
-52.395672957432105
20
89.852151662044236
30
0
40
10.000000000000027
210
0
220
0
230
1
100
AcDbArc
50
240.00000000000023
51
273.33021213150482
0
ARC
5
128
100
AcDbEntity
8
0
100
AcDbCircle
10
52.395672957432105
20
89.852151662044207
30
0
40
10.000000000000009
210
0
220
0
230
1
100
AcDbArc
50
266.66978786849512
51
299.99999999999983
0
ARC
5
129
100
AcDbEntity
8
0
100
AcDbCircle
10
-90.479714329216051
20
-6.9045737597469437
30
0
40
5.000000000000016
210
0
220
0
230
1
100
AcDbArc
50
189.84726886810449
51
264.82837564764361
0
ARC
5
130
100
AcDbEntity
8
0
100
AcDbCircle
10
90.479714329216023
20
-6.904573759746933
30
0
40
5.0000000000000338
210
-0
220
0
230
1
100
AcDbArc
50
275.17162435235707
51
350.15273113189545
0
CIRCLE
5
131
100
AcDbEntity
8
0
100
AcDbCircle
10
-4.3380909910819147e-16
20
-25.00000037252903
30
0
40
2.5
210
0
220
-0
230
1
0
ENDSEC
0
SECTION
2
OBJECTS
0
DICTIONARY
5
C
100
AcDbDictionary
3
ACAD_GROUP
350
D
3
ACAD_MLINESTYLE
350
17
0
DICTIONARY
5
D
100
AcDbDictionary
0
DICTIONARY
5
1A
330
C
100
AcDbDictionary
0
DICTIONARY
5
17
100
AcDbDictionary
0
ENDSEC
0
EOF
