<?xml version="1.0" encoding="UTF-8"?>
<svg id="Layer_1" data-name="Layer 1" xmlns="http://www.w3.org/2000/svg" width="16.59mm" height="13.13mm" viewBox="0 0 47.03 37.23">
  <defs>
    <style>
      .cls-1 {
        fill-rule: evenodd;
      }
    </style>
  </defs>
  <path class="cls-1" d="m46.99,11.54l-.1-.86-.16-.85-.21-.83-.27-.82-.32-.8-.38-.77-.43-.75-.48-.72-.53-.68-.57-.65-.62-.61-.66-.57-.71-.52-.75-.47-.79-.42-.82-.36-.86-.3-.9-.24-.93-.18-.96-.11-1-.04H12.48l-1,.04-.96.11-.93.18-.9.24-.86.3-.82.36-.79.42-.75.47-.71.52-.66.57-.62.61-.57.65-.53.68-.48.72-.43.75-.38.77-.32.8-.27.82-.21.83-.16.85-.1.86-.04.87.02.87.08.87.15.87.21.86.28.86.35.84.42.83.49.81.56.79.64.77,11.03,12.3.47.5.5.47.51.44.53.41.55.37.56.34.58.31.59.28.6.24.61.21.62.18.62.15.63.11.63.08.64.05.64.02.64-.02.64-.05.63-.08.63-.11.62-.15.62-.18.61-.21.6-.24.59-.28.58-.31.56-.34.55-.37.53-.41.51-.44.5-.47.47-.5,11.03-12.3.64-.77.56-.79.49-.81.42-.83.35-.84.28-.86.21-.86.15-.87.08-.87.02-.87-.04-.87ZM8.92,25.06c-1.41,0-2.55-1.14-2.55-2.55s1.14-2.55,2.55-2.55,2.55,1.14,2.55,2.55-1.14,2.55-2.55,2.55Zm-2.27-10.49c0-1.25,1.02-2.27,2.27-2.27s2.27,1.02,2.27,2.27-1.02,2.27-2.27,2.27-2.27-1.02-2.27-2.27Zm2.27-7.94c-1.41,0-2.55-1.14-2.55-2.55s1.14-2.55,2.55-2.55,2.55,1.14,2.55,2.55-1.14,2.55-2.55,2.55Zm29.2,18.43c-1.41,0-2.55-1.14-2.55-2.55s1.14-2.55,2.55-2.55,2.55,1.14,2.55,2.55-1.14,2.55-2.55,2.55Zm-2.27-10.49c0-1.25,1.02-2.27,2.27-2.27s2.27,1.02,2.27,2.27-1.02,2.27-2.27,2.27-2.27-1.02-2.27-2.27Zm2.27-7.94c-1.41,0-2.55-1.14-2.55-2.55s1.14-2.55,2.55-2.55,2.55,1.14,2.55,2.55-1.14,2.55-2.55,2.55Z"/>
</svg>