<?xml version="1.0" encoding="utf-8"?>
<!-- Generator: Adobe Illustrator 27.5.0, SVG Export Plug-In . SVG Version: 6.00 Build 0)  -->
<svg version="1.1" id="Layer_1" xmlns:svg="http://www.w3.org/2000/svg"
	 xmlns="http://www.w3.org/2000/svg" xmlns:xlink="http://www.w3.org/1999/xlink" x="0px" y="0px" viewBox="0 0 47 37.2"
	 style="enable-background:new 0 0 47 37.2;" xml:space="preserve">
<style type="text/css">
	.st0{fill-rule:evenodd;clip-rule:evenodd;}
</style>
<path class="st0" d="M47,11.5l-0.1-0.9l-0.2-0.8L46.5,9l-0.3-0.8l-0.3-0.8l-0.4-0.8l-0.4-0.7l-0.5-0.7l-0.5-0.7l-0.6-0.6l-0.6-0.6
	l-0.7-0.6l-0.7-0.5l-0.7-0.5L40,1.2l-0.8-0.4l-0.9-0.3l-0.9-0.2l-0.9-0.2l-1-0.1l-1,0H12.5l-1,0l-1,0.1L9.6,0.3L8.7,0.6L7.8,0.9
	L7,1.2L6.2,1.6L5.5,2.1L4.8,2.6L4.1,3.2L3.5,3.8L2.9,4.5L2.4,5.1L1.9,5.9L1.5,6.6L1.1,7.4L0.8,8.2L0.5,9L0.3,9.8l-0.2,0.8L0,11.5
	l0,0.9l0,0.9l0.1,0.9L0.3,15l0.2,0.9l0.3,0.9l0.3,0.8l0.4,0.8L2,19.2L2.6,20l0.6,0.8l11,12.3l0.5,0.5l0.5,0.5l0.5,0.4l0.5,0.4
	l0.5,0.4l0.6,0.3l0.6,0.3l0.6,0.3l0.6,0.2l0.6,0.2l0.6,0.2L21,37l0.6,0.1l0.6,0.1l0.6,0l0.6,0l0.6,0l0.6,0l0.6-0.1l0.6-0.1l0.6-0.1
	l0.6-0.2l0.6-0.2l0.6-0.2l0.6-0.3l0.6-0.3l0.6-0.3l0.5-0.4l0.5-0.4l0.5-0.4l0.5-0.5l0.5-0.5l11-12.3l0.6-0.8l0.6-0.8l0.5-0.8
	l0.4-0.8l0.3-0.8l0.3-0.9l0.2-0.9l0.1-0.9l0.1-0.9l0-0.9L47,11.5z M8.9,25.1c-1.4,0-2.6-1.1-2.6-2.6S7.5,20,8.9,20s2.6,1.1,2.6,2.6
	S10.3,25.1,8.9,25.1z M6.7,14.6c0-1.3,1-2.3,2.3-2.3s2.3,1,2.3,2.3c0,1.3-1,2.3-2.3,2.3S6.7,15.8,6.7,14.6z M8.9,6.6
	c-1.4,0-2.6-1.1-2.6-2.6c0-1.4,1.1-2.6,2.6-2.6s2.6,1.1,2.6,2.6C11.5,5.5,10.3,6.6,8.9,6.6z M38.1,25.1c-1.4,0-2.6-1.1-2.6-2.6
	s1.1-2.6,2.6-2.6c1.4,0,2.6,1.1,2.6,2.6S39.5,25.1,38.1,25.1z M35.8,14.6c0-1.3,1-2.3,2.3-2.3s2.3,1,2.3,2.3c0,1.3-1,2.3-2.3,2.3
	S35.8,15.8,35.8,14.6z M38.1,6.6c-1.4,0-2.6-1.1-2.6-2.6c0-1.4,1.1-2.6,2.6-2.6c1.4,0,2.6,1.1,2.6,2.6C40.7,5.5,39.5,6.6,38.1,6.6z"
	/>
</svg>
