<?xml version="1.0" encoding="UTF-8"?>
<svg id="Layer_8" data-name="Layer 8" xmlns="http://www.w3.org/2000/svg" width="297mm" height="210.01mm" viewBox="0 0 841.9 595.3">
  <g>
    <path d="m333.58,309.97c0,2.25-1.82,4-4.14,4-2.14,0-4-1.91-3.96-4.06.04-2.2,1.85-4.01,4.02-4.03,2.21-.01,4.09,1.87,4.08,4.1Z"/>
    <path d="m323.41,307.78c-2.14-.01-3.88-1.77-3.82-3.87.05-2.14,1.87-3.95,3.98-3.95,2.13,0,3.93,1.74,3.93,3.82,0,2.36-1.69,4.02-4.08,4.01Z"/>
    <path d="m335.44,307.77c-2.3-.02-3.79-1.59-3.77-3.98.01-2.16,1.74-3.84,3.89-3.81,2.07.03,3.97,1.97,3.95,4.01-.02,2.18-1.76,3.8-4.07,3.78Z"/>
    <path d="m317.63,313.72c-2.21.02-3.83-1.58-3.84-3.8-.01-2.11,1.64-3.78,3.74-3.8,2.17-.02,3.89,1.65,3.91,3.79.02,2.24-1.53,3.8-3.82,3.82Z"/>
    <path d="m327.11,315.85c0,1.9-1.64,3.54-3.55,3.55-1.85,0-3.56-1.72-3.54-3.58.02-2,1.52-3.48,3.56-3.49,1.96,0,3.53,1.55,3.53,3.53Z"/>
    <path d="m344.99,309.86c.02,1.86-1.7,3.56-3.58,3.54-1.78-.02-3.45-1.76-3.44-3.56.01-1.85,1.64-3.45,3.5-3.45,1.8,0,3.5,1.68,3.52,3.48Z"/>
    <path d="m311.67,307.36c-1.81,0-3.4-1.58-3.41-3.39,0-1.86,1.63-3.49,3.48-3.48,1.64.01,3.4,1.83,3.39,3.51,0,1.75-1.67,3.36-3.47,3.36Z"/>
    <path d="m332.83,298.15c.01,1.84-1.43,3.19-3.39,3.18-1.86,0-3.21-1.35-3.23-3.2-.02-1.85,1.44-3.38,3.24-3.39,1.83-.02,3.37,1.53,3.38,3.42Z"/>
    <path d="m314.93,315.86c0,1.78-1.53,3.3-3.35,3.3-1.8,0-3.23-1.42-3.25-3.22-.02-1.83,1.45-3.34,3.27-3.36,1.85-.01,3.32,1.44,3.33,3.28Z"/>
    <path d="m338.78,315.92c-.02,1.73-1.63,3.26-3.41,3.23-1.83-.03-3.23-1.51-3.19-3.38.04-1.71,1.57-3.18,3.31-3.18,1.76,0,3.31,1.57,3.29,3.34Z"/>
    <path d="m308.96,309.98c0,1.73-1.46,3.19-3.24,3.23-1.84.04-3.32-1.39-3.35-3.23-.03-1.81,1.49-3.36,3.26-3.34,1.73.02,3.32,1.62,3.33,3.34Z"/>
    <path d="m320.66,298.05c.02,1.72-1.29,3-3.08,3.02-1.67.02-3.01-1.34-3.04-3.09-.03-1.66,1.28-3,2.95-3.02,1.77-.02,3.16,1.33,3.18,3.09Z"/>
    <path d="m347.44,301.13c1.56,0,2.87,1.28,2.88,2.79,0,1.65-1.23,2.9-2.87,2.91-1.63.01-2.91-1.24-2.91-2.87,0-1.68,1.19-2.84,2.91-2.83Z"/>
    <path d="m344.26,298.04c0,1.57-1.27,2.79-2.86,2.78-1.51-.02-2.74-1.24-2.76-2.75-.02-1.65,1.24-2.89,2.91-2.84,1.47.04,2.72,1.34,2.71,2.82Z"/>
    <path d="m302.5,304.07c-.05,1.49-1.35,2.7-2.85,2.68-1.48-.02-2.74-1.32-2.72-2.81.02-1.54,1.36-2.81,2.91-2.75,1.44.05,2.71,1.43,2.66,2.88Z"/>
    <path d="m297.08,315.89c0-1.51,1.16-2.71,2.64-2.72,1.36,0,2.75,1.36,2.74,2.7,0,1.42-1.31,2.73-2.7,2.71-1.49-.02-2.67-1.21-2.68-2.69Z"/>
    <path d="m320.16,321.86c0,1.47-1.12,2.53-2.64,2.52-1.47,0-2.54-1.14-2.51-2.64.03-1.39,1.16-2.49,2.56-2.49,1.44,0,2.59,1.16,2.58,2.61Z"/>
    <path d="m308.2,298.02c.03,1.35-1.11,2.49-2.52,2.53-1.28.04-2.52-1.19-2.55-2.53-.03-1.26,1.13-2.49,2.4-2.54,1.38-.06,2.64,1.13,2.67,2.53Z"/>
    <path d="m331.99,321.86c-.02,1.32-1.28,2.51-2.61,2.47-1.28-.04-2.4-1.23-2.39-2.54,0-1.27,1.21-2.5,2.45-2.49,1.3.01,2.57,1.29,2.55,2.56Z"/>
    <path d="m296.2,309.89c.03,1.31-1.18,2.51-2.54,2.51-1.22,0-2.41-1.23-2.43-2.5-.02-1.16,1.16-2.39,2.34-2.46,1.26-.07,2.59,1.17,2.62,2.45Z"/>
    <path d="m305.64,324.13c-1.35.02-2.34-.96-2.34-2.32,0-1.3,1.04-2.35,2.34-2.36,1.23-.01,2.34,1.11,2.35,2.37,0,1.34-.96,2.3-2.34,2.31Z"/>
    <path d="m345.34,315.74c.04-1.18.87-1.95,2.09-1.94,1.22.01,2.06.89,2.05,2.13-.01,1.19-.94,2.04-2.17,2.01-1.21-.04-2.01-.93-1.97-2.2Z"/>
    <path d="m325.62,292.1c-.01,1.19-.95,2.07-2.16,2.04-1.14-.04-1.97-.92-1.97-2.1,0-1.16.85-2.01,2.03-2.03,1.21-.02,2.11.88,2.1,2.09Z"/>
    <path d="m337.52,292.04c.03,1.07-.97,2.06-2.06,2.06-1.02,0-1.98-.96-2.01-1.98-.03-1.07.95-2.04,2.07-2.06,1-.02,1.98.95,2,1.98Z"/>
    <path d="m353.27,311.92c-.95-.04-1.99-1.17-1.91-2.09.08-.97,1.16-1.95,2.11-1.92.93.03,1.95,1.16,1.91,2.1-.04.94-1.15,1.94-2.11,1.9Z"/>
    <path d="m311.54,293.99c-.93-.02-1.9-1.05-1.87-1.97.03-.94,1.16-1.96,2.1-1.9.86.06,1.8,1.06,1.79,1.92-.01,1.03-.99,1.97-2.02,1.95Z"/>
    <path d="m289.57,315.85c0,.94-.9,1.84-1.82,1.81-.82-.03-1.8-.95-1.83-1.73-.04-.86,1.06-1.93,1.94-1.9.81.03,1.72.99,1.72,1.81Z"/>
    <path d="m343.2,321.7c.03.89-.81,1.82-1.67,1.86-.84.03-1.83-.84-1.89-1.66-.05-.83.95-1.86,1.83-1.87.77,0,1.7.89,1.73,1.67Z"/>
    <path d="m289.5,304.1c-.1.91-1.06,1.74-1.89,1.55-.93-.2-1.56-.79-1.58-1.78-.02-.79,1.1-1.73,1.86-1.67.83.07,1.7,1.09,1.61,1.9Z"/>
    <path d="m293.82,299.67c-.85.03-1.83-.89-1.82-1.68.01-.71.99-1.68,1.71-1.7.71-.02,1.72.94,1.73,1.65.01.83-.8,1.71-1.61,1.73Z"/>
    <path d="m293.82,323.45c-.79.02-1.75-.82-1.81-1.58-.05-.71.88-1.72,1.64-1.78.71-.06,1.75.88,1.77,1.62.03.84-.78,1.72-1.6,1.75Z"/>
    <path d="m311.68,326.27c.87.18,1.47.67,1.4,1.58-.07.89-.68,1.43-1.59,1.36-.83-.06-1.38-.63-1.34-1.48.04-.89.64-1.37,1.53-1.47Z"/>
    <path d="m323.48,329.25c-.86-.15-1.43-.61-1.39-1.48.04-.9.62-1.48,1.53-1.44.84.04,1.4.6,1.38,1.46-.02.93-.65,1.36-1.51,1.46Z"/>
    <path d="m353.38,296.63c.82.1,1.38.53,1.38,1.41,0,.89-.56,1.33-1.43,1.34-.9.01-1.4-.48-1.37-1.36.03-.85.5-1.36,1.42-1.39Z"/>
  </g>
  <g>
    <path d="m511.47,309.97c0,2.25,1.82,4,4.14,4,2.14,0,4-1.91,3.96-4.06-.04-2.2-1.85-4.01-4.02-4.03-2.21-.01-4.09,1.87-4.08,4.1Z"/>
    <path d="m521.64,307.78c2.14-.01,3.88-1.77,3.82-3.87-.05-2.14-1.87-3.95-3.98-3.95-2.13,0-3.93,1.74-3.93,3.82,0,2.36,1.69,4.02,4.08,4.01Z"/>
    <path d="m509.61,307.77c2.3-.02,3.79-1.59,3.77-3.98-.01-2.16-1.74-3.84-3.89-3.81-2.07.03-3.97,1.97-3.95,4.01.02,2.18,1.76,3.8,4.07,3.78Z"/>
    <path d="m527.42,313.72c2.21.02,3.83-1.58,3.84-3.8.01-2.11-1.64-3.78-3.74-3.8-2.17-.02-3.89,1.65-3.91,3.79-.02,2.24,1.53,3.8,3.82,3.82Z"/>
    <path d="m517.93,315.85c0,1.9,1.64,3.54,3.55,3.55,1.85,0,3.56-1.72,3.54-3.58-.02-2-1.52-3.48-3.56-3.49-1.96,0-3.53,1.55-3.53,3.53Z"/>
    <path d="m500.06,309.86c-.02,1.86,1.7,3.56,3.58,3.54,1.78-.02,3.45-1.76,3.44-3.56-.01-1.85-1.64-3.45-3.5-3.45-1.8,0-3.5,1.68-3.52,3.48Z"/>
    <path d="m533.38,307.36c1.81,0,3.4-1.58,3.41-3.39,0-1.86-1.63-3.49-3.48-3.48-1.64.01-3.4,1.83-3.39,3.51,0,1.75,1.67,3.36,3.47,3.36Z"/>
    <path d="m512.22,298.15c-.01,1.84,1.43,3.19,3.39,3.18,1.86,0,3.21-1.35,3.23-3.2.02-1.85-1.44-3.38-3.24-3.39-1.83-.02-3.37,1.53-3.38,3.42Z"/>
    <path d="m530.11,315.86c0,1.78,1.53,3.3,3.35,3.3,1.8,0,3.23-1.42,3.25-3.22.02-1.83-1.45-3.34-3.27-3.36-1.85-.01-3.32,1.44-3.33,3.28Z"/>
    <path d="m506.26,315.92c.02,1.73,1.63,3.26,3.41,3.23,1.83-.03,3.23-1.51,3.19-3.38-.04-1.71-1.57-3.18-3.31-3.18-1.76,0-3.31,1.57-3.29,3.34Z"/>
    <path d="m536.08,309.98c0,1.73,1.46,3.19,3.24,3.23,1.84.04,3.32-1.39,3.35-3.23.03-1.81-1.49-3.36-3.26-3.34-1.73.02-3.32,1.62-3.33,3.34Z"/>
    <path d="m524.39,298.05c-.02,1.72,1.29,3,3.08,3.02,1.67.02,3.01-1.34,3.04-3.09.03-1.66-1.28-3-2.95-3.02-1.77-.02-3.16,1.33-3.18,3.09Z"/>
    <path d="m497.61,301.13c-1.56,0-2.87,1.28-2.88,2.79,0,1.65,1.23,2.9,2.87,2.91,1.63.01,2.91-1.24,2.91-2.87,0-1.68-1.19-2.84-2.91-2.83Z"/>
    <path d="m500.78,298.04c0,1.57,1.27,2.79,2.86,2.78,1.51-.02,2.74-1.24,2.76-2.75.02-1.65-1.24-2.89-2.91-2.84-1.47.04-2.72,1.34-2.71,2.82Z"/>
    <path d="m542.55,304.07c.05,1.49,1.35,2.7,2.85,2.68,1.48-.02,2.74-1.32,2.72-2.81-.02-1.54-1.36-2.81-2.91-2.75-1.44.05-2.71,1.43-2.66,2.88Z"/>
    <path d="m547.97,315.89c0-1.51-1.16-2.71-2.64-2.72-1.36,0-2.75,1.36-2.74,2.7,0,1.42,1.31,2.73,2.7,2.71,1.49-.02,2.67-1.21,2.68-2.69Z"/>
    <path d="m524.88,321.86c0,1.47,1.12,2.53,2.64,2.52,1.47,0,2.54-1.14,2.51-2.64-.03-1.39-1.16-2.49-2.56-2.49-1.44,0-2.59,1.16-2.58,2.61Z"/>
    <path d="m536.84,298.02c-.03,1.35,1.11,2.49,2.52,2.53,1.28.04,2.52-1.19,2.55-2.53.03-1.26-1.13-2.49-2.4-2.54-1.38-.06-2.64,1.13-2.67,2.53Z"/>
    <path d="m513.05,321.86c.02,1.32,1.28,2.51,2.61,2.47,1.28-.04,2.4-1.23,2.39-2.54,0-1.27-1.21-2.5-2.45-2.49-1.3.01-2.57,1.29-2.55,2.56Z"/>
    <path d="m548.84,309.89c-.03,1.31,1.18,2.51,2.54,2.51,1.22,0,2.41-1.23,2.43-2.5.02-1.16-1.16-2.39-2.34-2.46-1.26-.07-2.59,1.17-2.62,2.45Z"/>
    <path d="m539.41,324.13c1.35.02,2.34-.96,2.34-2.32,0-1.3-1.04-2.35-2.34-2.36-1.23-.01-2.34,1.11-2.35,2.37,0,1.34.96,2.3,2.34,2.31Z"/>
    <path d="m499.71,315.74c-.04-1.18-.87-1.95-2.09-1.94-1.22.01-2.06.89-2.05,2.13.01,1.19.94,2.04,2.17,2.01,1.21-.04,2.01-.93,1.97-2.2Z"/>
    <path d="m519.42,292.1c.01,1.19.95,2.07,2.16,2.04,1.14-.04,1.97-.92,1.97-2.1,0-1.16-.85-2.01-2.03-2.03-1.21-.02-2.11.88-2.1,2.09Z"/>
    <path d="m507.53,292.04c-.03,1.07.97,2.06,2.06,2.06,1.02,0,1.98-.96,2.01-1.98.03-1.07-.95-2.04-2.07-2.06-1-.02-1.98.95-2,1.98Z"/>
    <path d="m491.78,311.92c.95-.04,1.99-1.17,1.91-2.09-.08-.97-1.16-1.95-2.11-1.92-.93.03-1.95,1.16-1.91,2.1.04.94,1.15,1.94,2.11,1.9Z"/>
    <path d="m533.51,293.99c.93-.02,1.9-1.05,1.87-1.97-.03-.94-1.16-1.96-2.1-1.9-.86.06-1.8,1.06-1.79,1.92.01,1.03.99,1.97,2.02,1.95Z"/>
    <path d="m555.48,315.85c0,.94.9,1.84,1.82,1.81.82-.03,1.8-.95,1.83-1.73.04-.86-1.06-1.93-1.94-1.9-.81.03-1.72.99-1.72,1.81Z"/>
    <path d="m501.84,321.7c-.03.89.81,1.82,1.67,1.86.84.03,1.83-.84,1.89-1.66.05-.83-.95-1.86-1.83-1.87-.77,0-1.7.89-1.73,1.67Z"/>
    <path d="m555.55,304.1c.1.91,1.06,1.74,1.89,1.55.93-.2,1.56-.79,1.58-1.78.02-.79-1.1-1.73-1.86-1.67-.83.07-1.7,1.09-1.61,1.9Z"/>
    <path d="m551.23,299.67c.85.03,1.83-.89,1.82-1.68-.01-.71-.99-1.68-1.71-1.7-.71-.02-1.72.94-1.73,1.65-.01.83.8,1.71,1.61,1.73Z"/>
    <path d="m551.23,323.45c.79.02,1.75-.82,1.81-1.58.05-.71-.88-1.72-1.64-1.78-.71-.06-1.75.88-1.77,1.62-.03.84.78,1.72,1.6,1.75Z"/>
    <path d="m533.37,326.27c-.87.18-1.47.67-1.4,1.58.07.89.68,1.43,1.59,1.36.83-.06,1.38-.63,1.34-1.48-.04-.89-.64-1.37-1.53-1.47Z"/>
    <path d="m521.56,329.25c.86-.15,1.43-.61,1.39-1.48-.04-.9-.62-1.48-1.53-1.44-.84.04-1.4.6-1.38,1.46.02.93.65,1.36,1.51,1.46Z"/>
    <path d="m491.67,296.63c-.82.1-1.38.53-1.38,1.41,0,.89.56,1.33,1.43,1.34.9.01,1.4-.48,1.37-1.36-.03-.85-.5-1.36-1.42-1.39Z"/>
  </g>
</svg>