<?xml version="1.0" encoding="UTF-8"?>
<svg id="Layer_11" data-name="Layer 11" xmlns="http://www.w3.org/2000/svg" width="297mm" height="210.01mm" viewBox="0 0 841.9 595.3">
  <path d="m434.48,371.28l11.03-12.3c7.19-8.02,1.5-20.78-9.28-20.78h-22.06c-10.78,0-16.47,12.75-9.28,20.78l11.03,12.3c4.95,5.53,13.61,5.53,18.56,0Z"/>
  <path d="m527.05,239.87c-5.98,0-11.58,1.6-16.41,4.39,1.31,1.78,2.1,3.98,2.1,6.36,0,5.94-4.82,10.75-10.75,10.75-1.91,0-3.71-.51-5.26-1.38-1.66,3.93-2.57,8.25-2.57,12.78,0,9.16,3.75,17.45,9.8,23.42,5.14-.75,10.51-1.16,16.04-1.16,9.8,0,19.11,1.26,27.52,3.51,7.59-6.03,12.46-15.33,12.46-25.77,0-18.17-14.73-32.91-32.91-32.91Z"/>
  <g>
    <path d="m514.1,317.97c-.07,2.25,1.68,4.06,3.99,4.14,2.14.08,4.07-1.77,4.11-3.92.04-2.2-1.71-4.08-3.87-4.17-2.21-.09-4.16,1.72-4.23,3.95Z"/>
    <path d="m524.33,316.15c2.14.07,3.94-1.63,3.96-3.73.02-2.15-1.72-4.01-3.83-4.09-2.13-.08-3.99,1.6-4.07,3.67-.09,2.36,1.54,4.08,3.93,4.15Z"/>
    <path d="m512.31,315.7c2.3.06,3.85-1.46,3.91-3.84.06-2.16-1.6-3.91-3.75-3.95-2.07-.04-4.04,1.82-4.09,3.87-.06,2.18,1.62,3.86,3.93,3.92Z"/>
    <path d="m529.9,322.3c2.21.1,3.88-1.44,3.97-3.66.09-2.11-1.5-3.84-3.6-3.93-2.16-.1-3.95,1.51-4.05,3.64-.1,2.24,1.4,3.85,3.68,3.95Z"/>
    <path d="m520.34,324.08c-.07,1.89,1.51,3.6,3.42,3.67,1.85.07,3.62-1.59,3.67-3.45.06-2-1.4-3.53-3.43-3.61-1.96-.08-3.58,1.42-3.66,3.4Z"/>
    <path d="m502.7,317.45c-.09,1.86,1.57,3.62,3.45,3.67,1.78.04,3.51-1.63,3.56-3.44.05-1.85-1.52-3.51-3.37-3.58-1.8-.07-3.56,1.55-3.64,3.35Z"/>
    <path d="m536.09,316.16c1.81.07,3.46-1.46,3.53-3.26.08-1.86-1.5-3.55-3.36-3.6-1.64-.05-3.46,1.71-3.52,3.38-.06,1.75,1.55,3.42,3.34,3.48Z"/>
    <path d="m515.27,306.19c-.08,1.84,1.31,3.24,3.27,3.3,1.86.06,3.26-1.24,3.34-3.08.08-1.85-1.32-3.42-3.12-3.51-1.83-.08-3.42,1.41-3.5,3.29Z"/>
    <path d="m532.51,324.53c-.07,1.78,1.41,3.35,3.23,3.42,1.79.06,3.28-1.3,3.37-3.1.09-1.82-1.33-3.4-3.15-3.47-1.85-.08-3.37,1.32-3.45,3.16Z"/>
    <path d="m508.68,323.73c-.04,1.73,1.52,3.32,3.29,3.35,1.83.03,3.28-1.39,3.31-3.27.03-1.71-1.45-3.23-3.19-3.3-1.76-.07-3.37,1.45-3.41,3.22Z"/>
    <path d="m538.69,318.87c-.07,1.73,1.34,3.24,3.13,3.34,1.84.11,3.37-1.27,3.46-3.11.09-1.81-1.37-3.42-3.14-3.45-1.73-.04-3.38,1.5-3.45,3.22Z"/>
    <path d="m527.44,306.53c-.08,1.72,1.18,3.05,2.97,3.13,1.67.08,3.06-1.23,3.15-2.98.09-1.65-1.18-3.05-2.83-3.13-1.77-.09-3.21,1.21-3.29,2.97Z"/>
    <path d="m500.56,308.64c-1.56-.05-2.92,1.18-2.97,2.68-.06,1.65,1.12,2.94,2.77,3.01,1.63.07,2.95-1.14,3.01-2.76.06-1.68-1.09-2.88-2.8-2.93Z"/>
    <path d="m503.85,305.66c-.05,1.57,1.16,2.84,2.76,2.88,1.51.04,2.78-1.14,2.86-2.65.08-1.65-1.14-2.93-2.8-2.95-1.47-.01-2.77,1.24-2.81,2.72Z"/>
    <path d="m545.37,313.2c0,1.49,1.25,2.75,2.75,2.78,1.48.03,2.78-1.22,2.82-2.71.04-1.54-1.25-2.85-2.81-2.85-1.44,0-2.76,1.33-2.76,2.79Z"/>
    <path d="m550.36,325.21c.06-1.51-1.06-2.75-2.54-2.82-1.36-.06-2.8,1.26-2.84,2.6-.05,1.42,1.21,2.77,2.6,2.81,1.49.04,2.72-1.11,2.78-2.59Z"/>
    <path d="m527.07,330.33c-.05,1.47,1.03,2.57,2.54,2.62,1.47.04,2.58-1.05,2.6-2.55.02-1.39-1.07-2.53-2.47-2.58-1.44-.05-2.63,1.06-2.67,2.51Z"/>
    <path d="m539.88,306.94c-.08,1.34,1.02,2.53,2.42,2.62,1.28.08,2.56-1.1,2.64-2.43.07-1.26-1.04-2.52-2.3-2.62-1.38-.11-2.67,1.04-2.76,2.43Z"/>
    <path d="m515.25,329.91c-.02,1.32,1.19,2.56,2.52,2.57,1.28,0,2.44-1.14,2.48-2.45.04-1.27-1.12-2.55-2.36-2.58-1.3-.04-2.62,1.19-2.64,2.47Z"/>
    <path d="m551.45,319.24c-.08,1.31,1.09,2.55,2.45,2.6,1.22.05,2.45-1.14,2.52-2.42.06-1.16-1.07-2.43-2.25-2.54-1.26-.12-2.63,1.08-2.71,2.36Z"/>
    <path d="m541.51,333.13c1.35.06,2.37-.88,2.43-2.23.05-1.3-.95-2.39-2.25-2.45-1.23-.06-2.38,1.02-2.43,2.28-.05,1.34.88,2.33,2.26,2.4Z"/>
    <path d="m502.13,323.31c0-1.18-.8-1.98-2.02-2.01-1.22-.03-2.1.81-2.12,2.06-.03,1.19.86,2.08,2.1,2.09,1.21,0,2.04-.86,2.05-2.13Z"/>
    <path d="m522.69,300.4c-.03,1.19.88,2.11,2.09,2.11,1.14,0,2.01-.85,2.05-2.03.04-1.16-.78-2.04-1.96-2.1-1.21-.06-2.14.8-2.18,2.01Z"/>
    <path d="m510.81,299.91c-.06,1.07.89,2.1,1.98,2.13,1.02.03,2.02-.88,2.08-1.91.07-1.06-.87-2.07-1.99-2.13-1-.05-2.01.87-2.07,1.91Z"/>
    <path d="m494.35,319.21c.95,0,2.03-1.1,1.99-2.02-.04-.97-1.09-1.99-2.04-1.99-.93,0-1.99,1.09-1.99,2.03,0,.94,1.08,1.98,2.04,1.98Z"/>
    <path d="m536.7,302.8c.93.01,1.94-.98,1.94-1.9,0-.94-1.09-2-2.03-1.98-.86.02-1.84,1-1.86,1.86-.03,1.03.91,2.01,1.95,2.02Z"/>
    <path d="m557.86,325.43c-.04.94.84,1.87,1.75,1.87.82,0,1.83-.88,1.9-1.66.07-.86-.99-1.97-1.87-1.97-.81,0-1.75.93-1.78,1.75Z"/>
    <path d="m504.05,329.35c-.07.89.74,1.85,1.6,1.92.84.06,1.86-.78,1.95-1.6.08-.83-.89-1.9-1.76-1.93-.77-.03-1.73.83-1.79,1.61Z"/>
    <path d="m558.36,313.7c.07.91,1,1.77,1.83,1.62.93-.17,1.58-.73,1.64-1.72.05-.78-1.04-1.77-1.8-1.73-.84.04-1.74,1.03-1.68,1.84Z"/>
    <path d="m554.2,309.11c.84.06,1.87-.82,1.88-1.61.01-.71-.92-1.72-1.64-1.77-.71-.05-1.75.88-1.79,1.59-.04.83.74,1.73,1.55,1.79Z"/>
    <path d="m553.34,332.88c.79.05,1.78-.76,1.87-1.52.08-.7-.81-1.75-1.57-1.84-.71-.08-1.78.82-1.83,1.55-.06.83.72,1.75,1.54,1.8Z"/>
    <path d="m535.39,335.06c-.88.15-1.49.62-1.46,1.53.04.89.63,1.46,1.53,1.42.83-.03,1.41-.58,1.39-1.43-.01-.89-.59-1.39-1.47-1.53Z"/>
    <path d="m523.49,337.6c.86-.12,1.45-.56,1.45-1.43,0-.9-.56-1.5-1.48-1.5-.84,0-1.42.54-1.43,1.41-.01.93.6,1.39,1.46,1.52Z"/>
    <path d="m494.79,303.92c-.83.07-1.4.48-1.43,1.36-.03.89.52,1.35,1.38,1.39.9.05,1.42-.43,1.42-1.31,0-.85-.45-1.38-1.37-1.44Z"/>
  </g>
  <path d="m323.34,239.87c-6.13,0-11.87,1.68-16.79,4.6,1.22,1.74,1.94,3.86,1.94,6.15,0,5.94-4.82,10.75-10.75,10.75-1.74,0-3.37-.42-4.82-1.15-1.6,3.87-2.48,8.1-2.48,12.55,0,10.44,4.87,19.74,12.46,25.77,8.41-2.25,17.72-3.51,27.52-3.51,5.53,0,10.89.41,16.04,1.16,6.05-5.97,9.8-14.25,9.8-23.42,0-18.17-14.73-32.91-32.91-32.91Z"/>
  <g>
    <path d="m336.3,317.97c.07,2.25-1.68,4.06-3.99,4.14-2.14.08-4.07-1.77-4.11-3.92-.04-2.2,1.71-4.08,3.87-4.17,2.21-.09,4.16,1.72,4.23,3.95Z"/>
    <path d="m326.06,316.15c-2.14.07-3.94-1.63-3.96-3.73-.02-2.15,1.72-4.01,3.83-4.09,2.13-.08,3.99,1.6,4.07,3.67.09,2.36-1.54,4.08-3.93,4.15Z"/>
    <path d="m338.08,315.7c-2.3.06-3.85-1.46-3.91-3.84-.06-2.16,1.6-3.91,3.75-3.95,2.07-.04,4.04,1.82,4.09,3.87.06,2.18-1.62,3.86-3.93,3.92Z"/>
    <path d="m320.5,322.3c-2.21.1-3.88-1.44-3.97-3.66-.09-2.11,1.5-3.84,3.6-3.93,2.16-.1,3.95,1.51,4.05,3.64.1,2.24-1.4,3.85-3.68,3.95Z"/>
    <path d="m330.05,324.08c.07,1.89-1.51,3.6-3.42,3.67-1.85.07-3.62-1.59-3.67-3.45-.06-2,1.4-3.53,3.43-3.61,1.96-.08,3.58,1.42,3.66,3.4Z"/>
    <path d="m347.7,317.45c.09,1.86-1.57,3.62-3.45,3.67-1.78.04-3.51-1.63-3.56-3.44-.05-1.85,1.52-3.51,3.37-3.58,1.8-.07,3.56,1.55,3.64,3.35Z"/>
    <path d="m314.31,316.16c-1.81.07-3.46-1.46-3.53-3.26-.08-1.86,1.5-3.55,3.36-3.6,1.64-.05,3.46,1.71,3.52,3.38.06,1.75-1.55,3.42-3.34,3.48Z"/>
    <path d="m335.12,306.19c.08,1.84-1.31,3.24-3.27,3.3-1.86.06-3.26-1.24-3.34-3.08-.08-1.85,1.32-3.42,3.12-3.51,1.83-.08,3.42,1.41,3.5,3.29Z"/>
    <path d="m317.88,324.53c.07,1.78-1.41,3.35-3.23,3.42-1.79.06-3.28-1.3-3.37-3.1-.09-1.82,1.33-3.4,3.15-3.47,1.85-.08,3.37,1.32,3.45,3.16Z"/>
    <path d="m341.72,323.73c.04,1.73-1.52,3.32-3.29,3.35-1.83.03-3.28-1.39-3.31-3.27-.03-1.71,1.45-3.23,3.19-3.3,1.76-.07,3.37,1.45,3.41,3.22Z"/>
    <path d="m311.7,318.87c.07,1.73-1.34,3.24-3.13,3.34-1.84.11-3.37-1.27-3.46-3.11-.09-1.81,1.37-3.42,3.14-3.45,1.73-.04,3.38,1.5,3.45,3.22Z"/>
    <path d="m322.96,306.53c.08,1.72-1.18,3.05-2.97,3.13-1.67.08-3.06-1.23-3.15-2.98-.09-1.65,1.18-3.05,2.83-3.13,1.77-.09,3.21,1.21,3.29,2.97Z"/>
    <path d="m349.83,308.64c1.56-.05,2.92,1.18,2.97,2.68.06,1.65-1.12,2.94-2.77,3.01-1.63.07-2.95-1.14-3.01-2.76-.06-1.68,1.09-2.88,2.8-2.93Z"/>
    <path d="m346.54,305.66c.05,1.57-1.16,2.84-2.76,2.88-1.51.04-2.78-1.14-2.86-2.65-.08-1.65,1.14-2.93,2.8-2.95,1.47-.01,2.77,1.24,2.81,2.72Z"/>
    <path d="m305.03,313.2c0,1.49-1.25,2.75-2.75,2.78-1.48.03-2.78-1.22-2.82-2.71-.04-1.54,1.25-2.85,2.81-2.85,1.44,0,2.76,1.33,2.76,2.79Z"/>
    <path d="m300.04,325.21c-.06-1.51,1.06-2.75,2.54-2.82,1.36-.06,2.8,1.26,2.84,2.6.05,1.42-1.21,2.77-2.6,2.81-1.49.04-2.72-1.11-2.78-2.59Z"/>
    <path d="m323.32,330.33c.05,1.47-1.03,2.57-2.54,2.62-1.47.04-2.58-1.05-2.6-2.55-.02-1.39,1.07-2.53,2.47-2.58,1.44-.05,2.63,1.06,2.67,2.51Z"/>
    <path d="m310.51,306.94c.08,1.34-1.02,2.53-2.42,2.62-1.28.08-2.56-1.1-2.64-2.43-.07-1.26,1.04-2.52,2.3-2.62,1.38-.11,2.67,1.04,2.76,2.43Z"/>
    <path d="m335.15,329.91c.02,1.32-1.19,2.56-2.52,2.57-1.28,0-2.44-1.14-2.48-2.45-.04-1.27,1.12-2.55,2.36-2.58,1.3-.04,2.62,1.19,2.64,2.47Z"/>
    <path d="m298.95,319.24c.08,1.31-1.09,2.55-2.45,2.6-1.22.05-2.45-1.14-2.52-2.42-.06-1.16,1.07-2.43,2.25-2.54,1.26-.12,2.63,1.08,2.71,2.36Z"/>
    <path d="m308.89,333.13c-1.35.06-2.37-.88-2.43-2.23-.05-1.3.95-2.39,2.25-2.45,1.23-.06,2.38,1.02,2.43,2.28.05,1.34-.88,2.33-2.26,2.4Z"/>
    <path d="m348.26,323.31c0-1.18.8-1.98,2.02-2.01,1.22-.03,2.1.81,2.12,2.06.03,1.19-.86,2.08-2.1,2.09-1.21,0-2.04-.86-2.05-2.13Z"/>
    <path d="m327.7,300.4c.03,1.19-.88,2.11-2.09,2.11-1.14,0-2.01-.85-2.05-2.03-.04-1.16.78-2.04,1.96-2.1,1.21-.06,2.14.8,2.18,2.01Z"/>
    <path d="m339.59,299.91c.06,1.07-.89,2.1-1.98,2.13-1.02.03-2.02-.88-2.08-1.91-.07-1.06.87-2.07,1.99-2.13,1-.05,2.01.87,2.07,1.91Z"/>
    <path d="m356.05,319.21c-.95,0-2.03-1.1-1.99-2.02.04-.97,1.09-1.99,2.04-1.99.93,0,1.99,1.09,1.99,2.03,0,.94-1.08,1.98-2.04,1.98Z"/>
    <path d="m313.7,302.8c-.93.01-1.94-.98-1.94-1.9,0-.94,1.09-2,2.03-1.98.86.02,1.84,1,1.86,1.86.03,1.03-.91,2.01-1.95,2.02Z"/>
    <path d="m292.53,325.43c.04.94-.84,1.87-1.75,1.87-.82,0-1.83-.88-1.9-1.66-.07-.86.99-1.97,1.87-1.97.81,0,1.75.93,1.78,1.75Z"/>
    <path d="m346.34,329.35c.07.89-.74,1.85-1.6,1.92-.84.06-1.86-.78-1.95-1.6-.08-.83.89-1.9,1.76-1.93.77-.03,1.73.83,1.79,1.61Z"/>
    <path d="m292.04,313.7c-.07.91-1,1.77-1.83,1.62-.93-.17-1.58-.73-1.64-1.72-.05-.78,1.04-1.77,1.8-1.73.84.04,1.74,1.03,1.68,1.84Z"/>
    <path d="m296.19,309.11c-.84.06-1.87-.82-1.88-1.61-.01-.71.92-1.72,1.64-1.77.71-.05,1.75.88,1.79,1.59.04.83-.74,1.73-1.55,1.79Z"/>
    <path d="m297.05,332.88c-.79.05-1.78-.76-1.87-1.52-.08-.7.81-1.75,1.57-1.84.71-.08,1.78.82,1.83,1.55.06.83-.72,1.75-1.54,1.8Z"/>
    <path d="m315.01,335.06c.88.15,1.49.62,1.46,1.53-.04.89-.63,1.46-1.53,1.42-.83-.03-1.41-.58-1.39-1.43.01-.89.59-1.39,1.47-1.53Z"/>
    <path d="m326.91,337.6c-.86-.12-1.45-.56-1.45-1.43,0-.9.56-1.5,1.48-1.5.84,0,1.42.54,1.43,1.41.01.93-.6,1.39-1.46,1.52Z"/>
    <path d="m355.6,303.92c.83.07,1.4.48,1.43,1.36.03.89-.52,1.35-1.38,1.39-.9.05-1.42-.43-1.42-1.31,0-.85.45-1.38,1.37-1.44Z"/>
  </g>
  <g>
    <path d="m192.71,113.97c-1.08,1.68-4.14,5.85-10.21,20.01s-7.62,25.36-8.03,27.62-.28,6.35,3.83,4.32,12.67-8.42,29.73-12.72c17.07-4.3,30.39-5.36,33.64-5.54s2.88-4.27.83-6.49-6.1-7.56-21.27-16.92-22.26-11.34-23.94-11.78-3.49-.17-4.57,1.5Z"/>
    <path d="m657.69,113.97c1.08,1.68,4.14,5.85,10.21,20.01,6.07,14.16,7.62,25.36,8.03,27.62s.28,6.35-3.83,4.32-12.67-8.42-29.73-12.72-30.39-5.36-33.64-5.54-2.88-4.27-.83-6.49,6.1-7.56,21.27-16.92c15.17-9.36,22.26-11.34,23.94-11.78s3.49-.17,4.57,1.5Z"/>
  </g>
</svg>