<?xml version="1.0" standalone="no"?>
 <!DOCTYPE svg PUBLIC "-//W3C//DTD SVG 1.1//EN" 
 "http://www.w3.org/Graphics/SVG/1.1/DTD/svg11.dtd"> 
<svg
  xmlns:svg="http://www.w3.org/2000/svg"
  xmlns="http://www.w3.org/2000/svg"
  xmlns:xlink="http://www.w3.org/1999/xlink"
  version="1.1"
  width="297.0022mm" height="210.0072mm" viewBox="0.0000 0.0000 297.0022 210.0072">
<title>SVG Image created as UWU_KATZE_KOPF_CFX-Edge_Cuts.svg date 2023/04/15 00:30:58 </title>
  <desc>Image generated by PCBNEW </desc>
<g style="fill:#000000; fill-opacity:1.0000;stroke:#000000; stroke-opacity:1.0000;
stroke-linecap:round; stroke-linejoin:round;"
 transform="translate(0 0) scale(1 1)">
</g>
<g style="fill:#000000; fill-opacity:0.0; 
stroke:#000000; stroke-width:0.0000; stroke-opacity:1; 
stroke-linecap:round; stroke-linejoin:round;">
</g>
<g style="fill:#000000; fill-opacity:0.0; 
stroke:#000000; stroke-width:0.1500; stroke-opacity:1; 
stroke-linecap:round; stroke-linejoin:round;">
<circle cx="242.3699" cy="140.9584" r="1.1000" /> 
<path d="M238.4145 142.8401
L242.1894 143.1510
" />
<path d="M217.2596 142.8939
L216.4667 142.9633
" />
<path d="M154.5737 151.4653
L150.0000 151.4653
" />
<path d="M238.4145 142.8401 A125.0001 125.0001 0.0 0 0 217.2596 142.8939" />
<path d="M216.4668 142.9633 A124.9994 124.9994 0.0 0 0 205.6552 144.3866" />
<path d="M94.3448 144.3866 A124.9994 124.9994 0.0 0 0 83.5332 142.9633" />
<path d="M123.7202 149.5663 A124.9998 124.9998 0.0 0 0 145.4263 151.4653" />
<path d="M154.5737 151.4653 A124.9998 124.9998 0.0 0 0 176.2798 149.5663" />
<path d="M200.5129 53.1340
L194.7063 52.7624
" />
<circle cx="57.6301" cy="140.9584" r="1.1000" /> 
<path d="M194.7063 52.7624 A699.9999 699.9999 0.0 0 0 105.2937 52.7624" />
<path d="M200.5129 53.1340 A5.0000 5.0000 0.0 0 0 203.4530 52.4023" />
<path d="M96.5470 52.4023 A5.0000 5.0000 0.0 0 0 99.4871 53.1340" />
<circle cx="231.8618" cy="37.5008" r="1.1000" /> 
<path d="M69.2914 35.6272 A2.2000 2.2000 0.0 0 0 66.1863 36.4859" />
<path d="M64.4162 39.8901
L66.1863 36.4859
" />
<path d="M54.0907 67.0849
L53.1777 70.7173
" />
<path d="M52.7750 130.0111
L55.4893 141.4657
" />
<path d="M55.4893 141.4657 A2.2000 2.2000 0.0 0 0 57.8106 143.1510" />
<path d="M61.5855 142.8401
L57.8106 143.1510
" />
<path d="M82.7404 142.8939
L83.5332 142.9633
" />
<path d="M94.3448 144.3866
L123.7202 149.5663
" />
<path d="M145.4263 151.4653
L150.0000 151.4653
" />
<circle cx="68.1382" cy="37.5008" r="1.1000" /> 
<path d="M64.4162 39.8901 A125.0000 125.0000 0.0 0 0 54.0907 67.0849" />
<path d="M245.9093 67.0849 A125.0000 125.0000 0.0 0 0 235.5838 39.8901" />
<path d="M247.2250 130.0111
L244.5107 141.4657
" />
<path d="M233.8137 36.4859 A2.2000 2.2000 0.0 0 0 230.7086 35.6272" />
<path d="M242.1893 143.1510 A2.2000 2.2000 0.0 0 0 244.5107 141.4657" />
<path d="M205.6552 144.3866
L176.2798 149.5663
" />
<path d="M235.5838 39.8901
L233.8137 36.4859
" />
<path d="M99.4871 53.1340
L105.2937 52.7624
" />
<path d="M96.5470 52.4023
L69.2914 35.6272
" />
<path d="M203.4530 52.4023
L230.7086 35.6272
" />
<path d="M245.9093 67.0849
L246.8223 70.7173
" />
<path d="M247.2250 130.0111 A125.0000 125.0000 0.0 0 0 246.8223 70.7173" />
<path d="M53.1777 70.7173 A125.0000 125.0000 0.0 0 0 52.7750 130.0111" />
<path d="M82.7404 142.8939 A125.0000 125.0000 0.0 0 0 61.5855 142.8401" />
</g>
<g style="fill:#000000; fill-opacity:0.0; 
stroke:#000000; stroke-width:0.1200; stroke-opacity:1; 
stroke-linecap:round; stroke-linejoin:round;">
<path d="M237.5654 127.1027
L237.5131 124.1032
" />
<path d="M237.5131 124.1032
L234.1136 124.1625
" />
<path d="M234.1659 127.1621
L237.5654 127.1027
" />
<path d="M234.1136 124.1625
L234.1659 127.1621
" />
<path d="M217.7960 82.5838
L217.5346 79.5952
" />
<path d="M217.5346 79.5952
L214.1475 79.8915
" />
<path d="M214.4090 82.8801
L217.7960 82.5838
" />
<path d="M214.1475 79.8915
L214.4090 82.8801
" />
<path d="M113.6047 132.8434
L114.1256 129.8890
" />
<path d="M114.1256 129.8890
L110.7773 129.2986
" />
<path d="M110.2564 132.2530
L113.6047 132.8434
" />
<path d="M110.7773 129.2986
L110.2564 132.2530
" />
<path d="M184.9232 104.8864
L184.4023 101.9319
" />
<path d="M184.4023 101.9319
L181.0539 102.5223
" />
<path d="M181.5749 105.4768
L184.9232 104.8864
" />
<path d="M181.0539 102.5223
L181.5749 105.4768
" />
<path d="M179.0164 71.4060
L178.4955 68.4516
" />
<path d="M178.4955 68.4516
L175.1471 69.0420
" />
<path d="M175.6681 71.9964
L179.0164 71.4060
" />
<path d="M175.1471 69.0420
L175.6681 71.9964
" />
<path d="M219.2803 99.5132
L219.0189 96.5246
" />
<path d="M219.0189 96.5246
L215.6318 96.8210
" />
<path d="M215.8933 99.8096
L219.2803 99.5132
" />
<path d="M215.6318 96.8210
L215.8933 99.8096
" />
<path d="M74.9043 49.3255
L76.4043 46.7274
" />
<path d="M76.4043 46.7274
L73.4598 45.0274
" />
<path d="M71.9598 47.6255
L74.9043 49.3255
" />
<path d="M73.4598 45.0274
L71.9598 47.6255
" />
<path d="M236.8344 85.1247
L236.7821 82.1252
" />
<path d="M236.7821 82.1252
L233.3826 82.1845
" />
<path d="M233.4349 85.1840
L236.8344 85.1247
" />
<path d="M233.3826 82.1845
L233.4349 85.1840
" />
<path d="M124.3383 71.9861
L124.8592 69.0316
" />
<path d="M124.8592 69.0316
L121.5109 68.4412
" />
<path d="M120.9899 71.3957
L124.3383 71.9861
" />
<path d="M121.5109 68.4412
L120.9899 71.3957
" />
<path d="M196.6870 63.5158
L196.2694 60.5450
" />
<path d="M196.2694 60.5450
L192.9025 61.0182
" />
<path d="M193.3200 63.9890
L196.6870 63.5158
" />
<path d="M192.9025 61.0182
L193.3200 63.9890
" />
<path d="M181.9654 88.1510
L181.4445 85.1966
" />
<path d="M181.4445 85.1966
L178.0961 85.7870
" />
<path d="M178.6171 88.7414
L181.9654 88.1510
" />
<path d="M178.0961 85.7870
L178.6171 88.7414
" />
<path d="M199.0399 80.3468
L198.6224 77.3760
" />
<path d="M198.6224 77.3760
L195.2555 77.8492
" />
<path d="M195.6730 80.8200
L199.0399 80.3468
" />
<path d="M195.2555 77.8492
L195.6730 80.8200
" />
<path d="M137.4357 95.6224
L137.9566 92.6680
" />
<path d="M137.9566 92.6680
L134.6083 92.0776
" />
<path d="M134.0874 95.0320
L137.4357 95.6224
" />
<path d="M134.6083 92.0776
L134.0874 95.0320
" />
<path d="M104.3238 80.8221
L104.7413 77.8513
" />
<path d="M104.7413 77.8513
L101.3744 77.3781
" />
<path d="M100.9569 80.3489
L104.3238 80.8221
" />
<path d="M101.3744 77.3781
L100.9569 80.3489
" />
<path d="M106.6907 63.9830
L107.1082 61.0122
" />
<path d="M107.1082 61.0122
L103.7413 60.5390
" />
<path d="M103.3238 63.5098
L106.6907 63.9830
" />
<path d="M103.7413 60.5390
L103.3238 63.5098
" />
<path d="M228.0433 47.6256
L226.5433 45.0275
" />
<path d="M226.5433 45.0275
L223.5988 46.7275
" />
<path d="M225.0988 49.3256
L228.0433 47.6256
" />
<path d="M223.5988 46.7275
L225.0988 49.3256
" />
<path d="M189.7544 132.2790
L189.2335 129.3246
" />
<path d="M189.2335 129.3246
L185.8851 129.9150
" />
<path d="M186.4061 132.8694
L189.7544 132.2790
" />
<path d="M185.8851 129.9150
L186.4061 132.8694
" />
<path d="M140.3873 78.8831
L140.9082 75.9286
" />
<path d="M140.9082 75.9286
L137.5599 75.3382
" />
<path d="M137.0389 78.2927
L140.3873 78.8831
" />
<path d="M137.5599 75.3382
L137.0389 78.2927
" />
<path d="M66.5659 85.1796
L66.6182 82.1801
" />
<path d="M66.6182 82.1801
L63.2187 82.1207
" />
<path d="M63.1664 85.1203
L66.5659 85.1796
" />
<path d="M63.2187 82.1207
L63.1664 85.1203
" />
<path d="M134.4753 112.3581
L134.9962 109.4036
" />
<path d="M134.9962 109.4036
L131.6479 108.8132
" />
<path d="M131.1269 111.7677
L134.4753 112.3581
" />
<path d="M131.6479 108.8132
L131.1269 111.7677
" />
<path d="M172.9967 135.2006
L172.4757 132.2462
" />
<path d="M172.4757 132.2462
L169.1274 132.8366
" />
<path d="M169.6483 135.7910
L172.9967 135.2006
" />
<path d="M169.1274 132.8366
L169.6483 135.7910
" />
<path d="M130.3433 135.8051
L130.8642 132.8506
" />
<path d="M130.8642 132.8506
L127.5159 132.2602
" />
<path d="M126.9949 135.2147
L130.3433 135.8051
" />
<path d="M127.5159 132.2602
L126.9949 135.2147
" />
<path d="M237.1382 102.1149
L237.0859 99.1154
" />
<path d="M237.0859 99.1154
L233.6864 99.1747
" />
<path d="M233.7387 102.1743
L237.1382 102.1149
" />
<path d="M233.6864 99.1747
L233.7387 102.1743
" />
<path d="M162.9682 78.2944
L162.4473 75.3399
" />
<path d="M162.4473 75.3399
L159.0989 75.9303
" />
<path d="M159.6199 78.8848
L162.9682 78.2944
" />
<path d="M159.0989 75.9303
L159.6199 78.8848
" />
<path d="M121.3857 88.7244
L121.9066 85.7700
" />
<path d="M121.9066 85.7700
L118.5583 85.1796
" />
<path d="M118.0374 88.1340
L121.3857 88.7244
" />
<path d="M118.5583 85.1796
L118.0374 88.1340
" />
<path d="M65.8326 127.1624
L65.8849 124.1629
" />
<path d="M65.8849 124.1629
L62.4854 124.1036
" />
<path d="M62.4331 127.1031
L65.8326 127.1624
" />
<path d="M62.4854 124.1036
L62.4331 127.1031
" />
<path d="M101.9547 97.6410
L102.3722 94.6702
" />
<path d="M102.3722 94.6702
L99.0053 94.1970
" />
<path d="M98.5878 97.1678
L101.9547 97.6410
" />
<path d="M99.0053 94.1970
L98.5878 97.1678
" />
<path d="M85.5868 82.8805
L85.8483 79.8919
" />
<path d="M85.8483 79.8919
L82.4612 79.5955
" />
<path d="M82.1997 82.5841
L85.5868 82.8805
" />
<path d="M82.4612 79.5955
L82.1997 82.5841
" />
<path d="M236.5384 68.1257
L236.4861 65.1262
" />
<path d="M236.4861 65.1262
L233.0866 65.1855
" />
<path d="M233.1389 68.1851
L236.5384 68.1257
" />
<path d="M233.0866 65.1855
L233.1389 68.1851
" />
<path d="M216.3188 65.6508
L216.0573 62.6623
" />
<path d="M216.0573 62.6623
L212.6703 62.9586
" />
<path d="M212.9318 65.9472
L216.3188 65.6508
" />
<path d="M212.6703 62.9586
L212.9318 65.9472
" />
<path d="M168.8737 111.7786
L168.3527 108.8241
" />
<path d="M168.3527 108.8241
L165.0044 109.4146
" />
<path d="M165.5253 112.3690
L168.8737 111.7786
" />
<path d="M165.0044 109.4146
L165.5253 112.3690
" />
<path d="M66.2699 102.1836
L66.3222 99.1841
" />
<path d="M66.3222 99.1841
L62.9228 99.1247
" />
<path d="M62.8704 102.1243
L66.2699 102.1836
" />
<path d="M62.9228 99.1247
L62.8704 102.1243
" />
<path d="M201.3970 97.1858
L200.9794 94.2150
" />
<path d="M200.9794 94.2150
L197.6125 94.6882
" />
<path d="M198.0300 97.6590
L201.3970 97.1858
" />
<path d="M197.6125 94.6882
L198.0300 97.6590
" />
<path d="M165.9142 95.0094
L165.3933 92.0549
" />
<path d="M165.3933 92.0549
L162.0449 92.6453
" />
<path d="M162.5659 95.5998
L165.9142 95.0094
" />
<path d="M162.0449 92.6453
L162.5659 95.5998
" />
<path d="M84.1014 99.8183
L84.3629 96.8297
" />
<path d="M84.3629 96.8297
L80.9758 96.5333
" />
<path d="M80.7143 99.5219
L84.1014 99.8183
" />
<path d="M80.9758 96.5333
L80.7143 99.5219
" />
<path d="M66.8609 68.1846
L66.9132 65.1851
" />
<path d="M66.9132 65.1851
L63.5137 65.1257
" />
<path d="M63.4614 68.1253
L66.8609 68.1846
" />
<path d="M63.5137 65.1257
L63.4614 68.1253
" />
<path d="M83.6044 128.2053
L83.8659 125.2167
" />
<path d="M83.8659 125.2167
L80.4788 124.9203
" />
<path d="M80.2173 127.9089
L83.6044 128.2053
" />
<path d="M80.4788 124.9203
L80.2173 127.9089
" />
<path d="M219.7840 127.9153
L219.5225 124.9267
" />
<path d="M219.5225 124.9267
L216.1354 125.2230
" />
<path d="M216.3969 128.2116
L219.7840 127.9153
" />
<path d="M216.1354 125.2230
L216.3969 128.2116
" />
<path d="M87.0654 65.9483
L87.3269 62.9597
" />
<path d="M87.3269 62.9597
L83.9398 62.6633
" />
<path d="M83.6783 65.6519
L87.0654 65.9483
" />
<path d="M83.9398 62.6633
L83.6783 65.6519
" />
<path d="M118.4387 105.4634
L118.9596 102.5090
" />
<path d="M118.9596 102.5090
L115.6113 101.9186
" />
<path d="M115.0904 104.8730
L118.4387 105.4634
" />
<path d="M115.6113 101.9186
L115.0904 104.8730
" />
<g >
</g>
<g >
</g>
<g >
</g>
<g >
</g>
<g >
</g>
<g >
</g>
<g >
</g>
<g >
</g>
<g >
</g>
<g >
</g>
<g >
</g>
<g >
</g>
<g >
</g>
<g >
</g>
<g >
</g>
<g >
</g>
<g >
</g>
<g >
</g>
<g >
</g>
<g >
</g>
<g >
</g>
<g >
</g>
<g >
</g>
<g >
</g>
<g >
</g>
<g >
</g>
<g >
</g>
<g >
</g>
<g >
</g>
<g >
</g>
<g >
</g>
<g >
</g>
<g >
</g>
<g >
</g>
<g >
</g>
<g >
</g>
<g >
</g>
<g >
</g>
<g >
</g>
<g >
</g>
<g >
</g>
<g >
</g>
<g >
</g>
<g >
</g>
<g >
</g>
<g >
</g>
<g >
</g>
<g >
</g>
<g >
</g>
<g >
</g>
<g >
</g>
<g >
</g>
<g >
</g>
<g >
</g>
<g >
</g>
<g >
</g>
<g >
</g>
<g >
</g>
<g >
</g>
<g >
</g>
<g >
</g>
<g >
</g>
<g >
</g>
<g >
</g>
<g >
</g>
<g >
</g>
<g >
</g>
<g >
</g>
<g >
</g>
<g >
</g>
<g >
</g>
<g >
</g>
<g >
</g>
<g >
</g>
<g >
</g>
<g >
</g>
<g >
</g>
<g >
</g>
<g >
</g>
<g >
</g>
<g >
</g>
<g >
</g>
<g >
</g>
<g >
</g>
<g >
</g>
<g >
</g>
<g >
</g>
<g >
</g>
<g >
</g>
<g >
</g>
<g >
</g>
<g >
</g>
<g >
</g>
<g >
</g>
<g >
</g>
<g >
</g>
<g >
</g>
<g >
</g>
<g >
</g>
<g >
</g>
<g >
</g>
<g >
</g>
<g >
</g>
<g >
</g>
<g >
</g>
<g >
</g>
<g >
</g>
<g >
</g>
<g >
</g>
<g >
</g>
<g >
</g>
<g >
</g>
<g >
</g>
<g >
</g>
<g >
</g>
<g >
</g>
<g >
</g>
<g >
</g>
<g >
</g>
<g >
</g>
<g >
</g>
<g >
</g>
<g >
</g>
<g >
</g>
<g >
</g>
<g >
</g>
<g >
</g>
<g >
</g>
<g >
</g>
<g >
</g>
<g >
</g>
</g> 
</svg>
