<?xml version="1.0" encoding="UTF-8"?>
<svg id="Layer_9" data-name="Layer 9" xmlns="http://www.w3.org/2000/svg" width="297mm" height="210.01mm" viewBox="0 0 841.9 595.3">
  <path d="m192.71,113.97c-1.08,1.68-4.14,5.85-10.21,20.01s-7.62,25.36-8.03,27.62-.28,6.35,3.83,4.32,12.67-8.42,29.73-12.72,30.39-5.36,33.64-5.54,2.88-4.27.83-6.49-6.1-7.56-21.27-16.92-22.26-11.34-23.94-11.78-3.49-.17-4.57,1.5Z"/>
  <path d="m657.69,113.97c1.08,1.68,4.14,5.85,10.21,20.01,6.07,14.16,7.62,25.36,8.03,27.62s.28,6.35-3.83,4.32-12.67-8.42-29.73-12.72c-17.07-4.3-30.39-5.36-33.64-5.54s-2.88-4.27-.83-6.49,6.1-7.56,21.27-16.92c15.17-9.36,22.26-11.34,23.94-11.78s3.49-.17,4.57,1.5Z"/>
</svg>