<?xml version="1.0" encoding="UTF-8"?>
<svg id="Layer_5_copy" data-name="Layer 5 copy" xmlns="http://www.w3.org/2000/svg" width="297mm" height="210.01mm" viewBox="0 0 841.9 595.3">
  <path d="m434.48,371.4l11.03-12.3c7.19-8.02,1.5-20.78-9.28-20.78h-22.06c-10.78,0-16.47,12.75-9.28,20.78l11.03,12.3c4.95,5.53,13.61,5.53,18.56,0Z"/>
  <path d="m524.78,229.91c-5.98,0-11.58,1.6-16.41,4.39,1.31,1.78,2.1,3.98,2.1,6.36,0,5.94-4.82,10.75-10.75,10.75-1.91,0-3.71-.51-5.26-1.38-1.66,3.93-2.57,8.25-2.57,12.78,0,9.16,3.75,17.45,9.8,23.42,5.14-.75,10.51-1.16,16.04-1.16,9.8,0,19.11,1.26,27.52,3.51,7.59-6.03,12.46-15.33,12.46-25.77,0-18.17-14.73-32.91-32.91-32.91Z"/>
  <path d="m325.62,229.91c-5.98,0-11.58,1.6-16.41,4.39,1.31,1.78,2.1,3.98,2.1,6.36,0,5.94-4.82,10.75-10.75,10.75-1.91,0-3.71-.51-5.26-1.38-1.66,3.93-2.57,8.25-2.57,12.78,0,9.16,3.75,17.45,9.8,23.42,5.14-.75,10.51-1.16,16.04-1.16,9.8,0,19.11,1.26,27.52,3.51,7.59-6.03,12.46-15.33,12.46-25.77,0-18.17-14.73-32.91-32.91-32.91Z"/>
</svg>