<?xml version="1.0" encoding="UTF-8"?>
<svg id="Layer_15" data-name="Layer 15" xmlns="http://www.w3.org/2000/svg" width="297mm" height="210.01mm" viewBox="0 0 841.9 595.3">
  <defs>
    <style>
      .cls-1 {
        fill-rule: evenodd;
        stroke: #000;
        stroke-linecap: round;
        stroke-linejoin: round;
        stroke-width: 0px;
      }
    </style>
  </defs>
  <path class="cls-1" d="m409.62,191.29l-.74.74-.74-.74.74-.74.74.74Z"/>
  <path class="cls-1" d="m414.8,192.03l-.74.74-.74-.74.74-.74.74.74Z"/>
  <path class="cls-1" d="m428.11,175.76l-.74.74-.74-.74.74-.74.74.74Z"/>
  <path class="cls-1" d="m415.54,210.52l-.74.74-.74-.74.74-.74.74.74Z"/>
  <path class="cls-1" d="m424.42,207.56l-1.48,1.48-.74-.74,1.48-1.48.74.74Z"/>
  <path class="cls-1" d="m417.76,189.07l-1.48,1.48-.74-.74,1.48-1.48.74.74Z"/>
  <path class="cls-1" d="m427.37,209.04l.74-.74,1.48,1.48-.74.74.74.74-.74.74-2.96-2.96.74-.74.74.74Z"/>
  <path class="cls-1" d="m411.84,208.3l-.74.74-.74-.74.74-.74.74.74Z"/>
  <path class="cls-1" d="m429.59,171.32l-1.48,1.48-.74-.74,1.48-1.48.74.74Z"/>
  <path class="cls-1" d="m432.55,171.32l-.74.74-.74-.74.74-.74.74.74Z"/>
  <path class="cls-1" d="m423.51,170.46l-.74.74-.74-.74.74-.74.74.74Z"/>
  <path class="cls-1" d="m425.46,166.49l-.74.74-.74-.74.74-.74.74.74Z"/>
  <path class="cls-1" d="m426.63,172.8l-1.48,1.48-.74-.74.74-.74-.74-.74.74-.74,1.48,1.48Z"/>
  <path class="cls-1" d="m425.16,178.72l-.74.74-.74-.74.74-.74.74.74Z"/>
  <path class="cls-1" d="m421.46,185.37l-.74-.74,1.48-1.48.74.74,1.48-1.48,2.22,2.22,1.48-1.48.74.74-.74.74.74.74-.74.74,1.48,1.48-5.18,5.18-.78-.78.77-.77,3.63-3.63-3.63-3.63-3.63,3.63,3.63,3.63-.77.77-4.4-4.4,2.22-2.22Z"/>
  <path class="cls-1" d="m429.59,217.18l-.74.74-.74-.74.74-.74.74.74Z"/>
  <path class="cls-1" d="m415.54,209.04l-.74.74-.74-.74.74-.74.74.74Z"/>
  <path class="cls-1" d="m419.24,175.76l-1.48,1.48-.74-.74,1.48-1.48.74.74Z"/>
  <path class="cls-1" d="m417.02,175.02l-.74.74-.74-.74.74-.74.74.74Z"/>
  <path class="cls-1" d="m438.47,206.82l-1.48,1.48-.74-.74,1.48-1.48.74.74Z"/>
  <path class="cls-1" d="m414.06,209.04l-.74.74-.74-.74.74-.74.74.74Z"/>
  <path class="cls-1" d="m421.46,198.69l-.74.74-.74-.74.74-.74.74.74Z"/>
  <path class="cls-1" d="m417.02,180.94l-.74.74-.74-.74.74-.74.74.74Z"/>
  <path class="cls-1" d="m423.68,220.14l-.74.74-.74-.74.74-.74.74.74Z"/>
  <path class="cls-1" d="m414.8,193.51l-.74.74-.74-.74.74-.74.74.74Z"/>
  <path class="cls-1" d="m431.81,188.33l1.48-1.48.74.74-1.48,1.48-.74-.74-.74.74-.74-.74.74-.74.74.74Z"/>
  <path class="cls-1" d="m415.54,177.98l-.74.74-.74-.74.74-.74.74.74Z"/>
  <path class="cls-1" d="m414.8,190.55l-.74.74-.74-.74.74-.74.74.74Z"/>
  <path class="cls-1" d="m431.07,174.28l-.74.74-.74-.74.74-.74.74.74Z"/>
  <path class="cls-1" d="m427.37,217.92l-1.48,1.48.74.74-.74.74-.74-.74.74-.74-.74-.74,1.48-1.48.74.74Z"/>
  <path class="cls-1" d="m430.33,214.96l-.74.74-.74-.74.74-.74.74.74Z"/>
  <path class="cls-1" d="m443.65,189.81l-.74.74-.74-.74.74-.74.74.74Z"/>
  <path class="cls-1" d="m419.98,198.69l-.74.74-.74-.74h0s-.74-.74-.74-.74l.74-.74,1.48,1.48Z"/>
  <path class="cls-1" d="m431.81,194.25l-.74-.74,1.48-1.48-.74-.74-.74.74-1.48-1.48-2.22,2.22h0s-.74.74-.74.74h0s-.74.74-.74.74l.74.74h0s.74.74.74.74h0s.74.74.74.74h0s.74.74.74.74h0s.74.74.74.74h0s.74.74.74.74h0s.74.74.74.74h0s.74.74.74.74l-.74.74.74.74-.74.74h0s-.74.74-.74.74l.74.74-.74.74.74.74-.74.74.74.74-.74.74-1.48-1.48.74-.74-.74-.74.74-.74h0s.74-.74.74-.74l-.74-.74.74-.74-.74-.74.74-.74-.74-.74-1.48,1.48.74.74-.74.74-.74-.74-1.48,1.48,1.48,1.48-1.48,1.48-1.48-1.48.74-.74-.74-.74,1.48-1.48.74-.74,1.48-1.48-.74-.74.74-.74-.74-.74-2.22,2.22,1.48,1.48-.74.74-.74-.74-1.48,1.48.74.74-.74.74-.74-.74h0s-.74-.74-.74-.74h0s-.74-.74-.74-.74l.74-.74.74.74,2.22-2.22-.74-.74-.74.74-.74-.74,2.22-2.22-.74-.74.74-.74.74-.74h0s0,0,0,0h0s0,0,0,0l-.74.74h0s.74-.74.74-.74l-.74-.74,3.7-3.7.74.74.74-.74.74.74.74-.74.74.74.74-.74.74.74.74-.74.74.74-.74.74.74.74-.74.74,1.48,1.48-.74.74-.74-.74-.74.74-.74-.74.74-.74.74-.74-.74-.74-.74.74.74.74-.74.74-.74-.74-.74.74Z"/>
  <path class="cls-1" d="m429.59,168.36l-1.48,1.48-.74-.74,1.48-1.48.74.74Z"/>
  <path class="cls-1" d="m435.51,177.24l-.74.74-.74-.74.74-.74.74.74Z"/>
  <path class="cls-1" d="m441.43,192.03l-.74.74.74.74-.74.74-.74-.74.74-.74-.74-.74.74-.74.74.74Z"/>
  <path class="cls-1" d="m416.28,187.59l-1.48,1.48-.74-.74,1.48-1.48.74.74Z"/>
  <path class="cls-1" d="m413.32,200.91l-2.22,2.22-2.22-2.22,2.22-2.22,2.22,2.22Z"/>
  <path class="cls-1" d="m436.99,205.35l-2.96,2.96-.74-.74,2.96-2.96.74.74Z"/>
  <path class="cls-1" d="m414.8,205.35h0s-.74.74-.74.74h0s0,0,0,0l.74.74-.74.74-.74-.74-.74.74-.74-.74.74-.74.74.74.74-.74-.74-.74,3.7-3.7.74.74-.74.74.74.74-.74.74.74.74-.74.74.74.74-.74.74,1.48,1.48-.74.74-.74-.74h0s-.74-.74-.74-.74h0s-1.48-1.48-1.48-1.48h0s.74-.74.74-.74l.74-.74-.74-.74,1.48-1.48h0s-1.48,1.48-1.48,1.48h0s-.74.74-.74.74l.74.74-.74.74-.74-.74.74-.74Z"/>
  <path class="cls-1" d="m435.51,209.78l-.74.74-.74-.74.74-.74.74.74Z"/>
  <path class="cls-1" d="m415.54,195.73l-.74.74.74.74.74-.74.74.74-.74.74,1.48,1.48.74-.74.74.74-1.48,1.48-4.44-4.44,1.48-1.48.74.74Z"/>
  <path class="cls-1" d="m416.28,194.99l-.74.74-.74-.74h0s-.74-.74-.74-.74l.74-.74,1.48,1.48Z"/>
  <path class="cls-1" d="m426.63,214.22l-2.22,2.22-2.22-2.22,2.22-2.22,2.22,2.22Z"/>
  <path class="cls-1" d="m437.73,182.42l-.74.74-.74-.74.74-.74.74.74Z"/>
  <path class="cls-1" d="m417.02,182.42l-.74.74.74.74-.74.74-1.48-1.48,1.48-1.48.74.74Z"/>
  <path class="cls-1" d="m425.9,175.02l-1.48,1.48-.74-.74,1.48-1.48.74.74Z"/>
  <path class="cls-1" d="m411.84,186.11l-.74.74-.74-.74.74-.74.74.74Z"/>
  <path class="cls-1" d="m420.72,205.35l-.74.74-.74-.74.74-.74.74.74Z"/>
  <path class="cls-1" d="m423.68,193.51l-.74.74-.74-.74-.74.74-.74-.74,1.48-1.48,1.48,1.48Z"/>
  <path class="cls-1" d="m420.72,200.91l-.74.74,1.48,1.48-1.48,1.48-.74-.74-.74.74-.74-.74,1.48-1.48-.74-.74,1.48-1.48.74.74Z"/>
  <path class="cls-1" d="m437.73,185.37l-.74.74-.74-.74-1.48,1.48-.74-.74,2.22-2.22,1.48,1.48Z"/>
  <path class="cls-1" d="m420.72,217.18l-.74-.74.74-.74-1.48-1.48,5.18-5.18,5.18,5.18-5.18,5.18-.78-.78.77-.77,3.63-3.63-3.63-3.63-3.63,3.63,3.63,3.63-.77.77-2.18-2.18-.74.74Z"/>
  <path class="cls-1" d="m435.51,196.47l-.74.74-.74-.74.74-.74.74.74Z"/>
  <path class="cls-1" d="m420.72,181.68l-1.48,1.48-.74-.74,1.48-1.48.74.74Z"/>
  <path class="cls-1" d="m419.24,186.11l-.74.74-.74-.74.74-.74.74.74Z"/>
  <path class="cls-1" d="m409.62,194.25l-.74.74-.74-.74.74-.74.74.74Z"/>
  <path class="cls-1" d="m436.99,187.59l-1.48,1.48-.74-.74,1.48-1.48.74.74Z"/>
  <path class="cls-1" d="m431.07,175.76l-1.48,1.48-.74-.74,1.48-1.48.74.74Z"/>
  <path class="cls-1" d="m428.85,197.21l-.74-.74.74-.74-.74-.74-.74.74-.74-.74.74-.74-.74-.74.74-.74.74.74,1.48-1.48.74.74-1.48,1.48.74.74.74-.74.74.74-.74.74.74.74.74-.74-.74-.74.74-.74,1.48,1.48-.74.74,1.48,1.48.74-.74.74.74,2.22-2.22-1.48-1.48.74-.74,2.22,2.22.74-.74.74.74-.74.74h0s-.74.74-.74.74l1.48,1.48,1.48-1.48.74.74-.74.74.74.74-.74.74.74.74-.74.74.74.74-.74.74-.74-.74-2.96,2.96-.74-.74,2.22-2.22,1.48-1.48-1.48-1.48-.74.74.74.74-.74.74.74.74-2.22,2.22-.74-.74,1.48-1.48-.74-.74-.74.74-.74-.74.74-.74.74-.74-.74-.74.74-.74-.74-.74-.74.74.74.74-.74.74.74.74-.74.74-.74.74.74.74-.74.74-.74-.74h0s-.74-.74-.74-.74l1.48-1.48-.74-.74.74-.74.74-.74-.74-.74-.74.74.74.74-.74.74-.74-.74.74-.74h0s-.74.74-.74.74l-.74-.74-1.48,1.48-.74-.74.74-.74-.74-.74-.74.74-.74-.74.74-.74-.74-.74-.74.74Z"/>
  <path class="cls-1" d="m433.29,177.98l-.74.74-.74-.74.74-.74.74.74Z"/>
  <path class="cls-1" d="m425.89,222.36l-.74.74-.74-.74.74-.74.74.74Z"/>
  <path class="cls-1" d="m425.89,206.09h0s.74.74.74.74h0s0,0,0,0l-1.48,1.48-.74-.74.74-.74-1.48-1.48.74-.74,1.48,1.48Z"/>
  <path class="cls-1" d="m430.33,177.98l-.74.74-.74-.74.74-.74.74.74Z"/>
  <path class="cls-1" d="m426.63,187.59l-2.22,2.22-2.22-2.22,2.22-2.22,2.22,2.22Z"/>
  <path class="cls-1" d="m420.72,194.99l-.74.74-.74-.74.74-.74.74.74Z"/>
  <path class="cls-1" d="m419.98,183.89l-.74.74-.74-.74.74-.74.74.74Z"/>
  <path class="cls-1" d="m414.8,184.63l-.74.74-.74-.74.74-.74.74.74Z"/>
  <path class="cls-1" d="m429.59,203.87l-.74.74h0s-.74.74-.74.74l-.74-.74,1.48-1.48.74.74Z"/>
  <path class="cls-1" d="m429.59,166.88l-.74.74-.74-.74.74-.74.74.74Z"/>
  <path class="cls-1" d="m418.5,214.96l-.74.74-.74-.74.74-.74.74.74Z"/>
  <path class="cls-1" d="m416.28,186.11l-.74.74-.74-.74.74-.74.74.74Z"/>
  <path class="cls-1" d="m419.98,172.06l-.74.74-.74-.74.74-.74.74.74Z"/>
  <path class="cls-1" d="m408.14,206.09l-1.48-1.48.74-.74-1.48-1.48.74-.74-.74-.74.74-.74-.74-.74.74-.74.74.74h0s-.74-.74-.74-.74l.74-.74.74.74,1.48-1.48-.74-.74,2.22-2.22.74.74-.74.74,5.18,5.18-5.18,5.18-.74-.74-.74.74-.04-.04,1.51-1.51,3.63-3.63-3.63-3.63-3.63,3.63,3.63,3.63-1.51,1.51-.7-.7-.74.74Z"/>
  <path class="cls-1" d="m434.03,200.91l-.74.74-.74-.74.74-.74.74.74Z"/>
  <path class="cls-1" d="m425.16,194.99l-.74.74h0s-2.22,2.22-2.22,2.22l-.74-.74,2.96-2.96.74.74Z"/>
  <path class="cls-1" d="m431.07,181.68l-1.48,1.48-.74-.74,1.48-1.48.74.74Z"/>
  <path class="cls-1" d="m430.33,209.04l1.48-1.48.74.74-.74.74,1.48,1.48h0s.74.74.74.74l-2.22,2.22.74.74-.74.74-.74-.74.74-.74-.74-.74.74-.74-.74-.74h0s-.74-.74-.74-.74h0s.74.74.74.74l-.74.74-.74-.74.74-.74-.74-.74h0s-1.48-1.48-1.48-1.48h0s-1.48-1.48-1.48-1.48h0s0,0,0,0l.74-.74,2.96,2.96Z"/>
  <path class="cls-1" d="m408.14,197.21l-.74.74-.74-.74.74-.74.74.74Z"/>
  <path class="cls-1" d="m422.2,205.35l-.74.74-.74-.74.74-.74.74.74Z"/>
  <path class="cls-1" d="m432.55,180.2l.74-.74.74.74.74-.74.74.74-1.48,1.48-.74-.74-.74.74.74.74-.74.74.74.74h0s.74.74.74.74l-2.96,2.96-1.48-1.48,2.22-2.22-.74-.74.74-.74-.74-.74.74-.74-.74-.74.74-.74.74.74Z"/>
  <path class="cls-1" d="m412.58,192.77l-.74.74-.74-.74.74-.74.74.74Z"/>
  <path class="cls-1" d="m422.94,203.13l-.74.74-.74-.74.74-.74.74.74Z"/>
  <path class="cls-1" d="m428.11,158.01l-.74.74-.74-.74.74-.74.74.74Z"/>
  <path class="cls-1" d="m424.42,179.46h0s.74.74.74.74l-.74.74.74.74-.74.74-.74-.74-1.48,1.48-.74-.74,2.22-2.22-.74-.74.74-.74.74.74Z"/>
  <path class="cls-1" d="m442.17,189.81l-.74.74-.74-.74.74-.74.74.74Z"/>
  <path class="cls-1" d="m419.24,206.82l.74-.74.74.74.74-.74.74.74-.74.74.74.74-.74.74.74.74-.74.74-.74-.74-.74.74.74.74-.74.74-1.48-1.48,1.48-1.48-2.22-2.22.74-.74.74.74Z"/>
  <path class="cls-1" d="m419.24,212.74l-1.48,1.48-.74-.74.74-.74-2.22-2.22.74-.74,2.96,2.96Z"/>
  <path class="cls-1" d="m422.2,194.99l-.74.74-.74-.74.74-.74.74.74Z"/>
  <path class="cls-1" d="m422.2,178.72l-.74.74-.74-.74.74-.74.74.74Z"/>
  <path class="cls-1" d="m431.07,212.74l-.74.74-.74-.74.74-.74.74.74Z"/>
  <path class="cls-1" d="m428.85,177.98l-.74.74-.74-.74.74-.74.74.74Z"/>
  <path class="cls-1" d="m417.02,179.46l-.74.74-.74-.74.74-.74.74.74Z"/>
  <path class="cls-1" d="m416.28,192.03l-.74-.74.74-.74.74.74,1.48-1.48-.74-.74.74-.74.74.74-.74.74.74.74-.74.74,2.22,2.22-.74.74-.74-.74-.74.74.74.74-1.48,1.48-1.48-1.48.74-.74.74-.74.74-.74-.74-.74-.74.74.74.74-.74.74-1.48-1.48.74-.74.74-.74h0s-.74.74-.74.74h0s-.74.74-.74.74h0s.74-.74.74-.74Z"/>
  <path class="cls-1" d="m429.59,162.44l-.74.74-.74-.74.74-.74.74.74Z"/>
  <path class="cls-1" d="m434.77,183.89l-.74.74-.74-.74.74-.74.74.74Z"/>
  <path class="cls-1" d="m428.85,179.46l-.74.74.74.74-1.48,1.48-1.48-1.48,2.22-2.22.74.74Z"/>
  <path class="cls-1" d="m443.65,194.25l-.74.74-.74-.74.74-.74.74.74Z"/>
  <path class="cls-1" d="m417.02,209.04l-.74.74-.74-.74.74-.74.74.74Z"/>
  <path class="cls-1" d="m438.47,189.07l-.74.74.74.74-1.48,1.48.74.74.74-.74.74.74-.74.74-.74-.74-.74.74-1.48-1.48,2.22-2.22-.74-.74.74-.74.74.74Z"/>
  <path class="cls-1" d="m414.8,181.68l-1.48,1.48-.74-.74,1.48-1.48.74.74Z"/>
  <path class="cls-1" d="m413.32,189.07l-.74.74-.74-.74.74-.74.74.74Z"/>
  <path class="cls-1" d="m420.72,190.55l-.74.74-.74-.74.74-.74.74.74Z"/>
  <path class="cls-1" d="m420.72,196.47l-.74.74-.74-.74.74-.74.74.74Z"/>
  <path class="cls-1" d="m422.2,199.43l-.74.74-.74-.74.74-.74.74.74Z"/>
  <path class="cls-1" d="m433.29,203.13l.74-.74.74.74-1.48,1.48.74.74-.74.74-.74-.74-.74.74-.74-.74,1.48-1.48-1.48-1.48.74-.74,1.48,1.48Z"/>
</svg>