<?xml version="1.0" encoding="UTF-8"?>
<svg id="Layer_11" data-name="Layer 11" xmlns="http://www.w3.org/2000/svg" width="297mm" height="210.01mm" viewBox="0 0 841.9 595.3">
  <path d="m438.94,375.25l11.61-12.96c10.65-11.88,2.22-30.77-13.74-30.77h-23.23c-15.96,0-24.4,18.89-13.74,30.77l11.61,12.96c7.33,8.18,20.15,8.18,27.49,0Z"/>
  <g>
    <g>
      <path d="m547.65,221.31c-7.19,0-13.92,1.93-19.73,5.28,1.58,2.14,2.52,4.78,2.52,7.65,0,7.14-5.79,12.93-12.93,12.93-2.3,0-4.46-.61-6.33-1.66-1.99,4.72-3.09,9.91-3.09,15.36,0,11.02,4.51,20.98,11.78,28.15,6.18-.9,12.63-1.39,19.28-1.39,11.79,0,22.98,1.52,33.09,4.22,9.12-7.25,14.98-18.43,14.98-30.98,0-21.85-17.71-39.56-39.56-39.56Z"/>
      <g>
        <path d="m532.07,315.2c-.09,2.7,2.02,4.88,4.8,4.98,2.57.09,4.89-2.13,4.94-4.71.05-2.65-2.05-4.9-4.66-5.01-2.66-.11-5,2.07-5.08,4.74Z"/>
        <path d="m544.38,313.01c2.57.08,4.73-1.96,4.76-4.49.03-2.58-2.07-4.82-4.61-4.92-2.56-.1-4.79,1.92-4.89,4.42-.11,2.83,1.86,4.9,4.73,4.99Z"/>
        <path d="m529.93,312.47c2.77.07,4.62-1.75,4.71-4.62.08-2.59-1.92-4.69-4.51-4.75-2.48-.05-4.86,2.19-4.92,4.65-.07,2.62,1.95,4.64,4.72,4.71Z"/>
        <path d="m551.07,320.4c2.66.12,4.67-1.74,4.78-4.4.11-2.53-1.8-4.62-4.33-4.73-2.6-.12-4.75,1.82-4.87,4.38-.12,2.7,1.68,4.63,4.42,4.75Z"/>
        <path d="m539.58,322.54c-.09,2.28,1.82,4.32,4.11,4.42,2.23.09,4.35-1.91,4.41-4.15.07-2.41-1.68-4.25-4.12-4.35-2.36-.1-4.3,1.71-4.39,4.08Z"/>
        <path d="m518.37,314.57c-.1,2.23,1.89,4.35,4.15,4.41,2.14.05,4.22-1.96,4.29-4.13.06-2.22-1.82-4.22-4.06-4.3-2.17-.08-4.28,1.86-4.38,4.03Z"/>
        <path d="m558.51,313.02c2.18.08,4.15-1.75,4.24-3.92.09-2.23-1.8-4.27-4.03-4.33-1.97-.06-4.16,2.05-4.23,4.07-.07,2.1,1.86,4.11,4.02,4.19Z"/>
        <path d="m533.49,301.03c-.09,2.21,1.57,3.89,3.93,3.97,2.23.07,3.92-1.49,4.02-3.71.1-2.22-1.58-4.12-3.75-4.22-2.2-.1-4.11,1.7-4.21,3.96Z"/>
        <path d="m554.21,323.08c-.08,2.14,1.7,4.03,3.88,4.11,2.16.08,3.94-1.57,4.05-3.73.11-2.19-1.6-4.08-3.79-4.18-2.22-.1-4.06,1.58-4.14,3.8Z"/>
        <path d="m525.56,322.13c-.05,2.08,1.82,3.99,3.96,4.03,2.21.04,3.95-1.68,3.98-3.93.03-2.05-1.75-3.89-3.84-3.97-2.11-.08-4.05,1.75-4.1,3.87Z"/>
        <path d="m561.64,316.28c-.09,2.08,1.61,3.89,3.76,4.02,2.21.13,4.05-1.52,4.17-3.73.11-2.18-1.64-4.11-3.77-4.15-2.08-.05-4.06,1.8-4.15,3.87Z"/>
        <path d="m548.11,301.44c-.09,2.06,1.42,3.66,3.57,3.77,2.01.1,3.68-1.48,3.79-3.58.1-1.99-1.41-3.66-3.41-3.76-2.13-.11-3.86,1.46-3.96,3.57Z"/>
        <path d="m515.8,303.98c-1.87-.06-3.51,1.42-3.58,3.22-.08,1.98,1.35,3.53,3.33,3.62,1.96.08,3.55-1.37,3.62-3.32.07-2.02-1.31-3.46-3.37-3.52Z"/>
        <path d="m519.75,300.4c-.06,1.89,1.4,3.41,3.31,3.46,1.82.05,3.35-1.37,3.44-3.19.1-1.98-1.37-3.52-3.37-3.54-1.76-.02-3.33,1.49-3.38,3.27Z"/>
        <path d="m569.67,309.46c0,1.79,1.5,3.3,3.31,3.34,1.78.04,3.34-1.47,3.39-3.26.05-1.85-1.51-3.43-3.37-3.43-1.73,0-3.32,1.6-3.32,3.35Z"/>
        <path d="m575.67,323.9c.08-1.82-1.27-3.31-3.05-3.39-1.63-.07-3.36,1.52-3.41,3.13-.06,1.71,1.45,3.33,3.13,3.37,1.79.04,3.27-1.33,3.34-3.12Z"/>
        <path d="m547.67,330.06c-.05,1.76,1.24,3.09,3.06,3.15,1.77.05,3.1-1.26,3.13-3.06.02-1.67-1.29-3.04-2.97-3.11-1.73-.06-3.16,1.28-3.21,3.02Z"/>
        <path d="m563.08,301.94c-.1,1.62,1.22,3.04,2.91,3.15,1.54.1,3.08-1.32,3.17-2.92.09-1.51-1.25-3.04-2.77-3.16-1.66-.13-3.22,1.25-3.32,2.93Z"/>
        <path d="m533.46,329.56c-.03,1.59,1.43,3.08,3.03,3.08,1.53,0,2.93-1.38,2.98-2.95.05-1.53-1.35-3.06-2.84-3.1-1.57-.04-3.15,1.43-3.18,2.97Z"/>
        <path d="m576.98,316.72c-.1,1.57,1.31,3.07,2.94,3.13,1.46.06,2.95-1.37,3.02-2.9.07-1.39-1.28-2.92-2.71-3.06-1.51-.14-3.16,1.3-3.26,2.83Z"/>
        <path d="m565.03,333.43c1.62.08,2.85-1.05,2.92-2.68.06-1.56-1.14-2.87-2.71-2.94-1.48-.07-2.86,1.23-2.92,2.74-.06,1.61,1.06,2.8,2.72,2.88Z"/>
        <path d="m517.69,321.62c0-1.41-.96-2.38-2.43-2.42-1.47-.04-2.52.98-2.55,2.47-.03,1.43,1.04,2.5,2.52,2.51,1.45,0,2.46-1.03,2.47-2.56Z"/>
        <path d="m542.41,294.07c-.04,1.43,1.05,2.53,2.51,2.54,1.38,0,2.41-1.02,2.46-2.43.05-1.39-.94-2.45-2.35-2.52-1.46-.07-2.58.96-2.62,2.42Z"/>
        <path d="m528.12,293.48c-.08,1.29,1.07,2.52,2.38,2.56,1.23.04,2.43-1.06,2.5-2.3.08-1.28-1.05-2.49-2.39-2.56-1.2-.07-2.42,1.05-2.49,2.29Z"/>
        <path d="m508.33,316.68c1.14,0,2.44-1.32,2.39-2.42-.05-1.16-1.31-2.39-2.45-2.39-1.12,0-2.4,1.3-2.39,2.44,0,1.13,1.3,2.38,2.45,2.38Z"/>
        <path d="m559.25,296.96c1.12.01,2.33-1.18,2.34-2.29,0-1.14-1.3-2.41-2.44-2.38-1.04.03-2.21,1.2-2.23,2.24-.03,1.24,1.1,2.41,2.34,2.43Z"/>
        <path d="m584.69,324.17c-.04,1.13,1.01,2.25,2.11,2.25.99,0,2.2-1.06,2.28-2,.08-1.03-1.19-2.37-2.25-2.36-.97,0-2.11,1.12-2.14,2.1Z"/>
        <path d="m520,328.88c-.08,1.06.89,2.23,1.92,2.3,1.01.08,2.24-.93,2.34-1.92.1-1-1.07-2.28-2.11-2.32-.93-.04-2.08,1-2.15,1.94Z"/>
        <path d="m585.29,310.06c.08,1.1,1.2,2.13,2.21,1.95,1.12-.21,1.9-.88,1.98-2.07.06-.94-1.25-2.13-2.17-2.08-1.01.05-2.09,1.23-2.02,2.21Z"/>
        <path d="m580.29,304.55c1.02.07,2.24-.99,2.26-1.94.02-.85-1.11-2.07-1.98-2.12-.86-.06-2.11,1.06-2.15,1.91-.05,1,.89,2.09,1.86,2.15Z"/>
        <path d="m579.25,333.13c.95.06,2.14-.91,2.24-1.82.09-.85-.98-2.1-1.89-2.21-.86-.1-2.14.98-2.2,1.86-.07,1,.86,2.1,1.85,2.17Z"/>
        <path d="m557.67,335.74c-1.05.18-1.8.74-1.75,1.84.05,1.07.76,1.75,1.85,1.71,1-.04,1.69-.69,1.68-1.71-.01-1.07-.71-1.67-1.77-1.83Z"/>
        <path d="m543.36,338.8c1.04-.14,1.74-.68,1.74-1.72,0-1.08-.68-1.81-1.78-1.8-1.01,0-1.7.65-1.72,1.69-.02,1.12.72,1.67,1.76,1.82Z"/>
        <path d="m508.86,298.31c-1,.09-1.69.57-1.72,1.64-.03,1.08.62,1.62,1.66,1.67,1.09.06,1.7-.52,1.7-1.58,0-1.02-.55-1.65-1.64-1.73Z"/>
      </g>
    </g>
    <g>
      <path d="m302.75,221.31c-7.37,0-14.27,2.02-20.18,5.54,1.47,2.1,2.33,4.64,2.33,7.39,0,7.14-5.79,12.93-12.93,12.93-2.09,0-4.05-.51-5.8-1.38-1.92,4.65-2.99,9.74-2.99,15.09,0,12.56,5.86,23.74,14.98,30.98,10.11-2.7,21.3-4.22,33.09-4.22,6.64,0,13.1.49,19.28,1.39,7.27-7.17,11.78-17.14,11.78-28.15,0-21.85-17.71-39.56-39.56-39.56Z"/>
      <g>
        <path d="m318.32,315.2c.09,2.7-2.02,4.88-4.8,4.98-2.57.09-4.89-2.13-4.94-4.71-.05-2.65,2.05-4.9,4.66-5.01,2.66-.11,5,2.07,5.08,4.74Z"/>
        <path d="m306.01,313.01c-2.57.08-4.73-1.96-4.76-4.49-.03-2.58,2.07-4.82,4.61-4.92,2.56-.1,4.79,1.92,4.89,4.42.11,2.83-1.86,4.9-4.73,4.99Z"/>
        <path d="m320.46,312.47c-2.77.07-4.62-1.75-4.71-4.62-.08-2.59,1.92-4.69,4.51-4.75,2.48-.05,4.86,2.19,4.92,4.65.07,2.62-1.95,4.64-4.72,4.71Z"/>
        <path d="m299.33,320.4c-2.66.12-4.67-1.74-4.78-4.4-.11-2.53,1.8-4.62,4.33-4.73,2.6-.12,4.75,1.82,4.87,4.38.12,2.7-1.68,4.63-4.42,4.75Z"/>
        <path d="m310.81,322.54c.09,2.28-1.82,4.32-4.11,4.42-2.23.09-4.35-1.91-4.41-4.15-.07-2.41,1.68-4.25,4.12-4.35,2.36-.1,4.3,1.71,4.39,4.08Z"/>
        <path d="m332.03,314.57c.1,2.23-1.89,4.35-4.15,4.41-2.14.05-4.22-1.96-4.29-4.13-.06-2.22,1.82-4.22,4.06-4.3,2.17-.08,4.28,1.86,4.38,4.03Z"/>
        <path d="m291.88,313.02c-2.18.08-4.15-1.75-4.24-3.92-.09-2.23,1.8-4.27,4.03-4.33,1.97-.06,4.16,2.05,4.23,4.07.07,2.1-1.86,4.11-4.02,4.19Z"/>
        <path d="m316.91,301.03c.09,2.21-1.57,3.89-3.93,3.97-2.23.07-3.92-1.49-4.02-3.71-.1-2.22,1.58-4.12,3.75-4.22,2.2-.1,4.11,1.7,4.21,3.96Z"/>
        <path d="m296.18,323.08c.08,2.14-1.7,4.03-3.88,4.11-2.16.08-3.94-1.57-4.05-3.73-.11-2.19,1.6-4.08,3.79-4.18,2.22-.1,4.06,1.58,4.14,3.8Z"/>
        <path d="m324.84,322.13c.05,2.08-1.82,3.99-3.96,4.03-2.21.04-3.95-1.68-3.98-3.93-.03-2.05,1.75-3.89,3.84-3.97,2.11-.08,4.05,1.75,4.1,3.87Z"/>
        <path d="m288.75,316.28c.09,2.08-1.61,3.89-3.76,4.02-2.21.13-4.05-1.52-4.17-3.73-.11-2.18,1.64-4.11,3.77-4.15,2.08-.05,4.06,1.8,4.15,3.87Z"/>
        <path d="m302.28,301.44c.09,2.06-1.42,3.66-3.57,3.77-2.01.1-3.68-1.48-3.79-3.58-.1-1.99,1.41-3.66,3.41-3.76,2.13-.11,3.86,1.46,3.96,3.57Z"/>
        <path d="m334.59,303.98c1.87-.06,3.51,1.42,3.58,3.22.08,1.98-1.35,3.53-3.33,3.62-1.96.08-3.55-1.37-3.62-3.32-.07-2.02,1.31-3.46,3.37-3.52Z"/>
        <path d="m330.64,300.4c.06,1.89-1.4,3.41-3.31,3.46-1.82.05-3.35-1.37-3.44-3.19-.1-1.98,1.37-3.52,3.37-3.54,1.76-.02,3.33,1.49,3.38,3.27Z"/>
        <path d="m280.73,309.46c0,1.79-1.5,3.3-3.31,3.34-1.78.04-3.34-1.47-3.39-3.26-.05-1.85,1.51-3.43,3.37-3.43,1.73,0,3.32,1.6,3.32,3.35Z"/>
        <path d="m274.73,323.9c-.08-1.82,1.27-3.31,3.05-3.39,1.63-.07,3.36,1.52,3.41,3.13.06,1.71-1.45,3.33-3.13,3.37-1.79.04-3.27-1.33-3.34-3.12Z"/>
        <path d="m302.72,330.06c.05,1.76-1.24,3.09-3.06,3.15-1.77.05-3.1-1.26-3.13-3.06-.02-1.67,1.29-3.04,2.97-3.11,1.73-.06,3.16,1.28,3.21,3.02Z"/>
        <path d="m287.32,301.94c.1,1.62-1.22,3.04-2.91,3.15-1.54.1-3.08-1.32-3.17-2.92-.09-1.51,1.25-3.04,2.77-3.16,1.66-.13,3.22,1.25,3.32,2.93Z"/>
        <path d="m316.94,329.56c.03,1.59-1.43,3.08-3.03,3.08-1.53,0-2.93-1.38-2.98-2.95-.05-1.53,1.35-3.06,2.84-3.1,1.57-.04,3.15,1.43,3.18,2.97Z"/>
        <path d="m273.42,316.72c.1,1.57-1.31,3.07-2.94,3.13-1.46.06-2.95-1.37-3.02-2.9-.07-1.39,1.28-2.92,2.71-3.06,1.51-.14,3.16,1.3,3.26,2.83Z"/>
        <path d="m285.37,333.43c-1.62.08-2.85-1.05-2.92-2.68-.06-1.56,1.14-2.87,2.71-2.94,1.48-.07,2.86,1.23,2.92,2.74.06,1.61-1.06,2.8-2.72,2.88Z"/>
        <path d="m332.71,321.62c0-1.41.96-2.38,2.43-2.42,1.47-.04,2.52.98,2.55,2.47.03,1.43-1.04,2.5-2.52,2.51-1.45,0-2.46-1.03-2.47-2.56Z"/>
        <path d="m307.99,294.07c.04,1.43-1.05,2.53-2.51,2.54-1.38,0-2.41-1.02-2.46-2.43-.05-1.39.94-2.45,2.35-2.52,1.46-.07,2.58.96,2.62,2.42Z"/>
        <path d="m322.27,293.48c.08,1.29-1.07,2.52-2.38,2.56-1.23.04-2.43-1.06-2.5-2.3-.08-1.28,1.05-2.49,2.39-2.56,1.2-.07,2.42,1.05,2.49,2.29Z"/>
        <path d="m342.06,316.68c-1.14,0-2.44-1.32-2.39-2.42.05-1.16,1.31-2.39,2.45-2.39,1.12,0,2.4,1.3,2.39,2.44,0,1.13-1.3,2.38-2.45,2.38Z"/>
        <path d="m291.15,296.96c-1.12.01-2.33-1.18-2.34-2.29,0-1.14,1.3-2.41,2.44-2.38,1.04.03,2.21,1.2,2.23,2.24.03,1.24-1.1,2.41-2.34,2.43Z"/>
        <path d="m265.7,324.17c.04,1.13-1.01,2.25-2.11,2.25-.99,0-2.2-1.06-2.28-2-.08-1.03,1.19-2.37,2.25-2.36.97,0,2.11,1.12,2.14,2.1Z"/>
        <path d="m330.4,328.88c.08,1.06-.89,2.23-1.92,2.3-1.01.08-2.24-.93-2.34-1.92-.1-1,1.07-2.28,2.11-2.32.93-.04,2.08,1,2.15,1.94Z"/>
        <path d="m265.11,310.06c-.08,1.1-1.2,2.13-2.21,1.95-1.12-.21-1.9-.88-1.98-2.07-.06-.94,1.25-2.13,2.17-2.08,1.01.05,2.09,1.23,2.02,2.21Z"/>
        <path d="m270.1,304.55c-1.02.07-2.24-.99-2.26-1.94-.02-.85,1.11-2.07,1.98-2.12.86-.06,2.11,1.06,2.15,1.91.05,1-.89,2.09-1.86,2.15Z"/>
        <path d="m271.14,333.13c-.95.06-2.14-.91-2.24-1.82-.09-.85.98-2.1,1.89-2.21.86-.1,2.14.98,2.2,1.86.07,1-.86,2.1-1.85,2.17Z"/>
        <path d="m292.72,335.74c1.05.18,1.8.74,1.75,1.84-.05,1.07-.76,1.75-1.85,1.71-1-.04-1.69-.69-1.68-1.71.01-1.07.71-1.67,1.77-1.83Z"/>
        <path d="m307.03,338.8c-1.04-.14-1.74-.68-1.74-1.72,0-1.08.68-1.81,1.78-1.8,1.01,0,1.7.65,1.72,1.69.02,1.12-.72,1.67-1.76,1.82Z"/>
        <path d="m341.53,298.31c1,.09,1.69.57,1.72,1.64.03,1.08-.62,1.62-1.66,1.67-1.09.06-1.7-.52-1.7-1.58,0-1.02.55-1.65,1.64-1.73Z"/>
      </g>
    </g>
  </g>
  <path d="m682.83,118.32c1.2,1.93,4.61,6.72,11.26,22.94,6.65,16.22,8.22,28.98,8.65,31.56s.21,7.22-4.43,4.85c-4.64-2.38-14.26-9.8-33.6-14.99-19.34-5.19-34.48-6.63-38.17-6.9-3.69-.27-3.2-4.91-.83-7.4s7.07-8.49,24.5-18.87c17.42-10.38,25.52-12.5,27.44-12.98s3.97-.13,5.17,1.79Z"/>
  <path d="m167.57,118.32c-1.2,1.93-4.61,6.72-11.26,22.94-6.65,16.22-8.22,28.98-8.65,31.56s-.21,7.22,4.43,4.85c4.64-2.38,14.26-9.8,33.6-14.99s34.48-6.63,38.17-6.9c3.69-.27,3.2-4.91.83-7.4s-7.07-8.49-24.5-18.87c-17.42-10.38-25.52-12.5-27.44-12.98s-3.97-.13-5.17,1.79Z"/>
</svg>