<?xml version="1.0" encoding="UTF-8"?>
<svg id="Layer_11" data-name="Layer 11" xmlns="http://www.w3.org/2000/svg" width="297mm" height="210.01mm" viewBox="0 0 841.9 595.3">
  <path d="m436.26,374.46l16.06-14.82c10.92-10.07,3.79-28.31-11.06-28.31h-32.13c-14.86,0-21.98,18.24-11.06,28.31l16.06,14.82c6.25,5.77,15.88,5.77,22.13,0Z"/>
  <g>
    <g>
      <path d="m535.48,232.27c-7.8,0-15.11,2.09-21.41,5.73,1.71,2.33,2.74,5.19,2.74,8.3,0,7.75-6.28,14.03-14.03,14.03-2.5,0-4.83-.66-6.86-1.8-2.16,5.12-3.36,10.76-3.36,16.67,0,11.95,4.89,22.76,12.78,30.55,6.71-.98,13.71-1.51,20.92-1.51,12.79,0,24.93,1.64,35.9,4.58,9.9-7.86,16.25-19.99,16.25-33.62,0-23.71-19.22-42.92-42.92-42.92Z"/>
      <g>
        <path d="m518.59,334.14c-.09,2.93,2.19,5.3,5.21,5.41,2.79.1,5.31-2.31,5.36-5.11.05-2.87-2.22-5.32-5.05-5.44-2.88-.12-5.42,2.25-5.51,5.15Z"/>
        <path d="m531.94,331.76c2.79.09,5.14-2.12,5.17-4.87.03-2.8-2.25-5.23-5-5.34-2.77-.11-5.2,2.08-5.3,4.79-.11,3.07,2.01,5.32,5.13,5.42Z"/>
        <path d="m516.26,331.18c3,.08,5.02-1.9,5.11-5.01.08-2.81-2.08-5.09-4.89-5.15-2.69-.05-5.27,2.38-5.34,5.05-.08,2.85,2.12,5.04,5.12,5.11Z"/>
        <path d="m539.19,339.78c2.88.13,5.06-1.88,5.18-4.78.12-2.75-1.95-5.01-4.7-5.13-2.82-.13-5.15,1.97-5.28,4.75-.13,2.93,1.82,5.03,4.8,5.16Z"/>
        <path d="m526.73,342.1c-.09,2.47,1.97,4.69,4.46,4.79,2.41.1,4.72-2.07,4.78-4.51.07-2.61-1.82-4.61-4.47-4.72-2.56-.1-4.67,1.86-4.77,4.43Z"/>
        <path d="m503.72,333.46c-.11,2.42,2.05,4.72,4.5,4.78,2.32.06,4.58-2.13,4.65-4.48.07-2.41-1.98-4.58-4.4-4.67-2.35-.08-4.64,2.02-4.75,4.37Z"/>
        <path d="m547.27,331.77c2.36.09,4.51-1.9,4.6-4.26.1-2.42-1.96-4.63-4.38-4.7-2.14-.06-4.52,2.23-4.59,4.41-.07,2.28,2.02,4.46,4.36,4.55Z"/>
        <path d="m520.12,318.77c-.1,2.4,1.71,4.22,4.27,4.3,2.42.08,4.25-1.61,4.36-4.02.11-2.41-1.72-4.47-4.06-4.58-2.39-.11-4.46,1.84-4.56,4.3Z"/>
        <path d="m542.61,342.69c-.09,2.32,1.84,4.37,4.21,4.46,2.34.08,4.27-1.7,4.39-4.05.12-2.38-1.74-4.43-4.11-4.53-2.41-.11-4.4,1.72-4.5,4.12Z"/>
        <path d="m511.52,341.65c-.05,2.26,1.98,4.33,4.29,4.37,2.39.05,4.28-1.82,4.32-4.26.03-2.22-1.9-4.22-4.16-4.31-2.29-.09-4.39,1.89-4.45,4.19Z"/>
        <path d="m550.67,335.31c-.09,2.25,1.75,4.22,4.08,4.36,2.4.14,4.4-1.65,4.52-4.05.12-2.36-1.78-4.46-4.09-4.51-2.26-.05-4.41,1.95-4.5,4.2Z"/>
        <path d="m535.99,319.21c-.1,2.24,1.55,3.97,3.88,4.09,2.18.1,3.99-1.61,4.11-3.88.11-2.16-1.53-3.97-3.7-4.08-2.31-.11-4.19,1.58-4.29,3.88Z"/>
        <path d="m500.93,321.96c-2.03-.06-3.8,1.54-3.88,3.5-.08,2.15,1.46,3.83,3.61,3.93,2.13.09,3.85-1.49,3.92-3.6.08-2.19-1.42-3.75-3.65-3.82Z"/>
        <path d="m505.22,318.08c-.06,2.05,1.52,3.7,3.59,3.75,1.97.05,3.63-1.49,3.73-3.46.11-2.15-1.49-3.82-3.65-3.85-1.91-.02-3.61,1.62-3.67,3.55Z"/>
        <path d="m559.37,327.91c0,1.94,1.63,3.59,3.59,3.63,1.94.04,3.63-1.59,3.68-3.54.05-2.01-1.64-3.72-3.66-3.72-1.88,0-3.6,1.74-3.6,3.63Z"/>
        <path d="m565.88,343.58c.08-1.97-1.38-3.59-3.31-3.68-1.77-.08-3.65,1.64-3.7,3.39-.06,1.85,1.57,3.62,3.39,3.66,1.94.05,3.54-1.45,3.62-3.38Z"/>
        <path d="m535.51,350.26c-.06,1.91,1.34,3.36,3.32,3.42,1.92.06,3.37-1.37,3.39-3.32.02-1.82-1.4-3.3-3.22-3.37-1.88-.07-3.43,1.39-3.49,3.28Z"/>
        <path d="m552.22,319.75c-.11,1.75,1.33,3.3,3.16,3.42,1.67.11,3.34-1.43,3.44-3.17.1-1.64-1.35-3.29-3-3.42-1.8-.14-3.49,1.35-3.6,3.18Z"/>
        <path d="m520.09,349.72c-.03,1.72,1.55,3.34,3.29,3.35,1.66,0,3.18-1.49,3.23-3.2.05-1.66-1.47-3.32-3.08-3.37-1.7-.05-3.41,1.55-3.45,3.22Z"/>
        <path d="m567.31,335.79c-.1,1.71,1.42,3.33,3.19,3.39,1.59.06,3.2-1.49,3.28-3.15.08-1.51-1.39-3.17-2.94-3.32-1.64-.15-3.43,1.41-3.53,3.07Z"/>
        <path d="m554.34,353.91c1.76.08,3.1-1.14,3.16-2.91.07-1.7-1.24-3.11-2.94-3.19-1.61-.07-3.11,1.33-3.17,2.98-.07,1.75,1.15,3.04,2.95,3.13Z"/>
        <path d="m502.98,341.1c0-1.53-1.04-2.58-2.64-2.63-1.59-.04-2.73,1.06-2.77,2.68-.04,1.55,1.12,2.71,2.73,2.72,1.58.01,2.66-1.12,2.68-2.78Z"/>
        <path d="m529.79,311.21c-.04,1.55,1.14,2.75,2.72,2.76,1.49,0,2.62-1.11,2.67-2.64.05-1.51-1.02-2.66-2.55-2.74-1.58-.08-2.8,1.04-2.84,2.62Z"/>
        <path d="m514.3,310.57c-.08,1.4,1.16,2.74,2.58,2.78,1.33.04,2.63-1.15,2.71-2.49.09-1.39-1.14-2.7-2.6-2.78-1.31-.07-2.62,1.14-2.7,2.49Z"/>
        <path d="m492.83,335.75c1.24,0,2.65-1.43,2.59-2.63-.06-1.26-1.42-2.59-2.66-2.6-1.21,0-2.6,1.42-2.59,2.65,0,1.22,1.41,2.58,2.66,2.58Z"/>
        <path d="m548.07,314.35c1.21.02,2.53-1.28,2.54-2.48,0-1.23-1.42-2.61-2.65-2.58-1.12.03-2.39,1.3-2.42,2.42-.03,1.34,1.19,2.62,2.54,2.63Z"/>
        <path d="m575.68,343.87c-.05,1.23,1.09,2.44,2.29,2.44,1.07,0,2.39-1.15,2.47-2.16.09-1.12-1.29-2.57-2.44-2.56-1.05,0-2.28,1.21-2.33,2.28Z"/>
        <path d="m505.48,348.97c-.09,1.15.97,2.42,2.09,2.5,1.09.08,2.43-1.01,2.54-2.08.11-1.08-1.16-2.47-2.29-2.52-1.01-.04-2.26,1.08-2.33,2.1Z"/>
        <path d="m576.32,328.56c.09,1.19,1.3,2.31,2.39,2.11,1.22-.22,2.06-.96,2.14-2.25.06-1.02-1.35-2.31-2.35-2.26-1.09.05-2.27,1.34-2.19,2.39Z"/>
        <path d="m570.9,322.58c1.1.07,2.43-1.07,2.45-2.11.02-.93-1.2-2.24-2.14-2.3-.93-.06-2.29,1.15-2.33,2.08-.05,1.08.97,2.26,2.02,2.33Z"/>
        <path d="m569.78,353.59c1.03.07,2.32-.99,2.43-1.98.1-.92-1.06-2.28-2.05-2.39-.93-.11-2.32,1.07-2.39,2.02-.08,1.09.94,2.28,2.01,2.35Z"/>
        <path d="m546.36,356.42c-1.14.2-1.95.81-1.9,2,.05,1.16.82,1.9,2,1.85,1.08-.04,1.83-.75,1.82-1.86-.01-1.16-.77-1.81-1.92-1.99Z"/>
        <path d="m530.83,359.74c1.13-.15,1.89-.73,1.89-1.86,0-1.17-.73-1.96-1.93-1.95-1.1,0-1.85.71-1.87,1.83-.02,1.21.78,1.81,1.91,1.98Z"/>
        <path d="m493.4,315.81c-1.08.09-1.83.62-1.86,1.78-.03,1.17.67,1.76,1.8,1.81,1.18.06,1.85-.56,1.85-1.71,0-1.1-.59-1.79-1.78-1.88Z"/>
      </g>
    </g>
    <g>
      <path d="m314.91,232.27c-8,0-15.48,2.19-21.89,6.01,1.59,2.27,2.53,5.04,2.53,8.02,0,7.75-6.28,14.03-14.03,14.03-2.26,0-4.4-.55-6.29-1.5-2.08,5.05-3.24,10.57-3.24,16.37,0,13.62,6.35,25.75,16.25,33.62,10.97-2.93,23.11-4.58,35.9-4.58,7.21,0,14.21.53,20.92,1.51,7.89-7.78,12.78-18.59,12.78-30.55,0-23.71-19.22-42.92-42.92-42.92Z"/>
      <g>
        <path d="m331.81,334.14c.09,2.93-2.19,5.3-5.21,5.41-2.79.1-5.31-2.31-5.36-5.11-.05-2.87,2.22-5.32,5.05-5.44,2.88-.12,5.42,2.25,5.51,5.15Z"/>
        <path d="m318.45,331.76c-2.79.09-5.14-2.12-5.17-4.87-.03-2.8,2.25-5.23,5-5.34,2.77-.11,5.2,2.08,5.3,4.79.11,3.07-2.01,5.32-5.13,5.42Z"/>
        <path d="m334.13,331.18c-3,.08-5.02-1.9-5.11-5.01-.08-2.81,2.08-5.09,4.89-5.15,2.69-.05,5.27,2.38,5.34,5.05.08,2.85-2.12,5.04-5.12,5.11Z"/>
        <path d="m311.2,339.78c-2.88.13-5.06-1.88-5.18-4.78-.12-2.75,1.95-5.01,4.7-5.13,2.82-.13,5.15,1.97,5.28,4.75.13,2.93-1.82,5.03-4.8,5.16Z"/>
        <path d="m323.66,342.1c.09,2.47-1.97,4.69-4.46,4.79-2.41.1-4.72-2.07-4.78-4.51-.07-2.61,1.82-4.61,4.47-4.72,2.56-.1,4.67,1.86,4.77,4.43Z"/>
        <path d="m346.68,333.46c.11,2.42-2.05,4.72-4.5,4.78-2.32.06-4.58-2.13-4.65-4.48-.07-2.41,1.98-4.58,4.4-4.67,2.35-.08,4.64,2.02,4.75,4.37Z"/>
        <path d="m303.13,331.77c-2.36.09-4.51-1.9-4.6-4.26-.1-2.42,1.96-4.63,4.38-4.7,2.14-.06,4.52,2.23,4.59,4.41.07,2.28-2.02,4.46-4.36,4.55Z"/>
        <path d="m330.27,318.77c.1,2.4-1.71,4.22-4.27,4.3-2.42.08-4.25-1.61-4.36-4.02-.11-2.41,1.72-4.47,4.06-4.58,2.39-.11,4.46,1.84,4.56,4.3Z"/>
        <path d="m307.79,342.69c.09,2.32-1.84,4.37-4.21,4.46-2.34.08-4.27-1.7-4.39-4.05-.12-2.38,1.74-4.43,4.11-4.53,2.41-.11,4.4,1.72,4.5,4.12Z"/>
        <path d="m338.88,341.65c.05,2.26-1.98,4.33-4.29,4.37-2.39.05-4.28-1.82-4.32-4.26-.03-2.22,1.9-4.22,4.16-4.31,2.29-.09,4.39,1.89,4.45,4.19Z"/>
        <path d="m299.73,335.31c.09,2.25-1.75,4.22-4.08,4.36-2.4.14-4.4-1.65-4.52-4.05-.12-2.36,1.78-4.46,4.09-4.51,2.26-.05,4.41,1.95,4.5,4.2Z"/>
        <path d="m314.41,319.21c.1,2.24-1.55,3.97-3.88,4.09-2.18.1-3.99-1.61-4.11-3.88-.11-2.16,1.53-3.97,3.7-4.08,2.31-.11,4.19,1.58,4.29,3.88Z"/>
        <path d="m349.46,321.96c2.03-.06,3.8,1.54,3.88,3.5.08,2.15-1.46,3.83-3.61,3.93-2.13.09-3.85-1.49-3.92-3.6-.08-2.19,1.42-3.75,3.65-3.82Z"/>
        <path d="m345.17,318.08c.06,2.05-1.52,3.7-3.59,3.75-1.97.05-3.63-1.49-3.73-3.46-.11-2.15,1.49-3.82,3.65-3.85,1.91-.02,3.61,1.62,3.67,3.55Z"/>
        <path d="m291.02,327.91c0,1.94-1.63,3.59-3.59,3.63-1.94.04-3.63-1.59-3.68-3.54-.05-2.01,1.64-3.72,3.66-3.72,1.88,0,3.6,1.74,3.6,3.63Z"/>
        <path d="m284.51,343.58c-.08-1.97,1.38-3.59,3.31-3.68,1.77-.08,3.65,1.64,3.7,3.39.06,1.85-1.57,3.62-3.39,3.66-1.94.05-3.54-1.45-3.62-3.38Z"/>
        <path d="m314.89,350.26c.06,1.91-1.34,3.36-3.32,3.42-1.92.06-3.37-1.37-3.39-3.32-.02-1.82,1.4-3.3,3.22-3.37,1.88-.07,3.43,1.39,3.49,3.28Z"/>
        <path d="m298.17,319.75c.11,1.75-1.33,3.3-3.16,3.42-1.67.11-3.34-1.43-3.44-3.17-.1-1.64,1.35-3.29,3-3.42,1.8-.14,3.49,1.35,3.6,3.18Z"/>
        <path d="m330.31,349.72c.03,1.72-1.55,3.34-3.29,3.35-1.66,0-3.18-1.49-3.23-3.2-.05-1.66,1.47-3.32,3.08-3.37,1.7-.05,3.41,1.55,3.45,3.22Z"/>
        <path d="m283.09,335.79c.1,1.71-1.42,3.33-3.19,3.39-1.59.06-3.2-1.49-3.28-3.15-.08-1.51,1.39-3.17,2.94-3.32,1.64-.15,3.43,1.41,3.53,3.07Z"/>
        <path d="m296.05,353.91c-1.76.08-3.1-1.14-3.16-2.91-.07-1.7,1.24-3.11,2.94-3.19,1.61-.07,3.11,1.33,3.17,2.98.07,1.75-1.15,3.04-2.95,3.13Z"/>
        <path d="m347.42,341.1c0-1.53,1.04-2.58,2.64-2.63,1.59-.04,2.73,1.06,2.77,2.68.04,1.55-1.12,2.71-2.73,2.72-1.58.01-2.66-1.12-2.68-2.78Z"/>
        <path d="m320.6,311.21c.04,1.55-1.14,2.75-2.72,2.76-1.49,0-2.62-1.11-2.67-2.64-.05-1.51,1.02-2.66,2.55-2.74,1.58-.08,2.8,1.04,2.84,2.62Z"/>
        <path d="m336.1,310.57c.08,1.4-1.16,2.74-2.58,2.78-1.33.04-2.63-1.15-2.71-2.49-.09-1.39,1.14-2.7,2.6-2.78,1.31-.07,2.62,1.14,2.7,2.49Z"/>
        <path d="m357.57,335.75c-1.24,0-2.65-1.43-2.59-2.63.06-1.26,1.42-2.59,2.66-2.6,1.21,0,2.6,1.42,2.59,2.65,0,1.22-1.41,2.58-2.66,2.58Z"/>
        <path d="m302.33,314.35c-1.21.02-2.53-1.28-2.54-2.48,0-1.23,1.42-2.61,2.65-2.58,1.12.03,2.39,1.3,2.42,2.42.03,1.34-1.19,2.62-2.54,2.63Z"/>
        <path d="m274.72,343.87c.05,1.23-1.09,2.44-2.29,2.44-1.07,0-2.39-1.15-2.47-2.16-.09-1.12,1.29-2.57,2.44-2.56,1.05,0,2.28,1.21,2.33,2.28Z"/>
        <path d="m344.91,348.97c.09,1.15-.97,2.42-2.09,2.5-1.09.08-2.43-1.01-2.54-2.08-.11-1.08,1.16-2.47,2.29-2.52,1.01-.04,2.26,1.08,2.33,2.1Z"/>
        <path d="m274.07,328.56c-.09,1.19-1.3,2.31-2.39,2.11-1.22-.22-2.06-.96-2.14-2.25-.06-1.02,1.35-2.31,2.35-2.26,1.09.05,2.27,1.34,2.19,2.39Z"/>
        <path d="m279.5,322.58c-1.1.07-2.43-1.07-2.45-2.11-.02-.93,1.2-2.24,2.14-2.3.93-.06,2.29,1.15,2.33,2.08.05,1.08-.97,2.26-2.02,2.33Z"/>
        <path d="m280.62,353.59c-1.03.07-2.32-.99-2.43-1.98-.1-.92,1.06-2.28,2.05-2.39.93-.11,2.32,1.07,2.39,2.02.08,1.09-.94,2.28-2.01,2.35Z"/>
        <path d="m304.03,356.42c1.14.2,1.95.81,1.9,2-.05,1.16-.82,1.9-2,1.85-1.08-.04-1.83-.75-1.82-1.86.01-1.16.77-1.81,1.92-1.99Z"/>
        <path d="m319.56,359.74c-1.13-.15-1.89-.73-1.89-1.86,0-1.17.73-1.96,1.93-1.95,1.1,0,1.85.71,1.87,1.83.02,1.21-.78,1.81-1.91,1.98Z"/>
        <path d="m356.99,315.81c1.08.09,1.83.62,1.86,1.78.03,1.17-.67,1.76-1.8,1.81-1.18.06-1.85-.56-1.85-1.71,0-1.1.59-1.79,1.78-1.88Z"/>
      </g>
    </g>
  </g>
  <path d="m174.27,112.02c2.29.92,8.36,2.94,24.61,12.9,16.25,9.96,25.82,20.15,27.86,22.14,2.04,1.98,4.82,6.21-.78,7.1-5.6.89-18.81.56-39.11,8.42-20.3,7.86-34.51,16.32-37.92,18.46-3.41,2.14-5.97-2.25-5.48-5.96s.76-11.99,9.38-32.29c8.63-20.29,14.37-27.36,15.75-29.02s3.4-2.67,5.69-1.75Z"/>
  <path d="m676.13,112.02c-2.29.92-8.36,2.94-24.61,12.9-16.25,9.96-25.82,20.15-27.86,22.14s-4.82,6.21.78,7.1c5.6.89,18.81.56,39.11,8.42s34.51,16.32,37.92,18.46c3.41,2.14,5.97-2.25,5.48-5.96s-.76-11.99-9.38-32.29c-8.63-20.29-14.37-27.36-15.75-29.02s-3.4-2.67-5.69-1.75Z"/>
</svg>