<?xml version="1.0" encoding="UTF-8"?>
<svg id="Layer_11" data-name="Layer 11" xmlns="http://www.w3.org/2000/svg" width="297mm" height="210.01mm" viewBox="0 0 841.9 595.3">
  <path d="m438.94,369.58l11.61-12.96c10.65-11.88,2.22-30.77-13.74-30.77h-23.23c-15.96,0-24.4,18.89-13.74,30.77l11.61,12.96c7.33,8.18,20.15,8.18,27.49,0Z"/>
  <g>
    <g>
      <path d="m535.44,231.41c-6.88,0-13.33,1.85-18.9,5.06,1.51,2.05,2.42,4.58,2.42,7.33,0,6.84-5.54,12.38-12.38,12.38-2.2,0-4.27-.58-6.06-1.59-1.91,4.52-2.96,9.49-2.96,14.71,0,10.55,4.32,20.09,11.28,26.96,5.92-.86,12.1-1.33,18.46-1.33,11.29,0,22,1.45,31.69,4.04,8.74-6.94,14.34-17.65,14.34-29.67,0-20.92-16.96-37.88-37.88-37.88Z"/>
      <g>
        <path d="m520.53,321.32c-.08,2.59,1.93,4.68,4.6,4.77,2.46.09,4.68-2.04,4.73-4.51.04-2.53-1.96-4.7-4.46-4.8-2.54-.11-4.78,1.98-4.87,4.54Z"/>
        <path d="m532.32,319.23c2.46.08,4.53-1.87,4.56-4.3.03-2.47-1.98-4.62-4.41-4.71-2.45-.1-4.59,1.84-4.68,4.23-.1,2.71,1.78,4.7,4.53,4.78Z"/>
        <path d="m518.48,318.71c2.65.07,4.43-1.68,4.51-4.42.07-2.48-1.84-4.5-4.32-4.55-2.38-.05-4.65,2.1-4.71,4.45-.07,2.51,1.87,4.44,4.52,4.51Z"/>
        <path d="m538.72,326.3c2.54.11,4.47-1.66,4.58-4.22.1-2.42-1.73-4.42-4.15-4.53-2.49-.11-4.55,1.74-4.66,4.2-.12,2.58,1.61,4.44,4.23,4.55Z"/>
        <path d="m527.72,328.35c-.08,2.18,1.74,4.14,3.93,4.23,2.13.09,4.16-1.83,4.22-3.98.06-2.3-1.61-4.07-3.95-4.16-2.26-.09-4.12,1.64-4.21,3.91Z"/>
        <path d="m507.4,320.72c-.1,2.14,1.81,4.17,3.97,4.22,2.05.05,4.04-1.88,4.1-3.96.06-2.13-1.75-4.04-3.88-4.12-2.08-.07-4.1,1.78-4.19,3.86Z"/>
        <path d="m545.84,319.23c2.08.08,3.98-1.68,4.06-3.76.09-2.14-1.73-4.09-3.86-4.15-1.89-.05-3.99,1.96-4.05,3.89-.06,2.01,1.78,3.94,3.85,4.01Z"/>
        <path d="m521.88,307.76c-.09,2.12,1.51,3.73,3.77,3.8,2.14.07,3.75-1.42,3.85-3.55.1-2.13-1.52-3.94-3.59-4.04-2.11-.1-3.94,1.63-4.03,3.79Z"/>
        <path d="m541.73,328.87c-.08,2.05,1.63,3.86,3.72,3.93,2.07.07,3.77-1.5,3.88-3.57.1-2.1-1.53-3.91-3.62-4-2.13-.09-3.88,1.52-3.97,3.64Z"/>
        <path d="m514.29,327.96c-.05,2,1.74,3.82,3.79,3.86,2.11.04,3.78-1.6,3.81-3.76.03-1.96-1.67-3.72-3.68-3.8-2.02-.08-3.88,1.67-3.92,3.7Z"/>
        <path d="m548.84,322.36c-.08,1.99,1.55,3.73,3.6,3.85,2.12.12,3.88-1.46,3.99-3.58.1-2.09-1.57-3.93-3.61-3.98-2-.04-3.89,1.72-3.97,3.71Z"/>
        <path d="m535.89,308.15c-.09,1.97,1.36,3.51,3.42,3.61,1.92.09,3.52-1.42,3.63-3.43.1-1.9-1.35-3.51-3.26-3.6-2.04-.1-3.7,1.4-3.79,3.42Z"/>
        <path d="m504.94,310.58c-1.79-.05-3.36,1.36-3.42,3.09-.07,1.9,1.29,3.38,3.19,3.47,1.88.08,3.4-1.31,3.46-3.18.07-1.93-1.25-3.31-3.23-3.37Z"/>
        <path d="m508.73,307.15c-.05,1.81,1.34,3.27,3.17,3.31,1.74.04,3.21-1.31,3.29-3.05.09-1.9-1.31-3.38-3.23-3.39-1.69-.02-3.19,1.43-3.24,3.13Z"/>
        <path d="m556.53,315.83c0,1.71,1.44,3.16,3.17,3.2,1.71.04,3.2-1.4,3.25-3.12.04-1.77-1.44-3.28-3.23-3.28-1.66,0-3.18,1.53-3.18,3.21Z"/>
        <path d="m562.27,329.65c.07-1.74-1.22-3.17-2.92-3.24-1.56-.07-3.22,1.45-3.27,3-.05,1.63,1.39,3.19,2.99,3.23,1.71.04,3.13-1.28,3.2-2.98Z"/>
        <path d="m535.46,335.55c-.05,1.69,1.19,2.96,2.93,3.01,1.69.05,2.97-1.21,2.99-2.93.02-1.6-1.24-2.92-2.84-2.97-1.66-.06-3.03,1.22-3.08,2.89Z"/>
        <path d="m550.22,308.63c-.09,1.55,1.17,2.91,2.79,3.02,1.47.09,2.95-1.26,3.04-2.8.09-1.45-1.2-2.91-2.65-3.02-1.59-.13-3.08,1.19-3.18,2.8Z"/>
        <path d="m521.85,335.07c-.03,1.52,1.37,2.95,2.9,2.95,1.47,0,2.81-1.32,2.85-2.82.05-1.47-1.29-2.93-2.72-2.97-1.5-.04-3.01,1.37-3.04,2.84Z"/>
        <path d="m563.53,322.78c-.09,1.51,1.25,2.94,2.82,3,1.4.05,2.82-1.31,2.9-2.78.07-1.34-1.23-2.8-2.59-2.93-1.45-.13-3.03,1.24-3.12,2.71Z"/>
        <path d="m552.08,338.78c1.55.07,2.73-1.01,2.79-2.57.06-1.5-1.1-2.75-2.59-2.82-1.42-.07-2.74,1.18-2.8,2.63-.06,1.55,1.01,2.68,2.6,2.76Z"/>
        <path d="m506.75,327.47c0-1.35-.92-2.28-2.33-2.32-1.41-.04-2.41.94-2.45,2.37-.03,1.37.99,2.39,2.41,2.4,1.39,0,2.35-.99,2.36-2.45Z"/>
        <path d="m530.42,301.09c-.04,1.37,1.01,2.43,2.4,2.43,1.32,0,2.31-.98,2.36-2.33.05-1.34-.9-2.35-2.25-2.42-1.4-.07-2.47.92-2.51,2.32Z"/>
        <path d="m516.74,300.52c-.07,1.23,1.03,2.42,2.28,2.45,1.18.04,2.32-1.02,2.4-2.2.08-1.23-1.01-2.38-2.29-2.45-1.15-.06-2.31,1.01-2.39,2.2Z"/>
        <path d="m497.79,322.74c1.09,0,2.34-1.27,2.29-2.32-.05-1.11-1.25-2.29-2.35-2.29-1.07,0-2.3,1.25-2.29,2.34,0,1.08,1.25,2.28,2.35,2.28Z"/>
        <path d="m546.55,303.86c1.07.01,2.23-1.13,2.24-2.19,0-1.09-1.25-2.31-2.34-2.28-.99.03-2.11,1.15-2.14,2.14-.03,1.19,1.05,2.31,2.24,2.33Z"/>
        <path d="m570.92,329.91c-.04,1.08.96,2.15,2.02,2.16.95,0,2.11-1.02,2.18-1.91.08-.99-1.14-2.27-2.15-2.26-.93,0-2.02,1.07-2.05,2.02Z"/>
        <path d="m508.96,334.42c-.08,1.02.85,2.13,1.84,2.21.97.07,2.14-.89,2.24-1.84.1-.96-1.02-2.18-2.02-2.22-.89-.04-1.99.96-2.06,1.85Z"/>
        <path d="m571.48,316.4c.08,1.05,1.15,2.04,2.11,1.87,1.08-.2,1.82-.84,1.89-1.98.06-.9-1.2-2.04-2.07-1.99-.96.05-2,1.18-1.93,2.11Z"/>
        <path d="m566.7,311.12c.97.06,2.15-.94,2.17-1.86.02-.82-1.06-1.98-1.89-2.03-.82-.05-2.02,1.01-2.06,1.83-.05.96.85,2,1.78,2.06Z"/>
        <path d="m565.71,338.49c.91.06,2.05-.87,2.15-1.75.09-.81-.94-2.01-1.81-2.11-.82-.1-2.05.94-2.11,1.78-.07.96.83,2.01,1.77,2.08Z"/>
        <path d="m545.04,340.99c-1.01.17-1.72.71-1.68,1.76.04,1.02.73,1.68,1.77,1.63.96-.04,1.62-.66,1.61-1.64-.01-1.02-.68-1.6-1.7-1.76Z"/>
        <path d="m531.34,343.92c.99-.13,1.67-.65,1.66-1.64,0-1.03-.65-1.73-1.7-1.72-.97,0-1.63.63-1.65,1.62-.02,1.07.69,1.6,1.68,1.75Z"/>
        <path d="m498.3,305.15c-.95.08-1.62.55-1.65,1.57-.03,1.03.59,1.55,1.59,1.6,1.04.05,1.63-.49,1.63-1.51,0-.97-.52-1.58-1.58-1.66Z"/>
      </g>
    </g>
    <g>
      <path d="m314.95,231.41c-7.06,0-13.67,1.94-19.32,5.3,1.4,2.01,2.23,4.45,2.23,7.08,0,6.84-5.54,12.38-12.38,12.38-2,0-3.88-.48-5.55-1.33-1.84,4.45-2.86,9.33-2.86,14.45,0,12.02,5.61,22.73,14.34,29.67,9.68-2.59,20.4-4.04,31.69-4.04,6.36,0,12.54.47,18.46,1.33,6.96-6.87,11.28-16.41,11.28-26.96,0-20.92-16.96-37.88-37.88-37.88Z"/>
      <g>
        <path d="m329.87,321.32c.08,2.59-1.93,4.68-4.6,4.77-2.46.09-4.68-2.04-4.73-4.51-.04-2.53,1.96-4.7,4.46-4.8,2.54-.11,4.78,1.98,4.87,4.54Z"/>
        <path d="m318.08,319.23c-2.46.08-4.53-1.87-4.56-4.3-.03-2.47,1.98-4.62,4.41-4.71,2.45-.1,4.59,1.84,4.68,4.23.1,2.71-1.78,4.7-4.53,4.78Z"/>
        <path d="m331.92,318.71c-2.65.07-4.43-1.68-4.51-4.42-.07-2.48,1.84-4.5,4.32-4.55,2.38-.05,4.65,2.1,4.71,4.45.07,2.51-1.87,4.44-4.52,4.51Z"/>
        <path d="m311.68,326.3c-2.54.11-4.47-1.66-4.58-4.22-.1-2.42,1.73-4.42,4.15-4.53,2.49-.11,4.55,1.74,4.66,4.2.12,2.58-1.61,4.44-4.23,4.55Z"/>
        <path d="m322.68,328.35c.08,2.18-1.74,4.14-3.93,4.23-2.13.09-4.16-1.83-4.22-3.98-.06-2.3,1.61-4.07,3.95-4.16,2.26-.09,4.12,1.64,4.21,3.91Z"/>
        <path d="m342.99,320.72c.1,2.14-1.81,4.17-3.97,4.22-2.05.05-4.04-1.88-4.1-3.96-.06-2.13,1.75-4.04,3.88-4.12,2.08-.07,4.1,1.78,4.19,3.86Z"/>
        <path d="m304.55,319.23c-2.08.08-3.98-1.68-4.06-3.76-.09-2.14,1.73-4.09,3.86-4.15,1.89-.05,3.99,1.96,4.05,3.89.06,2.01-1.78,3.94-3.85,4.01Z"/>
        <path d="m328.51,307.76c.09,2.12-1.51,3.73-3.77,3.8-2.14.07-3.75-1.42-3.85-3.55-.1-2.13,1.52-3.94,3.59-4.04,2.11-.1,3.94,1.63,4.03,3.79Z"/>
        <path d="m308.66,328.87c.08,2.05-1.63,3.86-3.72,3.93-2.07.07-3.77-1.5-3.88-3.57-.1-2.1,1.53-3.91,3.62-4,2.13-.09,3.88,1.52,3.97,3.64Z"/>
        <path d="m336.11,327.96c.05,2-1.74,3.82-3.79,3.86-2.11.04-3.78-1.6-3.81-3.76-.03-1.96,1.67-3.72,3.68-3.8,2.02-.08,3.88,1.67,3.92,3.7Z"/>
        <path d="m301.55,322.36c.08,1.99-1.55,3.73-3.6,3.85-2.12.12-3.88-1.46-3.99-3.58-.1-2.09,1.57-3.93,3.61-3.98,2-.04,3.89,1.72,3.97,3.71Z"/>
        <path d="m314.51,308.15c.09,1.97-1.36,3.51-3.42,3.61-1.92.09-3.52-1.42-3.63-3.43-.1-1.9,1.35-3.51,3.26-3.6,2.04-.1,3.7,1.4,3.79,3.42Z"/>
        <path d="m345.45,310.58c1.79-.05,3.36,1.36,3.42,3.09.07,1.9-1.29,3.38-3.19,3.47-1.88.08-3.4-1.31-3.46-3.18-.07-1.93,1.25-3.31,3.23-3.37Z"/>
        <path d="m341.66,307.15c.05,1.81-1.34,3.27-3.17,3.31-1.74.04-3.21-1.31-3.29-3.05-.09-1.9,1.31-3.38,3.23-3.39,1.69-.02,3.19,1.43,3.24,3.13Z"/>
        <path d="m293.87,315.83c0,1.71-1.44,3.16-3.17,3.2-1.71.04-3.2-1.4-3.25-3.12-.04-1.77,1.44-3.28,3.23-3.28,1.66,0,3.18,1.53,3.18,3.21Z"/>
        <path d="m288.12,329.65c-.07-1.74,1.22-3.17,2.92-3.24,1.56-.07,3.22,1.45,3.27,3,.05,1.63-1.39,3.19-2.99,3.23-1.71.04-3.13-1.28-3.2-2.98Z"/>
        <path d="m314.93,335.55c.05,1.69-1.19,2.96-2.93,3.01-1.69.05-2.97-1.21-2.99-2.93-.02-1.6,1.24-2.92,2.84-2.97,1.66-.06,3.03,1.22,3.08,2.89Z"/>
        <path d="m300.18,308.63c.09,1.55-1.17,2.91-2.79,3.02-1.47.09-2.95-1.26-3.04-2.8-.09-1.45,1.2-2.91,2.65-3.02,1.59-.13,3.08,1.19,3.18,2.8Z"/>
        <path d="m328.54,335.07c.03,1.52-1.37,2.95-2.9,2.95-1.47,0-2.81-1.32-2.85-2.82-.05-1.47,1.29-2.93,2.72-2.97,1.5-.04,3.01,1.37,3.04,2.84Z"/>
        <path d="m286.86,322.78c.09,1.51-1.25,2.94-2.82,3-1.4.05-2.82-1.31-2.9-2.78-.07-1.34,1.23-2.8,2.59-2.93,1.45-.13,3.03,1.24,3.12,2.71Z"/>
        <path d="m298.31,338.78c-1.55.07-2.73-1.01-2.79-2.57-.06-1.5,1.1-2.75,2.59-2.82,1.42-.07,2.74,1.18,2.8,2.63.06,1.55-1.01,2.68-2.6,2.76Z"/>
        <path d="m343.64,327.47c0-1.35.92-2.28,2.33-2.32,1.41-.04,2.41.94,2.45,2.37.03,1.37-.99,2.39-2.41,2.4-1.39,0-2.35-.99-2.36-2.45Z"/>
        <path d="m319.97,301.09c.04,1.37-1.01,2.43-2.4,2.43-1.32,0-2.31-.98-2.36-2.33-.05-1.34.9-2.35,2.25-2.42,1.4-.07,2.47.92,2.51,2.32Z"/>
        <path d="m333.65,300.52c.07,1.23-1.03,2.42-2.28,2.45-1.18.04-2.32-1.02-2.4-2.2-.08-1.23,1.01-2.38,2.29-2.45,1.15-.06,2.31,1.01,2.39,2.2Z"/>
        <path d="m352.6,322.74c-1.09,0-2.34-1.27-2.29-2.32.05-1.11,1.25-2.29,2.35-2.29,1.07,0,2.3,1.25,2.29,2.34,0,1.08-1.25,2.28-2.35,2.28Z"/>
        <path d="m303.84,303.86c-1.07.01-2.23-1.13-2.24-2.19,0-1.09,1.25-2.31,2.34-2.28.99.03,2.11,1.15,2.14,2.14.03,1.19-1.05,2.31-2.24,2.33Z"/>
        <path d="m279.48,329.91c.04,1.08-.96,2.15-2.02,2.16-.95,0-2.11-1.02-2.18-1.91-.08-.99,1.14-2.27,2.15-2.26.93,0,2.02,1.07,2.05,2.02Z"/>
        <path d="m341.43,334.42c.08,1.02-.85,2.13-1.84,2.21-.97.07-2.14-.89-2.24-1.84-.1-.96,1.02-2.18,2.02-2.22.89-.04,1.99.96,2.06,1.85Z"/>
        <path d="m278.91,316.4c-.08,1.05-1.15,2.04-2.11,1.87-1.08-.2-1.82-.84-1.89-1.98-.06-.9,1.2-2.04,2.07-1.99.96.05,2,1.18,1.93,2.11Z"/>
        <path d="m283.69,311.12c-.97.06-2.15-.94-2.17-1.86-.02-.82,1.06-1.98,1.89-2.03.82-.05,2.02,1.01,2.06,1.83.05.96-.85,2-1.78,2.06Z"/>
        <path d="m284.68,338.49c-.91.06-2.05-.87-2.15-1.75-.09-.81.94-2.01,1.81-2.11.82-.1,2.05.94,2.11,1.78.07.96-.83,2.01-1.77,2.08Z"/>
        <path d="m305.35,340.99c1.01.17,1.72.71,1.68,1.76-.04,1.02-.73,1.68-1.77,1.63-.96-.04-1.62-.66-1.61-1.64.01-1.02.68-1.6,1.7-1.76Z"/>
        <path d="m319.06,343.92c-.99-.13-1.67-.65-1.66-1.64,0-1.03.65-1.73,1.7-1.72.97,0,1.63.63,1.65,1.62.02,1.07-.69,1.6-1.68,1.75Z"/>
        <path d="m352.09,305.15c.95.08,1.62.55,1.65,1.57.03,1.03-.59,1.55-1.59,1.6-1.04.05-1.63-.49-1.63-1.51,0-.97.52-1.58,1.58-1.66Z"/>
      </g>
    </g>
  </g>
  <path d="m682.83,118.32c1.2,1.93,4.61,6.72,11.26,22.94,6.65,16.22,8.22,28.98,8.65,31.56s.21,7.22-4.43,4.85c-4.64-2.38-14.26-9.8-33.6-14.99-19.34-5.19-34.48-6.63-38.17-6.9-3.69-.27-3.2-4.91-.83-7.4s7.07-8.49,24.5-18.87c17.42-10.38,25.52-12.5,27.44-12.98s3.97-.13,5.17,1.79Z"/>
  <path d="m167.57,118.32c-1.2,1.93-4.61,6.72-11.26,22.94-6.65,16.22-8.22,28.98-8.65,31.56s-.21,7.22,4.43,4.85c4.64-2.38,14.26-9.8,33.6-14.99s34.48-6.63,38.17-6.9c3.69-.27,3.2-4.91.83-7.4s-7.07-8.49-24.5-18.87c-17.42-10.38-25.52-12.5-27.44-12.98s-3.97-.13-5.17,1.79Z"/>
</svg>