0
SECTION
2
HEADER
9
$INSUNITS
70
4
9
$ACADVER
1
AC1014
9
$HANDSEED
5
FFFF
0
ENDSEC
0
SECTION
2
TABLES
0
TABLE
2
VPORT
5
8
100
AcDbSymbolTable
0
ENDTAB
0
TABLE
2
LTYPE
5
5
100
AcDbSymbolTable
0
LTYPE
5
14
100
AcDbSymbolTableRecord
100
AcDbLinetypeTableRecord
2
BYBLOCK
70
0
0
LTYPE
5
15
100
AcDbSymbolTableRecord
100
AcDbLinetypeTableRecord
2
BYLAYER
70
0
0
ENDTAB
0
TABLE
2
LAYER
5
2
100
AcDbSymbolTable
70
2
0
LAYER
5
50
100
AcDbSymbolTableRecord
100
AcDbLayerTableRecord
2
0
70
0
6
CONTINUOUS
0
ENDTAB
0
TABLE
2
STYLE
5
3
100
AcDbSymbolTable
70
1
0
STYLE
5
11
100
AcDbSymbolTableRecord
100
AcDbTextStyleTableRecord
2
STANDARD
70
0
0
ENDTAB
0
TABLE
2
VIEW
5
6
100
AcDbSymbolTable
70
0
0
ENDTAB
0
TABLE
2
UCS
5
7
100
AcDbSymbolTable
70
0
0
ENDTAB
0
TABLE
2
APPID
5
9
100
AcDbSymbolTable
70
2
0
APPID
5
12
100
AcDbSymbolTableRecord
100
AcDbRegAppTableRecord
2
ACAD
70
0
0
ENDTAB
0
TABLE
2
DIMSTYLE
5
A
100
AcDbSymbolTable
70
1
0
ENDTAB
0
TABLE
2
BLOCK_RECORD
5
1
100
AcDbSymbolTable
70
1
0
BLOCK_RECORD
5
1F
100
AcDbSymbolTableRecord
100
AcDbBlockTableRecord
2
*MODEL_SPACE
0
BLOCK_RECORD
5
1B
100
AcDbSymbolTableRecord
100
AcDbBlockTableRecord
2
*PAPER_SPACE
0
ENDTAB
0
ENDSEC
0
SECTION
2
BLOCKS
0
BLOCK
5
20
100
AcDbEntity
100
AcDbBlockBegin
2
*MODEL_SPACE
0
ENDBLK
5
21
100
AcDbEntity
100
AcDbBlockEnd
0
BLOCK
5
1C
100
AcDbEntity
100
AcDbBlockBegin
2
*PAPER_SPACE
0
ENDBLK
5
1D
100
AcDbEntity
100
AcDbBlockEnd
0
ENDSEC
0
SECTION
2
ENTITIES
0
LINE
5
100
100
AcDbEntity
8
0
100
AcDbLine
10
-96.116453147733779
20
60.235138560631434
30
0
11
-96.69041370124647
21
57.969119433801112
31
0
0
ARC
5
101
100
AcDbEntity
8
0
100
AcDbCircle
10
24.483008623550138
20
27.277072872900654
30
0
40
125
210
0
220
0
230
1
100
AcDbArc
50
165.78646611853353
51
192.31712304417238
0
ARC
5
102
100
AcDbEntity
8
0
100
AcDbCircle
10
-4.6926676380569425
20
104.06333722947544
30
0
40
124.9999999999997
210
0
220
0
230
1
100
AcDbArc
50
260.00000000000102
51
269.99999999999994
0
LINE
5
103
100
AcDbEntity
8
0
100
AcDbLine
10
-55.589869938942073
20
-13.89043924801992
30
0
11
-26.398689846420929
21
-19.037631897050673
31
0
0
LINE
5
104
100
AcDbEntity
8
0
100
AcDbLine
10
-51.04878240821273
20
76.767635635264668
30
0
11
-45.740415570937962
21
77.115245543039421
31
0
0
ARC
5
105
100
AcDbEntity
8
0
100
AcDbCircle
10
-77.295892147310582
20
-136.99140837459021
30
0
40
125.00000000004398
210
0
220
-0
230
1
100
AcDbArc
50
80.00000000000253
51
84.999999999989882
0
ARC
5
106
100
AcDbEntity
8
0
100
AcDbCircle
10
3.5527136788005009e-14
20
-621.3887375403483
30
0
40
699.99999999997135
210
0
220
-0
230
1
100
AcDbArc
50
89.999999999999972
51
93.746573348696487
0
LINE
5
107
100
AcDbEntity
8
0
100
AcDbLine
10
-4.6926676380570242
20
-20.936662770524258
30
0
11
-4.1315630295875636e-16
21
-20.936662770524247
31
0
0
LINE
5
108
100
AcDbEntity
8
0
100
AcDbLine
10
-97.639724617486223
20
0.61177659217880986
30
0
11
-96.121423807364309
21
-6.3417949287280102
31
0
0
ARC
5
109
100
AcDbEntity
8
0
100
AcDbCircle
10
25.056969177059845
20
29.543091999732315
30
0
40
124.9999999999968
210
0
220
0
230
1
100
AcDbArc
50
156.92447363717474
51
165.78646611853378
0
ARC
5
110
100
AcDbEntity
8
0
100
AcDbCircle
10
-51.375499662290885
20
81.756949800146245
30
0
40
5.0000000000000009
210
0
220
0
230
1
100
AcDbArc
50
240.00000000000023
51
273.74657334869659
0
LINE
5
111
100
AcDbEntity
8
0
100
AcDbLine
10
-91.672293191461961
20
-10.25615656795779
30
0
11
-66.401424303827497
21
-12.467071113080106
31
0
0
CIRCLE
5
112
100
AcDbEntity
8
0
100
AcDbCircle
10
-82.087853504774614
20
93.377028909203389
30
0
40
1.0500000000000091
210
0
220
0
230
1
0
CIRCLE
5
113
100
AcDbEntity
8
0
100
AcDbCircle
10
-94.539238667601808
20
-9.0291160717850456
30
0
40
1.0499999999999998
210
0
220
0
230
1
0
LINE
5
114
100
AcDbEntity
8
0
100
AcDbLine
10
-91.672293191461961
20
-10.25615656795779
30
0
11
-94.360191310639223
21
-10.568740066130653
31
0
0
LINE
5
115
100
AcDbEntity
8
0
100
AcDbLine
10
-96.121423807364309
20
-6.3417949287280102
30
0
11
-96.089128274377231
21
-9.0476149044389551
31
0
0
LINE
5
116
100
AcDbEntity
8
0
100
AcDbLine
10
-53.875499662290871
20
77.426822781224033
30
0
11
-81.261358046735381
21
94.688289851136958
31
0
0
ARC
5
117
100
AcDbEntity
8
0
100
AcDbCircle
10
-82.087853504774614
20
93.377028909203389
30
0
40
1.549999999999998
210
0
220
-0
230
1
100
AcDbArc
50
57.776528663731767
51
157.40885334821698
0
ARC
5
118
100
AcDbEntity
8
0
100
AcDbCircle
10
-94.539238667601808
20
-9.0291160717850456
30
0
40
1.5500000000000105
210
0
220
0
230
1
100
AcDbArc
50
180.68382593571383
51
276.63329710845284
0
LWPOLYLINE
5
119
100
AcDbEntity
8
0
100
AcDbPolyline
90
1
70
1
43
0.0
10
3.730349362740526e-13
20
78.611262459623035
42
0
0
LINE
5
120
100
AcDbEntity
8
0
100
AcDbLine
10
-89.941655630102503
20
78.53611489545392
30
0
11
-83.518921365297004
21
93.972465537720552
31
0
0
ARC
5
121
100
AcDbEntity
8
0
100
AcDbCircle
10
-4.540772451343265e-12
20
-621.3887375403483
30
0
40
699.99999999997112
210
0
220
-0
230
1
100
AcDbArc
50
86.253426651303101
51
89.999999999999588
0
LINE
5
122
100
AcDbEntity
8
0
100
AcDbLine
10
51.048782408213462
20
76.767635635264284
30
0
11
45.740415570938694
21
77.11524554303908
31
0
0
ARC
5
123
100
AcDbEntity
8
0
100
AcDbCircle
10
51.375499662291652
20
81.756949800145847
30
0
40
5.0000000000000231
210
0
220
0
230
1
100
AcDbArc
50
266.25342665130296
51
299.99999999999943
0
LINE
5
124
100
AcDbEntity
8
0
100
AcDbLine
10
53.875499662291617
20
77.42682278122362
30
0
11
81.261358046736234
21
94.688289851136346
31
0
0
ARC
5
125
100
AcDbEntity
8
0
100
AcDbCircle
10
82.087853504775467
20
93.377028909202764
30
0
40
1.5500000000000118
210
0
220
-0
230
1
100
AcDbArc
50
22.591146651783014
51
122.22347133626795
0
LINE
5
126
100
AcDbEntity
8
0
100
AcDbLine
10
89.941655630103256
20
78.536114895453238
30
0
11
83.518921365297857
21
93.972465537719927
31
0
0
ARC
5
127
100
AcDbEntity
8
0
100
AcDbCircle
10
-25.056969177059464
20
29.543091999732503
30
0
40
124.99999999999676
210
0
220
-0
230
1
100
AcDbArc
50
14.213533881465802
51
23.075526362824842
0
LINE
5
128
100
AcDbEntity
8
0
100
AcDbLine
10
96.11645314773439
20
60.235138560630702
30
0
11
96.690413701247081
21
57.969119433800387
31
0
0
ARC
5
129
100
AcDbEntity
8
0
100
AcDbCircle
10
-24.483008623549772
20
27.277072872900842
30
0
40
125.00000000000003
210
0
220
0
230
1
100
AcDbArc
50
-12.31712304417281
51
14.213533881466063
0
LINE
5
130
100
AcDbEntity
8
0
100
AcDbLine
10
97.639724617486394
20
0.61177659217807712
30
0
11
96.121423807364422
21
-6.3417949287287323
31
0
0
LINE
5
131
100
AcDbEntity
8
0
100
AcDbLine
10
96.121423807364422
20
-6.3417949287287323
30
0
11
96.089128274377344
21
-9.0476149044396763
31
0
0
ARC
5
132
100
AcDbEntity
8
0
100
AcDbCircle
10
94.539238667601921
20
-9.0291160717857544
30
0
40
1.5500000000000078
210
0
220
0
230
1
100
AcDbArc
50
263.36670289154563
51
359.31617406428506
0
LINE
5
133
100
AcDbEntity
8
0
100
AcDbLine
10
91.672293191462032
20
-10.256156567958479
30
0
11
94.360191310639294
21
-10.568740066131362
31
0
0
LINE
5
134
100
AcDbEntity
8
0
100
AcDbLine
10
91.672293191462032
20
-10.256156567958479
30
0
11
66.401424303827568
21
-12.467071113080603
31
0
0
ARC
5
135
100
AcDbEntity
8
0
100
AcDbCircle
10
77.295892147309715
20
-136.99140837459078
30
0
40
125.000000000044
210
0
220
0
230
1
100
AcDbArc
50
95.000000000009678
51
99.999999999997058
0
LINE
5
136
100
AcDbEntity
8
0
100
AcDbLine
10
55.589869938942122
20
-13.890439248020336
30
0
11
26.39868984642095
21
-19.037631897050872
31
0
0
ARC
5
137
100
AcDbEntity
8
0
100
AcDbCircle
10
4.6926676380578787
20
104.06333722947539
30
0
40
124.9999999999997
210
0
220
0
230
1
100
AcDbArc
50
269.9999999999996
51
279.99999999999852
0
LINE
5
138
100
AcDbEntity
8
0
100
AcDbLine
10
4.6926676380570234
20
-20.936662770524293
30
0
11
-3.1344487139909336e-16
21
-20.936662770524247
31
0
0
CIRCLE
5
139
100
AcDbEntity
8
0
100
AcDbCircle
10
82.087853504775467
20
93.377028909202764
30
0
40
1.0500000000000091
210
0
220
0
230
1
0
CIRCLE
5
140
100
AcDbEntity
8
0
100
AcDbCircle
10
94.539238667601921
20
-9.0291160717857544
30
0
40
1.0499999999999998
210
0
220
0
230
1
0
ENDSEC
0
SECTION
2
OBJECTS
0
DICTIONARY
5
C
100
AcDbDictionary
3
ACAD_GROUP
350
D
3
ACAD_MLINESTYLE
350
17
0
DICTIONARY
5
D
100
AcDbDictionary
0
DICTIONARY
5
1A
330
C
100
AcDbDictionary
0
DICTIONARY
5
17
100
AcDbDictionary
0
ENDSEC
0
EOF
