0
SECTION
2
HEADER
9
$INSUNITS
70
4
9
$ACADVER
1
AC1014
9
$HANDSEED
5
FFFF
0
ENDSEC
0
SECTION
2
TABLES
0
TABLE
2
VPORT
5
8
100
AcDbSymbolTable
0
ENDTAB
0
TABLE
2
LTYPE
5
5
100
AcDbSymbolTable
0
LTYPE
5
14
100
AcDbSymbolTableRecord
100
AcDbLinetypeTableRecord
2
BYBLOCK
70
0
0
LTYPE
5
15
100
AcDbSymbolTableRecord
100
AcDbLinetypeTableRecord
2
BYLAYER
70
0
0
ENDTAB
0
TABLE
2
LAYER
5
2
100
AcDbSymbolTable
70
2
0
LAYER
5
50
100
AcDbSymbolTableRecord
100
AcDbLayerTableRecord
2
0
70
0
6
CONTINUOUS
0
ENDTAB
0
TABLE
2
STYLE
5
3
100
AcDbSymbolTable
70
1
0
STYLE
5
11
100
AcDbSymbolTableRecord
100
AcDbTextStyleTableRecord
2
STANDARD
70
0
0
ENDTAB
0
TABLE
2
VIEW
5
6
100
AcDbSymbolTable
70
0
0
ENDTAB
0
TABLE
2
UCS
5
7
100
AcDbSymbolTable
70
0
0
ENDTAB
0
TABLE
2
APPID
5
9
100
AcDbSymbolTable
70
2
0
APPID
5
12
100
AcDbSymbolTableRecord
100
AcDbRegAppTableRecord
2
ACAD
70
0
0
ENDTAB
0
TABLE
2
DIMSTYLE
5
A
100
AcDbSymbolTable
70
1
0
ENDTAB
0
TABLE
2
BLOCK_RECORD
5
1
100
AcDbSymbolTable
70
1
0
BLOCK_RECORD
5
1F
100
AcDbSymbolTableRecord
100
AcDbBlockTableRecord
2
*MODEL_SPACE
0
BLOCK_RECORD
5
1B
100
AcDbSymbolTableRecord
100
AcDbBlockTableRecord
2
*PAPER_SPACE
0
ENDTAB
0
ENDSEC
0
SECTION
2
BLOCKS
0
BLOCK
5
20
100
AcDbEntity
100
AcDbBlockBegin
2
*MODEL_SPACE
0
ENDBLK
5
21
100
AcDbEntity
100
AcDbBlockEnd
0
BLOCK
5
1C
100
AcDbEntity
100
AcDbBlockBegin
2
*PAPER_SPACE
0
ENDBLK
5
1D
100
AcDbEntity
100
AcDbBlockEnd
0
ENDSEC
0
SECTION
2
ENTITIES
0
LINE
5
100
100
AcDbEntity
8
0
100
AcDbLine
10
50.51265693572887
20
76.865999995070808
30
0
11
44.706302141840808
21
77.237588104447894
31
0
0
LINE
5
101
100
AcDbEntity
8
0
100
AcDbLine
10
53.453146840007619
20
77.597914420609072
30
0
11
80.698707193153879
21
94.370342244657891
31
0
0
LINE
5
102
100
AcDbEntity
8
0
100
AcDbLine
10
85.465582101665603
20
90.340304940831047
30
0
11
83.800748225849588
21
93.517879135594129
31
0
0
LINE
5
103
100
AcDbEntity
8
0
100
AcDbLine
10
100.66865009387368
20
5.1801119683261909
30
0
11
98.358329962012633
21
-10.558652122986045
31
0
0
LINE
5
104
100
AcDbEntity
8
0
100
AcDbLine
10
95.999827115455219
20
62.686546064661286
30
0
11
98.251604218435887
21
53.692310367298639
31
0
0
LINE
5
105
100
AcDbEntity
8
0
100
AcDbLine
10
84.766327494346584
20
-12.153393582902314
30
0
11
96.126471233816574
21
-12.438442218970806
31
0
0
LINE
5
106
100
AcDbEntity
8
0
100
AcDbLine
10
70.736347564767797
20
-12.589724389264006
30
0
11
66.466749575104373
21
-12.963265811173379
31
0
0
LINE
5
107
100
AcDbEntity
8
0
100
AcDbLine
10
4.5737452819738822
20
-21.465345296452849
30
0
11
-3.7247447865371637e-16
21
-21.465345296452846
31
0
0
LINE
5
108
100
AcDbEntity
8
0
100
AcDbLine
10
55.655195210219205
20
-14.386633946113337
30
0
11
26.279767490337733
21
-19.566314422979232
31
0
0
CIRCLE
5
109
100
AcDbEntity
8
0
100
AcDbCircle
10
96.181656246531929
20
-10.239134460977029
30
0
40
1.1000000000000085
210
0
220
0
230
1
0
CIRCLE
5
110
100
AcDbEntity
8
0
100
AcDbCircle
10
81.852017230019314
20
92.496875949560589
30
0
40
1.0999999999999943
210
0
220
0
230
1
0
LINE
5
111
100
AcDbEntity
8
0
100
AcDbLine
10
1.7347234759768071e-15
20
80.098648249724548
30
0
11
-3.7247447865371637e-16
21
-21.465345296452846
31
0
0
ARC
5
112
100
AcDbEntity
8
0
100
AcDbCircle
10
96.181656246531929
20
-10.239134460977029
30
0
40
2.2000000000000028
210
0
220
0
230
1
100
AcDbArc
50
268.56263636556719
51
351.64909482264284
0
ARC
5
113
100
AcDbEntity
8
0
100
AcDbCircle
10
81.852017230019314
20
92.496875949560589
30
0
40
2.2000000000000646
210
0
220
-0
230
1
100
AcDbArc
50
27.651496776064469
51
121.61654514295898
0
LINE
5
114
100
AcDbEntity
8
0
100
AcDbLine
10
-50.51265693572887
20
76.865999995070837
30
0
11
-44.706302141841462
21
77.237588104447852
31
0
0
LINE
5
115
100
AcDbEntity
8
0
100
AcDbLine
10
-53.453146840007648
20
77.597914420609115
30
0
11
-80.698707193153879
21
94.370342244657891
31
0
0
ARC
5
116
100
AcDbEntity
8
0
100
AcDbCircle
10
-81.852017230019314
20
92.496875949560589
30
0
40
2.2000000000000322
210
0
220
-0
230
1
100
AcDbArc
50
58.383454857041038
51
152.34850322393552
0
LINE
5
117
100
AcDbEntity
8
0
100
AcDbLine
10
-85.465582101665319
20
90.340304940831686
30
0
11
-83.800748225849588
21
93.517879135594129
31
0
0
LINE
5
118
100
AcDbEntity
8
0
100
AcDbLine
10
-95.999827115455076
20
62.686546064661968
30
0
11
-98.251604218435915
21
53.692310367298681
31
0
0
LINE
5
119
100
AcDbEntity
8
0
100
AcDbLine
10
-100.66865009387371
20
5.1801119683262371
30
0
11
-98.358329962012633
21
-10.558652122986043
31
0
0
ARC
5
120
100
AcDbEntity
8
0
100
AcDbCircle
10
-96.181656246531929
20
-10.239134460977031
30
0
40
2.2000000000000695
210
0
220
0
230
1
100
AcDbArc
50
188.35090517735705
51
271.43736363443281
0
LINE
5
121
100
AcDbEntity
8
0
100
AcDbLine
10
-84.766327494346726
20
-12.153393582902297
30
0
11
-96.126471233816574
21
-12.438442218970813
31
0
0
LINE
5
122
100
AcDbEntity
8
0
100
AcDbLine
10
-70.736347564767826
20
-12.589724389263965
30
0
11
-66.466749575104444
21
-12.963265811173343
31
0
0
LINE
5
123
100
AcDbEntity
8
0
100
AcDbLine
10
-55.655195210219574
20
-14.386633946113259
30
0
11
-26.279767490337413
21
-19.566314422979278
31
0
0
LINE
5
124
100
AcDbEntity
8
0
100
AcDbLine
10
-4.5737452819735669
20
-21.465345296452838
30
0
11
-3.7247447865371632e-16
21
-21.465345296452849
31
0
0
CIRCLE
5
125
100
AcDbEntity
8
0
100
AcDbCircle
10
-81.852017230019314
20
92.496875949560589
30
0
40
1.0999999999999943
210
0
220
0
230
1
0
CIRCLE
5
126
100
AcDbEntity
8
0
100
AcDbCircle
10
-96.181656246531929
20
-10.239134460977031
30
0
40
1.1000000000000085
210
0
220
0
230
1
0
ARC
5
127
100
AcDbEntity
8
0
100
AcDbCircle
10
0
20
-621.33334354735109
30
0
40
700.00000000004275
210
0
220
-0
230
1
100
AcDbArc
50
86.33824719110342
51
93.661752808896637
0
ARC
5
128
100
AcDbEntity
8
0
100
AcDbCircle
10
-50.831987665313449
20
81.855792364011947
30
0
40
4.9999999999999902
210
0
220
0
230
1
100
AcDbArc
50
238.38345485703999
51
273.66175280889684
0
ARC
5
129
100
AcDbEntity
8
0
100
AcDbCircle
10
50.831987665313449
20
81.855792364011833
30
0
40
4.999999999999913
210
0
220
0
230
1
100
AcDbArc
50
266.33824719110316
51
301.61654514296015
0
ARC
5
130
100
AcDbEntity
8
0
100
AcDbCircle
10
25.257769934143397
20
32.328760279838789
30
0
40
125
210
0
220
0
230
1
100
AcDbArc
50
152.34850322393652
51
165.94446338834885
0
ARC
5
131
100
AcDbEntity
8
0
100
AcDbCircle
10
23.005992831162558
20
23.334524582475446
30
0
40
125.00000000000003
210
0
220
0
230
1
100
AcDbArc
50
165.94446338834885
51
188.35090517735767
0
ARC
5
132
100
AcDbEntity
8
0
100
AcDbCircle
10
-23.005992831162594
20
23.334524582475453
30
0
40
125.00000000000001
210
-0
220
0
230
1
100
AcDbArc
50
-8.3509051773577347
51
14.055536611651156
0
ARC
5
133
100
AcDbEntity
8
0
100
AcDbCircle
10
-25.257769934130714
20
32.328760279843507
30
0
40
124.99999999998653
210
0
220
-0
230
1
100
AcDbArc
50
14.055536611650162
51
27.651496776063944
0
ARC
5
134
100
AcDbEntity
8
0
100
AcDbCircle
10
81.630815408247372
20
-137.11406165079435
30
0
40
125.00000000006388
210
0
220
-0
230
1
100
AcDbArc
50
88.562636365568125
51
95.000000000007716
0
ARC
5
135
100
AcDbEntity
8
0
100
AcDbCircle
10
77.361217418581262
20
-137.48760307261895
30
0
40
124.99999999997918
210
0
220
0
230
1
100
AcDbArc
50
95.000000000009862
51
99.999999999999716
0
ARC
5
136
100
AcDbEntity
8
0
100
AcDbCircle
10
4.573745281973725
20
103.53465470354513
30
0
40
124.99999999999798
210
0
220
0
230
1
100
AcDbArc
50
270.00000000000011
51
279.99999999999909
0
ARC
5
137
100
AcDbEntity
8
0
100
AcDbCircle
10
-4.5737452819728457
20
103.53465470355472
30
0
40
125.00000000000756
210
0
220
0
230
1
100
AcDbArc
50
260.00000000000142
51
269.99999999999972
0
ARC
5
138
100
AcDbEntity
8
0
100
AcDbCircle
10
-77.361217418581361
20
-137.48760307261918
30
0
40
124.99999999997945
210
0
220
-0
230
1
100
AcDbArc
50
80.000000000000441
51
84.999999999990138
0
ARC
5
139
100
AcDbEntity
8
0
100
AcDbCircle
10
-81.63081540824713
20
-137.11406165078989
30
0
40
125.00000000005942
210
0
220
-0
230
1
100
AcDbArc
50
84.999999999992241
51
91.437363634432074
0
ENDSEC
0
SECTION
2
OBJECTS
0
DICTIONARY
5
C
100
AcDbDictionary
3
ACAD_GROUP
350
D
3
ACAD_MLINESTYLE
350
17
0
DICTIONARY
5
D
100
AcDbDictionary
0
DICTIONARY
5
1A
330
C
100
AcDbDictionary
0
DICTIONARY
5
17
100
AcDbDictionary
0
ENDSEC
0
EOF
