0
SECTION
2
HEADER
9
$INSUNITS
70
4
9
$ACADVER
1
AC1014
9
$HANDSEED
5
FFFF
0
ENDSEC
0
SECTION
2
TABLES
0
TABLE
2
VPORT
5
8
100
AcDbSymbolTable
0
ENDTAB
0
TABLE
2
LTYPE
5
5
100
AcDbSymbolTable
0
LTYPE
5
14
100
AcDbSymbolTableRecord
100
AcDbLinetypeTableRecord
2
BYBLOCK
70
0
0
LTYPE
5
15
100
AcDbSymbolTableRecord
100
AcDbLinetypeTableRecord
2
BYLAYER
70
0
0
ENDTAB
0
TABLE
2
LAYER
5
2
100
AcDbSymbolTable
70
2
0
LAYER
5
50
100
AcDbSymbolTableRecord
100
AcDbLayerTableRecord
2
0
70
0
6
CONTINUOUS
0
ENDTAB
0
TABLE
2
STYLE
5
3
100
AcDbSymbolTable
70
1
0
STYLE
5
11
100
AcDbSymbolTableRecord
100
AcDbTextStyleTableRecord
2
STANDARD
70
0
0
ENDTAB
0
TABLE
2
VIEW
5
6
100
AcDbSymbolTable
70
0
0
ENDTAB
0
TABLE
2
UCS
5
7
100
AcDbSymbolTable
70
0
0
ENDTAB
0
TABLE
2
APPID
5
9
100
AcDbSymbolTable
70
2
0
APPID
5
12
100
AcDbSymbolTableRecord
100
AcDbRegAppTableRecord
2
ACAD
70
0
0
ENDTAB
0
TABLE
2
DIMSTYLE
5
A
100
AcDbSymbolTable
70
1
0
ENDTAB
0
TABLE
2
BLOCK_RECORD
5
1
100
AcDbSymbolTable
70
1
0
BLOCK_RECORD
5
1F
100
AcDbSymbolTableRecord
100
AcDbBlockTableRecord
2
*MODEL_SPACE
0
BLOCK_RECORD
5
1B
100
AcDbSymbolTableRecord
100
AcDbBlockTableRecord
2
*PAPER_SPACE
0
ENDTAB
0
ENDSEC
0
SECTION
2
BLOCKS
0
BLOCK
5
20
100
AcDbEntity
100
AcDbBlockBegin
2
*MODEL_SPACE
0
ENDBLK
5
21
100
AcDbEntity
100
AcDbBlockEnd
0
BLOCK
5
1C
100
AcDbEntity
100
AcDbBlockBegin
2
*PAPER_SPACE
0
ENDBLK
5
1D
100
AcDbEntity
100
AcDbBlockEnd
0
ENDSEC
0
SECTION
2
ENTITIES
0
LWPOLYLINE
5
100
100
AcDbEntity
8
0
100
AcDbPolyline
90
19
70
1
43
0.0
10
-26.398689846420929
20
-19.037631897050673
42
0.043660942908506986
10
-4.6926676380570242
20
-20.936662770524258
10
-4.1315630295876923e-16
20
-20.936662770524251
10
3.730349362740526e-13
20
78.611262459623035
42
0.016348966548372947
10
-45.740415570937962
20
77.115245543039421
10
-51.04878240821273
20
76.767635635264696
42
-0.14832070699712763
10
-53.875499662290871
20
77.426822781224033
10
-80.877611799941519
20
95.214231950753941
42
0.48107484195776112
10
-84.147043901370623
20
94.151454445047023
10
-90.753554609724873
20
76.584803067993604
42
0.034454350287695508
10
-96.116453147733779
20
60.235138560631434
10
-96.69041370124647
20
57.969119433801112
42
0.11628171637166938
10
-97.639724617486223
20
0.61177659217880986
10
-96.880574212425259
20
-2.8650091682746002
10
-96.738665273249168
20
-9.0793416267404776
42
0.40505409710990192
10
-94.558029840442629
20
-11.22903581846292
10
-79.036858747644743
20
-11.361613840518947
10
-66.401424303827795
20
-12.467071113080078
42
-0.021820077622094914
10
-55.589869938942073
20
-13.89043924801992
0
CIRCLE
5
101
100
AcDbEntity
8
0
100
AcDbCircle
10
-82.087853504774614
20
93.377028909203389
30
0
40
1.0999999999999912
210
0
220
0
230
1
0
CIRCLE
5
102
100
AcDbEntity
8
0
100
AcDbCircle
10
-94.539238667601808
20
-9.0291160717850456
30
0
40
1.0999999999999948
210
0
220
0
230
1
0
ARC
5
103
100
AcDbEntity
8
0
100
AcDbCircle
10
-4.5414736010852655e-12
20
-621.3887375403483
30
0
40
699.99999999997112
210
0
220
-0
230
1
100
AcDbArc
50
86.253426651303101
51
89.999999999999588
0
LINE
5
104
100
AcDbEntity
8
0
100
AcDbLine
10
51.048782408213462
20
76.767635635264298
30
0
11
45.740415570938694
21
77.11524554303908
31
0
0
ARC
5
105
100
AcDbEntity
8
0
100
AcDbCircle
10
51.375499662291652
20
81.756949800145847
30
0
40
5.0000000000000142
210
0
220
0
230
1
100
AcDbArc
50
266.25342665130296
51
299.99999999999926
0
LINE
5
106
100
AcDbEntity
8
0
100
AcDbLine
10
53.875499662291595
20
77.42682278122362
30
0
11
80.8776117999424
21
95.214231950753344
31
0
0
ARC
5
107
100
AcDbEntity
8
0
100
AcDbCircle
10
82.087853504775467
20
93.377028909202764
30
0
40
2.1999999999999846
210
0
220
-0
230
1
100
AcDbArc
50
20.610403455926477
51
123.37455055027489
0
LINE
5
108
100
AcDbEntity
8
0
100
AcDbLine
10
90.753554609725597
20
76.584803067992908
30
0
11
84.147043901371475
21
94.151454445046383
31
0
0
ARC
5
109
100
AcDbEntity
8
0
100
AcDbCircle
10
-25.056969177059464
20
29.543091999732507
30
0
40
124.99999999999676
210
0
220
-0
230
1
100
AcDbArc
50
14.213533881465802
51
22.106766940733564
0
LINE
5
110
100
AcDbEntity
8
0
100
AcDbLine
10
96.11645314773439
20
60.235138560630716
30
0
11
96.690413701247081
21
57.969119433800387
31
0
0
ARC
5
111
100
AcDbEntity
8
0
100
AcDbCircle
10
-24.483008623549772
20
27.277072872900838
30
0
40
125.00000000000003
210
0
220
0
230
1
100
AcDbArc
50
-12.31712304417281
51
14.213533881466063
0
LINE
5
112
100
AcDbEntity
8
0
100
AcDbLine
10
97.639724617486394
20
0.61177659217808156
30
0
11
96.880574212425401
21
-2.8650091682753231
31
0
0
LINE
5
113
100
AcDbEntity
8
0
100
AcDbLine
10
96.880574212425401
20
-2.8650091682753231
30
0
11
96.738665273249239
21
-9.079341626741213
31
0
0
ARC
5
114
100
AcDbEntity
8
0
100
AcDbCircle
10
94.539238667601893
20
-9.0291160717857633
30
0
40
2.1999999999999877
210
0
220
0
230
1
100
AcDbArc
50
270.48939453988947
51
358.69183529163047
0
LINE
5
115
100
AcDbEntity
8
0
100
AcDbLine
10
79.0368587476448
20
-11.361613840519533
30
0
11
94.5580298404427
21
-11.229035818463631
31
0
0
LINE
5
116
100
AcDbEntity
8
0
100
AcDbLine
10
79.0368587476448
20
-11.361613840519533
30
0
11
66.401424303827568
21
-12.467071113080594
31
0
0
ARC
5
117
100
AcDbEntity
8
0
100
AcDbCircle
10
77.295892147309715
20
-136.99140837459078
30
0
40
125.000000000044
210
0
220
0
230
1
100
AcDbArc
50
95.000000000009678
51
99.999999999997058
0
LINE
5
118
100
AcDbEntity
8
0
100
AcDbLine
10
55.589869938942122
20
-13.890439248020323
30
0
11
26.39868984642095
21
-19.037631897050879
31
0
0
ARC
5
119
100
AcDbEntity
8
0
100
AcDbCircle
10
4.6926676380578787
20
104.06333722947539
30
0
40
124.99999999999969
210
0
220
0
230
1
100
AcDbArc
50
269.9999999999996
51
279.99999999999852
0
LINE
5
120
100
AcDbEntity
8
0
100
AcDbLine
10
4.6926676380570234
20
-20.936662770524286
30
0
11
-4.1315630295876923e-16
21
-20.936662770524251
31
0
0
CIRCLE
5
121
100
AcDbEntity
8
0
100
AcDbCircle
10
82.087853504775467
20
93.377028909202764
30
0
40
1.0999999999999912
210
0
220
0
230
1
0
CIRCLE
5
122
100
AcDbEntity
8
0
100
AcDbCircle
10
94.539238667601893
20
-9.0291160717857633
30
0
40
1.0999999999999948
210
0
220
0
230
1
0
ENDSEC
0
SECTION
2
OBJECTS
0
DICTIONARY
5
C
100
AcDbDictionary
3
ACAD_GROUP
350
D
3
ACAD_MLINESTYLE
350
17
0
DICTIONARY
5
D
100
AcDbDictionary
0
DICTIONARY
5
1A
330
C
100
AcDbDictionary
0
DICTIONARY
5
17
100
AcDbDictionary
0
ENDSEC
0
EOF
