0
SECTION
2
HEADER
9
$INSUNITS
70
4
9
$ACADVER
1
AC1014
9
$HANDSEED
5
FFFF
0
ENDSEC
0
SECTION
2
TABLES
0
TABLE
2
VPORT
5
8
100
AcDbSymbolTable
0
ENDTAB
0
TABLE
2
LTYPE
5
5
100
AcDbSymbolTable
0
LTYPE
5
14
100
AcDbSymbolTableRecord
100
AcDbLinetypeTableRecord
2
BYBLOCK
70
0
0
LTYPE
5
15
100
AcDbSymbolTableRecord
100
AcDbLinetypeTableRecord
2
BYLAYER
70
0
0
ENDTAB
0
TABLE
2
LAYER
5
2
100
AcDbSymbolTable
70
2
0
LAYER
5
50
100
AcDbSymbolTableRecord
100
AcDbLayerTableRecord
2
0
70
0
6
CONTINUOUS
0
ENDTAB
0
TABLE
2
STYLE
5
3
100
AcDbSymbolTable
70
1
0
STYLE
5
11
100
AcDbSymbolTableRecord
100
AcDbTextStyleTableRecord
2
STANDARD
70
0
0
ENDTAB
0
TABLE
2
VIEW
5
6
100
AcDbSymbolTable
70
0
0
ENDTAB
0
TABLE
2
UCS
5
7
100
AcDbSymbolTable
70
0
0
ENDTAB
0
TABLE
2
APPID
5
9
100
AcDbSymbolTable
70
2
0
APPID
5
12
100
AcDbSymbolTableRecord
100
AcDbRegAppTableRecord
2
ACAD
70
0
0
ENDTAB
0
TABLE
2
DIMSTYLE
5
A
100
AcDbSymbolTable
70
1
0
ENDTAB
0
TABLE
2
BLOCK_RECORD
5
1
100
AcDbSymbolTable
70
1
0
BLOCK_RECORD
5
1F
100
AcDbSymbolTableRecord
100
AcDbBlockTableRecord
2
*MODEL_SPACE
0
BLOCK_RECORD
5
1B
100
AcDbSymbolTableRecord
100
AcDbBlockTableRecord
2
*PAPER_SPACE
0
ENDTAB
0
ENDSEC
0
SECTION
2
BLOCKS
0
BLOCK
5
20
100
AcDbEntity
100
AcDbBlockBegin
2
*MODEL_SPACE
0
ENDBLK
5
21
100
AcDbEntity
100
AcDbBlockEnd
0
BLOCK
5
1C
100
AcDbEntity
100
AcDbBlockBegin
2
*PAPER_SPACE
0
ENDBLK
5
1D
100
AcDbEntity
100
AcDbBlockEnd
0
ENDSEC
0
SECTION
2
ENTITIES
0
LINE
5
100
100
AcDbEntity
8
0
100
AcDbLine
10
97.639724617486237
20
0.611776592178776
30
0
11
96.880574212425259
21
-2.8650091682746321
31
0
0
LINE
5
101
100
AcDbEntity
8
0
100
AcDbLine
10
4.6926676380570731
20
-20.936662770524226
30
0
11
-3.6330058717892483e-16
21
-20.936662770524247
31
0
0
CIRCLE
5
102
100
AcDbEntity
8
0
100
AcDbCircle
10
-4.3380909910819147e-16
20
-25.00000037252903
30
0
40
2.5
210
0
220
0
230
1
0
ARC
5
103
100
AcDbEntity
8
0
100
AcDbCircle
10
77.295892147310582
20
-136.99140837459052
30
0
40
125.00000000004431
210
0
220
0
230
1
100
AcDbArc
50
95.000000000010104
51
99.999999999997613
0
LINE
5
104
100
AcDbEntity
8
0
100
AcDbLine
10
55.589869938941739
20
-13.890439248019963
30
0
11
26.398689846420922
21
-19.037631897050655
31
0
0
ARC
5
105
100
AcDbEntity
8
0
100
AcDbCircle
10
4.6926676380569363
20
104.06333722947558
30
0
40
124.9999999999998
210
-0
220
0
230
1
100
AcDbArc
50
270.00000000000006
51
279.99999999999898
0
ARC
5
106
100
AcDbEntity
8
0
100
AcDbCircle
10
51.375499662290878
20
81.756949800146245
30
0
40
5.0000000000000195
210
0
220
0
230
1
100
AcDbArc
50
266.25342665130347
51
299.99999999999994
0
LINE
5
107
100
AcDbEntity
8
0
100
AcDbLine
10
51.04878240821273
20
76.767635635264668
30
0
11
45.740415570939355
21
77.115245543039364
31
0
0
LINE
5
108
100
AcDbEntity
8
0
100
AcDbLine
10
96.116453147733665
20
60.235138560631896
30
0
11
96.690413701246513
21
57.969119433801062
31
0
0
ARC
5
109
100
AcDbEntity
8
0
100
AcDbCircle
10
-24.483008623550138
20
27.277072872900611
30
0
40
125.00000000000003
210
-0
220
0
230
1
100
AcDbArc
50
-12.317123044172353
51
14.213533881466477
0
ARC
5
110
100
AcDbEntity
8
0
100
AcDbCircle
10
3.5527136788005009e-14
20
-621.3887375403483
30
0
40
699.99999999997135
210
0
220
-0
230
1
100
AcDbArc
50
86.253426651303414
51
89.999999999999972
0
LINE
5
111
100
AcDbEntity
8
0
100
AcDbLine
10
79.036858747644743
20
-11.361613840518952
30
0
11
66.401424303827511
21
-12.467071113080106
31
0
0
LINE
5
112
100
AcDbEntity
8
0
100
AcDbLine
10
3.730349362740526e-13
20
78.611262459623021
30
0
11
-4.1315630295875636e-16
21
-20.936662770524247
31
0
0
CIRCLE
5
113
100
AcDbEntity
8
0
100
AcDbCircle
10
94.539238667601808
20
-9.0291160717850634
30
0
40
1.0999999999999963
210
0
220
0
230
1
0
CIRCLE
5
114
100
AcDbEntity
8
0
100
AcDbCircle
10
82.087853504774642
20
93.377028909203418
30
0
40
1.1000000000000032
210
0
220
0
230
1
0
LINE
5
115
100
AcDbEntity
8
0
100
AcDbLine
10
53.875499662290878
20
77.426822781224047
30
0
11
80.877611799941533
21
95.214231950753998
31
0
0
LINE
5
116
100
AcDbEntity
8
0
100
AcDbLine
10
90.753554609724674
20
76.584803067994002
30
0
11
84.147043901370694
21
94.151454445047008
31
0
0
ARC
5
117
100
AcDbEntity
8
0
100
AcDbCircle
10
-25.056969177062971
20
29.543091999731423
30
0
40
125.00000000000001
210
0
220
-0
230
1
100
AcDbArc
50
14.213533881466502
51
22.10676694073404
0
ARC
5
118
100
AcDbEntity
8
0
100
AcDbCircle
10
82.087853504774642
20
93.377028909203418
30
0
40
2.2000000000000055
210
0
220
-0
230
1
100
AcDbArc
50
20.610403455925411
51
123.37455055027581
0
LINE
5
119
100
AcDbEntity
8
0
100
AcDbLine
10
96.880574212425259
20
-2.8650091682746321
30
0
11
96.738665273249168
21
-9.0793416267403799
31
0
0
LINE
5
120
100
AcDbEntity
8
0
100
AcDbLine
10
79.036858747644743
20
-11.361613840518952
30
0
11
94.558029840442657
21
-11.229035818462936
31
0
0
ARC
5
121
100
AcDbEntity
8
0
100
AcDbCircle
10
94.539238667601808
20
-9.0291160717850634
30
0
40
2.1999999999999935
210
-0
220
0
230
1
100
AcDbArc
50
270.48939453989055
51
358.69183529163411
0
LINE
5
122
100
AcDbEntity
8
0
100
AcDbLine
10
-4.692667638057074
20
-20.93666277052418
30
0
11
-4.630120187386075e-16
21
-20.936662770524251
31
0
0
ARC
5
123
100
AcDbEntity
8
0
100
AcDbCircle
10
-4.6926676380559993
20
104.06333722947562
30
0
40
124.99999999999983
210
0
220
0
230
1
100
AcDbArc
50
260.00000000000063
51
269.99999999999949
0
LINE
5
124
100
AcDbEntity
8
0
100
AcDbLine
10
-55.589869938941689
20
-13.890439248019559
30
0
11
-26.398689846420904
21
-19.037631897050453
31
0
0
ARC
5
125
100
AcDbEntity
8
0
100
AcDbCircle
10
-77.295892147311463
20
-136.99140837458995
30
0
40
125.00000000004431
210
0
220
-0
230
1
100
AcDbArc
50
80.000000000001961
51
84.99999999998947
0
LINE
5
126
100
AcDbEntity
8
0
100
AcDbLine
10
-79.036858747644658
20
-11.361613840518361
30
0
11
-66.40142430382744
21
-12.4670711130796
31
0
0
LINE
5
127
100
AcDbEntity
8
0
100
AcDbLine
10
-79.036858747644658
20
-11.361613840518361
30
0
11
-94.558029840442572
21
-11.229035818462227
31
0
0
ARC
5
128
100
AcDbEntity
8
0
100
AcDbCircle
10
-94.539238667601751
20
-9.0291160717843599
30
0
40
2.199999999999998
210
0
220
0
230
1
100
AcDbArc
50
181.30816470836535
51
269.51060546011013
0
LINE
5
129
100
AcDbEntity
8
0
100
AcDbLine
10
-96.880574212425117
20
-2.8650091682739021
30
0
11
-96.738665273249097
21
-9.0793416267396498
31
0
0
LINE
5
130
100
AcDbEntity
8
0
100
AcDbLine
10
-97.639724617486067
20
0.61177659217950264
30
0
11
-96.880574212425117
21
-2.8650091682739021
31
0
0
ARC
5
131
100
AcDbEntity
8
0
100
AcDbCircle
10
24.483008623550504
20
27.27707287290043
30
0
40
125.00000000000001
210
0
220
0
230
1
100
AcDbArc
50
165.7864661185331
51
192.31712304417192
0
LINE
5
132
100
AcDbEntity
8
0
100
AcDbLine
10
-96.116453147733054
20
60.235138560632613
30
0
11
-96.690413701245902
21
57.969119433801794
31
0
0
ARC
5
133
100
AcDbEntity
8
0
100
AcDbCircle
10
25.056969177063351
20
29.543091999731239
30
0
40
125
210
0
220
0
230
1
100
AcDbArc
50
157.89323305926553
51
165.7864661185331
0
LINE
5
134
100
AcDbEntity
8
0
100
AcDbLine
10
-90.753554609723921
20
76.584803067994685
30
0
11
-84.147043901369841
21
94.151454445047619
31
0
0
ARC
5
135
100
AcDbEntity
8
0
100
AcDbCircle
10
-82.08785350477379
20
93.377028909204043
30
0
40
2.2000000000000162
210
0
220
-0
230
1
100
AcDbArc
50
56.625449449722851
51
159.38959654407495
0
LINE
5
136
100
AcDbEntity
8
0
100
AcDbLine
10
-53.875499662290153
20
77.426822781224459
30
0
11
-80.877611799940638
21
95.214231950754595
31
0
0
ARC
5
137
100
AcDbEntity
8
0
100
AcDbCircle
10
-51.37549966229011
20
81.756949800146629
30
0
40
4.9999999999999973
210
0
220
0
230
1
100
AcDbArc
50
239.99999999999943
51
273.74657334869607
0
LINE
5
138
100
AcDbEntity
8
0
100
AcDbLine
10
-51.048782408212006
20
76.767635635265052
30
0
11
-45.74041557093863
21
77.11524554303972
31
0
0
ARC
5
139
100
AcDbEntity
8
0
100
AcDbCircle
10
-4.5414736010852655e-12
20
-621.3887375403483
30
0
40
699.99999999997135
210
0
220
-0
230
1
100
AcDbArc
50
89.999999999999588
51
93.746573348696145
0
ENDSEC
0
SECTION
2
OBJECTS
0
DICTIONARY
5
C
100
AcDbDictionary
3
ACAD_GROUP
350
D
3
ACAD_MLINESTYLE
350
17
0
DICTIONARY
5
D
100
AcDbDictionary
0
DICTIONARY
5
1A
330
C
100
AcDbDictionary
0
DICTIONARY
5
17
100
AcDbDictionary
0
ENDSEC
0
EOF
