0
SECTION
2
HEADER
9
$INSUNITS
70
4
9
$ACADVER
1
AC1014
9
$HANDSEED
5
FFFF
0
ENDSEC
0
SECTION
2
TABLES
0
TABLE
2
VPORT
5
8
100
AcDbSymbolTable
0
ENDTAB
0
TABLE
2
LTYPE
5
5
100
AcDbSymbolTable
0
LTYPE
5
14
100
AcDbSymbolTableRecord
100
AcDbLinetypeTableRecord
2
BYBLOCK
70
0
0
LTYPE
5
15
100
AcDbSymbolTableRecord
100
AcDbLinetypeTableRecord
2
BYLAYER
70
0
0
ENDTAB
0
TABLE
2
LAYER
5
2
100
AcDbSymbolTable
70
2
0
LAYER
5
50
100
AcDbSymbolTableRecord
100
AcDbLayerTableRecord
2
0
70
0
6
CONTINUOUS
0
ENDTAB
0
TABLE
2
STYLE
5
3
100
AcDbSymbolTable
70
1
0
STYLE
5
11
100
AcDbSymbolTableRecord
100
AcDbTextStyleTableRecord
2
STANDARD
70
0
0
ENDTAB
0
TABLE
2
VIEW
5
6
100
AcDbSymbolTable
70
0
0
ENDTAB
0
TABLE
2
UCS
5
7
100
AcDbSymbolTable
70
0
0
ENDTAB
0
TABLE
2
APPID
5
9
100
AcDbSymbolTable
70
2
0
APPID
5
12
100
AcDbSymbolTableRecord
100
AcDbRegAppTableRecord
2
ACAD
70
0
0
ENDTAB
0
TABLE
2
DIMSTYLE
5
A
100
AcDbSymbolTable
70
1
0
ENDTAB
0
TABLE
2
BLOCK_RECORD
5
1
100
AcDbSymbolTable
70
1
0
BLOCK_RECORD
5
1F
100
AcDbSymbolTableRecord
100
AcDbBlockTableRecord
2
*MODEL_SPACE
0
BLOCK_RECORD
5
1B
100
AcDbSymbolTableRecord
100
AcDbBlockTableRecord
2
*PAPER_SPACE
0
ENDTAB
0
ENDSEC
0
SECTION
2
BLOCKS
0
BLOCK
5
20
100
AcDbEntity
100
AcDbBlockBegin
2
*MODEL_SPACE
0
ENDBLK
5
21
100
AcDbEntity
100
AcDbBlockEnd
0
BLOCK
5
1C
100
AcDbEntity
100
AcDbBlockBegin
2
*PAPER_SPACE
0
ENDBLK
5
1D
100
AcDbEntity
100
AcDbBlockEnd
0
ENDSEC
0
SECTION
2
ENTITIES
0
LINE
5
100
100
AcDbEntity
8
0
100
AcDbLine
10
4.3741818477209531
20
-20.485107102390053
30
0
11
-3.5546502899206413e-16
21
-20.485107102390057
31
0
0
LINE
5
101
100
AcDbEntity
8
0
100
AcDbLine
10
55.52454466764636
20
-13.394244549928567
30
0
11
26.080204056085712
21
-18.586076228916326
31
0
0
LINE
5
102
100
AcDbEntity
8
0
100
AcDbLine
10
91.438288810972196
20
-9.7747193796944227
30
0
11
66.336099032532815
21
-11.970876414988481
31
0
0
LINE
5
103
100
AcDbEntity
8
0
100
AcDbLine
10
97.252129324211552
20
0.38979230434776468
30
0
11
95.887419426874516
21
-5.8603577404646545
31
0
0
LINE
5
104
100
AcDbEntity
8
0
100
AcDbLine
10
95.776999325514737
20
59.823089827538226
30
0
11
96.302818407971841
21
57.747135145970098
31
0
0
LINE
5
105
100
AcDbEntity
8
0
100
AcDbLine
10
82.51204716156424
20
92.228090381022142
30
0
11
82.856752473771266
21
91.631043266640759
31
0
0
LINE
5
106
100
AcDbEntity
8
0
100
AcDbLine
10
54.773632876309755
20
77.368009964916354
30
0
11
81.14602175777982
21
92.594115784806547
31
0
0
LINE
5
107
100
AcDbEntity
8
0
100
AcDbLine
10
51.946915622231565
20
76.708822818957017
30
0
11
45.740415570938787
21
77.115245543039507
31
0
0
LINE
5
108
100
AcDbEntity
8
0
100
AcDbLine
10
-4.3741818477211343
20
-20.485107102390057
30
0
11
-3.9610556230834935e-16
21
-20.485107102390067
31
0
0
LINE
5
109
100
AcDbEntity
8
0
100
AcDbLine
10
-55.524544667645905
20
-13.39424454992864
30
0
11
-26.080204056085833
21
-18.586076228916319
31
0
0
LINE
5
110
100
AcDbEntity
8
0
100
AcDbLine
10
-91.43828881097221
20
-9.7747193796944192
30
0
11
-66.336099032532502
21
-11.970876414988494
31
0
0
LINE
5
111
100
AcDbEntity
8
0
100
AcDbLine
10
-97.252129324211566
20
0.38979230434767587
30
0
11
-95.887419426874516
21
-5.8603577404646661
31
0
0
LINE
5
112
100
AcDbEntity
8
0
100
AcDbLine
10
-95.776999325514709
20
59.823089827538354
30
0
11
-96.302818407971841
21
57.747135145969999
31
0
0
LINE
5
113
100
AcDbEntity
8
0
100
AcDbLine
10
-82.51204716156424
20
92.228090381022156
30
0
11
-82.856752473771166
21
91.631043266640944
31
0
0
LINE
5
114
100
AcDbEntity
8
0
100
AcDbLine
10
-54.773632876309755
20
77.36800996491634
30
0
11
-81.14602175777982
21
92.594115784806547
31
0
0
LINE
5
115
100
AcDbEntity
8
0
100
AcDbLine
10
-51.946915622231622
20
76.708822818956989
30
0
11
-45.740415570939092
21
77.115245543039421
31
0
0
CIRCLE
5
116
100
AcDbEntity
8
0
100
AcDbCircle
10
-4.3380909910819147e-16
20
-25.00000037252903
30
0
40
2.5
210
0
220
0
230
1
0
ARC
5
117
100
AcDbEntity
8
0
100
AcDbCircle
10
0
20
-621.38873754035251
30
0
40
699.99999999997567
210
0
220
-0
230
1
100
AcDbArc
50
86.253426651303485
51
93.746573348696543
0
ARC
5
118
100
AcDbEntity
8
0
100
AcDbCircle
10
-24.870603916824816
20
27.055088585069598
30
0
40
125.00000000000001
210
-0
220
0
230
1
100
AcDbArc
50
-12.317123044172353
51
14.213533881466502
0
ARC
5
119
100
AcDbEntity
8
0
100
AcDbCircle
10
24.870603916824781
20
27.05508858506952
30
0
40
125.00000000000001
210
0
220
0
230
1
100
AcDbArc
50
165.78646611853353
51
192.31712304417238
0
ARC
5
120
100
AcDbEntity
8
0
100
AcDbCircle
10
25.396422999281924
20
29.131043266637874
30
0
40
125.00000000000003
210
0
220
0
230
1
100
AcDbArc
50
149.99999999999841
51
165.78646611853353
0
ARC
5
121
100
AcDbEntity
8
0
100
AcDbCircle
10
-25.396422999284205
20
29.13104326663694
30
0
40
125.00000000000244
210
0
220
-0
230
1
100
AcDbArc
50
14.21353388146658
51
30.000000000001371
0
ARC
5
122
100
AcDbEntity
8
0
100
AcDbCircle
10
77.230566876011181
20
-136.49521367645482
30
0
40
124.99999999999999
210
0
220
0
230
1
100
AcDbArc
50
95.000000000009706
51
99.999999999999318
0
ARC
5
123
100
AcDbEntity
8
0
100
AcDbCircle
10
4.3741818477208732
20
104.51489289760994
30
0
40
125
210
0
220
0
230
1
100
AcDbArc
50
270.00000000000006
51
279.99999999999932
0
ARC
5
124
100
AcDbEntity
8
0
100
AcDbCircle
10
-4.3741818477209993
20
104.51489289760994
30
0
40
124.99999999999999
210
0
220
0
230
1
100
AcDbArc
50
260.00000000000068
51
269.99999999999994
0
ARC
5
125
100
AcDbEntity
8
0
100
AcDbCircle
10
-77.230566876012404
20
-136.49521367646327
30
0
40
125.00000000000854
210
0
220
-0
230
1
100
AcDbArc
50
80.000000000000597
51
84.999999999989925
0
ARC
5
126
100
AcDbEntity
8
0
100
AcDbCircle
10
81.646021757779835
20
91.728090381022156
30
0
40
0.99999999999997524
210
0
220
-0
230
1
100
AcDbArc
50
30.000000000000252
51
120.00000000000207
0
ARC
5
127
100
AcDbEntity
8
0
100
AcDbCircle
10
-81.646021757779835
20
91.728090381022128
30
0
40
0.99999999999999956
210
0
220
-0
230
1
100
AcDbArc
50
59.999999999998749
51
149.99999999999764
0
ARC
5
128
100
AcDbEntity
8
0
100
AcDbCircle
10
-52.273632876309755
20
81.698136983838538
30
0
40
5.0000000000000018
210
0
220
0
230
1
100
AcDbArc
50
240.00000000000003
51
273.74657334869636
0
ARC
5
129
100
AcDbEntity
8
0
100
AcDbCircle
10
52.273632876309783
20
81.698136983838495
30
0
40
4.9999999999999458
210
0
220
0
230
1
100
AcDbArc
50
266.25342665130262
51
300.00000000000006
0
ARC
5
130
100
AcDbEntity
8
0
100
AcDbCircle
10
91.002510097233099
20
-4.7937458892357885
30
0
40
4.9999999999999769
210
0
220
0
230
1
100
AcDbArc
50
275.00000000000932
51
347.68287695582762
0
ARC
5
131
100
AcDbEntity
8
0
100
AcDbCircle
10
-91.002510097233099
20
-4.7937458892357894
30
0
40
4.999999999999968
210
0
220
0
230
1
100
AcDbArc
50
192.31712304417249
51
264.99999999999051
0
ENDSEC
0
SECTION
2
OBJECTS
0
DICTIONARY
5
C
100
AcDbDictionary
3
ACAD_GROUP
350
D
3
ACAD_MLINESTYLE
350
17
0
DICTIONARY
5
D
100
AcDbDictionary
0
DICTIONARY
5
1A
330
C
100
AcDbDictionary
0
DICTIONARY
5
17
100
AcDbDictionary
0
ENDSEC
0
EOF
