0
SECTION
2
HEADER
9
$INSUNITS
70
4
9
$ACADVER
1
AC1014
9
$HANDSEED
5
FFFF
0
ENDSEC
0
SECTION
2
TABLES
0
TABLE
2
VPORT
5
8
100
AcDbSymbolTable
0
ENDTAB
0
TABLE
2
LTYPE
5
5
100
AcDbSymbolTable
0
LTYPE
5
14
100
AcDbSymbolTableRecord
100
AcDbLinetypeTableRecord
2
BYBLOCK
70
0
0
LTYPE
5
15
100
AcDbSymbolTableRecord
100
AcDbLinetypeTableRecord
2
BYLAYER
70
0
0
ENDTAB
0
TABLE
2
LAYER
5
2
100
AcDbSymbolTable
70
2
0
LAYER
5
50
100
AcDbSymbolTableRecord
100
AcDbLayerTableRecord
2
0
70
0
6
CONTINUOUS
0
ENDTAB
0
TABLE
2
STYLE
5
3
100
AcDbSymbolTable
70
1
0
STYLE
5
11
100
AcDbSymbolTableRecord
100
AcDbTextStyleTableRecord
2
STANDARD
70
0
0
ENDTAB
0
TABLE
2
VIEW
5
6
100
AcDbSymbolTable
70
0
0
ENDTAB
0
TABLE
2
UCS
5
7
100
AcDbSymbolTable
70
0
0
ENDTAB
0
TABLE
2
APPID
5
9
100
AcDbSymbolTable
70
2
0
APPID
5
12
100
AcDbSymbolTableRecord
100
AcDbRegAppTableRecord
2
ACAD
70
0
0
ENDTAB
0
TABLE
2
DIMSTYLE
5
A
100
AcDbSymbolTable
70
1
0
ENDTAB
0
TABLE
2
BLOCK_RECORD
5
1
100
AcDbSymbolTable
70
1
0
BLOCK_RECORD
5
1F
100
AcDbSymbolTableRecord
100
AcDbBlockTableRecord
2
*MODEL_SPACE
0
BLOCK_RECORD
5
1B
100
AcDbSymbolTableRecord
100
AcDbBlockTableRecord
2
*PAPER_SPACE
0
ENDTAB
0
ENDSEC
0
SECTION
2
BLOCKS
0
BLOCK
5
20
100
AcDbEntity
100
AcDbBlockBegin
2
*MODEL_SPACE
0
ENDBLK
5
21
100
AcDbEntity
100
AcDbBlockEnd
0
BLOCK
5
1C
100
AcDbEntity
100
AcDbBlockBegin
2
*PAPER_SPACE
0
ENDBLK
5
1D
100
AcDbEntity
100
AcDbBlockEnd
0
ENDSEC
0
SECTION
2
ENTITIES
0
LINE
5
100
100
AcDbEntity
8
0
100
AcDbLine
10
139.4566731178295
20
78.163174158388443
30
0
11
139.456673117788
21
0.0096810300021194177
31
0
0
LWPOLYLINE
5
101
100
AcDbEntity
8
0
100
AcDbPolyline
90
8
70
1
43
0.0
10
13.952019020342096
20
38.417183397409424
10
16.90403804068324
20
21.675451596208596
10
33.6457698418861
20
24.627470616554149
10
36.597788862232683
20
7.8857388153431724
10
19.856057061025574
20
4.9337197950009326
10
16.90403804068324
20
21.675451596208596
10
33.645769841891493
20
24.627470616560664
10
30.693750821538771
20
41.369202417743722
0
LWPOLYLINE
5
102
100
AcDbEntity
8
0
100
AcDbPolyline
90
8
70
1
43
0.0
10
84.59594346570141
20
36.358143089892778
10
83.114295838982912
20
53.293452957451059
10
66.178985971424765
20
51.811805330732732
10
83.114295838992746
20
53.293452957451919
10
81.63264821227844
20
70.228762825007422
10
64.697338344706566
20
68.747115198288057
10
66.178985971424765
20
51.811805330732732
10
67.660633598143122
20
34.876495463174372
0
LINE
5
103
100
AcDbEntity
8
0
100
AcDbLine
10
8.7908075193158264e-21
20
0.0096810299292965866
30
0
11
1.4029293963822172e-15
21
78.163174158391129
31
0
0
LWPOLYLINE
5
104
100
AcDbEntity
8
0
100
AcDbPolyline
90
3
70
1
43
0.0
10
62.677709449659361
20
54.04299358681741
10
50.932598894273397
20
38.456705444927827
10
64.598298242906097
20
40.377294238183346
0
LWPOLYLINE
5
105
100
AcDbEntity
8
0
100
AcDbPolyline
90
4
70
1
43
0.0
10
81.659833510433543
20
51.560092252107793
10
69.115095926692547
20
36.609856168517808
10
67.912346676768166
20
50.357343002183313
10
82.862582760358038
20
37.812605418442374
0
LINE
5
106
100
AcDbEntity
8
0
100
AcDbLine
10
70.711084594324134
20
0.0096810299662249983
30
0
11
63.873539930615323
21
78.163174158389893
31
0
0
LINE
5
107
100
AcDbEntity
8
0
100
AcDbLine
10
54.720251681373355
20
0.0096810299578675516
30
0
11
43.736494522096351
21
78.163174158390291
31
0
0
LWPOLYLINE
5
108
100
AcDbEntity
8
0
100
AcDbPolyline
90
4
70
1
43
0.0
10
47.838955511206962
20
32.818980208205602
10
45.442610659396365
20
46.409327199772818
10
31.852263667829092
20
44.012982347962392
10
34.248608519639667
20
30.422635356395148
0
LWPOLYLINE
5
109
100
AcDbEntity
8
0
100
AcDbPolyline
90
3
70
1
43
0.0
10
28.900244647484232
20
60.754714149167768
10
31.296589499295774
20
47.16436715760068
10
42.490591639053228
20
63.151059000978208
0
LWPOLYLINE
5
110
100
AcDbEntity
8
0
100
AcDbPolyline
90
12
70
1
43
0.0
10
102.83793032961839
20
33.301345879574512
10
102.54123942017586
20
50.29875669722945
10
85.543828602518374
20
50.002065787792553
10
85.247137693075757
20
66.999476605452671
10
102.24454851073273
20
67.296167514894677
10
102.54123942017549
20
50.29875669723075
10
85.543828602518374
20
50.002065787792553
10
85.84051951196065
20
33.004654970132279
10
102.83793032961918
20
33.301345879574257
10
103.13462123906041
20
16.303935061918338
10
86.137210421398791
20
16.007244152476552
10
85.84051951196065
20
33.004654970132279
0
LWPOLYLINE
5
111
100
AcDbEntity
8
0
100
AcDbPolyline
90
4
70
1
43
0.0
10
47.204904229494673
20
53.484156742009709
10
49.570846945820563
20
36.649599573400813
10
66.405404114431136
20
39.01554228972379
10
64.039461398102134
20
55.850099458339287
0
LINE
5
112
100
AcDbEntity
8
0
100
AcDbLine
10
37.986550351419936
20
0.0096810299491380016
30
0
11
24.205980876229116
21
78.163174158390675
31
0
0
LINE
5
113
100
AcDbEntity
8
0
100
AcDbLine
10
49.012010101017829
20
52.122404793560534
30
0
11
50.932598894273397
21
38.456705444927827
31
0
0
LWPOLYLINE
5
114
100
AcDbEntity
8
0
100
AcDbPolyline
90
3
70
1
43
0.0
10
15.805548509428892
20
37.119328076858544
10
18.20189336123871
20
23.528981085291171
10
31.792240352806552
20
25.925325937098368
0
LINE
5
115
100
AcDbEntity
8
0
100
AcDbLine
10
20.724297949361517
20
0.0096810299401252076
30
0
11
6.9437284741809613
21
78.163174158390987
31
0
0
LWPOLYLINE
5
116
100
AcDbEntity
8
0
100
AcDbPolyline
90
8
70
1
43
0.0
10
49.692485000293459
20
31.521124887653947
10
46.740465979951331
20
48.26285668886036
10
29.99873417874063
20
45.310837668513209
10
27.04671515839722
20
62.052569469717945
10
43.78844695960737
20
65.004588490066809
10
46.740465979949533
20
48.262856688860026
10
29.99873417874063
20
45.310837668513209
10
32.950753199069162
20
28.569105867304778
0
LINE
5
117
100
AcDbEntity
8
0
100
AcDbLine
10
86.416448924403085
20
0.0096810299744252443
30
0
11
85.052274627441733
21
78.163174158389495
31
0
0
LWPOLYLINE
5
118
100
AcDbEntity
8
0
100
AcDbPolyline
90
3
70
1
43
0.0
10
100.96940695822673
20
48.671076534682015
10
87.412351973910006
20
34.632335132682535
10
101.21025016706804
20
34.873178341523847
0
LINE
5
119
100
AcDbEntity
8
0
100
AcDbLine
10
29.395895500993731
20
39.515672928654958
30
0
11
18.20189336123871
21
23.528981085291171
31
0
0
LWPOLYLINE
5
120
100
AcDbEntity
8
0
100
AcDbPolyline
90
3
70
1
43
0.0
10
55.618817802828246
20
-11.302811365448147
10
53.222472951017892
20
2.2875356261186042
10
39.632125959451315
20
-0.10880922569150867
0
LWPOLYLINE
5
121
100
AcDbEntity
8
0
100
AcDbPolyline
90
3
70
1
43
0.0
10
80.178185883728474
20
68.495402119662131
10
67.633448299983996
20
53.545166036075074
10
81.380935133649771
20
54.747915285996186
0
LINE
5
122
100
AcDbEntity
8
0
100
AcDbLine
10
87.171508765068793
20
48.430233325840618
30
0
11
101.21025016706804
21
34.873178341523847
31
0
0
LINE
5
123
100
AcDbEntity
8
0
100
AcDbLine
10
87.171508765068793
20
48.430233325840618
30
0
11
87.412351973910006
21
34.632335132682535
31
0
0
LWPOLYLINE
5
124
100
AcDbEntity
8
0
100
AcDbPolyline
90
4
70
1
43
0.0
10
66.55756448966001
20
81.862064977237608
10
75.057564489668664
20
67.139633112886997
10
89.779996354004069
20
75.63963311288704
10
81.279996353995344
20
90.362064977237623
0
LWPOLYLINE
5
125
100
AcDbEntity
8
0
100
AcDbPolyline
90
4
70
1
43
0.0
10
68.743205135723699
20
81.27642433116732
10
75.643205135723733
20
69.325273758942089
10
87.594355707948907
20
76.225273758942208
10
80.694355707940119
20
88.176424331182488
0
LINE
5
126
100
AcDbEntity
8
0
100
AcDbLine
10
1.4029293963822172e-15
20
78.163174158391129
30
0
11
2.0703088686397787e-15
21
114.53750898701836
31
0
0
LINE
5
127
100
AcDbEntity
8
0
100
AcDbLine
10
49.012010101017829
20
52.122404793560534
30
0
11
64.598298242906097
21
40.377294238183346
31
0
0
LINE
5
128
100
AcDbEntity
8
0
100
AcDbLine
10
1.4029293963822172e-15
20
78.163174158391129
30
0
11
139.4566731178295
21
78.163174158388443
31
0
0
LWPOLYLINE
5
129
100
AcDbEntity
8
0
100
AcDbPolyline
90
4
70
1
43
0.0
10
52.644504020622911
20
14.779393086437745
10
49.692485000280158
20
31.521124887647755
10
32.950753199069162
20
28.569105867304778
10
35.902772219411936
20
11.82737406609478
0
LWPOLYLINE
5
130
100
AcDbEntity
8
0
100
AcDbPolyline
90
4
70
1
43
0.0
10
57.472347291915291
20
-12.60066668600035
10
54.520328271569305
20
4.1410651152054436
10
37.778596470364576
20
1.1890460948597972
10
40.730615490711024
20
-15.552685706345938
0
LINE
5
131
100
AcDbEntity
8
0
100
AcDbLine
10
53.222472951017892
20
2.2875356261186042
30
0
11
42.028470811261045
21
-13.699156217258913
31
0
0
LINE
5
132
100
AcDbEntity
8
0
100
AcDbLine
10
42.028470811261045
20
-13.699156217258913
30
0
11
55.618817802828246
21
-11.302811365448147
31
0
0
LINE
5
133
100
AcDbEntity
8
0
100
AcDbLine
10
51.377952817343854
20
35.287847624950722
30
0
11
53.298541610599358
21
21.622148276318001
31
0
0
LWPOLYLINE
5
134
100
AcDbEntity
8
0
100
AcDbPolyline
90
3
70
1
43
0.0
10
50.790974531535355
20
16.077248406994915
10
48.394629679725327
20
29.667595398562444
10
34.804282688156782
20
27.271250546751741
0
LINE
5
135
100
AcDbEntity
8
0
100
AcDbLine
10
39.632125959451315
20
-0.10880922569150867
30
0
11
42.028470811261045
21
-13.699156217258913
31
0
0
LINE
5
136
100
AcDbEntity
8
0
100
AcDbLine
10
4.1293154750010281e-19
20
0.0096810299293043755
30
0
11
139.456673117788
21
0.0096810300021194177
31
0
0
LWPOLYLINE
5
137
100
AcDbEntity
8
0
100
AcDbPolyline
90
4
70
1
43
0.0
10
49.570846945820563
20
36.649599573400813
10
51.936789662147334
20
19.815042404785789
10
68.771346830758262
20
22.1809851210988
10
66.405404114429402
20
39.015542289728714
0
LINE
5
138
100
AcDbEntity
8
0
100
AcDbLine
10
31.852263667829092
20
44.012982347962392
30
0
11
47.838955511206962
21
32.818980208205602
31
0
0
LINE
5
139
100
AcDbEntity
8
0
100
AcDbLine
10
45.442610659396365
20
46.409327199772818
30
0
11
34.248608519639667
21
30.422635356395148
31
0
0
LINE
5
140
100
AcDbEntity
8
0
100
AcDbLine
10
48.394629679725327
20
29.667595398562444
30
0
11
37.200627539968053
21
13.680903555184598
31
0
0
LWPOLYLINE
5
141
100
AcDbEntity
8
0
100
AcDbPolyline
90
3
70
1
43
0.0
10
87.709042883352197
20
17.634924315024801
10
101.50694107651023
20
17.875767523862532
10
101.2660978676696
20
31.673665717024054
0
LWPOLYLINE
5
142
100
AcDbEntity
8
0
100
AcDbPolyline
90
3
70
1
43
0.0
10
69.393994303486181
20
33.422033134626041
10
84.344230387071633
20
20.877295550884625
10
70.5967435534061
20
19.674546300960138
0
LINE
5
143
100
AcDbEntity
8
0
100
AcDbLine
10
31.296589499295774
20
47.16436715760068
30
0
11
44.886936490863043
21
49.560712009411191
31
0
0
LINE
5
144
100
AcDbEntity
8
0
100
AcDbLine
10
37.200627539968053
20
13.680903555184598
30
0
11
50.790974531535355
21
16.077248406994915
31
0
0
LINE
5
145
100
AcDbEntity
8
0
100
AcDbLine
10
69.115095926692547
20
36.609856168517808
30
0
11
82.862582760358038
21
37.812605418442374
31
0
0
LINE
5
146
100
AcDbEntity
8
0
100
AcDbLine
10
28.900244647484232
20
60.754714149167768
30
0
11
44.886936490863043
21
49.560712009411191
31
0
0
LWPOLYLINE
5
147
100
AcDbEntity
8
0
100
AcDbPolyline
90
4
70
1
43
0.0
10
86.07759109241465
20
19.422833222335246
10
84.595943465696308
20
36.358143089892266
10
67.660633598143122
20
34.876495463174372
10
69.142281224861605
20
17.941185595617235
0
LINE
5
148
100
AcDbEntity
8
0
100
AcDbLine
10
84.344230387071633
20
20.877295550884625
30
0
11
83.141481137144083
21
34.624782384546648
31
0
0
LINE
5
149
100
AcDbEntity
8
0
100
AcDbLine
10
87.468199674511098
20
31.432822508182817
30
0
11
87.709042883352197
21
17.634924315024801
31
0
0
LWPOLYLINE
5
150
100
AcDbEntity
8
0
100
AcDbPolyline
90
4
70
1
43
0.0
10
40.730615490711024
20
-15.552685706345938
10
37.778596470368846
20
1.1890460948624024
10
21.036864669163066
20
-1.7629729254835567
10
23.988883689505606
20
-18.504704726691685
0
LINE
5
151
100
AcDbEntity
8
0
100
AcDbLine
10
87.468199674511098
20
31.432822508182817
30
0
11
101.50694107651023
21
17.875767523862532
31
0
0
LINE
5
152
100
AcDbEntity
8
0
100
AcDbLine
10
101.2660978676696
20
31.673665717024054
30
0
11
87.468199674511098
21
31.432822508182817
31
0
0
LWPOLYLINE
5
153
100
AcDbEntity
8
0
100
AcDbPolyline
90
3
70
1
43
0.0
10
65.043652165976482
20
37.20843641820629
10
53.298541610599358
20
21.622148276318001
10
66.964240959232114
20
23.542737069573512
0
LINE
5
154
100
AcDbEntity
8
0
100
AcDbLine
10
83.141481137144083
20
34.624782384546648
30
0
11
70.5967435534061
21
19.674546300960138
31
0
0
LINE
5
155
100
AcDbEntity
8
0
100
AcDbLine
10
83.141481137144083
20
34.624782384546648
30
0
11
69.393994303486181
21
33.422033134626041
31
0
0
LWPOLYLINE
5
156
100
AcDbEntity
8
0
100
AcDbPolyline
90
4
70
1
43
0.0
10
86.573257834696889
20
-8.9738954237139588
10
85.091610207981091
20
7.9614144438439585
10
68.156300340420515
20
6.4797668171275555
10
69.637947967136554
20
-10.455543050430443
0
LWPOLYLINE
5
157
100
AcDbEntity
8
0
100
AcDbPolyline
90
3
70
1
43
0.0
10
22.890394158249727
20
-3.0608282460355225
10
25.28673901005692
20
-16.651175237603368
10
38.877086001623844
20
-14.25483038579096
0
LWPOLYLINE
5
158
100
AcDbEntity
8
0
100
AcDbPolyline
90
3
70
1
43
0.0
10
83.637147879431083
20
6.2280537385003019
10
69.889661045763958
20
5.0253044885779294
10
71.092410295687813
20
-8.7221823450876173
0
LWPOLYLINE
5
159
100
AcDbEntity
8
0
100
AcDbPolyline
90
3
70
1
43
0.0
10
34.744259373144637
20
9.1835941358993161
10
32.347914521337344
20
22.773941127467761
10
18.757567529770064
20
20.377596275657378
0
LINE
5
160
100
AcDbEntity
8
0
100
AcDbLine
10
32.347914521337344
20
22.773941127467761
30
0
11
21.153912381577253
21
6.787249284089544
31
0
0
LINE
5
161
100
AcDbEntity
8
0
100
AcDbLine
10
84.839897129353545
20
-7.5194330951659687
30
0
11
83.637147879431083
21
6.2280537385003019
31
0
0
CIRCLE
5
162
100
AcDbEntity
8
0
100
AcDbCircle
10
-4.3380909910819147e-16
20
-25.00000037252903
30
0
40
2.5
210
0
220
0
230
1
0
LINE
5
163
100
AcDbEntity
8
0
100
AcDbLine
10
69.889661045763958
20
5.0253044885779294
30
0
11
84.839897129353545
21
-7.5194330951659687
31
0
0
LINE
5
164
100
AcDbEntity
8
0
100
AcDbLine
10
36.480741149816623
20
-0.6644833942233469
30
0
11
25.28673901005692
21
-16.651175237603368
31
0
0
LINE
5
165
100
AcDbEntity
8
0
100
AcDbLine
10
34.804282688156782
20
27.271250546751741
30
0
11
37.200627539968053
21
13.680903555184598
31
0
0
LINE
5
166
100
AcDbEntity
8
0
100
AcDbLine
10
71.092410295687813
20
-8.7221823450876173
30
0
11
84.839897129353545
21
-7.5194330951659687
31
0
0
LINE
5
167
100
AcDbEntity
8
0
100
AcDbLine
10
0
20
0
30
0
11
-4.3380909910819147e-16
21
-25.00000037252903
31
0
0
LINE
5
168
100
AcDbEntity
8
0
100
AcDbLine
10
36.480741149816623
20
-0.6644833942233469
30
0
11
22.890394158249727
21
-3.0608282460355225
31
0
0
LINE
5
169
100
AcDbEntity
8
0
100
AcDbLine
10
18.757567529770064
20
20.377596275657378
30
0
11
21.153912381577253
21
6.787249284089544
31
0
0
LINE
5
170
100
AcDbEntity
8
0
100
AcDbLine
10
21.153912381577253
20
6.787249284089544
30
0
11
34.744259373144637
21
9.1835941358993161
31
0
0
LINE
5
171
100
AcDbEntity
8
0
100
AcDbLine
10
57.472347291915291
20
-12.60066668600035
30
0
11
69.637947967136554
21
-10.455543050430443
31
0
0
LINE
5
172
100
AcDbEntity
8
0
100
AcDbLine
10
38.877086001623844
20
-14.25483038579096
30
0
11
36.480741149816623
21
-0.6644833942233469
31
0
0
LINE
5
173
100
AcDbEntity
8
0
100
AcDbLine
10
51.377952817343854
20
35.287847624950722
30
0
11
66.964240959232114
21
23.542737069573512
31
0
0
LINE
5
174
100
AcDbEntity
8
0
100
AcDbLine
10
65.043652165976482
20
37.20843641820629
30
0
11
51.377952817343854
21
35.287847624950722
31
0
0
LWPOLYLINE
5
175
100
AcDbEntity
8
0
100
AcDbPolyline
90
3
70
1
43
0.0
10
60.31176673332137
20
70.877550755420927
10
48.566656177944296
20
55.291262613532624
10
62.232355526577024
20
57.21185140678827
0
LINE
5
176
100
AcDbEntity
8
0
100
AcDbLine
10
62.677709449659361
20
54.04299358681741
30
0
11
49.012010101017829
21
52.122404793560534
31
0
0
LWPOLYLINE
5
177
100
AcDbEntity
8
0
100
AcDbPolyline
90
4
70
1
43
0.0
10
47.204904229494673
20
53.484156742009709
10
64.039461398099945
20
55.850099458339066
10
61.673518681770275
20
72.68465662694166
10
44.838961513165508
20
70.318713910616353
0
LINE
5
178
100
AcDbEntity
8
0
100
AcDbLine
10
66.430699050050364
20
67.292652869739754
30
0
11
67.633448299983996
21
53.545166036075074
31
0
0
LINE
5
179
100
AcDbEntity
8
0
100
AcDbLine
10
46.646067384688635
20
68.956961962165309
30
0
11
62.232355526577024
21
57.21185140678827
31
0
0
LINE
5
180
100
AcDbEntity
8
0
100
AcDbLine
10
60.31176673332137
20
70.877550755420927
30
0
11
46.646067384688635
21
68.956961962165309
31
0
0
LINE
5
181
100
AcDbEntity
8
0
100
AcDbLine
10
44.886936490863043
20
49.560712009411191
30
0
11
42.490591639053228
21
63.151059000978208
31
0
0
LINE
5
182
100
AcDbEntity
8
0
100
AcDbLine
10
46.646067384688635
20
68.956961962165309
30
0
11
48.566656177944296
21
55.291262613532624
31
0
0
LWPOLYLINE
5
183
100
AcDbEntity
8
0
100
AcDbPolyline
90
4
70
1
43
0.0
10
86.874817855626077
20
65.427644143503244
10
100.91355925762505
20
51.870589159186665
10
87.115661064466934
20
51.629745950345139
10
100.67271604878938
20
65.668487352344428
0
LWPOLYLINE
5
184
100
AcDbEntity
8
0
100
AcDbPolyline
90
4
70
1
43
0.0
10
30.693750821552509
20
41.36920241775308
10
27.741731801200618
20
58.110934218963202
10
11
20
55.158915198617429
10
13.952019020342096
20
38.417183397409424
0
LWPOLYLINE
5
185
100
AcDbEntity
8
0
100
AcDbPolyline
90
3
70
1
43
0.0
10
26.443876480654467
20
56.257404729877294
10
12.853529489087027
20
53.861059878066051
10
28.840221332464306
20
42.667057738309026
0
LINE
5
186
100
AcDbEntity
8
0
100
AcDbLine
10
29.395895500993731
20
39.515672928654958
30
0
11
15.805548509428892
21
37.119328076858544
31
0
0
LINE
5
187
100
AcDbEntity
8
0
100
AcDbLine
10
86.874817855626077
20
65.427644143503244
30
0
11
87.115661064466934
21
51.629745950345139
31
0
0
LINE
5
188
100
AcDbEntity
8
0
100
AcDbLine
10
80.694355707940119
20
88.176424331182488
30
0
11
75.643205135723733
21
69.325273758942089
31
0
0
LINE
5
189
100
AcDbEntity
8
0
100
AcDbLine
10
12.853529489087027
20
53.861059878066051
30
0
11
15.249874340897026
21
40.270712886498679
31
0
0
LINE
5
190
100
AcDbEntity
8
0
100
AcDbLine
10
100.91355925762505
20
51.870589159186665
30
0
11
100.67271604878938
21
65.668487352344428
31
0
0
LINE
5
191
100
AcDbEntity
8
0
100
AcDbLine
10
100.96940695822673
20
48.671076534682015
30
0
11
87.171508765068793
21
48.430233325840618
31
0
0
LINE
5
192
100
AcDbEntity
8
0
100
AcDbLine
10
15.249874340897026
20
40.270712886498679
30
0
11
28.840221332464306
21
42.667057738309026
31
0
0
LINE
5
193
100
AcDbEntity
8
0
100
AcDbLine
10
81.659833510433543
20
51.560092252107793
30
0
11
67.912346676768166
21
50.357343002183313
31
0
0
LINE
5
194
100
AcDbEntity
8
0
100
AcDbLine
10
80.178185883728474
20
68.495402119662131
30
0
11
66.430699050050364
21
67.292652869739754
31
0
0
LINE
5
195
100
AcDbEntity
8
0
100
AcDbLine
10
26.443876480654467
20
56.257404729877294
30
0
11
15.249874340897026
21
40.270712886498679
31
0
0
LINE
5
196
100
AcDbEntity
8
0
100
AcDbLine
10
66.430699050050364
20
67.292652869739754
30
0
11
81.380935133649771
21
54.747915285996186
31
0
0
LINE
5
197
100
AcDbEntity
8
0
100
AcDbLine
10
68.743205135723699
20
81.27642433116732
30
0
11
87.594355707948907
21
76.225273758942208
31
0
0
LINE
5
198
100
AcDbEntity
8
0
100
AcDbLine
10
31.792240352806552
20
25.925325937098368
30
0
11
29.395895500993731
21
39.515672928654958
31
0
0
LWPOLYLINE
5
199
100
AcDbEntity
8
0
100
AcDbPolyline
90
3
70
1
43
0.0
10
88.145090296646401
20
-7.3462152611632217
10
101.94298848980449
20
-7.1053720523220232
10
87.904247087805985
20
6.4516829319949114
0
LWPOLYLINE
5
200
100
AcDbEntity
8
0
100
AcDbPolyline
90
4
70
1
43
0.0
10
103.5706686523549
20
-8.6772045142725744
10
103.2739777429133
20
8.3202063033839693
10
86.276566925255636
20
8.0235153939450736
10
86.573257834696889
20
-8.9738954237139588
0
LINE
5
201
100
AcDbEntity
8
0
100
AcDbLine
10
101.94298848980449
20
-7.1053720523220232
30
0
11
101.70214528096398
21
6.6925261408339924
31
0
0
LINE
5
202
100
AcDbEntity
8
0
100
AcDbLine
10
101.70214528096398
20
6.6925261408339924
30
0
11
88.145090296646401
21
-7.3462152611632217
31
0
0
LINE
5
203
100
AcDbEntity
8
0
100
AcDbLine
10
101.70214528096398
20
6.6925261408339924
30
0
11
87.904247087805985
21
6.4516829319949114
31
0
0
LWPOLYLINE
5
204
100
AcDbEntity
8
0
100
AcDbPolyline
90
4
70
1
43
0.0
10
-26.44387648065447
20
56.257404729877294
10
-15.249874340897026
20
40.270712886498686
10
-12.853529489087027
20
53.861059878066051
10
-28.84022133246431
20
42.667057738309033
0
LWPOLYLINE
5
205
100
AcDbEntity
8
0
100
AcDbPolyline
90
4
70
1
43
0.0
10
-19.856057061025581
20
4.9337197950009335
10
-36.597788862232683
20
7.8857388153431742
10
-33.6457698418861
20
24.627470616554149
10
-16.90403804068324
20
21.675451596208603
0
LWPOLYLINE
5
206
100
AcDbEntity
8
0
100
AcDbPolyline
90
3
70
1
43
0.0
10
-42.028470811261045
20
-13.69915621725891
10
-55.618817802828246
20
-11.302811365448145
10
-53.222472951017892
20
2.2875356261186077
0
LWPOLYLINE
5
207
100
AcDbEntity
8
0
100
AcDbPolyline
90
4
70
1
43
0.0
10
-29.998734178740634
20
45.310837668513209
10
-32.950753199069155
20
28.569105867304767
10
-49.692485000293452
20
31.521124887653936
10
-46.740465979951324
20
48.262856688860353
0
LINE
5
208
100
AcDbEntity
8
0
100
AcDbLine
10
-20.724297949361514
20
0.0096810299401181438
30
0
11
-6.9437284741809604
21
78.163174158391001
31
0
0
LWPOLYLINE
5
209
100
AcDbEntity
8
0
100
AcDbPolyline
90
3
70
1
43
0.0
10
-15.805548509428888
20
37.119328076858551
10
-18.201893361238707
20
23.528981085291175
10
-29.395895500993735
20
39.515672928654958
0
LWPOLYLINE
5
210
100
AcDbEntity
8
0
100
AcDbPolyline
90
3
70
1
43
0.0
10
-32.347914521337344
20
22.773941127467761
10
-18.757567529770064
20
20.377596275657382
10
-21.15391238157725
20
6.7872492840895475
0
LWPOLYLINE
5
211
100
AcDbEntity
8
0
100
AcDbPolyline
90
4
70
1
43
0.0
10
-32.950753199069155
20
28.569105867304767
10
-35.902772219411922
20
11.82737406609478
10
-52.644504020622918
20
14.779393086437748
10
-49.692485000280158
20
31.521124887647758
0
LWPOLYLINE
5
212
100
AcDbEntity
8
0
100
AcDbPolyline
90
3
70
1
43
0.0
10
-36.480741149816623
20
-0.66448339422334612
10
-22.890394158249727
20
-3.0608282460355212
10
-38.877086001623844
20
-14.25483038579096
0
LINE
5
213
100
AcDbEntity
8
0
100
AcDbLine
10
-34.744259373144637
20
9.1835941358993178
30
0
11
-32.347914521337344
21
22.773941127467761
31
0
0
LWPOLYLINE
5
214
100
AcDbEntity
8
0
100
AcDbPolyline
90
8
70
1
43
0.0
10
-16.90403804068324
20
21.675451596208603
10
-33.645769841891493
20
24.627470616560668
10
-30.693750821538764
20
41.369202417743722
10
-13.952019020342094
20
38.417183397409424
10
-10.999999999999998
20
55.158915198617422
10
-27.741731801200622
20
58.110934218963209
10
-30.693750821552513
20
41.369202417753073
10
-13.952019020342094
20
38.417183397409424
0
LINE
5
215
100
AcDbEntity
8
0
100
AcDbLine
10
-22.890394158249727
20
-3.0608282460355212
30
0
11
-25.28673901005692
21
-16.651175237603368
31
0
0
LINE
5
216
100
AcDbEntity
8
0
100
AcDbLine
10
1.4029293963822131e-15
20
78.163174158391115
30
0
11
-139.4566731178295
21
78.163174158388443
31
0
0
LWPOLYLINE
5
217
100
AcDbEntity
8
0
100
AcDbPolyline
90
4
70
1
43
0.0
10
-67.660633598143136
20
34.876495463174365
10
-69.14228122486162
20
17.941185595617235
10
-86.07759109241465
20
19.42283322233525
10
-84.595943465696308
20
36.358143089892266
0
LINE
5
218
100
AcDbEntity
8
0
100
AcDbLine
10
-1.0515686265716714e-17
20
0.0096810299292965866
30
0
11
-139.456673117788
21
0.009681030002116682
31
0
0
LWPOLYLINE
5
219
100
AcDbEntity
8
0
100
AcDbPolyline
90
4
70
1
43
0.0
10
-29.998734178740634
20
45.310837668513209
10
-46.740465979949533
20
48.262856688860026
10
-43.78844695960737
20
65.004588490066794
10
-27.046715158397213
20
62.052569469717938
0
LWPOLYLINE
5
220
100
AcDbEntity
8
0
100
AcDbPolyline
90
3
70
1
43
0.0
10
-84.344230387071633
20
20.877295550884632
10
-83.141481137144083
20
34.624782384546641
10
-70.5967435534061
20
19.674546300960142
0
LWPOLYLINE
5
221
100
AcDbEntity
8
0
100
AcDbPolyline
90
4
70
1
43
0.0
10
-85.840519511960622
20
33.004654970132286
10
-86.137210421398791
20
16.007244152476552
10
-103.13462123906042
20
16.303935061918338
10
-102.83793032961921
20
33.301345879574257
0
LWPOLYLINE
5
222
100
AcDbEntity
8
0
100
AcDbPolyline
90
4
70
1
43
0.0
10
-34.804282688156782
20
27.271250546751745
10
-50.79097453153534
20
16.077248406994915
10
-37.200627539968053
20
13.680903555184594
10
-48.394629679725327
20
29.667595398562444
0
LWPOLYLINE
5
223
100
AcDbEntity
8
0
100
AcDbPolyline
90
4
70
1
43
0.0
10
-67.660633598143136
20
34.876495463174365
10
-84.59594346570141
20
36.358143089892778
10
-83.114295838982912
20
53.293452957451059
10
-66.17898597142478
20
51.811805330732739
0
LWPOLYLINE
5
224
100
AcDbEntity
8
0
100
AcDbPolyline
90
4
70
1
43
0.0
10
-40.730615490711017
20
-15.55268570634594
10
-37.778596470368846
20
1.189046094862406
10
-21.036864669163066
20
-1.7629729254835556
10
-23.988883689505606
20
-18.504704726691685
0
LWPOLYLINE
5
225
100
AcDbEntity
8
0
100
AcDbPolyline
90
3
70
1
43
0.0
10
-34.24860851963966
20
30.422635356395137
10
-47.838955511206962
20
32.818980208205602
10
-45.442610659396365
20
46.409327199772818
0
LWPOLYLINE
5
226
100
AcDbEntity
8
0
100
AcDbPolyline
90
8
70
1
43
0.0
10
-68.771346830758276
20
22.180985121098796
10
-66.405404114429402
20
39.015542289728714
10
-49.57084694582057
20
36.649599573400813
10
-47.204904229494673
20
53.484156742009709
10
-64.039461398102134
20
55.850099458339287
10
-66.405404114431121
20
39.015542289723797
10
-49.57084694582057
20
36.649599573400813
10
-51.936789662147334
20
19.815042404785789
0
LWPOLYLINE
5
227
100
AcDbEntity
8
0
100
AcDbPolyline
90
3
70
1
43
0.0
10
-28.900244647484232
20
60.754714149167775
10
-44.886936490863043
20
49.560712009411183
10
-42.490591639053228
20
63.151059000978201
0
LWPOLYLINE
5
228
100
AcDbEntity
8
0
100
AcDbPolyline
90
4
70
1
43
0.0
10
-101.26609786766961
20
31.673665717024054
10
-87.468199674511098
20
31.432822508182813
10
-87.709042883352197
20
17.634924315024804
10
-101.50694107651023
20
17.875767523862535
0
LWPOLYLINE
5
229
100
AcDbEntity
8
0
100
AcDbPolyline
90
4
70
1
43
0.0
10
-37.778596470364576
20
1.1890460948597934
10
-40.730615490711024
20
-15.55268570634594
10
-57.472347291915298
20
-12.600666686000357
10
-54.520328271569312
20
4.1410651152054454
0
LWPOLYLINE
5
230
100
AcDbEntity
8
0
100
AcDbPolyline
90
4
70
1
43
0.0
10
-87.412351973910006
20
34.632335132682535
10
-101.21025016706804
20
34.873178341523847
10
-100.96940695822673
20
48.671076534682015
10
-87.171508765068808
20
48.430233325840618
0
LINE
5
231
100
AcDbEntity
8
0
100
AcDbLine
10
-87.468199674511098
20
31.432822508182813
30
0
11
-101.50694107651023
21
17.875767523862535
31
0
0
LINE
5
232
100
AcDbEntity
8
0
100
AcDbLine
10
-101.26609786766961
20
31.673665717024054
30
0
11
-87.709042883352197
21
17.634924315024804
31
0
0
LWPOLYLINE
5
233
100
AcDbEntity
8
0
100
AcDbPolyline
90
8
70
1
43
0.0
10
-85.840519511960622
20
33.004654970132286
10
-102.83793032961839
20
33.301345879574512
10
-102.54123942017586
20
50.29875669722945
10
-85.543828602518374
20
50.002065787792553
10
-85.247137693075743
20
66.999476605452671
10
-102.2445485107327
20
67.296167514894677
10
-102.54123942017546
20
50.29875669723075
10
-85.543828602518374
20
50.002065787792553
0
LINE
5
234
100
AcDbEntity
8
0
100
AcDbLine
10
-31.852263667829092
20
44.012982347962392
30
0
11
-47.838955511206962
21
32.818980208205602
31
0
0
LINE
5
235
100
AcDbEntity
8
0
100
AcDbLine
10
-31.29658949929577
20
47.164367157600687
30
0
11
-44.886936490863043
21
49.560712009411183
31
0
0
LWPOLYLINE
5
236
100
AcDbEntity
8
0
100
AcDbPolyline
90
4
70
1
43
0.0
10
-101.70214528096396
20
6.692526140833996
10
-88.145090296646416
20
-7.346215261163219
10
-101.94298848980446
20
-7.1053720523220187
10
-87.90424708780597
20
6.4516829319949176
0
LINE
5
237
100
AcDbEntity
8
0
100
AcDbLine
10
-101.94298848980446
20
-7.1053720523220179
30
0
11
-101.70214528096396
21
6.692526140833996
31
0
0
LWPOLYLINE
5
238
100
AcDbEntity
8
0
100
AcDbPolyline
90
4
70
1
43
0.0
10
-69.889661045763958
20
5.025304488577933
10
-71.092410295687813
20
-8.7221823450876137
10
-84.839897129353545
20
-7.519433095165966
10
-83.637147879431083
20
6.2280537385003045
0
LWPOLYLINE
5
239
100
AcDbEntity
8
0
100
AcDbPolyline
90
4
70
1
43
0.0
10
-68.156300340420529
20
6.4797668171275715
10
-69.637947967136569
20
-10.455543050430439
10
-86.573257834696904
20
-8.9738954237139552
10
-85.091610207981091
20
7.9614144438439602
0
LINE
5
240
100
AcDbEntity
8
0
100
AcDbLine
10
-21.15391238157725
20
6.7872492840895475
30
0
11
-34.744259373144637
21
9.1835941358993178
31
0
0
LINE
5
241
100
AcDbEntity
8
0
100
AcDbLine
10
-18.757567529770064
20
20.377596275657382
30
0
11
-34.744259373144637
21
9.1835941358993178
31
0
0
LINE
5
242
100
AcDbEntity
8
0
100
AcDbLine
10
-18.201893361238707
20
23.528981085291175
30
0
11
-31.792240352806552
21
25.925325937098368
31
0
0
LINE
5
243
100
AcDbEntity
8
0
100
AcDbLine
10
-34.804282688156782
20
27.271250546751745
30
0
11
-37.200627539968053
21
13.680903555184594
31
0
0
LINE
5
244
100
AcDbEntity
8
0
100
AcDbLine
10
-36.480741149816623
20
-0.66448339422334612
30
0
11
-25.28673901005692
21
-16.651175237603368
31
0
0
LINE
5
245
100
AcDbEntity
8
0
100
AcDbLine
10
-51.377952817343854
20
35.287847624950729
30
0
11
-53.298541610599358
21
21.622148276317997
31
0
0
LINE
5
246
100
AcDbEntity
8
0
100
AcDbLine
10
-26.44387648065447
20
56.257404729877294
30
0
11
-12.853529489087027
21
53.861059878066051
31
0
0
LINE
5
247
100
AcDbEntity
8
0
100
AcDbLine
10
-28.900244647484232
20
60.754714149167775
30
0
11
-31.29658949929577
21
47.164367157600687
31
0
0
LINE
5
248
100
AcDbEntity
8
0
100
AcDbLine
10
-15.805548509428888
20
37.119328076858551
30
0
11
-31.792240352806552
21
25.925325937098368
31
0
0
LINE
5
249
100
AcDbEntity
8
0
100
AcDbLine
10
-37.986550351419929
20
0.0096810299491320029
30
0
11
-24.205980876229113
21
78.16317415839066
31
0
0
LINE
5
250
100
AcDbEntity
8
0
100
AcDbLine
10
-31.792240352806552
20
25.925325937098368
30
0
11
-29.395895500993735
21
39.515672928654958
31
0
0
LINE
5
251
100
AcDbEntity
8
0
100
AcDbLine
10
-39.632125959451315
20
-0.10880922569151158
30
0
11
-42.028470811261045
21
-13.69915621725891
31
0
0
LINE
5
252
100
AcDbEntity
8
0
100
AcDbLine
10
-50.79097453153534
20
16.077248406994915
30
0
11
-48.394629679725327
21
29.667595398562444
31
0
0
LINE
5
253
100
AcDbEntity
8
0
100
AcDbLine
10
-53.222472951017892
20
2.2875356261186077
30
0
11
-39.632125959451315
21
-0.10880922569151158
31
0
0
LINE
5
254
100
AcDbEntity
8
0
100
AcDbLine
10
-39.632125959451315
20
-0.10880922569151158
30
0
11
-55.618817802828246
21
-11.302811365448145
31
0
0
LINE
5
255
100
AcDbEntity
8
0
100
AcDbLine
10
-83.141481137144083
20
34.624782384546641
30
0
11
-69.393994303486181
21
33.422033134626034
31
0
0
LINE
5
256
100
AcDbEntity
8
0
100
AcDbLine
10
-45.442610659396365
20
46.409327199772818
30
0
11
-31.852263667829092
21
44.012982347962392
31
0
0
LINE
5
257
100
AcDbEntity
8
0
100
AcDbLine
10
-15.249874340897026
20
40.270712886498686
30
0
11
-28.84022133246431
21
42.667057738309033
31
0
0
LINE
5
258
100
AcDbEntity
8
0
100
AcDbLine
10
-31.852263667829092
20
44.012982347962392
30
0
11
-34.24860851963966
21
30.422635356395137
31
0
0
LINE
5
259
100
AcDbEntity
8
0
100
AcDbLine
10
-69.393994303486181
20
33.422033134626034
30
0
11
-84.344230387071633
21
20.877295550884632
31
0
0
LWPOLYLINE
5
260
100
AcDbEntity
8
0
100
AcDbPolyline
90
3
70
1
43
0.0
10
-66.964240959232114
20
23.542737069573509
10
-65.043652165976482
20
37.20843641820629
10
-51.377952817343854
20
35.287847624950729
0
LINE
5
261
100
AcDbEntity
8
0
100
AcDbLine
10
-69.393994303486181
20
33.422033134626034
30
0
11
-70.5967435534061
21
19.674546300960142
31
0
0
LINE
5
262
100
AcDbEntity
8
0
100
AcDbLine
10
-42.490591639053228
20
63.151059000978201
30
0
11
-31.29658949929577
21
47.164367157600687
31
0
0
LINE
5
263
100
AcDbEntity
8
0
100
AcDbLine
10
-69.115095926692547
20
36.609856168517808
30
0
11
-82.862582760358038
21
37.812605418442374
31
0
0
LINE
5
264
100
AcDbEntity
8
0
100
AcDbLine
10
-25.28673901005692
20
-16.651175237603368
30
0
11
-38.877086001623844
21
-14.25483038579096
31
0
0
LINE
5
265
100
AcDbEntity
8
0
100
AcDbLine
10
-68.743205135723699
20
81.27642433116732
30
0
11
-75.643205135723733
21
69.325273758942089
31
0
0
LWPOLYLINE
5
266
100
AcDbEntity
8
0
100
AcDbPolyline
90
3
70
1
43
0.0
10
-67.912346676768166
20
50.357343002183327
10
-82.862582760358038
20
37.812605418442374
10
-81.659833510433529
20
51.560092252107793
0
LWPOLYLINE
5
267
100
AcDbEntity
8
0
100
AcDbPolyline
90
3
70
1
43
0.0
10
-49.012010101017829
20
52.122404793560534
10
-50.932598894273397
20
38.456705444927834
10
-64.598298242906083
20
40.377294238183346
0
LWPOLYLINE
5
268
100
AcDbEntity
8
0
100
AcDbPolyline
90
4
70
1
43
0.0
10
-83.114295838992746
20
53.293452957451912
10
-81.63264821227844
20
70.228762825007436
10
-64.69733834470658
20
68.747115198288043
10
-66.17898597142478
20
51.811805330732739
0
LINE
5
269
100
AcDbEntity
8
0
100
AcDbLine
10
-86.874817855626077
20
65.427644143503244
30
0
11
-100.91355925762505
21
51.870589159186679
31
0
0
LWPOLYLINE
5
270
100
AcDbEntity
8
0
100
AcDbPolyline
90
4
70
1
43
0.0
10
-100.91355925762505
20
51.870589159186679
10
-100.67271604878938
20
65.668487352344414
10
-86.874817855626077
20
65.427644143503244
10
-87.115661064466934
20
51.629745950345139
0
LWPOLYLINE
5
271
100
AcDbEntity
8
0
100
AcDbPolyline
90
4
70
1
43
0.0
10
-47.204904229494673
20
53.484156742009709
10
-64.039461398099945
20
55.850099458339066
10
-61.673518681770275
20
72.684656626941674
10
-44.838961513165508
20
70.318713910616339
0
LWPOLYLINE
5
272
100
AcDbEntity
8
0
100
AcDbPolyline
90
4
70
1
43
0.0
10
-89.779996354004069
20
75.63963311288704
10
-81.279996353995344
20
90.362064977237623
10
-66.55756448966001
20
81.862064977237608
10
-75.057564489668664
20
67.139633112886997
0
LWPOLYLINE
5
273
100
AcDbEntity
8
0
100
AcDbPolyline
90
3
70
1
43
0.0
10
-81.380935133649757
20
54.7479152859962
10
-80.178185883728474
20
68.495402119662131
10
-66.430699050050364
20
67.292652869739754
0
LINE
5
274
100
AcDbEntity
8
0
100
AcDbLine
10
-100.67271604878938
20
65.668487352344414
30
0
11
-87.115661064466934
21
51.629745950345139
31
0
0
LWPOLYLINE
5
275
100
AcDbEntity
8
0
100
AcDbPolyline
90
3
70
1
43
0.0
10
-87.594355707948907
20
76.225273758942208
10
-80.694355707940119
20
88.176424331182488
10
-68.743205135723699
20
81.27642433116732
0
LINE
5
276
100
AcDbEntity
8
0
100
AcDbLine
10
-80.694355707940119
20
88.176424331182488
30
0
11
-75.643205135723733
21
69.325273758942089
31
0
0
LINE
5
277
100
AcDbEntity
8
0
100
AcDbLine
10
-75.643205135723733
20
69.325273758942089
30
0
11
-87.594355707948907
21
76.225273758942208
31
0
0
LINE
5
278
100
AcDbEntity
8
0
100
AcDbLine
10
-86.416448924403056
20
0.0096810299744206438
30
0
11
-85.052274627441733
21
78.163174158389495
31
0
0
LINE
5
279
100
AcDbEntity
8
0
100
AcDbLine
10
-67.633448299983996
20
53.545166036075074
30
0
11
-81.380935133649757
21
54.7479152859962
31
0
0
LWPOLYLINE
5
280
100
AcDbEntity
8
0
100
AcDbPolyline
90
4
70
1
43
0.0
10
-86.276566925255636
20
8.0235153939450772
10
-86.573257834696989
20
-8.9738954237139552
10
-103.57066865235488
20
-8.6772045142725709
10
-103.27397774291333
20
8.320206303383971
0
LINE
5
281
100
AcDbEntity
8
0
100
AcDbLine
10
-80.178185883728474
20
68.495402119662131
30
0
11
-67.633448299983996
21
53.545166036075074
31
0
0
LINE
5
282
100
AcDbEntity
8
0
100
AcDbLine
10
-46.646067384688635
20
68.956961962165309
30
0
11
-62.232355526577024
21
57.211851406788277
31
0
0
LWPOLYLINE
5
283
100
AcDbEntity
8
0
100
AcDbPolyline
90
4
70
1
43
0.0
10
-62.232355526577024
20
57.211851406788277
10
-60.31176673332137
20
70.877550755420927
10
-46.646067384688635
20
68.956961962165309
10
-48.566656177944296
20
55.291262613532616
0
LINE
5
284
100
AcDbEntity
8
0
100
AcDbLine
10
-70.711084594324134
20
0.0096810299662197733
30
0
11
-63.873539930615323
21
78.163174158389893
31
0
0
LINE
5
285
100
AcDbEntity
8
0
100
AcDbLine
10
-62.677709449659375
20
54.042993586817403
30
0
11
-49.012010101017829
21
52.122404793560534
31
0
0
LINE
5
286
100
AcDbEntity
8
0
100
AcDbLine
10
-100.96940695822673
20
48.671076534682015
30
0
11
-87.412351973910006
21
34.632335132682535
31
0
0
LINE
5
287
100
AcDbEntity
8
0
100
AcDbLine
10
-60.31176673332137
20
70.877550755420927
30
0
11
-48.566656177944296
21
55.291262613532616
31
0
0
LINE
5
288
100
AcDbEntity
8
0
100
AcDbLine
10
-62.677709449659375
20
54.042993586817403
30
0
11
-50.932598894273397
21
38.456705444927834
31
0
0
LINE
5
289
100
AcDbEntity
8
0
100
AcDbLine
10
-67.912346676768166
20
50.357343002183327
30
0
11
-69.115095926692547
21
36.609856168517808
31
0
0
LINE
5
290
100
AcDbEntity
8
0
100
AcDbLine
10
-87.171508765068808
20
48.430233325840618
30
0
11
-101.21025016706804
21
34.873178341523847
31
0
0
LINE
5
291
100
AcDbEntity
8
0
100
AcDbLine
10
-57.472347291915298
20
-12.600666686000357
30
0
11
-69.637947967136569
21
-10.455543050430439
31
0
0
LINE
5
292
100
AcDbEntity
8
0
100
AcDbLine
10
-65.043652165976482
20
37.20843641820629
30
0
11
-53.298541610599358
21
21.622148276317997
31
0
0
LINE
5
293
100
AcDbEntity
8
0
100
AcDbLine
10
-66.430699050050364
20
67.292652869739754
30
0
11
-67.633448299983996
21
53.545166036075074
31
0
0
LINE
5
294
100
AcDbEntity
8
0
100
AcDbLine
10
-54.720251681373384
20
0.0096810299578697356
30
0
11
-43.736494522096372
21
78.163174158390277
31
0
0
LINE
5
295
100
AcDbEntity
8
0
100
AcDbLine
10
-53.298541610599358
20
21.622148276317997
30
0
11
-66.964240959232114
21
23.542737069573509
31
0
0
LINE
5
296
100
AcDbEntity
8
0
100
AcDbLine
10
-64.598298242906083
20
40.377294238183346
30
0
11
-62.677709449659375
21
54.042993586817403
31
0
0
LINE
5
297
100
AcDbEntity
8
0
100
AcDbLine
10
-69.889661045763958
20
5.025304488577933
30
0
11
-84.839897129353545
21
-7.519433095165966
31
0
0
LINE
5
298
100
AcDbEntity
8
0
100
AcDbLine
10
-87.90424708780597
20
6.4516829319949176
30
0
11
-88.145090296646416
21
-7.346215261163219
31
0
0
LINE
5
299
100
AcDbEntity
8
0
100
AcDbLine
10
-139.4566731178295
20
78.163174158388443
30
0
11
-139.456673117788
21
0.009681030002116682
31
0
0
LINE
5
300
100
AcDbEntity
8
0
100
AcDbLine
10
-81.659833510433529
20
51.560092252107793
30
0
11
-69.115095926692547
21
36.609856168517808
31
0
0
LINE
5
301
100
AcDbEntity
8
0
100
AcDbLine
10
-83.637147879431083
20
6.2280537385003045
30
0
11
-71.092410295687813
21
-8.7221823450876137
31
0
0
ENDSEC
0
SECTION
2
OBJECTS
0
DICTIONARY
5
C
100
AcDbDictionary
3
ACAD_GROUP
350
D
3
ACAD_MLINESTYLE
350
17
0
DICTIONARY
5
D
100
AcDbDictionary
0
DICTIONARY
5
1A
330
C
100
AcDbDictionary
0
DICTIONARY
5
17
100
AcDbDictionary
0
ENDSEC
0
EOF
